<?xml version="1.0" encoding="UTF-8"?><svg id="a" xmlns="http://www.w3.org/2000/svg" width="1254.12" height="1317.99" viewBox="0 0 1254.12 1317.99"><path d="M973.82,1317.93h-450.82c-3.06-2.36-2.66-5.78-2.68-9.01-.1-15.96,.01-31.92-.06-47.89-.04-8.66-1.05-9.65-9.59-9.73-4.23-.04-8.46,.01-12.69,.02-4.43,.02-6.81,1.98-6.94,6.56-.08,2.85,.08,5.86-2.6,7.89-3.73,2.89-13.28,3.84-16.9,1.7-2.95-1.74-3.11-4.68-3.17-7.59-.25-10.97-.05-21.95-.12-32.93-.01-1.73,.03-3.47-.17-5.19-.41-3.52-2.54-5-5.92-4.95-3.44,.05-5.37,1.77-5.67,5.23-.1,1.15-.12,2.31-.12,3.46-.02,15.41-.07,30.81,.02,46.22,.05,7.53,1.24,8.67,8.77,8.77,4.62,.06,9.24,.02,13.86-.03,4.24-.05,6.41-2.08,6.53-6.33,.09-3.3,.2-6.61,3.33-8.78,4.9-3.51,10.27-2.23,15.46-1.29,2.46,.45,3.57,2.76,3.68,5.26,.63,14.54,.48,29.08,.1,43.62-.05,2.05-.94,3.66-2.48,4.97h-190.73c-3.21-2.55-2.67-6.2-2.68-9.59-.11-23.08-.04-46.15-.05-69.23,0-4.23,.04-8.46-.02-12.69-.11-8.52-1.26-9.69-9.69-9.78-4.23-.05-8.46-.04-12.69,.05-4.5,.09-6.65,2.42-6.75,6.85-.05,2.31-.07,4.61-.07,6.92-.02,25.96,.05,51.92-.05,77.88-.01,3.39,.52,7.04-2.68,9.59h-52.02c-2.87-2.19-2.64-5.38-2.68-8.44-.13-11.17,.04-22.34-.1-33.51-.04-2.99-.37-5.86-3.89-6.92-4.47-1.34-7.7,1.08-7.84,6.35-.3,11.16-.01,22.34-.15,33.51-.04,3.23,.38,6.66-2.68,9.02H37.48c-2.46-1.86-2.63-4.58-2.65-7.3-.14-30.04-.22-60.07,.05-90.11,.07-7.58,1.69-8.96,9.34-9.27,5-.21,10.01-.05,15.02-.11,8.81-.11,10.12-1.33,10.16-9.98,.08-14.25,.01-28.5,.03-42.74,0-2.7-.04-5.39,.13-8.08,.42-6.61,1.78-7.99,8.43-8.39,3.85-.23,7.7-.13,11.55-.14q14.56-.02,14.57-14.85c.01-36.39-.02-72.78,.03-109.17,0-3.82-.42-7.73,1.2-11.4,.32-.69,.79-1.26,1.4-1.7,2.99-1.72,6.3-1.56,9.56-1.57,15.79-.07,31.57,.03,47.36-.06,8.52-.05,9.67-1.25,9.79-9.7,.09-5.77-.2-11.56,.22-17.32,.4-5.53,1.93-7.06,7.49-7.44,5.96-.41,11.93-.1,17.9-.22,7.61-.15,8.92-1.49,9.07-9.28,.1-5.58-.13-11.17,.16-16.75,.36-6.74,1.88-8.35,8.9-8.5,15.78-.34,31.57-.09,47.35-.13,12.68-.04,12.93-.28,12.97-12.93,.02-5-.14-10.01,.26-15.01,.27-3.49,1.84-6.14,5.49-6.3,15.77-.69,31.54-.85,47.31,.1,.77,.05,1.43,.53,2.05,1,3.61,5.26,2.53,11.1,1.64,16.73-.52,3.32-3.57,4.19-6.68,4.35-6.74,.34-13.48,.04-20.22,.23-2.8,.08-5.43,.45-6.53,3.63-1.53,4.41,.86,7.89,5.97,8.09,8.27,.33,16.56,.08,24.84,.12,2.5,.01,5.01-.01,7.51,.01,12.14,.09,16.64,6.65,12.56,18.29-1.14,3.24-3.69,4.16-6.8,4.31-6.35,.31-12.71,.05-19.06,.2-6.77,.17-8.03,1.42-8.17,8.23-.1,4.81-.08,9.63,.03,14.44,.09,4.22,2.17,6.38,6.43,6.46,5.39,.1,10.78,.08,16.17,.01,4.23-.05,6.41-2.11,6.52-6.36,.04-1.35,.17-2.69,.25-4.04,.24-4.09,2.26-6.45,6.45-6.64,8.85-.4,17.71-.39,26.56-.01,4.11,.18,6.36,2.32,6.66,6.47,.14,1.92,.21,3.85,.18,5.77-.15,8.46-1.21,9.6-9.55,10.28-6.47,.53-7.55,1.61-7.68,8.19-.11,5-.15,10.01,.07,15.02,.16,3.62,1.92,5.77,5.72,5.83,3.76,.07,5.68-1.87,5.96-5.56,.12-1.54,.22-3.07,.29-4.61,.22-4.45,2.62-6.6,6.99-6.77,1.15-.04,2.31-.19,3.46-.19,4.56-.01,6.38-2.41,6.74-6.83,.78-9.66,1.58-10.32,11.13-10.45,6.93-.09,13.87-.24,20.79,.11,6.11,.31,7.64,1.98,8.03,8.17,.12,1.92,.12,3.85,.02,5.78-.34,6.61-1.7,8.02-8.25,8.59-8.25,.71-8.32,.78-9.1,9.31-.57,6.24-1.85,7.49-8.22,8.03-8.31,.71-8.91,1.36-8.99,9.89-.04,4.04-.03,8.09,.03,12.13,.05,3.87,1.07,6.95,5.69,7.1,4.52,.14,6.05-2.59,6.15-6.61,.02-.77,.07-1.54,.13-2.31,.56-6.26,1.86-7.55,8.15-8.09,8.32-.71,8.44-.83,9.18-9.21,.55-6.31,1.83-7.58,8.12-8.13,8.38-.72,8.49-.83,9.22-9.17,.57-6.49,1.99-7.84,8.67-8.17,1.15-.06,2.31-.06,3.47-.04,8.96,.13,10.31,1.42,10.48,10.47,.13,6.93,.21,13.87-.06,20.8-.27,6.7-1.68,8.1-8.16,8.68-.38,.03-.77,.04-1.15,.07-5.9,.49-7.87,2.1-7.68,6.32,.23,5.11,3.83,5.57,7.74,5.58,10.21,.05,20.41,.12,30.62-.02,6.44-.09,7.83-1.46,7.93-7.86,.18-10.98-.05-21.95,.1-32.93,.13-9.88,1.54-11.18,11.59-11.13,.96,0,1.93,.01,2.89,.08,6.16,.4,7.87,1.93,8.1,8.1,.4,10.59,.1,21.18,.17,31.77,.01,2.12-.02,4.24,.13,6.35,.25,3.41,2.06,5.35,5.48,5.51,5.96,.29,11.94,.26,17.9,.02,3.75-.15,5.48-2.32,5.67-5.95,.14-2.68,.03-5.41,1.22-7.94,.26-.64,.65-1.18,1.17-1.63,4.72-2.47,9.76-1.68,14.72-1.27,3.34,.28,5.05,2.47,5.43,5.75,.22,1.92,.24,3.84,.38,5.76,.25,3.47,2.15,5.23,5.58,5.33,5.97,.18,11.93,.17,17.9,0,3.8-.11,5.5-2.22,5.63-5.89,.1-2.88,.03-5.8,1.42-8.47,.35-.61,.82-1.09,1.41-1.46,2.28-1.18,4.75-1.32,7.25-1.38,10.72-.23,11.6,.42,12.74,11.04,.45,4.22,2.49,6.06,6.62,6.26,2.98,.15,6.2-.46,8.74,1.88,2.95,5.02,2.15,10.46,1.45,15.76-.53,4-3.87,4.87-7.38,4.98-10.58,.32-21.17,.1-31.76,.14-12.13,.05-12.31,.21-12.33,12.22-.01,3.27-.1,6.55,.06,9.82,.27,5.43,1.62,6.9,6.9,7.12,5.19,.22,10.39,.08,15.59,.03,4.18-.04,6.49-1.95,6.63-6.24,.05-1.35,.18-2.69,.24-4.03,.21-4.42,2.54-6.61,6.93-6.83,6.54-.33,13.09-.04,19.63-.22,6.44-.18,7.72-1.45,7.88-7.91,.2-8.08-.21-16.17,.41-24.24-.66-7.7-.22-15.41-.41-23.11-.16-6.82-1.31-8.03-7.98-8.65-7.95-.75-9.06-1.95-9.25-10.04-.05-1.93,.04-3.85,.14-5.78,.21-4.1,2.21-6.47,6.41-6.68,8.86-.43,17.71-.41,26.57-.02,4.47,.2,6.5,2.71,6.74,7.04,.34,6.35,.06,12.71,.24,19.07,.19,6.51,1.38,7.76,7.67,8.35,8.31,.78,8.85,1.25,9.57,9.74,.34,4.04,1.28,7.44,6.22,7.25,4.98-.19,5.64-3.81,5.68-7.76,.12-11.37-.14-22.74,.13-34.1,.19-8.25,1.66-9.58,10.04-9.77,1.16-.03,2.31-.02,3.47,.03,7.27,.3,8.86,1.72,9.07,8.92,.32,10.78,.06,21.58,.13,32.36,.06,9.7,.92,10.56,10.57,10.62,3.66,.02,7.32,.11,10.98-.05,5.92-.26,7.46-1.73,7.58-7.76,.22-10.79-.07-21.58,.15-32.36,.08-3.9-1.1-8.9,3.61-10.71,5.05-1.94,10.66-1.87,15.83,.13,2.9,1.12,3.11,4.21,3.13,6.96,.12,15.22,.54,30.43-.23,45.63-.08,1.52,.24,3.04,.23,4.56-.13,11.67,1.57,10.98,11.47,10.99,3.62,0,7.25,.08,10.87-.04,5.72-.19,6.76-1.13,6.99-6.64,.12-2.86,.46-5.7,.45-8.57-.03-.97-.19-1.92-.26-2.88-.67-9.92-.66-10.01-10.74-11.32-4.1-.53-6.31-2.56-6.5-6.67-.4-8.85-.41-17.69,0-26.54,.19-4.16,2.48-6.25,6.6-6.49,2.11-.13,4.23-.21,6.34-.14,7.66,.24,8.9,1.43,9.54,9.11,.58,6.92,1.3,7.63,8.39,8.22,7.34,.61,8.61,1.86,8.9,9.15,.24,5.96-.04,11.93,.16,17.89,.2,5.8,1.59,7.27,7.15,7.49,5,.2,10,.05,15.01,.04,4.42-.01,6.88-1.94,6.94-6.54,.08-5.39,.1-10.77-.01-16.16-.09-4.24-2.29-6.21-6.47-6.49-3.53-.24-8.01,.68-9.63-3.54-1.97-5.1-1.75-10.62,0-15.82,.81-2.41,3.27-3.09,5.71-3.19,8.65-.38,17.31-.32,25.96-.04,4.7,.16,6.93,2.62,7.13,7.26,.28,6.35,.03,12.7,.21,19.05,.18,6.5,1.31,7.66,7.72,8.21,8.23,.7,8.8,1.28,9.56,9.75,.55,6.13,1.55,7.08,7.79,7.59,2.46,.2,5.05-.15,7.22,1.49,2.5,2.86,2.24,6.39,2.31,9.82,.11,5.56,.01,11.13,.07,16.7,.05,4.12,1.67,6.59,6.15,6.51,4.24-.08,5.6-2.59,5.67-6.38,.17-8.63-.24-17.27,.42-25.9-.17-11.2-1.49-22.41,.78-33.54,.26-.67,.67-1.24,1.21-1.71,4.72-2.48,9.76-1.68,14.72-1.26,3.05,.26,4.69,2.21,5.35,5.21,.79,3.61-1.08,8.19,2.91,10.64,3.39,2.08,7.57,.75,11.32,1.48,3.43-.08,6.86-.45,10.3-.49,3.63-.04,4.99-2.14,5.02-5.57,.04-3.53-.97-5.97-5.01-6.22-3.75-.23-7.74,.45-10.9-2.5-1.7-2.6-1.28-5.57-1.4-8.41-.19-4.25-2.29-6.08-6.47-6.48-9.87-.94-10.01-1.04-10.84-10.77-.39-4.58-2.64-6.27-7-6.6-9.5-.72-10.21-1.58-10.33-11.24-.08-7.11-.15-14.23,.11-21.34,.16-4.63,2.36-7.12,7.08-7.3,1.54-.06,3.07-.15,4.61-.14,9.07,.06,10.13,1.04,10.93,10.07,.47,5.32,2.19,7.2,6.35,7,4.69-.23,5.33-3.42,5.54-7.21,.46-8.02-1.16-16.15,1.23-24.07,.29-.64,.71-1.17,1.27-1.59,2.24-1.31,4.74-1.41,7.24-1.58,6.47-.45,7.44-1.48,7.58-8.16,.12-5.57-.03-11.15,.09-16.72,.06-2.9,.17-5.79,2.19-8.18,1.94-1.63,4.33-1.49,6.6-1.52,13.07-.19,26.15-.26,39.22,.01,7.6,.15,9.01,1.69,9.31,9.28,.23,5.96-.08,11.92,.18,17.88,.24,5.58,1.79,7.11,7.4,7.33,6.15,.24,12.31-.1,18.45,.2,6.83,.34,8.29,1.83,8.62,8.79,.26,5.38,.06,10.77,.14,16.15,.12,8.35,1.31,9.51,9.86,9.61,5.19,.06,10.38-.1,15.57,.11,7.32,.3,8.78,1.71,9.11,8.88,.26,5.57,.03,11.15,.15,16.73,.15,7.45,1.45,8.79,8.75,8.95,5.57,.12,11.15-.05,16.73,.12,2.52,.08,5.01,.27,7.05,2.03,1.94,4.92,2.11,10.1,2.12,15.29,.03,29.83,.01,59.67,.01,89.5,0,2.5-.04,5.01,.06,7.51,.27,6.44,.67,6.32,6.84,7.3,8.41,1.34,16.93-.41,25.26,1.42,2.78,2.03,2.35,5.12,2.4,7.92,.21,10.97,.02,21.95,.11,32.92,.07,8.05,.91,8.9,8.78,9.52,2.09,.17,4.28-.02,6.07,1.43,2.44,2.76,1.49,6.25,1.68,9.38,.25,4.1,1.32,6.33,5.94,6.57,2.79,.14,5.65,.83,8.5,1.19,4.03,2.45,3.54,6.6,3.61,10.32,.22,13.48,.09,26.97,.09,40.45,0,20.8,.07,41.61-.05,62.41-.02,3.39,.54,7.06-2.68,9.61h-208.07c-3.21-2.55-2.66-6.2-2.68-9.59-.11-21.15-.01-42.31-.06-63.46-.02-10.06-.85-10.86-10.85-10.91-3.65-.02-7.31-.12-10.96,.06-5.57,.27-7.18,1.76-7.31,7.39-.25,10.77-.06,21.54-.09,32.31-.03,11.92,.07,23.85-.06,35.77,.01,2.99,.21,6.18-2.63,8.37Z" style="fill:#28291b;"/><path d="M106.79,1005.7c.02,44.09-.02,88.19,.16,132.28,.02,5.05-1.56,6.87-6.63,6.64-7.3-.34-14.64,.14-21.94-.16-4.85-.2-6.33,1.66-6.28,6.38,.2,18.67-.11,37.36,.19,56.03,.09,5.69-1.88,7.43-7.33,7.11-6.52-.38-13.09-.1-19.63-.09q-7.81,.02-7.82,8.15c-.01,31.96,0,63.93,0,95.89H2.83c-3.89-3.45-2.34-8.09-2.67-12.31-.16-2.08,.21-4.16,.47-6.23,.58-6.47,.69-12.92-.21-19.41-.76-5.5-.4-11.04,.52-16.53-.39-18.01-1.17-36.02-.88-54.04,.16-10.15,.87-20.24,1.76-30.34,1.62-2.5,4.26-2.35,6.73-2.46,5.97-.27,11.94-.02,17.91-.16,6.79-.17,8.2-1.47,8.27-8.18,.17-14.06-.04-28.12,.18-42.18-.26-2.87-.14-5.75-.07-8.62,.23-8.71,1.5-10.02,10.04-10.28,5.55-.17,11.11,.05,16.67-.12,6.28-.2,7.7-1.62,7.87-7.94,.21-8.04-.2-16.09,.4-24.13-.57-11.54-.53-23.07-.02-34.6-.58-9.2-.33-18.41-.26-27.61,.02-2.71,.33-5.37,1.93-7.69,1.42-1.57,3.35-1.73,5.25-1.81,8.19-.33,16.39-.32,24.58-.02,2.12,.07,4.19,.41,5.49,2.43Z" style="fill:#0d0e0a;"/><path d="M1251.44,1216.2v67c2.12,2.06,2.16,4.87,2.32,7.46,.43,7.24,.33,14.5,.03,21.76-.09,2.21-.77,4.11-2.54,5.52h-34.68c0-38.12,.02-76.25-.04-114.37,0-2.52,1.05-5.58-2.29-7.1-3.47-2.12-7.12,.17-10.67-.45-1.63-.29-3.7,.33-3.71-2.34-.01-2.46,1.58-3.3,3.75-3.4,6.15-.29,12.2,.05,17.65,3.33,2.1,1.26,4.36,1.35,6.66,1.39,5.37,.08,10.75-.15,16.11,.18,3.01,.18,6.23-.04,8.58,2.53,1.84,6.3,2.55,12.54-1.17,18.49Z" style="fill:#0d0e0a;"/><path d="M280.25,1317.93v-95.89q0-8.13,8.39-8.15c5.97-.01,11.94-.01,17.91,0q8.36,.01,8.37,8.15c.01,31.96,0,63.93,.01,95.89h-34.68Z" style="fill:#0a0a0a;"/><path d="M973.82,1317.93c0-26.18,0-52.37,.01-78.55q0-8.13,8.38-8.14c5.97-.01,11.94-.01,17.9,0q8.37,.01,8.38,8.14c.01,26.18,0,52.37,.01,78.55h-34.68Z" style="fill:#0a0a0a;"/><path d="M488.39,1265.97c.1-5.54-1.87-12.7,.86-16.17,2.91-3.7,10.41-.92,15.89-1.18,4.41-.21,8.85,.22,13.24-.12,3.98-.31,4.71,1.34,4.69,4.93-.14,21.5-.07,43-.07,64.51h-17.34c0-15.75-.1-31.51,.09-47.26,.04-3.72-.96-5.12-4.81-4.83-4.2,.31-8.45,.02-12.67,0l.12,.12Z" style="fill:#f49b58;"/><path d="M210.89,1317.93c0-15.73,.1-31.47-.08-47.2-.04-3.62,.8-4.92,4.7-4.92,12.71,0,12.71-.17,12.71,12.4v39.72h-17.33Z" style="fill:#f49b58;"/><path d="M991.03,901.85c.04,10.14-.01,20.29,.19,30.43,.07,3.25-1,4.39-4.26,4.23-4.39-.21-8.8-.02-13.2,.01-2.82-2.21-2.63-5.4-2.66-8.45-.04-4.35-2.17-6.25-6.45-6.23-5.58,.03-11.15-.02-16.73,.02-4.02,.03-6.02,1.88-5.98,6,.03,4.19,2.26,5.79,6.18,5.84,6.15,.07,12.31-.02,18.46,.08,2.74,.04,5.41,.22,7.29,2.62-.02,10-.21,20.01,.03,30.01,.09,3.88-1.25,4.79-4.93,4.8-12.35,.03-12.49,.17-12.42-12.15,.02-3.76-.63-5.4-4.95-5.38-12.47,.04-12.47-.17-12.47,12.19,0,6.16,.09,12.32-.04,18.47-.06,2.74,.45,4.21,3.72,4.21,4.35,0,9.95-1.99,12.75,.91,2.76,2.87,.78,8.43,.83,12.8,.03,2.83,1.13,3.47,3.76,3.61,4.48,.25,10.47-2.22,13.02,1.33,2.12,2.96,.56,8.54,.64,12.96,.02,.96,.04,1.92,.06,2.88,3.63,5.18,3.61,12.36-.04,17.24-.57,.06-1.14,.16-1.7,.16-4.76-.03-10.51,1.55-14.02-.56-4.06-2.44-1.16-8.67-1.54-13.21-.23-2.73-1.1-3.65-3.75-3.57-4.57,.14-9.15,.06-13.72,.07-3.08-2.33-2.64-5.75-2.66-8.95-.02-4.17-2.05-5.73-6.08-5.73s-5.87,1.76-5.87,5.88,1.57,6.06,5.74,6.06c3.21,0,6.6-.36,8.99,2.61-.09,11.6-.18,23.19-.27,34.79-4.83,3.62-11.97,3.67-17.2,.12-4.43-.05-8.86-.24-13.28-.1-2.88,.09-4.08-.69-4.1-3.84-.03-4.35,2-9.88-.97-12.74-2.69-2.59-8.1-.83-12.28-.72-3.55,.1-4.1-1.45-4.05-4.48,.14-8.67-.08-17.34,.1-26,.07-3.2-.82-4.42-4.19-4.35-8.86,.2-17.72,.17-26.58,.02-2.96-.05-4.39,.82-3.96,3.91,.03,.19,.01,.38,0,.58-.37,12.7-.37,12.87,12.27,12.79,4.05-.02,5.29,1.09,5.15,5.17-.31,8.46-.22,16.95-.03,25.42,.08,3.28-.99,4.33-4.26,4.26-8.86-.19-17.72-.17-26.58-.01-3.04,.05-4-.98-3.95-3.99,.16-8.67-.06-17.34,.1-26,.06-3.21-.44-4.95-4.31-4.84-4.15,.11-9.51,1.92-12.19-.89-2.64-2.77-.79-8.08-.83-12.26-.02-2.8-.61-4.01-3.8-4.16-13.6-.63-13.59-.75-13.59,12.81,0,5.97,.11,11.95-.04,17.91-.07,2.86,.66,4.48,3.83,4.03,.19-.03,.38-.01,.58,0q13.11,.44,12.96,13.91c-.01,1.15-.12,2.31-.18,3.46-1.35,1.87-3.29,2.43-5.47,2.51-7.79,.29-15.57,.29-23.36,0-2.18-.08-4.12-.65-5.48-2.51-.06-15.59-.3-31.19-.07-46.77,.07-4.47-1.38-5.45-5.57-5.39-11.88,.17-11.88-.01-11.88,11.64s-.22,23.49,.11,35.23c.13,4.48-1.35,5.52-5.55,5.36-8.07-.32-16.18-.31-24.25,.01-4.18,.17-5.14-1.35-5.08-5.26,.22-13.86-.02-27.72,.18-41.58,.05-3.76-.63-5.4-4.95-5.39-12.47,.05-12.47-.15-12.47,12.2,0,11.55-.15,23.11,.07,34.65,.07,3.82-.69,5.39-4.96,5.38-12.29-.02-12.52,.17-12.33-12.23,.07-4.55-1.5-5.37-5.61-5.31-11.84,.16-11.85-.01-11.85-12.04,0-5.97-.16-11.94,.06-17.9,.12-3.33-.62-4.83-4.39-4.72-8.66,.26-17.33,.18-25.99,.02-3.08-.06-4.34,.66-4.44,4.11-.38,13.01-.52,13.13,12.54,13.19,3.63,.01,5.09,.85,4.97,4.78-.31,10-.21,20.01-.28,30.02-4.83,3.62-11.98,3.67-17.2,.12-4.43-.05-8.86-.24-13.28-.1-2.88,.09-4.08-.69-4.1-3.84-.03-4.35,2.07-10.11-.97-12.7-3.16-2.69-8.86-.58-13.44-.83-.96-.05-1.93,.03-2.89,.04-2.4-1.89-2.57-4.55-2.62-7.29-.1-6.15-.01-12.31-.08-18.46-.05-3.92-1.65-6.14-5.84-6.18-4.12-.03-5.97,1.96-6,5.98-.05,5.58,.01,11.15-.02,16.73-.02,4.28,1.87,6.41,6.22,6.45,3.05,.03,6.25-.17,8.45,2.66-.17,5.53,1.76,12.89-1.06,16.13-3.26,3.75-10.82,.96-16.5,1.23-4.41,.21-8.84-.1-13.25,.09-2.98,.12-3.97-.9-4.02-3.94-.07-4.33,2.11-10.37-1.02-12.56-3.14-2.2-8.84-.75-13.41-.88-.96-.03-1.92,.03-2.88,.05-2.4-1.89-2.57-4.55-2.61-7.3-.1-6.15-.01-12.31-.08-18.46-.05-3.92-1.65-6.14-5.84-6.18-4.12-.03-5.97,1.96-6,5.98-.05,5.58,.01,11.15-.02,16.73-.02,4.28,1.87,6.41,6.22,6.45,3.05,.03,6.25-.17,8.45,2.66-.02,4.24-.22,8.48-.01,12.71,.16,3.3-.57,4.87-4.36,4.76-8.66-.26-17.34-.26-26,.01-3.76,.12-4.45-1.34-4.42-4.7,.15-13.87-.1-27.75,.14-41.61,.07-4.32-.8-6.03-5.62-5.92-11.79,.29-11.79,.02-11.8,11.77,0,11.95-.12,23.89,.07,35.83,.05,3.5-.95,4.66-4.55,4.62-14.45-.18-28.9-.15-43.35-.01-3.28,.03-4.19-1.06-4.28-4.29-.35-12.82-.46-12.97,12.69-13.02,3.85-.02,4.91-1.21,4.8-4.92-.24-8.47-.26-16.96,0-25.43,.11-3.68-1.23-4.91-4.65-4.43-.19,.03-.38,.01-.58,0-12.07-.18-12.25-.18-12.09,11.86,.05,4.15-.84,5.68-5.36,5.6-11.96-.2-12.16,.04-11.97,11.82,.07,4.25-1,5.59-5.41,5.52-11.89-.2-12.1,.03-11.92,11.85,.07,4.32-1.13,5.55-5.47,5.48-11.98-.17-11.99,.03-11.98-12.16,0-5.97,.25-11.96-.08-17.91-.22-3.96,1.33-5.08,4.95-4.76,2.49,.22,5.04-.2,7.5,.1,4.23,.51,5.08-1.35,5.05-5.24-.08-11.93,.08-12.14,12.33-12.05,4.25,.03,5.03-1.48,5.01-5.32-.08-12.12,.07-12.12-11.99-12.12-6.16,0-12.33,.14-18.49-.06-3.19-.1-4.4,.83-4.37,4.19,.05,4.17,1.85,9.5-.84,12.25-2.71,2.76-8.05,.9-12.22,.88-3.27-.02-4.66,1.04-4.21,4.3,.05,.38,.01,.77,0,1.16-.13,13.12-.82,13.63-14.36,12.02-2.21-.26-2.99-1.01-2.98-3.16,.06-9.44,.09-18.88-.02-28.32-.03-2.59,1.06-3.46,3.45-3.25,.57,.05,1.16,.01,1.73,0,13.62-.2,13.54-.19,12.25-14.17-.24-2.59-1.23-3.21-3.55-3.19-9.25,.07-18.49,.07-27.74,0-2.35-.02-3.71,.61-3.46,3.23,.09,.95,.01,1.93,0,2.89q-.05,11.24-11.02,11.24c-6.36,0-12.72-.15-19.07,.07-3.4,.12-4.78-.78-4.67-4.49,.26-8.47,.25-16.96,0-25.43-.11-3.74,1-5.04,4.83-4.92,8.47,.25,16.96-.08,25.43,.16,3.53,.1,4.56-.96,4.6-4.54,.15-12.87,.3-12.87-12.38-12.87-11.75,0-23.51-.14-35.25,.06-3.59,.06-4.52-1.05-4.56-4.57-.13-12.84-.27-12.84,12.41-12.84,6.16,0,12.33-.14,18.49,.05,3.09,.1,4.01-1.07,3.9-4.03-.16-4.42,.04-8.86,.08-13.29,1.41-2.78,4.11-2.66,6.55-2.67,26.58-.09,53.16-.53,79.73,.21,24.82-.77,49.65-.16,74.48-.35,5.97-.05,11.94,.06,17.9-.04,7.72-.12,9.08-1.45,9.17-9.15,.12-10.59-.04-21.18,.08-31.76,.04-3.07-.04-6.2,2-8.83,5.58-3.68,11.75-1.81,17.71-1.87,5.86-.39,11.71-.5,17.57,0,5.79-.43,11.58-.48,17.37,0,5.78-.44,11.56-.47,17.34,0,5.78-.44,11.56-.47,17.34,0,5.78-.44,11.56-.47,17.34,0,5.78-.44,11.56-.47,17.34,0,5.78-.44,11.56-.47,17.34,0,5.78-.44,11.56-.47,17.34,0,5.78-.44,11.56-.47,17.34,0,5.78-.44,11.56-.47,17.34,0,5.79-.45,11.58-.47,17.36,0,5.84-.47,11.69-.43,17.53-.01,5.94,.04,12.06-1.7,17.66,1.73,2.21,2.53,2.14,5.66,2.18,8.72,.13,10.37-.01,20.73,.07,31.1,.07,8.89,1.17,10.06,9.94,10.08,26.88,.07,53.75,.03,80.63,.02,3.65,0,7.29,.18,10.94,.36,33.18-.78,66.37-.15,99.55-.34,5.18-.03,10.36-.15,15.53,.15,2.33,.15,4.76,.12,6,2.67Z" style="fill:#e68235;"/><path d="M991.03,901.85c-37.88-.03-75.76-.05-113.64-.09-2.5,0-4.99-.1-7.49-.15-1.92-1.3-2.55-3.23-2.64-5.42-.32-7.81-.3-15.62-.02-23.43,.08-2.19,.64-4.13,2.51-5.5,30.04-.06,60.07-.15,90.11-.17,36.2-.03,72.4-.04,108.6,.01,10.57,.01,9.32-1.1,9.4,9.12,.05,6.35,.29,12.73-.09,19.06-.3,4.93,1.05,6.84,6.35,6.61,9.42-.42,18.86-.09,28.3-.07,.04,9.82,.25,19.64,.05,29.46-.08,4.08,1.35,5.36,5.33,5.25,8.08-.24,16.18,.11,24.26-.14,4.12-.13,5.34,1.43,5.22,5.37-.23,7.7,.26,15.42-.18,23.1-.3,5.26,1.61,6.96,6.58,6.34,2.08-.26,4.22,.08,6.34,.14,5.23,.73,6.05,4.37,6.07,8.8,.09,21.14,.01,42.28,.04,63.42,.03,18.45-.06,36.9,.04,55.35,.04,7.83,1.32,7.9,8.87,9.66,9.86,2.3,19.67,2.52,29.61,2.43,2.08-.02,4.26,.39,6.15-.94,.39,0,.77-.01,1.16-.01,2,1.45,2.91,3.32,2.92,5.89,.08,19.77-.06,39.55-.04,59.32,0,1.37-.1,2.69-1.11,3.75-.61,.51-1.26,.57-1.96,.18-.91-19.53-.08-39.07-.31-58.61,.13-.77-1.18,.2-.44-.04,.84,19.11,.13,38.24,.36,57.35,0,.96,.17,1.92,.13,2.86-.12,3-1.49,5.22-4.58,5.74-4.33,.74-5.54-2.41-6.53-5.67-.34-.57-.74-1.1-1.2-1.59-3.83-.01-7.67-.23-11.48,.04-4.63,.32-5.93-1.75-5.88-6.1,.17-15.31,.07-30.62,.07-45.93-7.59-1.37-15.25-.4-22.88-.58-7.92-.19-8.58-.51-8.64-8.44-.21-31.5-.14-63.01-.01-94.51,.02-6.22-1.13-12.05-3.19-17.81-9.04-.02-18.09-.35-27.11,.04-5.68,.24-8.06-1.36-7.64-7.4,.48-6.89-.13-13.85,.19-20.76,.23-4.95-1.34-6.97-6.52-6.72-7.48,.36-15-.06-22.5,.15-4.19,.12-5.91-1.37-5.79-5.66,.21-7.88-.07-15.77,.1-23.66,.08-3.94-1.41-5.55-5.4-5.46-7.88,.17-15.77-.11-23.66,.1-4.24,.11-5.84-1.48-5.72-5.73,.21-7.69-.13-15.39,.12-23.08,.15-4.55-1.58-6.06-6.06-6-15.4,.19-30.79,.1-46.17,.13Z" style="fill:#0d0e0a;"/><path d="M418.85,901.61c-28.82,.08-57.64,.15-86.46,.23-15.4-.02-30.8,.07-46.2-.15-4.53-.06-6.16,1.55-6.01,6.05,.25,7.69-.09,15.4,.12,23.1,.12,4.31-1.62,5.69-5.8,5.66-18.67-.14-37.35-.07-56.02-.06-7.56,.01-7.57,.03-7.58,7.79-.01,6.35,.01,12.71-.01,19.06-.02,7.79-.02,7.81-7.55,7.82-6.93,.02-13.87,.22-20.79-.07-4.69-.19-6.62,1.35-6.41,6.24,.31,7.3-.17,14.64,.16,21.94,.23,5.03-1.5,6.72-6.6,6.66-20.98-.24-41.97-.12-62.95-.13,.05-11.5,.11-23.01,.16-34.51,10-.05,20-.21,29.99-.09,3.5,.04,4.73-1.2,4.68-4.69-.16-10.06-.05-20.13-.04-30.19,1.15-.85,2.3-.87,3.46-.02,8.84,.05,17.67,.13,26.51,.15,2.76,.01,3.91-.45,4.19-4.2,.6-8.25,.35-16.45,.32-24.67-.45-4.76,1.74-6.13,6.37-5.9,7.8,.38,15.64-.03,23.46,.16,3.56,.08,5.36-.87,5.07-4.78-.28-3.8-.17-7.62-.23-11.43,.07-4.81,.25-9.63,.17-14.44-.05-2.97,1.12-4.3,4.08-4.06,.76,.06,1.54-.01,2.31-.01h197.65c1.35,0,2.69,.11,4.04,.17,1.89,1.34,2.47,3.29,2.55,5.48,.29,7.82,.31,15.63-.01,23.45-.08,2.21-.71,4.14-2.63,5.44Z" style="fill:#0d0e0a;"/><path d="M210.89,1058.04c0,4.62-.11,9.24,.04,13.86,.08,2.53-.88,3.34-3.35,3.31-9.24-.1-18.48-.11-27.72,.01-2.67,.04-3.75-.71-3.71-3.55,.14-9.24,.15-18.48,0-27.72-.05-2.9,1.15-3.48,3.75-3.53,4.36-.07,10.01,1.94,12.75-.88,2.73-2.8,.79-8.42,.83-12.79,.02-2.74,.91-3.65,3.66-3.67,4.37-.03,9.99,1.9,12.79-.82,2.83-2.74,.81-8.39,.89-12.75,.05-2.59,.61-4.1,3.52-3.71,.38,.05,.77,.01,1.15,0q12.73-.28,12.73-12.9c0-5.97,.15-11.94-.05-17.9-.11-3.05,.91-3.99,3.93-3.93,9.04,.16,18.09,.13,27.14,.01,2.65-.03,3.58,.72,3.73,3.55,.77,13.66,.87,13.83-12.47,13.74-4.16-.03-5.17,1.27-5.03,5.22,.29,8.46-.05,16.94,.16,25.4,.08,3.3-1,4.29-4.26,4.24-4.17-.06-9.53-1.85-12.23,.8-2.72,2.66-.96,8.04-.8,12.19,.15,3.85-1.48,4.32-4.74,4.34-12.71,.1-12.71,.21-12.71,12.86v4.62Z" style="fill:#f49b58;"/><path d="M1034.56,971.13c7.12,0,14.24,.15,21.36-.06,3.32-.1,4.86,.56,4.72,4.35-.15,4.15-1.91,9.54,.82,12.18,2.7,2.62,8.06,.87,12.23,.78,3.28-.06,4.26,.97,4.24,4.24-.13,20.4-.15,40.79,0,61.19,.03,3.49-1.31,4.1-4.38,4.1-4.16,0-9.55-1.88-12.18,.85-2.6,2.7-.83,8.06-.76,12.23,.05,3.26-.95,4.18-4.24,4.25-13.19,.29-13.19,.41-13.19-12.52,0-5.77,.28-11.56-.09-17.31-.27-4.22,1.32-5.05,5.22-5.02,13.23,.09,14.08-1.12,12.25-14.49-.26-1.87-.74-2.88-2.74-2.74-.77,.05-1.54,.01-2.31,0q-12.32-.16-12.32-12.74c0-5.58-.33-11.19,.1-16.73,.35-4.56-1.39-5.45-5.53-5.3-8.26,.31-16.55-.09-24.81,.17-3.61,.11-4.49-1.06-4.52-4.56-.13-12.87-.26-12.87,12.3-12.87,4.59,0,9.21,0,13.83,0Z" style="fill:#f49b58;"/><path d="M644.33,1057.98c5.73-.04,11.47-.08,17.2-.12,.06,10.19,.01,20.37,.25,30.56,.08,3.35-1.09,4.23-4.3,4.16-8.65-.19-17.3,.09-25.95-.13-3.47-.09-4.57,.84-4.6,4.47-.11,12.95-.26,12.95-13.15,12.95-5.96,0-11.92-.11-17.88,.04-2.78,.07-3.64-.95-3.6-3.66,.12-9.03,.2-18.08-.03-27.11-.09-3.57,1.46-4.03,4.44-4,14.23,.11,28.45-.12,42.68,.14,4.15,.08,5.37-1.21,5.05-5.18-.32-4.03-.1-8.08-.11-12.12Z" style="fill:#f49b58;"/><path d="M488.26,1265.84c-.1,5.55,1.86,12.72-.87,16.19-2.92,3.71-10.42,.92-15.91,1.18-4.6,.21-9.23-.08-13.83,.08-2.82,.1-4.09-.56-4.07-3.77,.13-20.57,.12-41.13,.01-61.7-.02-2.96,.82-3.88,3.87-4,13.53-.52,13.53-.63,13.53,12.74,0,11.72,.11,23.45-.07,35.17-.05,3.26,.94,4.41,4.22,4.25,4.41-.22,8.84-.02,13.26-.01-.01,0-.14-.13-.14-.13Z" style="fill:#f49b58;"/><path d="M679.12,1265.96c-.02-.77-.05-1.53-.07-2.3-.12-4.76,1.44-10.69-.83-13.97-2.27-3.28-8.56-.98-13.06-1.03-3.51-.03-3.5-1.88-3.48-4.36,.08-10.15,.07-20.31,.1-30.46l-.13,.13c1.15-.03,2.31-.11,3.46-.08,4.39,.11,9.99-1.35,12.84,.81,3.1,2.35,.93,8.25,1.02,12.59,.06,2.89,.74,4.04,3.88,4.02,4.34-.02,10.11-2.03,12.69,.9,2.72,3.09,.71,8.81,.82,13.38,.14,5.57-.09,11.15,.08,16.72,.08,2.74-.84,3.75-3.6,3.64-4.61-.19-9.22-.1-13.84-.12l.12,.13Z" style="fill:#f49b58;"/><path d="M783.14,1213.93c-.02-21.51,.03-43.01-.12-64.52-.03-3.55,.66-4.99,4.66-4.99,12.75-.01,12.75-.2,12.75,12.36,0,17.47-.11,34.95,.08,52.42,.04,3.82-1.09,5.05-4.84,4.76-4.2-.32-8.44-.13-12.66-.16l.13,.13Z" style="fill:#f49b58;"/><path d="M523,1179.42c0,10.19-.09,20.38,.06,30.57,.04,2.96-.81,3.89-3.87,3.99-13.53,.45-13.53,.56-13.52-12.77,0-17.3,.1-34.6-.08-51.9-.04-3.73,.98-4.87,4.79-4.87,12.63-.01,12.63-.17,12.63,12.5,0,7.49,0,14.98,0,22.48Z" style="fill:#f49b58;"/><path d="M1199.18,1179.23c.4-.01,.8-.01,1.2-.02,.77,.91,1.08,1.99,1.14,3.14,.19,3.81,2.13,5.18,5.92,5.01,3.48-.16,5.29-1.14,4.56-4.98-.21-1.1,.88-2.05,1.09-3.18,.47-13.74,.18-27.5,.49-41.25,.21-9.16,.72-18.74-1.64-27.92,3.45-.73,4.8,.61,4.68,4.17-.16,4.71,.07,9.43,.14,14.15-.06,15.4-.02,30.8-.27,46.2-.07,4.04,1.66,4.77,5.17,4.72,9.82-.15,19.64-.03,29.46-.01-.02,6.15-.04,12.3-.06,18.45-9.96-.02-19.91-.13-29.87,.01-3.04,.04-2.49-3.33-4.25-3.94-4.55-1.58-9.3-2.38-14.15-1.59-.6,.1-1.48,.85-1.54,1.38-.13,1.14,.88,1.67,1.88,1.66,2.1-.03,4.22-.08,6.28-.41,1.98-.31,3.86-.83,4.81,1.64q-14.95,.35-15.01-14.38c.01-.95-.01-1.9-.03-2.85Z" style="fill:#0d0e08;"/><path d="M297.83,1109.85c4.42,0,8.86,.18,13.27-.06,3.11-.17,3.8,1.06,3.9,3.98,.46,13.28,.55,13.43-12.28,13.33-3.83-.03-5.29,.73-5.25,4.96,.13,12.94-.07,12.83-13.03,12.55-3.2-.07-4.34-.87-4.26-4.21,.21-8.85,.22-17.7-.01-26.55-.09-3.49,1.31-4.21,4.39-4.07,4.41,.22,8.85,.07,13.27,.07Z" style="fill:#f49b58;"/><path d="M176.31,1144.61c-.03-10.17,.04-20.35-.15-30.51-.06-3.16,.74-4.4,4.13-4.32,9.02,.21,18.04,.16,27.06,.02,2.78-.04,3.47,.96,3.62,3.64,.72,13.55,.8,13.73-12.46,13.64-4.14-.03-5.08,1.28-5.05,5.21,.11,12.24-.05,12.24-12.09,12.23-1.73,0-3.45-.03-5.18-.04,0,0,.12,.13,.12,.13Z" style="fill:#f49b58;"/><path d="M939.17,1144.48c-10.17,.02-20.35-.08-30.52,.11-3.21,.06-4.34-.84-4.26-4.17,.21-8.83,.21-17.66,0-26.49-.08-3.37,1.13-4.1,4.29-4.16,12.92-.25,13.12-.36,13.01,12.53-.03,4.22,1.41,5.01,5.26,4.98,12.22-.1,12.22,.05,12.19,12.15,0,1.73-.06,3.45-.1,5.18l.13-.13Z" style="fill:#f49b58;"/><path d="M939.04,1144.61c5.83,0,11.67-.01,17.5-.01,.26,.14,.53,.28,.79,.42,2.34,2.35,1.76,5.4,1.8,8.21,.06,4.1,1.88,5.93,5.99,5.99,2.81,.04,5.86-.54,8.22,1.79,.14,.27,.28,.53,.41,.8-.1,5.54,1.88,12.69-.85,16.17-2.91,3.72-10.4,.93-15.87,1.19-4.59,.22-9.22-.15-13.81,.11-3.38,.19-4.2-1.12-4.14-4.29,.18-10.17,.09-20.34,.1-30.5-.01-.01-.14,.12-.14,.12Z" style="fill:#f49b58;"/><path d="M973.75,1144.6c10.19-.02,20.38,.07,30.56-.14,3.27-.07,4.31,.93,4.24,4.21-.19,8.84-.15,17.69-.02,26.53,.04,2.83-.59,3.97-3.77,4.1-13.35,.53-13.49,.66-13.53-12.67-.01-3.72-.98-5.11-4.82-4.84-4.21,.3-8.45,.03-12.68,.01l.13,.13c-4.23-5.32-3.3-10.97-1.05-16.71,.33-.2,.64-.41,.94-.62Z" style="fill:#f49b58;"/><path d="M1147.17,1005.88c.25-1.43,2.29-1.87,2.27-1.52-.32,5.4,3.93,9.3,3.81,15.03-.58,28.59-.36,57.2-.2,85.8,.04,6.65-2.87,15.06,1.58,19.47,4.16,4.12,12.43,.89,18.87,1.36,2.82,.21,5.8-.67,8.38,1.2-9.41-.01-18.83-.26-28.23,.05-5.16,.17-6.55-1.78-6.53-6.71,.15-38.22,.07-76.45,.05-114.68Z" style="fill:#0d0e08;"/><path d="M401.62,1126.97c0,4.22-.28,8.47,.08,12.66,.37,4.23-1.34,5.03-5.21,4.99-12.2-.12-12.2,.04-12.2-12.33,0-6.14-.05-12.28,.04-18.42,.02-1.37-.76-3.65,1.38-3.79,4.77-.31,9.58-.21,14.37-.06,1.99,.06,1.5,1.91,1.52,3.14,.05,4.6,.02,9.2,.02,13.81Z" style="fill:#f49b58;"/><path d="M332.84,1075.17c1.34-.01,2.69-.01,4.03-.01,13.84,0,13.78,0,12.79,14-.17,2.38-.71,3.42-3.28,3.39-9.4-.11-18.81-.05-28.22-.05-.38,0-.92,.15-1.13-.05-4.55-4.16-1.09-9.51-2.07-14.23-.56-2.7,1.27-3.1,3.48-3.06,4.8,.07,9.6,.02,14.4,.01Z" style="fill:#f49b58;"/><path d="M921.76,1057.98c5.73-.04,11.47-.08,17.2-.12,.06,10.2,0,20.4,.26,30.6,.09,3.42-1.22,4.07-4.35,4.12-13.06,.22-13.05,.33-13.06-12.65-.02-7.32-.04-14.63-.05-21.95Z" style="fill:#f49b58;"/><path d="M783.27,1057.86c11.43,0,22.87,0,34.3-.01-.06,5.51,1.89,12.46-.74,16.12-2.6,3.62-9.98,.73-15.24,1.18-.76,.07-1.53,.06-2.29,0-5.26-.45-12.4,2.42-15.31-1.17-3-3.68-.9-10.6-.72-16.12Z" style="fill:#f49b58;"/><path d="M956.54,1144.6c-.02-10.17,.05-20.35-.13-30.52-.05-3.13,.76-4.25,4.13-4.33,13.28-.31,13.29-.44,13.28,12.96-.01,7.29-.04,14.59-.06,21.88l.13-.13c-5,3.78-12.47,3.78-17.47,0l.12,.14Z" style="fill:#f49b58;"/><path d="M835.11,1231.15v7.49c0,9.94-.02,9.6-9.89,10.06-5.76,.27-8.1-1.03-7.61-7.33,.61-7.82,.27-15.74,.09-23.61-.07-3,.87-3.85,3.9-3.96,13.51-.45,13.51-.56,13.51,12.73v4.62Z" style="fill:#f49b58;"/><path d="M731.07,1292.31c0,8.28,0,8.35-9.78,8.26-8.81-.08-7.46,1.26-7.54-7.59-.09-9.74-.01-9.74,10.61-9.73q6.71,0,6.71,9.06Z" style="fill:#f49c58;"/><path d="M678.99,1265.83c.02,1.54,.05,3.08,.05,4.62,.03,14-.05,14.54-13.99,12.57-7.49-1.05-1.82-7.85-3.18-11.81-.73-2.13-1.29-5.62,3.38-5.36,4.61,.26,9.24,.09,13.87,.1,0,.01-.13-.12-.13-.12Z" style="fill:#f49b58;"/><path d="M973.84,1040.3c.01-5.75,.02-11.5,.04-17.24,2.86,.03,5.72,.08,8.57,.09q8.71,.01,8.71,8.7t-8.76,8.63c-2.85,0-5.7-.12-8.56-.18Z" style="fill:#f49b58;"/><path d="M636.09,1231.22q8.31,.01,8.29,10.95-.01,6.43-11.08,6.4c-6.29-.01-5.74-.05-6.44-11.21-.56-8.69,5.17-5.63,9.23-6.14Z" style="fill:#f49b58;"/><path d="M340.75,1144.53q-8.49,0-8.49-10.71,0-6.64,10.88-6.63,6.47,.01,6.47,10.44-.01,6.91-8.86,6.9Z" style="fill:#f49b58;"/><path d="M176.18,1144.48c.01,3.44-.33,6.92,.11,10.31,.73,5.66-1.06,8.17-7.02,7.12-3.3-.58-8.74,1.46-9.62-.99-1.59-4.4-.73-9.73-.64-14.67,.04-2.33,2.18-1.68,3.54-1.7,4.58-.06,9.17,.02,13.76,.05,0,0-.13-.12-.13-.12Z" style="fill:#f49c58;"/><path d="M1034.99,1179.21c8.19,0,7.69,.03,8.37,10.43,.44,6.79-2.5,7.24-7.89,7.02-9.64-.39-9.65-.11-9.64-10.85q.01-6.6,9.16-6.6Z" style="fill:#f49c58;"/><path d="M783.01,1213.8c.03,1.72,.07,3.44,.08,5.16,.02,12.85-2.42,15.43-14.82,11.91-5.79-1.64-1.32-8.57-2.43-12.95-.52-2.06-.31-4.2,2.99-4.07,4.77,.19,9.55,.07,14.33,.08-.02,0-.15-.13-.15-.13Z" style="fill:#f49b58;"/><path d="M168.03,1196.55q8.19,0,8.19,9.3,0,8.05-10.6,8.04-6.75-.01-6.74-10.74,0-6.6,9.15-6.6Z" style="fill:#f49c58;"/><path d="M661.78,1213.85c-1.72,.02-3.44,.04-5.16,.05-12.81,.02-15.41-2.43-11.89-14.85,1.63-5.75,8.57-1.3,12.95-2.41,2.1-.53,4.19-.24,4.06,3.02-.19,4.77-.08,9.55-.1,14.33l.14-.14Z" style="fill:#f49b58;"/><path d="M219.51,1213.89q8.74,0,8.73,11.05-.01,6.3-10.64,6.3c-6.72,0-6.8,0-6.68-10.78,.08-7.65-1.41-6.44,8.59-6.57Z" style="fill:#f49b58;"/><path d="M765.89,173.47c-.04,11.53-.08,23.06-.12,34.6,1.24,1.24,2.29,2.57,2.39,4.45,.48,9.02,.59,18.05-.09,27.07-.1,1.35-.68,2.59-1.39,3.76-2.02,2.37-4.86,2.11-7.49,2.13-30.17,.17-60.34,.23-90.52-.01-7.9-.06-9.31-1.68-9.61-9.58-.21-5.57,.04-11.15-.15-16.72-.22-6.46-1.83-8.02-8.4-8.21-5.57-.16-11.15,.07-16.72-.14-2.46-.09-5.05,.19-7.18-1.53-1.91-2.18-2.14-4.87-2.23-7.58-.15-4.62-.07-9.25-.09-13.87-.05-11.09-.54-11.57-11.88-11.61-4.82-.02-9.64,.13-14.45-.14-6.32-.35-7.9-1.8-8.17-7.97-.36-7.89-.35-15.8,0-23.69,.28-6.39,1.94-7.89,8.6-8.22,6.16-.3,12.33,.05,18.49-.2,5.63-.23,7.26-1.74,7.33-7.39,.2-16.37,.21-32.75,0-49.13-.07-5.64-1.66-7.03-7.43-7.24-5.58-.2-11.17,.03-16.76-.13-2.48-.07-5.06,.11-7.11-1.76-.19-.3-.38-.61-.57-.91-.07-11.58-.13-23.15-.2-34.73l.4,.1c1.33-1.92,3.28-2.5,5.48-2.58,7.84-.3,15.69-.29,23.53-.01,2.22,.08,4.1,.82,5.57,2.51,11.5,.02,22.99,.05,34.48,.08,.04,11.52,.09,23.03,.13,34.55,2.36,1.9,2.59,4.57,2.64,7.32,.1,5.78-.08,11.56,.11,17.34,.19,5.83,1.47,7.14,7.23,7.33,5.77,.2,11.56-.01,17.33,.1,2.49,.05,5.05-.1,7.2,1.56,7.31,2.46,14.84,.83,22.25,1.05,14.5,.44,12.35-1.77,12.56,12.61,.07,5.19,.34,10.41-.08,15.57-.46,5.59,1.87,7.36,7.02,6.43,7.48,.05,14.97,.25,22.44,.08,4-.09,5.41,1.42,5.36,5.38-.13,9.76,.05,19.55,.1,29.33Z" style="fill:#1d1b1c;"/><path d="M627.12,34.72c-11.53,.02-23.06,.05-34.58,.07-.06-9.79,0-19.57-.22-29.35-.09-3.9,1.17-5.54,5.26-5.43,8.05,.22,16.12,.22,24.18,0,4.01-.11,5.4,1.36,5.33,5.35-.17,9.79,0,19.58,.03,29.36Z" style="fill:#141011;"/><path d="M557.83,104.03c-.11-2.29-.22-4.57-.33-6.86,.05-7.49,.27-14.98,.1-22.46-.09-4,1.36-5.42,5.36-5.34,9.79,.19,19.58,.06,29.37,.05v.04c2.03,1.54,2.53,3.73,2.6,6.11,.23,7.86,.37,15.73-.07,23.59-.32,5.57-1.85,7.12-7.38,7.45-7.85,.46-15.72,.32-23.59,.07-2.37-.07-4.59-.5-6.06-2.65Z" style="fill:#141011;"/><path d="M418.85,901.61c.03-11.45,.06-22.9,.1-34.35,20.98-.06,41.97-.28,62.95-.07,5.07,.05,6.72-1.39,6.53-6.51-.34-9.42,0-18.86,.06-28.29,5.31-4.35,11.15-2.76,16.96-1.53,2.95,2.33,2.68,5.71,2.9,8.93,.42,6.18,1.06,6.82,7.13,7.28,2.44,.19,5.06-.22,7.01,1.86,.15,.29,.29,.57,.43,.86,.02,15.55-.05,31.11,.14,46.66,.05,3.86-.97,5.42-5.13,5.39-33.03-.19-66.05-.18-99.08-.23Z" style="fill:#793f11;"/><path d="M505.61,832.55c-5.71-.06-11.42-.11-17.12-.17-.12-5-.24-10-.37-15.01l.39-2.31c2.78-3.59,6.8-2.41,10.43-2.67,2.25-.16,4.49,.24,6.74,.28,5.95,.06,12.04-1.59,17.78,1.34,3.35,5.6,2.52,11.48,1.18,17.4-.25,.69-.63,1.3-1.13,1.83-6.06,2.28-12.08,3.41-17.9-.69Z" style="fill:#f49b58;"/><path d="M557.83,104.03c9.55,.03,19.11-.11,28.65,.15,4.55,.12,6.04-1.65,5.94-6.06-.22-9.55-.08-19.1-.08-28.66,9.42-.01,18.84,.15,28.26-.1,4.58-.12,6.58,1.2,6.52,6.16-.21,19.03-.21,38.07,0,57.1,.05,4.87-1.76,6.41-6.43,6.25-7.49-.27-15,.07-22.49-.12-4.09-.1-6.01,1.21-5.89,5.59,.21,7.88,.22,15.77,0,23.64-.12,4.42,1.9,5.64,5.94,5.54,7.69-.18,15.38,.1,23.07-.1,4.2-.11,5.86,1.43,5.78,5.7-.19,9.61-.05,19.22-.04,28.84-1.82,3.52-5.25,2.78-8.17,2.82-15.96,.22-31.93,.04-47.89,.12-9.47,.04-10.47,1.1-10.57,10.7-.06,5.77,.18,11.54-.28,17.3-.28,3.52-1.94,5.98-5.57,6.24-9.79,.69-19.6,.72-29.39-.05-1.18-.09-2.18-.72-2.99-1.61-1.77-2.7-1.86-5.78-1.88-8.85-.08-17.41-.1-34.82,.01-52.23,.02-3.21-.29-6.61,2.67-8.99l-.05,.04c1.89-2.38,4.56-2.59,7.3-2.66,5.97-.13,11.93-.03,17.9-.1,4.51-.06,6.7-2.21,6.76-6.74,.08-5.97-.03-11.93,.11-17.9,.06-2.74,.24-5.42,2.65-7.3,.05-11.56,.1-23.14,.16-34.72Z" style="fill:#2a2627;"/><path d="M557.66,138.76c0,9.78-.1,19.57,.06,29.35,.07,3.97-1.49,5.47-5.43,5.4-9.78-.15-19.56-.05-29.35-.05-.04-11.17-.09-22.35-.13-33.52,4.36-2.25,9.03-.94,13.55-1.09,7.09-.23,14.2-.08,21.3-.09Z" style="fill:#14100f;"/><path d="M696.25,102.99c-10.43,2.38-20.98,.79-31.47,.91-3.23,.04-3.04-2.9-3.05-5.2-.03-9.78,0-19.56,0-29.35,9.79,.03,19.58,.2,29.37,.03,4-.07,5.43,1.37,5.35,5.35-.16,8.25,.05,16.51,.1,24.76-.1,1.17-.2,2.33-.3,3.5Z" style="fill:#141011;"/><path d="M313.78,589.48c2.24-3.09,1.01-6.61,1.09-9.92,.2-8.16,.09-16.32,.11-24.48,9.8-.04,19.6-.23,29.4-.05,4.07,.07,5.33-1.45,5.28-5.39-.2-16.72-.16-33.44-.21-50.16q.66-13.86,14.67-13.87c5.18,0,10.36-.14,15.53,.03,3.53,.11,4.72-1.41,4.66-4.8-.17-9.59-.15-19.18-.21-28.76,0-19.26,0-38.53-.01-57.79q.62-12.72,13.51-12.72c5.55,0,11.11-.12,16.66,.03,3.45,.09,4.89-1.29,4.72-4.74-.19-3.82-.13-7.65-.18-11.48,.06-4.6,.26-9.21,.13-13.81-.1-3.47,1.3-4.79,4.74-4.73,8.25,.13,16.5-.12,24.74,.09,4.05,.11,5.38-1.45,5.29-5.39-.23-9.78-.17-19.56-.22-29.35,.09-11.55,.18-23.09,.28-34.64,11.56-.05,23.11-.11,34.67-.16,1.73-2.25,4.23-2.51,6.76-2.51,32.32-.03,64.64-.5,96.95,.24,11.69-.52,23.37-.54,35.06,0,10.37-.66,20.75-.32,31.12-.33,43.62-.03,87.24-.06,130.85,.04,3.9,.01,8.22-.99,11.27,2.77l-.12-.12c2.48,1.82,2.7,4.48,2.76,7.23,.13,5.77-.08,11.55,.13,17.31,.21,5.81,1.52,7.15,7.24,7.37,5.77,.22,11.54,0,17.31,.13,2.72,.06,5.43,.17,7.31,2.6,.01,9.6,.19,19.21-.05,28.8-.11,4.41,1.19,6.17,5.85,6.03,9.59-.29,19.2-.06,28.8-.05,.04,9.78,.2,19.55,.04,29.33-.07,3.95,1.27,5.49,5.3,5.38,7.85-.22,15.72,.15,23.57-.14,4.5-.16,6.35,1.35,5.93,5.91-.25,2.65,.07,5.36,.13,8.04-.03,6.91-.07,13.83-.1,20.74-2.01,3.22-5.34,2.71-8.31,2.71-26.13-.05-52.27,.54-78.4-.33-6.03-.02-12.25,1.83-17.94-1.73-1.75-2.03-2.08-4.5-2.1-7.03-.09-9.24-.39-18.49,.26-27.72-.42-6.12-.36-12.25-.36-18.39q0-14.08-14.39-14.09c-3.83,0-7.67,.05-11.5-.1-2.52-.1-4.98-.39-6.94-2.25-3.03-5.4-1.73-11.31-1.8-17-.19-15.3-.07-15.31-15.35-15.31h-176.82c-4.24,0-8.48,.03-12.7-.37-6.12,.42-12.25,.36-18.39,.36q-14.09,0-14.09,14.37c0,3.64,.03,7.29-.07,10.93-.07,2.51-.31,4.98-1.85,7.11-2.32,2.1-5.22,2.14-8.09,2.2-5.54,.12-11.08-.04-16.62,.1-6.65,.16-7.88,1.43-8.03,8.23-.11,5.16,.01,10.31-.07,15.47-.04,2.67-.02,5.36-1.26,7.85-.32,.64-.77,1.15-1.35,1.55-2.44,1.4-5.13,1.46-7.83,1.51-1.35,.02-2.69,.02-4.04,.03-22.63,.2-19.98-2.52-20.17,19.89-.02,2.5-.07,4.99-.16,7.49-.16,4.7-2.57,6.95-7.22,7.15-6.34,.26-12.68,.04-19.02,.19-6.86,.16-8.1,1.36-8.24,8.11-.17,8.07,.19,16.14-.46,24.2,.52,5.5,.57,11,0,16.49,.22,6.01,.63,12.03,.02,18.04,.58,5.75,.3,11.53,.56,17.29-.51,5.74,.75,11.63-1.43,17.23-2.84,2.97-6.62,2.55-10.19,2.61-4.05,.07-5.88,1.86-5.88,5.96s1.76,5.98,5.84,5.99c3.04,.01,6.14-.13,8.94,1.51,.56,.39,.98,.89,1.29,1.5,1.74,5.6,1.86,11.18-.1,16.75-.35,.65-.85,1.17-1.48,1.55-5.53,2.37-11.29,1.21-16.97,1.06-2.49,.04-4.98,.3-7.48,.42-6.09,.28-7.18,1.43-7.34,7.75-.14,5.76,.03,11.53-.1,17.3-.06,2.71-.21,5.4-2.13,7.6-2.28,1.75-4.98,1.88-7.69,1.94-5.58,.12-11.17-.04-16.75,.1-6.52,.16-7.81,1.42-8,7.81-.15,5,0,10.01-.07,15.02-.15,10.68-1.07,11.62-11.52,11.79-5.2,.08-10.4-.09-15.59,.09-5.79,.21-7.24,1.59-7.46,7.18-.19,4.81-.19,9.63,0,14.44,.22,5.85,1.74,7.41,7.81,7.48,16.17,.2,32.34,.02,48.52,.1,3.26,.02,6.57-.24,9.67,1.16,.65,.27,1.2,.68,1.64,1.22,2.42,4.46,1.42,9.34,1.61,14.06,.12,3.05,0,6.11,.04,9.17,.11,7.97,.71,8.57,8.87,9.15,2.26,.16,4.64-.05,6.46,1.78,1.66,2.31,1.8,4.99,1.99,7.7,.46,6.65,1.15,7.3,8.02,7.82,.96,.07,1.92,.14,2.88,.22,3.86,.33,5.9,2.42,6.21,6.28,.36,4.42,.19,8.85,.4,13.27,.01,.38,.02,.76,.02,1.15q-.23,13.72,13.78,13.72h3.45c10.62-.02,10.69-.01,12.04-10.67,.52-4.1,2.6-6.14,6.67-6.48,4.8-.41,9.58,.15,14.37,.22,5.76,0,11.71-1.92,17.09,1.77,1.72,2.74,1.75,5.83,1.76,8.89,.07,17.43,.09,34.86-.02,52.29-.02,2.83,.28,5.81-1.8,8.22-.32,.21-.65,.41-.97,.62-20.93-.05-41.86-.23-62.78-.03-4.95,.05-6.88-1.21-6.59-6.43,.42-7.47-.1-14.98,.18-22.46,.17-4.42-1.15-6.13-5.82-5.98-9.59,.3-19.2,.05-28.8,.03-.04-9.78-.23-19.57-.06-29.35,.07-3.98-1.26-5.45-5.29-5.34-8.05,.23-16.12-.09-24.17,.12-3.96,.11-5.47-1.21-5.35-5.27,.23-8.05-.09-16.12,.12-24.17,.11-3.94-1.18-5.46-5.25-5.37-9.78,.2-19.57,.03-29.35,.02-1.99-2.83-.53-5.96-.63-8.92-.25-6.88-.26-13.77-.01-20.65,.13-3.53-.96-4.67-4.52-4.56-8.22,.25-16.44,.05-24.67,.1-1.7,.01-3.44,.48-4.97-.69,0,0,.07,.02,.08,.02-.09-1.52-.17-3.04-.26-4.55,.05-19.88,.24-39.75,.05-59.62-.04-3.92,.82-5.7,4.84-5.27,9.19-.68,18.38-.67,27.57,0,.41,0,.83,0,1.25,0Z" style="fill:#141011;"/><path d="M280.26,658.91c9.79,.03,19.59,.2,29.38,.03,3.98-.07,5.42,1.27,5.35,5.31-.17,9.79,.02,19.59,.07,29.38-.43,.02-.86,.04-1.29,.05,0-8.77-.26-17.55,.09-26.3,.22-5.41-1.44-7.66-7.11-7.31-7.26,.45-14.56,.17-21.83,.35-1.83,.05-3.43,.01-4.66-1.51Z" style="fill:#455054;"/><path d="M505.8,814.99c-5.77,.03-11.53,.05-17.3,.08-.1-5.74-.19-11.47-.29-17.21l.25-.22c5.13-4.26,10.86-2.63,16.46-1.53,1.3,.25,2.41,1.54,2.6,2.89,.75,5.45,2.37,11.05-1.72,15.99Z" style="fill:#ec8c43;"/><path d="M592.22,277.45c-34.6-.02-69.19-.03-103.79-.05-.02-11.5-.05-23.01-.07-34.51,1.37-1.83,3.28-2.5,5.48-2.59,7.83-.31,15.66-.27,23.49-.03,2.21,.07,4.11,.73,5.63,2.38,10.18,.06,20.37,.01,30.55,.25,3.25,.08,4.31-.87,4.23-4.18-.21-8.64,.14-17.3-.16-25.94-.14-3.94,1.28-4.71,4.9-4.7,21.52,.09,43.04-.05,64.57-.12,10.19,.06,20.38,.26,30.56,.12,3.32-.05,4.24,.97,4.17,4.22-.21,8.84,.01,17.69-.12,26.54-.04,2.79,.47,4.08,3.72,4.06,33.46-.18,66.92-.2,100.38-.26,5.73-3.81,29.55-3.63,34.62,.27,.02,.38,.11,.74,.25,1.08-.06,11.21-.12,22.42-.18,33.62-51.79-.03-103.58-.06-155.37-.1-5.97,0-11.94-.04-17.9-.07-2.58-1.74-2.74-4.42-2.8-7.16-.12-5.76,.06-11.52-.11-17.27-.18-5.9-1.42-7.21-7.08-7.4-4.99-.17-9.98-.17-14.97,0-5.66,.19-6.9,1.51-7.08,7.4-.18,5.75,.01,11.51-.11,17.27-.08,2.74-.24,5.42-2.81,7.17Z" style="fill:#bfbdbe;"/><path d="M835.07,312.14c-10.19,.02-20.38-.09-30.57,.13-3.32,.07-4.21-.96-4.16-4.21,.17-10.19,.01-20.38-.02-30.57,9.9,.01,19.8-.03,29.69,.06,1.77,.02,3.85-.84,5.27,1.11-.06,11.16-.13,22.32-.21,33.48Z" style="fill:#bfbdbe;"/><path d="M904.66,742.24c-.13,.77-.25,1.54-.38,2.31-2.54,3.46-6.6,2.8-10.03,3.32-3.29,.5-4.46,1.67-4.96,4.96-.52,3.43,.14,7.49-3.32,10.03-3.84,.07-7.69,.3-11.52,.15-3.49-.14-4.78,1.22-4.71,4.7,.16,8.07-.17,16.15,.13,24.2,.17,4.57-1.43,5.92-5.94,5.89-21.13-.15-42.26,.01-63.4,.07-.32-.2-.65-.41-.97-.61-1.98-2.23-1.79-5.01-1.8-7.66-.12-17.85-.13-35.71,0-53.56,.02-2.68,.04-5.41,1.72-7.74,2.27-2.1,5.1-2.54,8.03-2.56,30.18-.19,60.36-.16,90.54-.01,1.72,.01,3.47,.06,5.05,.92,.71,.27,1.34,.66,1.89,1.18,1.25,1.81,.96,3.51-.35,5.14,0,3.1,0,6.18,.02,9.27Z" style="fill:#141011;"/><path d="M800.54,797.87c.03,5.75,.07,11.49,.1,17.24l-.4-.1c-1.57,2.43-4.06,2.53-6.59,2.7-7.29,.5-7.47,.7-7.9,8.19-.12,2.12-.28,4.21-1.25,6.15-.3,.6-.72,1.09-1.26,1.48-5.95,2.01-11.89,2.35-17.82-.09-.57-.47-.98-1.05-1.25-1.73-1.54-5.82-1.94-11.59,.69-17.23,2.41-2.6,5.67-1.98,8.65-2.11,4.43-.19,6.64-2.18,6.87-6.69,.19-3.72-.61-8.59,4.11-9.75,5.22-1.29,10.95-2.61,15.79,1.71l.26,.23Z" style="fill:#ec8c43;"/><path d="M885.97,762.86c.12-4.17,.15-8.34,.39-12.5,.19-3.31,2.12-5.24,5.43-5.43,4.16-.24,8.33-.27,12.5-.39,.02,6.15,.04,12.3,.06,18.45-6.13-.04-12.26-.08-18.38-.13Z" style="fill:#170d0e;"/><path d="M416.63,379.84h-28.55c-.01-.39-.03-.78-.04-1.16h28.48c.04,.39,.08,.77,.11,1.16Z" style="fill:#573d3c;"/><path d="M522.97,242.65c-11.53,.08-23.07,.16-34.6,.25-.07-1.18-.14-2.35-.21-3.52,0-10.41-.01-20.81-.01-31.22,.08-11.54,.17-23.08,.25-34.62h-.08c6.12-1.21,12.27-.77,18.41-.21,5.42,.03,10.84,.06,16.26,.1,0,23.07-.02,46.14-.02,69.22Z" style="fill:#14100f;"/><path d="M506.73,173.33c-6.14,.07-12.27,.15-18.41,.22,6.11-2.04,12.25-1.74,18.41-.22Z" style="fill:#613630;"/><path d="M1008.53,624.36c-.06,11.53-.11,23.06-.17,34.58-9.78,.02-19.56,.19-29.33-.01-4.06-.08-5.34,1.42-5.28,5.36,.15,9.77-.03,19.55-.08,29.33-11.49,.04-22.98,.08-34.48,.12-.31-.2-.63-.4-.95-.6-1.73-1.87-1.72-4.24-1.75-6.54-.16-12.71-.24-25.42,.02-38.13,.16-7.85,1.66-9.18,9.75-9.46,5.58-.19,11.17,.04,16.75-.14,6.12-.2,7.45-1.48,8.06-7.39,.93-8.83,1.76-9.64,10.65-9.83,6.35-.14,12.71-.14,19.06,.02,2.48,.06,5.06-.1,7.12,1.75,.23,.31,.43,.63,.63,.94Z" style="fill:#141011;"/><path d="M939.2,693.74c-.06,11.52-.11,23.04-.17,34.55-.99,2.03-2.82,2.43-4.82,2.41-8.22-.07-16.45-.02-24.67-.03-2.07,0-3.71-.72-5.03-2.26l-.08-.08c-2-1.57-2.49-3.76-2.56-6.14-.22-7.87-.37-15.74,.08-23.6,.32-5.56,1.86-7.1,7.42-7.42,7.86-.46,15.73-.3,23.6-.08,2.38,.07,4.57,.56,6.14,2.56l.09,.09Z" style="fill:#141011;"/><path d="M904.52,728.42c11.5-.04,23.01-.08,34.51-.12,2.07,4.72-2.28,6.14-4.5,5.69-9.97-2.03-19.95-.38-29.89-1-.04-1.53-.08-3.05-.12-4.57Z" style="fill:#3f565c;"/><path d="M941.49,719.27c-.08,1.6-.17,3.21-.29,5.66-1.35-2.65-.75-4.37,.29-5.66Z" style="fill:#3f565c;"/><path d="M869.74,867.26c.05,11.45,.1,22.9,.15,34.35-33.13,.05-66.26,.05-99.39,.22-3.96,.02-4.85-1.57-4.81-5.15,.18-15.6,.15-31.2,.19-46.81,.12-.28,.24-.57,.36-.85,1.34-1.68,3.28-1.7,5.18-1.87,8.31-.74,8.36-.75,9.03-8.74,.2-2.38,.67-4.5,2.76-5.94l-.07,.07c4.82-3.82,12.12-3.88,17.1-.15,.12,6.94,.24,13.89,.36,20.83q-.65,13.85,13.17,13.86c18.66,.04,37.32,.12,55.97,.18Z" style="fill:#793f11;"/><path d="M800.25,832.39c-5.7,.05-11.4,.1-17.1,.15-.02-3.64,.15-7.29-.11-10.92-.35-5.1,2-6.9,6.84-6.6,3.43,.22,6.9,.01,10.35-.01,.01,5.79,.01,11.59,.02,17.38Z" style="fill:#f49b58;"/><path d="M800.38,242.91c-11.54-.09-23.08-.18-34.62-.27,0-11.53,.01-23.05,.01-34.58,11.52,.04,23.03,.09,34.54,.13,.02,11.58,.05,23.15,.07,34.72Z" style="fill:#141011;"/><path d="M1043.05,624.27c-11.51,.03-23.01,.06-34.52,.09l-.06-.06c-2.25-1.7-2.55-4.16-2.6-6.71-.39-19.2,.26-38.4-.35-57.59-.07-2.3,.82-4.1,2.99-5.12,11.51,.04,23.03,.09,34.54,.13v69.26Z" style="fill:#14100f;"/><path d="M380.87,467.01c-1.69-4.01-1.17-6.45-.68-10.15,2.49,3.52,1.82,6.02,.68,10.15Z" style="fill:#534344;"/><path d="M312.53,589.48h-27.57c9.19-1.63,18.38-1.63,27.57,0Z" style="fill:#4b4a4f;"/><path d="M1008.52,554.88c-.01,23.14-.03,46.28-.04,69.42-9.43,.01-18.87,.2-28.29-.05-4.67-.12-6.54,1.36-6.45,6.25,.21,11.93,1.53,11.15-11.11,11.16-5.77,0-11.56,.24-17.32-.07-4.9-.26-6.3,1.79-6.24,6.45,.2,15.2,.06,30.41,.05,45.62-9.57,.01-19.14,.18-28.7-.04-4.48-.1-6.12,1.54-6.02,6.02,.22,9.56,.05,19.13,.04,28.7-34.55,0-69.1,0-103.66,.01-.34-.17-.69-.35-1.03-.52-.36-.68-.2,.3-.36-.43-2.59-11.49-2.97-22.96,.28-34.41,1.78-1.22,3.77-1.79,5.91-1.86,8.01-.27,16.02-.3,24.03,.03,1.52,.06,3.06,.2,4.25,1.35,3.43,2.29,4.09,5.71,3.99,9.54-.06,2.31,0,4.9,2.74,5.74,2.57,.79,5.45,1.19,7.67-.76,2.12-1.87,1.58-4.62,1.19-7.05-.52-3.2-3.11-3.53-5.71-3.56-3.49-.05-6.97-.04-9.26-3.38-2.31-2.05-1.95-4.87-2.09-7.48-.22-4.16-2.26-6.29-6.43-6.44-1.72-.06-3.43-.18-5.14-.4-2.5-.33-4.66-1.59-5.01-4.03-.81-5.59-2.09-11.36,1.62-16.56,2.16-1.5,4.65-1.85,7.14-1.72,8.9,.45,17.93-1.65,26.66,1.46,3.41,2.29,4.03,5.71,3.95,9.51-.05,2.3-.01,4.86,2.71,5.73,2.56,.82,5.4,1.19,7.64-.69,2.17-1.83,1.62-4.56,1.27-6.98-.46-3.18-2.96-3.63-5.58-3.67-3.66-.07-7.34-.02-9.67-3.65-2.87-5.54-2.33-11.09-.1-16.65,2.57-2.62,5.93-2.4,9.17-2.44,11.13-.14,22.27,.02,33.41-.1,2.71-.03,5.49-.08,6.95-3.01,2.13-4.25-.45-8.41-5.64-8.71-6.32-.37-12.67,.03-19-.22-7.34-.29-8.61-1.55-9.2-8.81-.6-7.33-1.15-7.88-8.65-8.51-7.14-.6-8.5-1.96-8.64-9.34-.07-3.96-.77-8.14,2.26-11.54,2.16-1.5,4.65-1.84,7.14-1.72,8.89,.44,17.92-1.64,26.65,1.45,3.41,2.29,4.06,5.7,3.96,9.51-.06,2.3-.02,4.88,2.69,5.75,2.56,.82,5.41,1.19,7.66-.68,2.19-1.82,1.62-4.57,1.29-6.99-.44-3.19-2.95-3.62-5.58-3.69-3.43-.09-6.97,.15-9.28-3.21-2.42-2-2.17-4.83-2.21-7.47-.08-4.57-2.34-6.39-6.8-6.71-9.71-.7-9.92-.87-10.5-10.44-.3-4.88-2.5-6.85-7.23-6.85-6.54,.01-13.08,.22-19.61-.17-5.85-.35-7.26-1.85-7.78-7.78q-.77-8.78-9.35-9.51c-6.23-.53-7.52-1.85-8.02-8.18q-.66-8.39-9.11-9.13c-2.51-.22-4.99-.49-6.91-2.41-1.99-6-2.21-11.99,.18-17.94,2.34-2.07,5.24-2.24,8.13-2.26,12.69-.12,25.38-.21,38.06,.03,7.76,.15,8.89,1.36,9.61,9.03,.64,6.83,1.41,7.61,8.45,8.26,2.12,.2,4.22,.36,6.09,1.48,3.13,2.5,2.72,6.12,2.82,9.49,.13,4.24,2.07,6.29,6.34,6.34,3.04,.03,6.15-.04,8.8,1.89,2.23,2.5,2.22,5.61,2.17,8.64-.07,4.84,2.22,6.94,6.97,6.84,2.85-.06,5.74,.05,8.2,1.86,2.35,2.67,2.15,6,2.19,9.2,.05,4.25,2.05,6.2,6.3,6.28,2.78,.05,5.81-.38,7.89,2.25,3.12,2.15,3,5.44,3.17,8.72,.28,5.45,2.45,7.13,7.72,6.22,3.52-.61,4.97-3.64,4.01-8.02-.76-3.5-3.38-3.77-6.15-3.76-3.53,.01-6.92-.24-9.14-3.58-2.95-5.27-2.2-10.66-.57-16.07,2.45-3.6,6.31-3,9.83-3.08,4.26-.11,6.24-1.93,6.16-6.29-.07-4.23-2.32-5.63-6.16-5.69-3.2-.05-6.53,.19-9.23-2.14-1.99-2.66-1.9-5.81-1.91-8.87-.02-4.35-2.12-6.29-6.4-6.32-3.06-.02-6.21,.1-8.83-2.01-2.29-2.73-2.03-6.06-2.13-9.28-.12-3.98-2.05-5.87-6.02-6.03-3.37-.14-6.96,.27-9.65-2.55-1.3-2.04-1.43-4.35-1.63-6.66-.6-6.79-1.76-8.01-8.54-8.06-19.84-.15-39.69,.06-59.53-.12-5.67-.05-11.62,1.35-16.9-2.14-1.72-1.87-1.61-4.25-1.64-6.5-.22-13.35-.22-26.69,0-40.04,.04-2.25-.07-4.63,1.64-6.5,5.75-3,11.57-3.24,17.43-.36,2.98,2.1,3.71,5.16,3.57,8.58-.19,4.81,2.1,7.03,6.93,6.95,2.64-.04,5.45-.17,7.36,2.31,3.12,2.17,3.07,5.49,3.04,8.73-.04,4.25,1.79,6.3,6.2,6.22,4.2-.08,5.77-2.22,5.74-6.1-.03-3.48,.1-6.92,3.41-9.17,5.16-3.05,10.37-2.74,15.62-.33,3.28,2.19,3.65,5.49,3.76,9.1,.17,5.61,2.29,7.25,7.58,6.41,3.63-.58,5.07-3.49,4.15-7.97-.65-3.18-2.89-3.69-5.57-3.82-3.21-.16-6.66,.39-8.96-2.75-3.06-2.33-2.58-5.76-2.67-8.94-.11-3.76-1.81-5.56-5.64-5.61-3.91-.05-6.23,1.36-6.25,5.57-.02,3.65,.04,7.35-3.5,9.76-5.35,2.87-10.67,3-15.95-.14-2.8-1.97-3.42-4.87-3.29-8.02,.2-4.98-2.07-7.42-7.13-7.24-3.12,.11-6.07-.39-8.07-3.22-3.11-5.66-3.44-11.25,.4-16.73,10.54-.02,21.08-.04,31.63-.06,18.43-.02,36.86-.04,55.29-.06l-.05-.03c2.91,2.43,2.62,5.82,2.65,9.06,.11,15.97-.02,31.94,.07,47.9,.05,8.53,1.2,9.64,9.68,9.74,5,.06,10-.03,15,.08,2.74,.06,5.41,.3,7.33,2.62l-.05-.05c2.34,1.89,2.58,4.53,2.62,7.27,.09,5.74-.06,11.48,.09,17.21,.16,6.24,1.27,7.37,7.42,7.54,5.35,.14,10.71-.07,16.06,.11,2.82,.09,5.78-.27,8.33,1.49,6.87,2.43,13.97,.94,20.95,1.08,13.84,.27,13.84,.08,13.84,14.03,.06,6.77,.07,13.65,.08,20.54Z" style="fill:#1d1b1c;"/><path d="M973.7,519.13c-3.7,2.69-7.86,.92-11.79,1.09-5.57,.24-11.16-.13-16.73,.12-4.44,.2-6.22-1.4-6.11-5.98,.24-9.61,.09-19.23,.1-28.85,9.59,.03,19.19,.25,28.77,.01,4.51-.12,6.31,1.36,5.92,5.92-.26,3.04,.06,6.13,.12,9.2-.09,6.16-.19,12.32-.28,18.49Z" style="fill:#14100f;"/><path d="M939.23,485.56c-9.61,.01-19.23-.14-28.83,.11-4.55,.11-6.04-1.62-6-6.08,.16-21.14,.09-42.29,.1-63.44,9.79,.03,19.58,.16,29.37,.04,3.44-.04,5.66,.75,5.47,4.68-.01,9.25-.02,18.49-.02,27.74-.03,12.31-.06,24.63-.09,36.95Z" style="fill:#141011;"/><path d="M1210.79,1110.05c-.06,2.13-1.32,2.32-3.12,2.25-13.04-.49-26.08-.97-39.12-1.28-5.12-.12-5.16-3.45-5.16-7.13,.02-20.57,.01-41.15,.01-61.72s-.03-41.53,.03-62.3c.01-3.39-.05-6.58-3.42-8.55,7.28-.02,14.56-.04,21.83-.07,.08,11.9,.16,23.81,.24,35.71v69.37c-.06,9.55,.01,19.1-.24,28.65-.1,3.72,1.12,5.02,4.89,4.94,8.01-.17,16.04,.06,24.06,.13Z" style="fill:#0d0e08;"/><path d="M171.51,933.84h-23.24v-.58h23.29c-.02,.2-.04,.39-.05,.58Z" style="fill:#365e6a;"/><path d="M145.04,932.17c-2.86-1.07-5.56,1.46-6.74-1.78-.85-2.33,1.6-3.31,3.65-1.45,.8,.72,1.49,1.54,3.09,3.23Z" style="fill:#365e6a;"/><path d="M145,936.27c-1.15,.01-2.31,.02-3.46,.02,.23-1.22,.08-2.88,1.98-2.66,1.39,.17,1.3,1.57,1.48,2.64Z" style="fill:#365e6a;"/><path d="M609.76,1040.43c-5.54-.14-12.63,2.29-16.19-.87-3.67-3.26-.91-10.5-1.17-15.99-.22-4.79,.04-9.61-.06-14.41-.05-2.46,.85-3.48,3.35-3.38,3.26,.13,6.54,.2,9.79-.03s4.33,.94,4.27,4.24c-.19,10.18-.09,20.36-.1,30.55-.01,.01,.11-.11,.11-.11Z" style="fill:#28291b;"/><path d="M557.74,1040.43c-5.54-.14-12.64,2.29-16.19-.87-3.66-3.26-.91-10.51-1.16-16-.22-4.79,.04-9.61-.06-14.41-.06-2.46,.86-3.47,3.36-3.37,3.26,.14,6.55,.22,9.8-.02,3.28-.25,4.32,.95,4.26,4.23-.19,10.18-.1,20.37-.11,30.56-.02,0,.1-.12,.1-.12Z" style="fill:#28291b;"/><path d="M973.87,936.4c-10.18,.01-20.37-.08-30.55,.1-3.26,.06-4.19-1.02-4.28-4.26-.36-13.14-.47-13.14,12.66-13.14,6.15,0,12.3,.1,18.44-.04,2.7-.06,3.8,.83,3.69,3.61-.17,4.61-.07,9.22-.09,13.83,.02,.01,.13-.1,.13-.1Z" style="fill:#28291b;"/><path d="M574.98,849.71c-5.75-.01-11.5-.01-17.24-.01-4.41-5.78-3.35-11.76-.62-17.8,6.1-3.17,12.22-3.06,18.36-.14,2.92,6.07,3.85,12.08-.5,17.95Z" style="fill:#f49b58;"/><path d="M574.98,849.71c.02-5.77,.03-11.54,.05-17.31,.21-.32,.43-.63,.64-.95,5.92-2.48,11.76-2.82,17.49,.58,2.4,6,3.5,11.95-.75,17.67-5.81,0-11.62,.01-17.43,.01Z" style="fill:#ec8c43;"/><path d="M592.41,849.7c-.01-5.77-.03-11.53-.04-17.3,.21-.32,.43-.63,.64-.95,5.92-2.47,11.77-2.82,17.5,.59,2.34,6.01,3.58,11.97-.87,17.65-5.75,0-11.49,0-17.23,.01Z" style="fill:#f49b58;"/><path d="M609.63,849.69c.02-5.77,.05-11.53,.07-17.3,.21-.32,.43-.63,.64-.95,5.92-2.47,11.77-2.82,17.49,.59,2.39,6.01,3.51,11.96-.77,17.68-5.8,0-11.62-.01-17.43-.02Z" style="fill:#ec8c43;"/><path d="M627.07,849.71c-.01-5.77-.02-11.55-.03-17.32,.21-.32,.43-.63,.64-.95,5.92-2.47,11.77-2.82,17.5,.6,2.33,6.02,3.57,11.98-.85,17.67-5.75,0-11.51,0-17.26,0Z" style="fill:#f49b58;"/><path d="M644.33,849.71c.02-5.77,.03-11.55,.05-17.32,.21-.32,.43-.63,.64-.95,5.92-2.47,11.76-2.82,17.49,.58,2.4,6,3.51,11.95-.75,17.67-5.81,0-11.62,.02-17.43,.02Z" style="fill:#ec8c43;"/><path d="M661.76,849.7c-.01-5.77-.03-11.53-.04-17.3,.21-.32,.43-.63,.64-.95,5.92-2.47,11.77-2.82,17.5,.59,2.34,6.01,3.58,11.97-.87,17.65-5.74,0-11.48,.01-17.23,.01Z" style="fill:#f49b58;"/><path d="M678.99,849.69c.02-5.77,.05-11.53,.07-17.3,.21-.32,.43-.63,.64-.95,5.92-2.48,11.76-2.82,17.49,.58,2.4,6,3.51,11.95-.74,17.67h-17.46Z" style="fill:#ec8c43;"/><path d="M696.44,849.69c-.02-5.77-.03-11.53-.05-17.3,.21-.32,.43-.63,.64-.95,5.92-2.47,11.77-2.82,17.5,.6,2.35,6.02,3.56,11.98-.85,17.67-5.74-.01-11.49-.01-17.24-.02Z" style="fill:#f49b58;"/><path d="M713.69,849.71c.02-5.77,.03-11.54,.05-17.31,.21-.32,.43-.63,.64-.95,5.92-2.47,11.76-2.82,17.49,.58,2.4,6,3.51,11.95-.75,17.67-5.81,0-11.62,.01-17.43,.01Z" style="fill:#ec8c43;"/><path d="M731.12,849.7c-.01-5.77-.03-11.53-.04-17.3,.19-.3,.38-.61,.58-.91,5.49-2.81,11.06-2.14,16.65-.33,.64,.4,1.14,.94,1.49,1.6,1.46,5.81,3.02,11.63-1.45,16.93-5.74,0-11.49,0-17.23,.01Z" style="fill:#f49b58;"/><path d="M748.35,849.69c.02-5.76,.03-11.53,.05-17.29,4.88-3.71,12.28-3.7,17.36,.02l-.02-.02c3.7,5.03,3.72,12.24,.06,17.42l.09,.07c-5.85-.08-11.7-.14-17.54-.2Z" style="fill:#ec8c43;"/><path d="M557.67,832.39c.02,5.77,.04,11.53,.06,17.3-5.82,0-11.63,0-17.45-.01-4.26-5.24-2.7-10.99-1.46-16.72,.31-.69,.77-1.25,1.37-1.7,5.65-2.03,11.29-2.59,16.88,.2,.2,.32,.4,.63,.6,.93Z" style="fill:#ec8c43;"/><path d="M540.35,832.39c-.02,5.77-.04,11.53-.07,17.3-5.79,.03-11.57,.06-17.36,.09h.06c-3.7-5.11-3.69-12.34,.02-17.39l-.02,.02c5.08-3.72,12.49-3.73,17.37-.02Z" style="fill:#f49b58;"/><path d="M939.23,1023.07c-1.73,.03-3.45,.08-5.18,.08-13.27,.03-14.24-1.13-12.23-14.54,.03-.19-.06-.45,.04-.57,3.87-4.76,9.1-1.14,13.6-2.17,2.59-.59,3.81,.71,3.71,3.51-.16,4.6-.05,9.21-.06,13.81,0-.01,.12-.12,.12-.12Z" style="fill:#28291b;"/><path d="M878.94,868.48h189.77v.58h-189.56c-.07-.19-.14-.38-.21-.58Z" style="fill:#0c0e03;"/><path d="M1213.1,1179.21c1.03,3.23,2.06,6.46,3.1,9.7-14.23,2.66-15.81,1.67-15.81-9.7,.15,.11,.34,.19,.46,.34q5.24,6.71,9.95-.34c.39-.78,.77-.78,1.16,0h1.14Z" style="fill:#0d0e0a;"/><path d="M1211.94,1179.21h-1.16v-62.63h1.16v62.63Z" style="fill:#0d0e08;"/><path d="M956.41,1144.47h17.47v17.47c-5.66-.55-13.25,2.42-16.47-1.32-2.8-3.26-.85-10.61-1-16.15Z" style="fill:#28291b;"/><path d="M523.01,832.4c-.01,5.79-.02,11.59-.02,17.38-4.22-.01-8.46-.18-12.67,.01-3.42,.16-4.91-.96-4.71-4.57,.23-4.21,.03-8.44,.01-12.67,5.79-.05,11.59-.1,17.39-.15Z" style="fill:#ec8c43;"/><path d="M800.28,797.65c-3.85,.02-7.73,.36-11.54-.01-4.79-.47-5.79,1.61-5.74,5.96,.13,11.44-.05,11.43-11.52,11.47-1.92,.01-3.85,.11-5.77,.17-5.25,4.39-11.37,1.9-17.14,2.18-5.81,.42-11.63,.48-17.44,0-5.78,.44-11.57,.47-17.35,0-5.78,.44-11.56,.47-17.34,0-5.78,.44-11.56,.47-17.34,0-5.78,.44-11.56,.47-17.34,0-5.78,.44-11.56,.47-17.34,0-5.78,.44-11.56,.47-17.34,0-5.78,.44-11.56,.47-17.34,0-5.78,.44-11.56,.47-17.34,0-5.78,.44-11.56,.47-17.34,0-5.79,.44-11.57,.47-17.36,0-5.83,.46-11.66,.44-17.49,.01-5.81-.26-11.96,2.18-17.25-2.19-5.72-.08-11.44-.17-17.16-.25-.05-4.41-.22-8.82-.12-13.22,.07-2.92-.97-4.17-3.99-4.08-4.4,.14-8.81-.02-13.22-.05-.08-23.04-.15-46.07-.23-69.11,1.48-3.05,4.42-2.72,7-2.77,9.17-.17,18.35-.39,27.51,.22,9.62-.56,19.26-.49,28.88-.2,6.83,.21,8.32,1.83,8.65,8.76,.26,5.39,.06,10.79,.14,16.18,.13,8.15,1.39,9.44,9.36,9.57,5.78,.09,11.56-.18,17.33,.19,5.89,.37,7.4,1.88,7.78,7.78,.4,6.16,.05,12.33,.23,18.49,.19,6.44,1.61,8.12,7.78,8.15,27.74,.16,55.48,.17,83.22-.01,5.64-.04,7.19-1.72,7.44-7.31,.28-6.35-.14-12.72,.25-19.07,.38-6.2,1.91-7.7,8.16-8.06,5.77-.33,11.56-.07,17.34-.18,7.43-.15,8.81-1.5,8.98-8.78,.14-5.97-.17-11.95,.21-17.91,.38-5.87,1.93-7.62,7.8-7.75,19.26-.42,38.53-.28,57.79-.08,2.36,.02,4.63,.4,6.15,2.52l.52,.06c-.12,19.83-.23,39.66-.35,59.48,0,3.29-.08,6.56-.13,9.84Z" style="fill:#793f11;"/><path d="M522.96,815.24c5.8,0,11.61,.01,17.41,.01,3.67,4.93,3.65,12.17-.05,17.16l.02-.02c-5.79,.01-11.57,.01-17.36,.02,0-5.72-.01-11.44-.02-17.17Z" style="fill:#ec8c43;"/><path d="M522.93,728.18c-11.56,.12-23.13,.23-34.69,.35-5.74-.1-11.47-.21-17.21-.31-2.87-3.59-3.74-13.35-1.51-16.83,1.69-2.64,4.39-2.78,7.12-3,8.45-.66,8.91-1.15,8.95-9.79,.03-4.62,.12-9.24-.09-13.86-.16-3.4-1.83-5.38-5.36-5.51-3.6-.13-5.84,1.32-6.33,5.15-.48,3.68,.94,8.25-3.09,10.55-4.37,2.5-9.37,1.43-14.14,1.02-1.34-.12-2.56-.81-3.6-1.72-1.67-2.08-1.91-4.57-1.96-7.1-.13-7.13-.2-14.26,.01-21.38,.23-7.68,1.66-9.12,9.2-9.4,5.97-.23,11.94,.05,17.91-.15,5.76-.19,7.19-1.58,7.4-7.23,.19-5,.06-10.02,.03-15.02-.03-4.45-2.04-6.73-6.61-6.94-3.54-.17-8.03,.68-9.58-3.61-1.85-5.12-1.75-10.63,.1-15.84,.76-2.14,2.96-2.86,5.21-3.06,1.92-.17,3.85-.17,5.76-.44,3.45-.49,4.99-2.61,4.93-5.99-.06-3.48-1.91-5.36-5.33-5.57-5.96-.36-11.94-.06-17.91-.19-3.08-.07-6.2,.05-8.9-1.83-3.6-5.28-2.56-11.11-1.46-16.7,.71-3.62,4.25-3.89,7.44-4.14,8.44-.65,8.45-.71,9.17-9.13,.54-6.29,1.87-7.63,8.06-8.18q8.57-.76,9.27-9.05c.56-6.79,1.64-7.73,9.69-8.39,5.73-.47,7.66-2.2,7.36-6.56-.2-2.88-1.59-4.86-4.5-5.09-6.52-.52-13.07-.44-19.6-.05-2.89,.18-4.45,2.01-4.78,4.88-.24,2.1-.23,4.22-.48,6.33-.3,2.52-1.53,4.96-3.94,5.12-11.23,.74-22.53,2.48-33.62-1.12-3.5-5.1-2.36-10.75-1.57-16.19,.53-3.65,3.85-4.28,7.12-4.56,8.84-.76,8.83-.81,9.71-9.77,.56-5.71,1.98-7.05,8.06-7.57q8.53-.73,9.23-9.04c.53-6.53,1.82-7.78,8.53-8.32,8.05-.65,8.62-1.25,8.69-9.47,.04-4.23-.06-8.46,0-12.69,.08-4.75-1.96-7.17-6.85-7.19-3.05-.01-6.22,.04-8.68-2.34-2.68-4.87-1.9-10.08-1.28-15.18,.45-3.7,3.35-4.68,6.67-5.07,9.92-1.14,10.08-1.36,10.12-11.17,.05-10.16-.08-20.32,.08-30.47,.04-2.87,0-5.83,2.73-7.78v.06c1.02-1.18,2.08-2.36,3.77-2.41,10.13-.27,20.3-1.54,30.36,.86,.69,.35,1.25,.85,1.68,1.5,1.94,3.57,1.48,7.47,1.5,11.28,.04,7.87,.22,15.74-.31,23.61,.11,2.31,.34,4.61,.34,6.92,.03,98.21,.04,196.42-.05,294.64-.03,3.55,.79,7.49-2.77,10.13Z" style="fill:#f49b58;"/><path d="M453.58,589.71c10.2-.02,20.41,.08,30.61-.14,3.3-.07,4.16,.97,4.22,4.22,.24,12.97,.36,13.08-12.54,13.1-3.49,.01-5.01,.6-5,4.63,.01,12.65-.18,12.81,12.36,12.69,3.93-.04,5.37,.84,5.19,5.03-.34,8.26-.34,16.56,0,24.83,.17,4.22-1.3,5.14-5.22,5-8.46-.28-16.94,.04-25.41-.16-3.26-.08-4.28,.91-4.23,4.21,.18,10.2,.02,20.41,0,30.61-.22,.31-.44,.62-.66,.93-2.08,1.8-4.65,1.62-7.11,1.65-12.07,.14-24.14,.14-36.21,0-2.85-.03-5.84,.11-7.84-2.61-4.03-.02-8.07-.18-12.09-.01-3.98,.17-5.48-1.52-5.41-5.45,.16-9.79,.09-19.58,.11-29.37,2.05-2.63,5.01-2.53,7.89-2.57,10.76-.13,21.51,.03,32.27-.08,7.61-.07,8.35-.81,9.16-8.49,.2-1.91,.22-3.87,1.83-5.27,2.22-3.32,5.63-3.55,9.17-3.55,2.31-.01,4.9,.02,5.74-2.76,.78-2.58,1.2-5.45-.76-7.68-1.87-2.12-4.62-1.57-7.06-1.18-3.22,.51-3.53,3.12-3.56,5.72-.04,3.5-.06,6.98-3.4,9.27-2.25,2.46-5.27,1.98-8.06,2.01-10.69,.15-21.39-.03-32.08,.1-6.94,.09-7.91,1.02-8.51,7.83-.22,2.51-.39,4.98-2.6,6.69-20.77,.02-41.54-.06-62.31,.14-5.1,.05-7.44-1.5-7.21-6.92,.31-7.3,.26-14.62,.01-21.92-.16-4.58,1.68-6.13,6.11-5.97,6.92,.24,13.85,.07,20.77,.06q7.84-.02,7.86-8.13c.01-6.73,.21-13.47-.07-20.19-.19-4.68,1.38-6.55,6.25-6.44,9.42,.23,18.84-.05,28.26-.11,.3,.14,.6,.27,.9,.4,2.23,2.11,1.98,4.93,2.01,7.58,.06,4.47,1.99,6.79,6.63,6.8,16.95,.04,33.91,.06,50.86-.01,4.27-.02,6.35-2.02,6.48-6.32,.08-2.64-.28-5.47,1.79-7.68,.29-.15,.57-.32,.86-.49Z" style="fill:#1d1b1c;"/><path d="M557.64,312.23c67.04-.01,134.09,.04,201.13-.14,5.77-.02,7.25,2.08,7.07,7.43-.3,9.04,.02,18.1,.08,27.16-.2,.33-.39,.67-.59,1-3.55,2.77-7.75,1.88-11.7,1.89-59.89,.08-119.79,.05-179.68,.05-3.66,0-7.32,.09-10.97-.15-2.1-.13-4.28-.08-5.94-1.76-1.53-2.1-1.93-4.53-1.99-7.04-.17-7.25-.18-14.5,.01-21.76,.07-2.53,.37-4.98,2.58-6.68Z" style="fill:#1d1b1c;"/><path d="M436.24,537.69c10.18-.02,20.37-.16,30.55,0,3.2,.05,4.42-.79,4.26-4.16-.19-4.17-1.41-9.88,.75-12.19,2.85-3.05,8.68-.85,13.22-1.01,5.76-.21,11.64-.77,17.26,.14,7.4,1.19,1.97,7.4,3.15,11.15,.6,1.9,2.17,6.03-3.14,6.08-4.53,.04-10.53-2.14-13.17,1.01-2.21,2.64-.87,8.42-.75,12.8,.08,2.9-1.12,3.49-3.73,3.51-4.36,.04-9.99-1.9-12.76,.82-2.78,2.74-.79,8.38-.85,12.74-.04,2.57-.58,3.63-3.47,3.82-4.6,.29-10.78-2.45-13.36,1.46-2.13,3.23-.52,8.94-.57,13.55-.01,.77-.04,1.54-.06,2.3l.13-.14c-1.55,2-3.71,2.62-6.11,2.65-19.21,.24-38.41,.29-57.62-.02-2.21-.04-4.16-.66-5.6-2.45l-.33-.3c.08-9.35,.39-18.71,.13-28.05-.14-5.11,1.77-6.9,6.69-6.49,3.6,.3,7.25,.09,10.88,.11,2.45,1.88,2.54,4.6,2.52,7.31-.03,4.03,.6,7.34,5.84,7.23,4.75-.1,5.82-1.18,6.16-7.46,.15-2.74,.27-5.4,2.75-7.22l-.14,.14c1.97-2.6,4.84-2.59,7.72-2.77,6.06-.37,6.6-.99,7.03-7.16,.17-2.42-.22-5.01,1.8-6.96,.28-.15,.55-.29,.82-.44Z" style="fill:#1d1b1c;"/><path d="M488.39,381.6c-.02,15.73-.15,31.45,0,47.18,.04,3.63-.8,4.9-4.7,4.9-12.71-.02-12.7,.15-12.72,12.71,0,1.53-.04,3.07-.07,4.6-.14,.27-.29,.53-.43,.8-2.15,2.18-4.97,1.8-7.57,1.76-4.55-.07-6.76,1.8-6.6,6.47,.09,2.85,.06,5.76-1.47,8.37-.39,.57-.89,.99-1.5,1.3-5.48,1.79-10.98,1.74-16.47,.12-.63-.25-1.16-.64-1.61-1.15-1.8-2.89-1.61-6.17-1.69-9.38-.1-3.71-1.89-5.49-5.62-5.66-3.14-.14-6.59,.49-8.85-2.67-.04-9.96-.01-19.92-.16-29.88-.06-3.89,1.91-4.92,5.38-4.88,7.87,.1,15.75-.12,23.61,.08,4.2,.1,5.87-1.46,5.76-5.71-.2-7.87,.06-15.74-.09-23.61-.08-3.94,1.45-5.52,5.42-5.45,9.8,.18,19.59,.09,29.38,.1Z" style="fill:#1d1b1c;"/><path d="M800.37,381.61c.02,11.49,.03,22.98,.05,34.47-.2,.34-.4,.67-.6,1.01-2.4,2.14-5.4,1.81-8.23,1.82-29.02,.11-58.04,.16-87.07-.01-9.47-.06-10.61-1.31-10.8-10.72-.14-6.73-.2-13.46,.05-20.18,.28-7.29,1.71-8.95,8.92-9.01,20.95-.19,41.89-.52,62.84,.18,9.01-.54,18.03-.36,27.04-.26,2.86,.03,5.84-.04,7.8,2.7Z" style="fill:#5a2e0b;"/><path d="M470.9,450.99c5.55,.1,12.75-1.88,16.21,.86,3.69,2.92,.91,10.43,1.16,15.93,.21,4.61-.1,9.24,.09,13.85,.12,2.89-.63,4.08-3.8,4.05-4.35-.04-10.02-1.97-12.74,.86-2.68,2.8-.79,8.42-.79,12.8,0,2.74-.84,3.67-3.61,3.66-4.38,0-9.98-1.88-12.81,.77-2.89,2.7-.91,8.37-.9,12.72,.01,3.13-1.1,3.82-4.02,3.86-4.34,.06-10.25-2.07-12.6,1.01-2.17,2.84-.69,8.46-.81,12.86-.03,1.15-.04,2.31-.06,3.46l.13-.14c-5,3.78-12.46,3.78-17.48,0l.14,.14c-3.74-5.02-3.78-12.27-.1-17.3,.56-5.74-1.08-11.63,1.19-17.25,1.51-3.52,4.8-2.73,7.51-2.86,4.05-.2,5.98-2.01,5.98-6.08,0-2.88-.03-5.79,1.32-8.48,.3-.56,.72-1.02,1.24-1.38,2.82-1.57,5.95-1.43,9.01-1.5,3.77-.08,5.62-1.9,5.74-5.69,.11-3.22-.3-6.66,2.79-8.98l-.14,.13c2.14-2.87,5.31-2.75,8.36-2.77,4.29-.02,6.32-2.05,6.34-6.34,.02-3.05-.1-6.22,2.77-8.36l-.12,.17Z" style="fill:#1d1b1c;"/><path d="M453.57,693.75c.77-.02,1.53-.05,2.3-.06,4.77-.11,10.71,1.48,13.99-.79,3.27-2.26,.12-8.7,1.25-13.04,1.92-7.4,8.09-2.16,12.17-3.37,2.38-.71,5.3-.89,5.14,3.63-.32,9.01-.2,18.03-.03,27.05,.06,2.99-.84,3.96-3.89,3.95-4.34-.02-10.1-1.99-12.66,.89-2.72,3.06-.59,8.79-.84,13.35-.05,.95,.02,1.92,.04,2.88-3.99,.05-7.99,.26-11.97,.11-3.91-.15-5.36,1.42-5.48,5.38-.36,12-.49,12-12.46,12-5.74,0-11.48-.08-17.22,.01-3.3,.05-5.12-1.2-4.91-4.69,.26-4.16-.85-8.44,1.13-12.44,1.32-3.29,4.35-2.79,6.9-2.86,4.57-.14,6.37-2.32,6.63-6.8,.58-9.71,.72-9.83,10.87-10.58,4.22-.31,6.36-2.05,6.41-6.36,.04-3.05-.1-6.24,2.78-8.37l-.15,.11Z" style="fill:#1d1b1c;"/><path d="M453.71,693.61c-.02,.96-.05,1.91-.07,2.87-.1,4.57,1.48,10.36-.73,13.38-2.42,3.31-8.54,.89-13.04,1.08-2.68,.11-3.36,.89-3.69,3.57-.56,4.59,2.87,10.85-1.95,13.41-3.76,2-9.34,.57-14.12,.66-2.41-4.27-.89-8.89-1.04-13.33-.11-3.07-.69-4.37-4.1-4.34-4.32,.03-11.09,2.04-12.44-.87-2.12-4.58-.7-10.8-.78-16.32,17.32-.03,34.64-.07,51.96-.11Z" style="fill:#f49b58;"/><path d="M592.22,277.45c.04-10.16,.21-20.32,.06-30.48-.05-3.25,.89-4.29,4.18-4.21,8.81,.21,17.64,.21,26.45,.01,3.28-.08,4.24,.94,4.19,4.2-.15,10.16,.02,20.32,.07,30.48h-34.95Z" style="fill:#2a2627;"/><path d="M557.64,312.23c.02,11.48,.03,22.97,.05,34.45-.55,1.34-1.55,2.29-2.96,2.36-10.2,.51-20.42,1.67-30.55-.71-.65-.42-1.11-.99-1.4-1.71,.07-9.23,.43-18.48,.11-27.7-.2-5.47,1.89-7,7.05-6.82,9.22,.33,18.47,.12,27.7,.13Z" style="fill:#2a2627;"/><path d="M800.37,381.61c-11.56-.03-23.13-.07-34.69-.1-3.83-5.3-3.85-29.18-.04-34.54l.27-.3c9.17,.07,18.36,.44,27.52,.09,5.67-.21,7.29,1.93,7.08,7.32-.35,9.17-.12,18.35-.14,27.53Z" style="fill:#1d1b1c;"/><path d="M523.04,381.55c-11.55,.04-23.1,.07-34.65,.11-.02-9.37,.23-18.76-.17-28.12-.23-5.48,1.94-6.89,7.03-6.76,9.17,.25,18.35-.07,27.53-.16l.33,.36c3.82,5.43,3.77,29.48-.07,34.57Z" style="fill:#2a2627;"/><path d="M419.02,485.73v-17.62c5.21-3.58,12.41-3.49,17.35,.21l-.14-.14c3.78,5.01,3.78,12.47,0,17.48l.14-.14c-4.94,3.72-12.15,3.8-17.35,.21Z" style="fill:#1d1b1c;"/><path d="M419.02,485.73c5.78-.07,11.57-.14,17.35-.2-.01,.19-.02,.38-.03,.58-.13,5.35,1.72,12.23-.91,15.65-2.81,3.64-10.07,.54-15.32,1.4-2.54-5.68-.52-11.63-1.09-17.43Z" style="fill:#f49b58;"/><path d="M436.37,468.33c-5.78-.07-11.57-.14-17.35-.21,.03-5.72,.05-11.43,.08-17.15,5.64,.36,13.18-2.53,16.37,1.25,2.78,3.28,.79,10.58,.9,16.11Z" style="fill:#f49b58;"/><path d="M817.63,416.3c.03,5.77,.06,11.55,.09,17.32l.13-.13c-5.78,.07-11.57,.14-17.35,.21-3.8-4.61-3.82-12.29-.03-17.19l-.05-.42c5.74,.06,11.47,.13,17.21,.21Z" style="fill:#f49b58;"/><path d="M418.92,520.4c.03,5.77,.07,11.53,.1,17.3-1.72-.03-3.45-.07-5.17-.07-12.93-.02-14.43-1.97-12.3-14.97,.43-2.64,1.91-2.37,3.59-2.37,4.59,.02,9.19,.07,13.78,.11Z" style="fill:#f49b58;"/><path d="M418.88,537.56h17.48c-.54,5.67,2.42,13.27-1.32,16.5-3.25,2.8-10.62,.83-16.17,.97,.01-5.83,.01-11.65,.01-17.47Z" style="fill:#f49b58;"/><path d="M419.02,554.88c-.02,1.72-.06,3.44-.06,5.16,0,12.89-2.06,14.49-14.94,12.32-2.6-.44-2.41-1.88-2.4-3.58,.02-4.59,.08-9.17,.13-13.76,5.76-.05,11.52-.09,17.27-.14Z" style="fill:#f49b58;"/><path d="M765.79,849.81c-.02-5.81-.04-11.61-.06-17.42,5.83,.03,11.65,.05,17.48,.08-.05,4.55-.18,9.09-.1,13.64,.05,2.67-1,3.72-3.68,3.66-4.54-.1-9.09,.02-13.64,.04Z" style="fill:#f49b58;"/><path d="M748.45,815.24c5.75,0,11.5,.01,17.26,.01,.02,5.72,.03,11.44,.05,17.17-5.79-.01-11.57-.01-17.36-.02l.02,.02c-3.74-5.05-3.73-12.3,.03-17.18Z" style="fill:#f49b58;"/><path d="M800.47,416.5c.01,5.73,.02,11.46,.03,17.19,0,17.27-.01,34.55-.01,51.82,3.62,5.2,3.61,12.33-.01,17.54,0,5.71,.01,11.43,.01,17.14,2.31,1.94,2.56,4.62,2.58,7.35,.06,9.03,.36,18.06-.28,27.09,.39,5.87,.5,11.75,0,17.62,.45,5.85,.43,11.69,0,17.54,.55,11.44,.58,22.88-.01,34.32,.41,5.85,.49,11.69,0,17.54,.47,5.88,.41,11.76,0,17.64,.62,9.05,.34,18.1,.28,27.15-.02,2.73-.27,5.42-2.59,7.36-.07,11.5-.15,23-.22,34.51-20.21,.03-40.43,.05-60.64,.08-9.55,.02-8.48-.75-8.54,8.82-.04,6.16,0,12.32-.01,18.48q-.01,7.36-7.66,7.37c-6.74,.01-13.51,.39-20.21-.12-5.8-.44-7.24,1.77-6.92,7.19,.44,7.48-.03,15.01,.16,22.52,.09,3.58-.87,5.17-4.82,5.15-31.57-.12-63.15-.12-94.72-.02-3.61,.01-4.65-1.41-4.59-4.79,.15-7.89-.29-15.81,.15-23.67,.3-5.3-1.66-6.6-6.59-6.36-7.49,.37-15.03-.18-22.52,.19-4.74,.23-5.93-1.58-5.77-5.98,.28-7.88-.11-15.79,.15-23.68,.14-4.13-1.44-5.27-5.37-5.2-9.81,.17-19.63-.04-29.45-.1,.02-101.52,.05-203.05,.08-304.57,0-2.5,.05-5.01,.08-7.51,2.61-3.13,6.27-2.53,9.65-2.54,26.14-.11,52.28-.04,78.42-.06,2.31,0,4.61,.03,6.92-.12,3.91-.25,5.97-2.32,6.11-6.23,.2-5.38,.14-10.76,.03-16.14-.09-4.54-2.56-6.57-6.94-6.65-2.11-.04-4.23-.06-6.34-.06-25.95-.01-51.9,.05-77.85-.05-3.57-.01-7.43,.63-10.16-2.72l.1,.03c.03-11.52,.05-23.04,.08-34.56,11.53-.1,23.05-.21,34.58-.31,14.82,.06,29.65,.17,44.47,.19,54.49,.05,108.99,.07,163.48,.11,.01,11.51,.02,23.02,.04,34.54-21.16,.01-42.32,.14-63.47-.05-4.38-.04-6.16,.96-5.92,5.71,.39,7.87,.34,15.78,.01,23.65-.18,4.35,1.22,5.53,5.52,5.5,30.77-.17,61.55-.1,92.33-.08,2.13-.02,4.24,.14,6.35,.23Z" style="fill:#e68235;"/><path d="M800.48,555.06c0-11.62,.01-23.25,.01-34.87,4.42,.03,8.85,.22,13.27,.05,2.85-.11,4.12,.56,4.09,3.76-.03,4.36-1.98,10.01,.84,12.74,2.79,2.71,8.41,.78,12.78,.82,2.68,.02,4.01,.76,3.63,3.58-.03,.19-.01,.38,0,.58,.15,4.19-1.31,9.91,.85,12.2,2.86,3.03,8.69,.84,13.24,1,5.76,.2,11.54,.15,17.31,.01,2.5-.06,3.26,.79,3.35,3.29,.16,4.54-2.09,10.54,.98,13.21,2.57,2.23,8.4,.9,12.78,.82,2.81-.05,3.68,.96,3.56,3.67-.21,4.61-.12,9.23-.16,13.84,0,0,.14-.14,.14-.13-11.59-.02-23.17-.03-34.76-.05-.28-.16-.56-.33-.84-.49-1.83-1.83-1.6-4.23-1.77-6.51-.5-6.65-1.29-7.42-8.11-7.54-5.39-.1-10.78,.01-16.17-.06-2.51-.03-5.01-.08-7.34-1.19-.6-.26-1.1-.65-1.51-1.16-1.51-2.55-1.65-5.41-1.56-8.24,.15-4.83-2.14-6.89-6.88-6.77-2.83,.07-5.75,.07-7.73-2.56Z" style="fill:#f49b58;"/><path d="M800.49,503.04c0-5.85,0-11.69,.01-17.54,26.92,.03,53.84,.19,80.76-.03,4.81-.04,6.5,1.16,5.95,6-.43,3.8-.13,7.68-.16,11.53-.14,.26-.28,.53-.42,.79-2.35,2.33-5.4,1.75-8.21,1.79-4.1,.06-5.92,1.88-5.98,5.98-.04,2.81,.54,5.86-1.79,8.21-.26,.14-.53,.28-.8,.41-.77,.02-1.53,.08-2.3,.06-4.77-.09-10.71,1.48-13.99-.78-3.26-2.25-.99-8.56-1.02-13.06-.03-3.47-1.77-3.52-4.31-3.5-15.91,.11-31.83,.11-47.74,.14Z" style="fill:#f49b58;"/><path d="M852.38,589.57c.02,.77,.05,1.54,.07,2.31,.12,4.78-1.46,10.75,.83,14.01,2.27,3.24,8.59,.88,13.11,1,2.93,.08,3.42,1.26,3.46,3.81,.07,4.36-1.96,10.12,.86,12.72,3.03,2.8,8.79,.73,13.35,.86,5.57,.16,11.16,.14,16.73-.01,2.63-.07,3.59,.65,3.75,3.5,.78,13.9,.88,13.91-12.93,13.89-13.08-.01-26.15-.05-39.23-.08-.27-.15-.54-.29-.81-.44-2.29-2.34-1.74-5.37-1.79-8.16-.08-4.04-1.86-5.96-5.93-5.98-3.22-.02-6.55,.19-9.39-1.92-.48-.55-.83-1.17-1.05-1.86-1.92-10.11-.96-20.27-.64-30.41,.07-2.29,1.2-4.47,3.38-4.88,5.56-1.06,11.34-2.7,16.36,1.77l-.13-.13Z" style="fill:#f49b58;"/><path d="M800.49,641.76c0-5.84,0-11.69,.01-17.53,5.51-3.91,29.39-3.8,34.68,.16l-.14-.14c2.87,2.14,2.75,5.31,2.77,8.37,.02,4.29,2.05,6.32,6.34,6.34,3.05,.02,6.22-.1,8.36,2.77l-.13-.14v17.45l.14-.14c-11.61,.01-23.21,.01-34.82,.02-.27-.15-.54-.29-.81-.44-1.36-1.26-1.76-2.94-1.67-4.65,.5-9.14-2.53-10-9.28-9.61-2.21,.13-4.04-.74-5.45-2.46Z" style="fill:#f49b58;"/><path d="M800.48,693.78c0-11.62,.01-23.25,.01-34.87,5.13-3.63,12.37-3.57,17.34,.16l-.13-.14c.02,.77,.05,1.53,.06,2.3,.11,4.77-1.47,10.69,.79,13.98s8.54,.89,13.05,1.05c2.78,.1,3.65,1.01,3.54,3.7-.18,4.59-.1,9.19-.12,13.79l.14-.14c-11.56,.05-23.12,.11-34.68,.17Z" style="fill:#f49b58;"/><path d="M835.02,693.74c1.72-.02,3.44-.06,5.16-.06,12.87-.02,15.39,2.34,11.89,14.84-1.62,5.79-8.57,1.3-12.96,2.42-2.05,.52-4.2,.32-4.06-2.99,.21-4.78,.08-9.56,.1-14.35,.01,0-.13,.14-.13,.14Z" style="fill:#f49b58;"/><path d="M869.72,451c1.72-.03,3.44-.08,5.16-.08,12.85-.02,15.38,2.35,11.89,14.83-1.62,5.78-8.56,1.3-12.95,2.42-2.06,.53-4.21,.33-4.07-2.98,.2-4.77,.09-9.56,.11-14.34-.01,.02-.14,.15-.14,.15Z" style="fill:#f49b58;"/><path d="M852.31,450.81c.04,1.53,.12,3.06,.12,4.6,.02,13.74,.03,13.64-13.82,12.93-2.77-.14-3.67-.95-3.56-3.66,.19-4.6,.1-9.2,.12-13.81l-.14,.14c5.8-.02,11.6-.04,17.41-.06,.01-.01-.13-.14-.13-.14Z" style="fill:#f49b58;"/><path d="M886.99,589.75c4.4-.04,8.81,.07,13.19-.16,3.06-.16,4.49,.54,4.33,4.03-.74,16.69,3.56,12.78-13.88,13.4-2.8,.1-3.67-.93-3.57-3.63,.17-4.59,.06-9.18,.06-13.77,.01,0-.13,.13-.13,.13Z" style="fill:#f49b58;"/><path d="M921.88,572.2c-5.55-.08-12.96,1.98-16.17-.81-3.71-3.22-.93-10.81-1.18-16.5,.19-.29,.38-.59,.57-.88,5.35-2.54,10.7-2.54,16.06,0,.19,.3,.38,.59,.57,.89,.01,5.82,.01,11.63,.02,17.45l.13-.15Z" style="fill:#f49b58;"/><path d="M869.85,450.87c-5.85-.02-11.7-.04-17.54-.06l.14,.13c0-1.73-.12-3.46,.01-5.17,.32-3.94-1.86-9.85,.97-11.36,3.76-2,9.27-.7,14.03-.81,2.74-.06,2.3,1.96,2.3,3.61,.01,4.6-.03,9.2-.05,13.79,.01,0,.14-.13,.14-.13Z" style="fill:#f49c58;"/><path d="M835.18,450.86c-5.69-.31-13.29,2.53-16.51-1.2-2.79-3.22-.73-10.63-.82-16.18l-.13,.13c5.55,.11,12.97-1.92,16.15,.88,3.68,3.23,.91,10.82,1.17,16.51,0,0,.14-.14,.14-.14Z" style="fill:#f49c58;"/><path d="M887.05,503.01c5.68,.28,13.27-2.52,16.5,1.18,2.79,3.2,.75,10.61,.84,16.16-.2,.3-.39,.6-.59,.9-5.5,2.72-11.05,2.12-16.62,.25-.64-.41-1.13-.95-1.47-1.62-1.43-5.83-2.97-11.68,1.48-17l-.14,.13Z" style="fill:#f49b58;"/><path d="M887.19,537.54c-5.55-.09-12.95,1.95-16.16-.84-3.71-3.23-.91-10.81-1.18-16.5l-.14,.14c5-3.78,12.47-3.78,17.47,0l-.13-.13c4.23,5.32,3.31,10.97,1.06,16.7-.31,.21-.62,.42-.92,.63Z" style="fill:#f49c58;"/><path d="M921.74,572.34c1.72-.02,3.44-.05,5.17-.05,12.81-.01,15.4,2.43,11.87,14.86-1.63,5.73-8.58,1.3-12.98,2.41-2.09,.53-4.19,.28-4.04-3.02,.21-4.78,.1-9.57,.13-14.35l-.15,.15Z" style="fill:#f49c58;"/><path d="M904.39,520.35c5.68,.26,13.27-2.53,16.5,1.18,2.79,3.21,.75,10.61,.85,16.16-.2,.3-.39,.6-.59,.9-5.5,2.73-11.05,2.12-16.63,.25-.64-.41-1.13-.95-1.47-1.62-1.43-5.84-2.97-11.68,1.48-17l-.14,.13Z" style="fill:#f49b58;"/><path d="M852.38,659.05c1.72-.02,3.44-.04,5.17-.05,12.82-.02,15.41,2.43,11.87,14.86-1.63,5.73-8.59,1.31-12.99,2.4-2.07,.51-4.19,.33-4.03-3,.23-4.78,.09-9.57,.11-14.35,.01,0-.13,.14-.13,.14Z" style="fill:#f49c58;"/><path d="M904.53,554.89c-5.69-.27-13.28,2.52-16.5-1.18-2.79-3.21-.75-10.62-.84-16.17l-.14,.15c5.01-3.79,12.47-3.79,17.48,0l-.14-.14c3.78,5.01,3.78,12.47,0,17.48l.14-.14Z" style="fill:#f49b58;"/><path d="M921.73,537.68c1.72-.02,3.46-.17,5.17-.04,3.94,.31,9.86-1.87,11.38,.95,2.01,3.75,.71,9.27,.84,14.03,.07,2.74-1.94,2.33-3.59,2.33-4.6,.01-9.2-.03-13.8-.05l.14,.14c-3.78-5.01-3.78-12.47,0-17.48l-.14,.12Z" style="fill:#f49b58;"/><path d="M557.64,815.25c5.81,0,11.61,.01,17.42,.01,3.66,4.92,3.64,12.17-.05,17.15l.02-.02h-17.36l.02,.02c-3.7-4.98-3.72-12.23-.05-17.16Z" style="fill:#ec8c43;"/><path d="M575.01,832.41c.02-5.72,.03-11.43,.05-17.15,5.75,0,11.5-.01,17.26-.01,3.75,4.87,3.77,12.12,.03,17.16l.02-.02c-5.79,.01-11.58,.02-17.36,.02Z" style="fill:#f49b58;"/><path d="M592.35,832.41c-.01-5.72-.02-11.44-.03-17.16,5.81-.01,11.61-.01,17.42-.02,3.67,4.95,3.65,12.19-.05,17.18l.02-.02c-5.79,.01-11.58,.02-17.36,.02Z" style="fill:#ec8c43;"/><path d="M609.68,832.42c.02-5.73,.03-11.45,.05-17.18,5.75,0,11.5,.01,17.26,.01,3.76,4.87,3.77,12.12,.03,17.17l.02-.02c-5.78,0-11.57,.01-17.36,.02Z" style="fill:#f49b58;"/><path d="M627.02,832.41c-.01-5.72-.02-11.45-.03-17.17,5.81,.01,11.62,.02,17.43,.03,3.66,4.92,3.64,12.17-.06,17.14l.02-.02c-5.78,.01-11.57,.02-17.36,.02Z" style="fill:#ec8c43;"/><path d="M644.36,832.42c.02-5.71,.04-11.43,.06-17.14,5.75-.01,11.5-.02,17.26-.03,3.75,4.88,3.76,12.13,.03,17.17l.02-.02c-5.8,0-11.58,.01-17.37,.02Z" style="fill:#f49b58;"/><path d="M661.7,832.41c-.01-5.72-.02-11.45-.03-17.17,5.8,0,11.61,.01,17.41,.01,3.67,4.93,3.65,12.17-.05,17.16l.02-.02c-5.78,.01-11.56,.02-17.35,.02Z" style="fill:#ec8c43;"/><path d="M679.04,832.41c.02-5.72,.03-11.44,.05-17.16h17.26c3.75,4.87,3.77,12.12,.03,17.16l.02-.02c-5.79,.01-11.57,.02-17.36,.02Z" style="fill:#f49b58;"/><path d="M696.38,832.41c-.01-5.72-.02-11.44-.03-17.16,5.81,0,11.61,.01,17.42,.01,3.66,4.92,3.64,12.17-.05,17.15l.02-.02c-5.79,.01-11.57,.02-17.36,.02Z" style="fill:#ec8c43;"/><path d="M713.72,832.41c.02-5.72,.03-11.43,.05-17.15,5.75,0,11.5-.01,17.26-.01,3.75,4.87,3.77,12.12,.03,17.16l.02-.02c-5.79,.01-11.57,.02-17.36,.02Z" style="fill:#f49b58;"/><path d="M731.06,832.41c-.01-5.72-.02-11.44-.03-17.16,5.81-.01,11.61-.01,17.42-.02-.01,5.73-.02,11.45-.03,17.18h-17.36Z" style="fill:#ec8c43;"/><path d="M557.64,815.25c.02,5.72,.03,11.44,.05,17.16h-17.36c.02-5.72,.03-11.44,.05-17.16h17.26Z" style="fill:#f49b58;"/><path d="M522.93,381.52c32.71,.01,65.41,.12,98.12-.08,4.82-.03,6.32,1.32,6.08,6.12-.38,7.87-.24,15.78-.04,23.66,.09,3.56-.75,5.11-4.74,5.08-33.09-.18-66.18-.17-99.27-.21-.04-11.52-.09-23.04-.15-34.57Z" style="fill:#5a2e0b;"/><path d="M384.39,589.74c23.11-.06,46.21-.11,69.32-.17-.01,.19-.01,.38-.03,.57-.53,5.47,2.47,12.96-1.22,15.88-3.45,2.74-10.62,.91-16.15,.93-15.54,.05-31.08-.12-46.61,.11-4.1,.06-6.01-.69-5.51-5.26,.44-3.96,.16-8.03,.2-12.06Z" style="fill:#f49b58;"/><path d="M436.31,641.69c-.13,5.53,1.85,12.94-.95,16.1-3.23,3.65-10.81,1.08-16.48,1.16-11.51,.15-23.02-.01-34.53-.05l.03,.04c.07-5.54-2.36-12.7,.84-16.16,3.27-3.54,10.54-.99,16.04-1.06,11.73-.13,23.46,.06,35.19,.11l-.14-.14Z" style="fill:#f49b58;"/><path d="M436.45,641.83c-.05-4.4,.04-8.81-.2-13.2-.16-3.03,.51-4.32,3.99-4.4,13.89-.34,13.77-.48,13.49,13.32-.06,3.25-.95,4.37-4.22,4.18-4.39-.25-8.81-.05-13.21-.05l.15,.15Z" style="fill:#f49b58;"/><path d="M436.23,485.67v-17.48h17.48c-.57,5.67,2.46,13.27-1.3,16.5-3.26,2.81-10.63,.84-16.18,.98Z" style="fill:#f49b58;"/><path d="M471.05,450.85c-.57,5.67,2.44,13.27-1.31,16.5-3.25,2.8-10.62,.83-16.17,.98,.61-5.67-2.49-13.26,1.3-16.5,3.28-2.81,10.63-.84,16.18-.98Z" style="fill:#f49b58;"/><path d="M730.92,659.12c.05,10-.03,20.01,.21,30,.08,3.52-1.06,4.71-4.6,4.62-8.46-.2-16.93,.11-25.39-.14-3.86-.12-4.93,1.27-4.83,4.96,.23,8.27-.07,16.54,.13,24.81,.08,3.55-.72,5.11-4.73,5.07-20-.19-40.01-.19-60.01-.01-3.98,.04-4.82-1.48-4.74-5.06,.2-8.27-.09-16.55,.13-24.81,.1-3.7-.98-5.08-4.84-4.96-8.46,.25-16.93-.07-25.39,.14-3.55,.09-4.67-1.12-4.59-4.62,.24-10,.17-20,.22-30,1.87-2.84,4.85-2.73,7.69-2.76,8.95-.11,17.9-.32,26.84,.24,23.09-.53,46.18-.57,69.28,.01,8.96-.56,17.93-.36,26.89-.25,2.87,.03,5.85-.07,7.73,2.76Z" style="fill:#552906;"/><path d="M627.13,624.31c-.03-9.82,.09-19.64-.17-29.46-.11-3.95,.99-5.44,5.14-5.29,8.08,.29,16.18-.18,24.25,.17,4.47,.19,5.59-1.41,5.44-5.61-.29-8.27,.02-16.56-.13-24.84-.06-3.2,.97-4.44,4.28-4.37,8.66,.17,17.33,.2,25.99-.02,3.66-.09,4.54,1.33,4.51,4.72-.15,21.57-.12,43.13-.16,64.7-.2,.32-.41,.63-.61,.95-2.06,1.86-4.66,1.68-7.12,1.7-17.9,.14-35.8,.14-53.69,0-2.47-.02-5.06,.16-7.12-1.7-.2-.31-.41-.63-.61-.95Z" style="fill:#5a2e0b;"/><path d="M835.17,624.39c-11.56-.05-23.12-.11-34.68-.16v-34.5c1.91-2.79,4.88-2.82,7.74-2.76,4.89,.1,6.9-2.25,6.88-7.02-.01-2.76-.5-5.9,2.57-7.73,10.2,.03,20.39,.18,30.58,.01,3.26-.05,4.41,.89,4.23,4.2-.24,4.41-.02,8.84,0,13.27-5.55,.1-12.74-1.88-16.21,.86-3.69,2.92-.95,10.43-1.15,15.93-.19,5.96,.02,11.93,.04,17.9Z" style="fill:#1d1b1c;"/><path d="M730.92,659.12c-11.55-.09-23.1-.17-34.65-.26-3.84-5.42-3.76-29.26,.11-34.63l-.1,.08c9.94,.01,19.88,.12,29.82-.04,3.71-.06,5.09,1.33,5.01,5.03-.19,9.94-.14,19.88-.19,29.82Z" style="fill:#975521;"/><path d="M592.33,520.05c-10.13,.07-20.26,.05-30.39,.27-3.26,.07-4.36-1.14-4.3-4.33,.18-10.13,.16-20.26,.22-30.39,.9-.99,1.77-2.14,3.23-2.2,10.29-.44,20.6-1.65,30.81,.79,.69,.36,1.25,.87,1.67,1.52,2.8,10.31,1.36,20.75,.98,31.16-.05,1.44-1.2,2.3-2.22,3.18Z" style="fill:#b8b8b8;"/><path d="M592.33,520.05c-.02-11.51-.04-23.01-.06-34.52,1.28-2.05,3.37-2.39,5.51-2.47,7.85-.31,15.7-.3,23.55,0,2.2,.08,4.16,.64,5.51,2.55,.06,10.17,.02,20.33,.24,30.49,.07,3.28-1.03,4.31-4.27,4.24-10.15-.24-20.31-.22-30.48-.29Z" style="fill:#391d07;"/><path d="M731.05,520.05c-10.13,.07-20.26,.05-30.39,.27-3.26,.07-4.36-1.14-4.3-4.33,.18-10.13,.16-20.26,.22-30.39,.9-.99,1.77-2.14,3.23-2.2,10.29-.44,20.59-1.65,30.81,.79,.69,.36,1.25,.87,1.67,1.52,2.8,10.31,1.36,20.75,.98,31.16-.05,1.44-1.21,2.3-2.22,3.18Z" style="fill:#b8b8b8;"/><path d="M731.05,520.05c-.02-11.51-.04-23.01-.06-34.52,1.28-2.05,3.37-2.39,5.51-2.47,7.85-.31,15.7-.3,23.55,0,2.2,.08,4.16,.64,5.51,2.54,.06,10.17,.02,20.33,.24,30.5,.07,3.28-1.03,4.31-4.27,4.24-10.15-.24-20.32-.22-30.48-.29Z" style="fill:#391d07;"/><path d="M627.15,658.87c-11.54,.09-23.09,.17-34.63,.26-.05-9.94,0-19.88-.2-29.81-.07-3.7,1.29-5.09,5-5.03,9.94,.15,19.87,.04,29.81,.04l-.09-.08c3.87,5.36,3.95,29.19,.11,34.62Z" style="fill:#975521;"/><path d="M765.56,485.6c-11.52-.02-23.05-.05-34.57-.07l.15,.14c-1.76-1.42-2.52-3.29-2.61-5.52-.31-7.85-.29-15.7-.01-23.56,.08-2.2,.66-4.15,2.52-5.53,10.14-.05,20.27-.01,30.41-.19,3.21-.06,4.39,1.09,4.33,4.31-.18,10.15-.16,20.28-.22,30.42Z" style="fill:#b8b8b8;"/><path d="M731.05,451.07c.03,11.53,.06,23.07,.09,34.6-11.52-.03-23.04-.05-34.56-.08-.06-10.16-.02-20.32-.24-30.47-.07-3.24,.96-4.33,4.24-4.26,10.15,.22,20.31,.16,30.47,.21Z" style="fill:#391d07;"/><path d="M626.85,485.6c-11.52-.02-23.05-.05-34.57-.07l.15,.14c-1.76-1.42-2.52-3.29-2.61-5.52-.31-7.85-.29-15.7-.01-23.56,.08-2.2,.66-4.15,2.52-5.53,10.14-.05,20.27-.01,30.41-.19,3.21-.06,4.39,1.09,4.33,4.31-.19,10.15-.16,20.28-.22,30.42Z" style="fill:#b8b8b8;"/><path d="M592.33,451.07c.03,11.53,.06,23.07,.09,34.6-11.52-.03-23.04-.05-34.56-.08-.06-10.16-.02-20.32-.24-30.47-.07-3.24,.96-4.33,4.24-4.26,10.15,.22,20.31,.16,30.47,.21Z" style="fill:#391d07;"/><path d="M817.7,572.22c-.24,5.67,2.5,13.2-1.14,16.45-3.15,2.82-10.54,.89-16.06,1.05-.01-5.85-.02-11.69-.04-17.54,5.18-3.62,12.41-3.55,17.38,.17l-.14-.13Z" style="fill:#f49b58;"/><path d="M817.83,572.37c-5.79-.06-11.58-.12-17.38-.17,.01-5.71,.01-11.43,.02-17.14,5.66,.24,13.21-2.56,16.42,1.18,2.8,3.25,.82,10.59,.94,16.13Z" style="fill:#1d1b1c;"/><path d="M817.83,659.07c-5.78-.05-11.56-.11-17.34-.16,0-5.71-.01-11.43-.01-17.15,5.66,.23,13.2-2.56,16.41,1.18,2.8,3.25,.82,10.6,.94,16.13Z" style="fill:#1d1b1c;"/><path d="M887.19,520.35h-17.47c.53-5.67-2.41-13.26,1.32-16.49,3.24-2.8,10.61-.84,16.15-.99v17.48Z" style="fill:#1d1b1c;"/><path d="M852.51,641.73c-5.67-.53-13.27,2.41-16.5-1.31-2.81-3.24-.84-10.62-.98-16.17,5.67,.56,13.26-2.43,16.49,1.31,2.81,3.26,.85,10.62,.99,16.17Z" style="fill:#1d1b1c;"/><path d="M921.87,537.55v17.48h-17.48v-17.48h17.48Z" style="fill:#1d1b1c;"/><path d="M904.53,537.69h-17.48v-17.48h17.48v17.48Z" style="fill:#1d1b1c;"/><path d="M627.15,658.87c-.04-11.54-.07-23.09-.11-34.63h69.35c-.04,11.54-.07,23.09-.11,34.63-23.05-.01-46.09,0-69.13,0Z" style="fill:#e68235;"/></svg>