<?xml version="1.0" encoding="UTF-8"?><svg id="a" xmlns="http://www.w3.org/2000/svg" width="1275.99" height="1400.21" viewBox="0 0 1275.99 1400.21"><path d="M621.6,1400.17H347.36c-3.48-3.14-2.56-7.5-2.57-11.46-.1-40.31-.1-80.62-.03-120.93,.03-17.18-.43-34.37,.31-51.55-.5-12.39-.53-24.78-.01-37.18-.53-24.53-.55-49.06,0-73.59-.56-9.8-.31-19.6-.25-29.41,.02-2.87,.14-5.75,2.04-8.09,3.3-2.8,7.23-2.17,10.97-2.18,37.64-.08,75.29-.04,112.93-.04,46.58,0,93.16-.04,139.74,.06,3.89,.01,8.04-.97,11.59,1.89,.49,.62,1.03,1.3,1.12,2.09,1.39,11.89,2.01,23.77-.35,35.61-2.29,2.72-5.4,2.67-8.43,2.75-6.09,.15-12.18,.04-18.27,.09-4.29,.04-6.23,2.22-6.21,6.8,.02,5.93,.01,11.86,.01,17.8,0,4.69,2.22,6.57,6.4,6.59,6.09,.04,12.18-.06,18.27,.09,2.86,.07,5.75,.07,8.03,2.44,1.21,1.49,1.43,3.35,1.38,5.16-.3,10.68,1.62,21.46-1.19,32.03-2.14,2.5-5.02,2.61-7.88,2.68-5.9,.15-11.79-.05-17.69,.11-6.16,.17-7.16,1.3-7.31,8.05-.1,4.7-.07,9.41-.01,14.11,.1,8.09,.92,8.94,8.72,9.04,5.52,.07,11.03-.06,16.55,.08,2.68,.07,5.35,.22,7.45,2.42,1.21,1.49,1.43,3.35,1.38,5.16-.3,10.68,1.62,21.46-1.19,32.03-2.14,2.5-5.02,2.61-7.88,2.68-6.08,.16-12.17-.09-18.26,.14-5.47,.2-6.56,1.41-6.72,7.41-.15,5.31-.13,10.63-.01,15.94,.15,6.58,1.19,7.64,7.54,7.79,5.89,.14,11.79-.04,17.69,.11,2.68,.07,5.35,.22,7.45,2.41,1.21,1.49,1.43,3.33,1.38,5.15-.26,10.66,1.55,21.4-1.13,31.96-2.09,2.58-4.96,2.7-7.82,2.77-6.07,.16-12.15-.07-18.22,.13-5.63,.18-6.71,1.3-6.88,7.19-.16,5.51-.15,11.02-.01,16.53,.16,6.21,1.21,7.28,7.23,7.45,5.69,.16,11.39-.01,17.09,.09,2.47,.04,4.95,.02,7.19,1.46,.63,.43,1.11,.99,1.46,1.69,2.41,10.92,1.16,21.94,.81,32.93-.07,1.56-1.27,2.48-2.17,3.52Z" style="fill:#b8b8b8;"/><path d="M998.68,1400.17h-102.84c-2.43-1.98-2.5-4.85-2.55-7.74-.11-6.32,.09-12.65-.11-18.97-.18-5.95-1.25-7.09-6.8-7.29-5.88-.2-11.76,0-17.65-.11-2.28-.04-4.56-.06-6.67-1.2-.63-.31-1.15-.77-1.58-1.34-2.71-6.45-1.35-13.29-1.45-19.95-.22-14.31-.07-14.35-13.5-14.31-17.05,.06-15.53-1.71-15.72,16.83-.06,5.66,.96,11.46-1.24,16.96-.34,.65-.81,1.18-1.39,1.58-6.41,2.72-13.11,1.27-19.67,1.41-11.9,.25-11.9,.08-11.92,12.96-.01,4.68,.03,9.36-.06,14.05-.05,2.72-.34,5.3-2.54,7.11h-137.12c-1.08-1.14-2.23-2.29-2.26-4.05-.2-10.67-1.31-21.37,.74-31.98,.27-.72,.69-1.34,1.24-1.85,3.64-2.42,7.73-1.37,11.65-1.77,6.32-.66,14.14,3.01,18.61-2.04,4.4-4.96,1.15-13.3,1.69-20.12,.3-3.83-.4-7.77,1.23-11.43,.31-.68,.76-1.23,1.32-1.66,6.38-2.88,13.08-1.35,19.63-1.49,12.11-.27,11.97-.09,12.18-13.27,.11-6.85-1.11-13.83,1.21-20.54,.34-.67,.8-1.2,1.39-1.61,6.41-2.76,13.12-1.29,19.69-1.43,11.89-.26,11.9-.09,11.91-13.05,0-15.49,.07-30.99-.03-46.48-.05-7.46-1.04-8.46-7.94-8.61-5.5-.11-11,.03-16.5-.08-2.66-.05-5.33-.11-7.6-1.94-2.03-2.27-2.07-5.15-2.13-8.02-.12-5.92,0-11.84-.08-17.76-.11-8.11-.93-8.97-8.68-9.07-5.13-.07-10.25,.03-15.38-.05-2.47-.04-4.95-.03-7.23-1.32-.65-.37-1.17-.89-1.57-1.55-2.19-4.8-1.4-9.95-1.33-14.95,.11-7.04-1.03-14.17,1.04-21.1,.29-.71,.72-1.31,1.28-1.8,5.77-2.96,11.93-1.51,17.9-1.59,14.77-.21,13.89,.76,14.04-14.95,.06-6.25-1-12.63,1.16-18.74,.31-.68,.76-1.23,1.33-1.66,6.41-2.88,13.13-1.34,19.71-1.49,12.01-.27,11.84-.09,12.09-12.87,.14-7.07-1.29-14.3,1.38-21.2,.42-.67,.95-1.19,1.62-1.56,1.92-1.04,3.99-1.23,6.07-1.24,18.51-.12,37.02-.15,55.53,.02,2.48,.02,4.92,.29,6.95,2.08,.5,.61,1.07,1.27,1.16,2.05,1.32,11.8,2.16,23.59-.52,35.32-1.88,2.5-4.54,2.72-7.23,2.81-5.13,.18-10.27,.06-15.41,.09-9.81,.06-10.12,.39-10.15,11.2-.01,3.88-.06,7.77,.02,11.65,.14,7.19,1.05,8.21,7.58,8.37,5.7,.13,11.41-.03,17.12,.09,2.67,.06,5.36,.07,7.54,2.14,2.42,3.15,1.91,6.95,1.98,10.58,.12,5.52-.08,11.06,.09,16.58,.19,5.96,1.32,7.2,6.77,7.41,5.9,.22,11.81-.01,17.71,.12,2.67,.06,5.35,.11,7.61,2.02,1.96,2.29,2.01,5.16,2.07,8.02,.12,5.69,.01,11.39,.07,17.08,.09,8.83,.81,9.58,9.24,9.66,5.11,.05,10.22-.04,15.32,.07,2.66,.06,5.32,.12,7.56,2.01,2.13,2.49,2.03,5.62,2.09,8.68,.13,6.54-.01,13.09,.11,19.63,.07,4.28,1.99,6.34,5.98,6.41,6.09,.11,12.18-.04,18.27,.12,2.67,.07,5.39-.01,7.26,2.63,2.36,1.96,2.61,4.75,2.66,7.66,.11,6.49,.06,12.99,.07,19.48,.01,4.85,2.08,7,6.56,7,6.04-.01,12.09-.08,18.13,.09,2.46,.07,4.96,.05,6.7,2.44,2.38,1.93,2.78,4.67,2.82,7.64,.09,6.54,.08,13.07,.05,19.6-.02,4.83,1.86,7.17,6.47,7.1,5.51-.09,11.02-.02,16.53-.03,3.95-.01,6.01-1.83,6.04-6.23,.03-6.13,0-12.25,.02-18.38,.02-4.69-2.15-6.58-6.34-6.6-6.08-.02-12.16,.03-18.24-.07-2.72-.05-5.34-.27-7.17-2.85-2.45-2.01-2.38-4.94-2.45-7.81-.14-6.54-.01-13.08-.11-19.62-.07-4.28-1.96-6.36-5.95-6.44-6.09-.13-12.17-.01-18.26-.1-2.92-.05-5.73-.29-7.7-3.06-.39-.45-1-.84-1.08-1.38-1.67-11.93-2.8-23.85,.77-35.65,2.14-2.06,4.8-2.22,7.46-2.24,18.34-.14,36.68-.14,55.02,0,2.27,.02,4.55,.14,6.55,1.54,2.51,2.18,2.56,5.28,2.64,8.34,.17,6.52-.07,13.04,.14,19.56,.19,5.88,1.33,7.09,6.82,7.28,5.68,.2,11.37,0,17.06,.1,2.46,.04,4.94-.02,7.23,1.22,.64,.32,1.17,.79,1.6,1.39,2.66,6.44,1.33,13.25,1.43,19.89,.21,14.31,.07,14.18,13.45,14.38,6,.09,12.13-1.18,18,1.32,.64,.38,1.15,.91,1.54,1.57,2.27,11.98,1.93,23.98,.24,36-.29,.71-.72,1.31-1.28,1.8-5.97,2.96-12.32,1.48-18.5,1.59-13.38,.23-13.26,.08-13.44,14.41-.08,6.46,1.07,13.05-1.2,19.37-.33,.67-.79,1.21-1.38,1.63-6.4,2.8-13.11,1.31-19.68,1.45-11.94,.26-11.94,.09-11.96,12.94-.01,4.69,.03,9.37-.06,14.06,0,2.7-.29,5.28-2.49,7.1Z" style="fill:#706f6d;"/><path d="M107.41,1400.17H38.85c-3.32-2.92-2.56-7.05-2.57-10.82-.1-35.91-.05-71.83-.05-107.74,0-18.37-.04-36.73,.03-55.1,.01-3.24-.28-6.55,1.04-9.64,.27-.75,.69-1.4,1.25-1.93,5.35-3.05,11.15-1.66,16.75-1.72,16.11-.2,15.24,1.03,15.23-16.24-.01-14.87-.04-29.74,.02-44.61,.01-3.24-.23-6.54,1.17-9.6,.32-.7,.78-1.27,1.38-1.72,6.01-2.81,12.35-1.41,18.54-1.51,13.15-.23,13.16-.08,13.16-14.19,.01-15.5-.03-30.99,.03-46.49,.01-3.24-.28-6.55,1.1-9.62,.29-.7,.72-1.29,1.27-1.77,5.99-2.97,12.36-1.49,18.56-1.6,13.33-.23,13.19-.08,13.39-14.56,.09-6.47-1.18-13.1,1.32-19.41,.4-.68,.93-1.21,1.58-1.59,11.52-1.77,23.03-3.11,34.42,.85,1.88,2.33,2.01,5.2,2.02,8.06,.04,9.76,.33,19.52-.26,29.28,.56,9.96,.33,19.94,.24,29.91-.02,2.41,.14,4.93-1.28,7.07-2.14,2.51-5.02,2.61-7.88,2.69-6.28,.16-12.55,.06-18.83,.1-4.3,.03-6.22,2.21-6.2,6.78,.03,5.93,.02,11.86,.01,17.79-.01,4.66,2.1,6.63,6.32,6.64,5.71,.01,11.41-.03,17.12,.06,2.66,.04,5.34-.08,7.82,1.28,.62,.33,1.13,.81,1.53,1.41,2.67,6.84,1.25,14.03,1.39,21.05,.25,13.06,.08,12.92,12.26,13.13,6.37,.11,12.84-1.14,19.09,1.24,.63,.33,1.14,.81,1.55,1.42,2.68,6.84,1.26,14.03,1.39,21.05,.25,13.06,.08,12.92,12.26,13.14,6.37,.11,12.84-1.14,19.09,1.24,.63,.33,1.14,.81,1.55,1.42,2.68,6.85,1.25,14.05,1.39,21.09,.25,13.02,.08,12.87,12.33,13.1,6.37,.12,12.86-1.18,19.11,1.3,.63,.36,1.13,.86,1.51,1.5,2.47,6.09,1.27,12.51,1.34,18.78,.18,15.19,.06,15.18,13.96,15.19,4,0,7.99-.06,11.99,.09,2.5,.09,4.95,.39,6.87,2.43,1.84,2.69,1.47,5.85,1.48,8.86,.11,30.79,.1,61.58,.01,92.36-.01,3.4,.42,7.05-2.57,9.59h-68.56c-3.18-2.73-2.55-6.63-2.57-10.23-.1-27.21-.04-54.42-.05-81.63,0-2.45,.04-4.91-.03-7.36-.21-7-1.33-8.27-7.71-8.46-5.71-.17-11.42,.08-17.13-.13-7.52-.27-9.02-1.86-9.32-9.78-.16-4.29-.08-8.59-.08-12.89q-.02-14.08-12.84-14.09c-13.7-.01-27.41,.01-41.11-.01-2.47,0-4.95-.06-7.42-.18-4.65-.22-6.85-2.86-7.04-7.77-.24-6.14-.13-12.27-.15-18.41-.04-12.89,.09-25.78-.05-38.67-.08-7.25-1.29-8.46-8.12-8.62-4.38-.1-8.76-.13-13.13,.02-6.27,.21-7.5,1.6-7.71,8.51-.08,2.66-.04,5.32-.04,7.98,0,63.22,.03,126.43-.06,189.65,0,4.11,1.08,8.7-2.55,12.03Z" style="fill:#969696;"/><path d="M1170.08,1400.17h-137.12c-1.75-1.53-2.4-3.56-2.46-5.92-.23-8.35-.24-16.7,.01-25.05,.07-2.37,.76-4.38,2.55-5.86l-.08,.09c1.79-2.67,4.45-2.78,7.15-2.84,6.07-.14,12.14-.04,18.21-.1,4.25-.04,6.22-2.17,6.26-6.74,.06-6.53-.04-13.05,.09-19.58,.06-2.9,.17-5.76,2.65-7.68l-.08,.09c1.79-2.69,4.45-2.79,7.15-2.85,6.08-.13,12.16-.05,18.24-.08,4.27-.02,6.26-2.11,6.24-6.72-.03-6.13,.05-12.25-.04-18.38-.06-4.03-1.92-5.96-5.63-6.06-6.27-.16-12.54,.01-18.81-.13-2.7-.06-5.37-.17-7.15-2.85l.08,.09c-2.49-1.92-2.6-4.78-2.65-7.67-.13-6.52-.03-13.05-.09-19.58-.04-4.56-2.02-6.69-6.27-6.73-6.07-.06-12.14,.04-18.21-.1-2.7-.06-5.36-.17-7.14-2.85l.08,.09c-1.31-1.22-2.34-2.6-2.43-4.58-.43-9.67-.54-19.35,.1-29.01,.08-1.22,.69-2.29,1.26-3.33,1.96-2.39,4.64-2.53,7.32-2.61,5.7-.17,11.41,0,17.11-.11,7.18-.14,8.08-1.13,8.19-9.03,.09-5.93-.05-11.85,.09-17.78,.07-2.87,.12-5.76,2.17-8.02,2.08-1.69,4.53-1.89,6.99-1.91,9.22-.07,18.45-.34,27.67,.26,9.13-.61,18.26-.43,27.39-.24,7.7,.16,9.15,1.87,9.42,10.32,.15,4.5,.06,9,.07,13.5,.03,12.63,.27,12.88,12.29,12.92,4.57,.02,9.14-.14,13.7,.15,6.06,.39,7.7,2.16,8.15,8.54,.06,.82,.09,1.63,.09,2.45,.09,55.63,.07,111.26-.01,166.89,0,3.23,.27,6.65-2.55,9Z" style="fill:#b8b8b8;"/><path d="M107.41,1400.17v-212.32q0-8.74,8.1-8.75c6.47-.01,12.96,.3,19.41-.1,5.16-.32,6.97,1.44,6.88,7.21-.3,19.22-.12,38.45-.11,57.68q0,8.88,8.53,8.89c17.89,0,35.78,.18,53.66-.11,5.08-.08,6.68,1.71,6.46,7.05-.35,8.16,.02,16.36-.13,24.54-.08,3.94,1.31,5.5,5.01,5.41,7.42-.18,14.86,.28,22.26-.16,5.45-.32,7.2,1.56,7.16,7.55-.24,34.36-.11,68.73-.11,103.09-45.71,.02-91.41,.02-137.12,.02Z" style="fill:#b8b8b8;"/><path d="M1170.08,1400.17v-176.21c0-7.99-.02-8-7.64-8.02-7.24-.01-14.47-.13-21.7,.04-3.73,.09-5.04-1.54-4.97-5.46,.16-8.59-.1-17.19,.1-25.78,.1-4.28-1.42-5.77-5.35-5.7-9.71,.16-19.42-.02-29.13-.07-.62-.77-1.63-1.4-1.69-2.4-.77-11.52-2.24-23.06,.9-34.46,1.98-2.37,4.66-2.49,7.34-2.57,5.32-.16,10.65-.04,15.97-.09,8.46-.09,9.2-.85,9.29-9.72,.06-5.72-.05-11.45,.08-17.17,.07-2.87,.12-5.76,2.22-8,1.11-.82,2.3-1.58,3.64-1.58,10.34,0,20.75-1.94,30.97,1.22,2.58,1.93,2.4,4.92,2.49,7.75,.2,6.54-.03,13.08,.14,19.61,.17,6.6,1.22,7.7,7.5,7.86,5.51,.14,11.02-.01,16.54,.08,2.47,.04,4.95,.03,7.23,1.32,.64,.36,1.15,.87,1.55,1.52,1.7,3.2,1.38,6.74,1.39,10.2,.07,17.19-.04,34.38,.06,51.58,.05,7.8,1.1,8.88,8.26,9.01,5.33,.1,10.66-.03,15.99,.07,2.47,.05,4.97,.03,7.21,1.46,.65,.43,1.15,1.01,1.51,1.73,1.45,3.06,1.26,6.37,1.26,9.63,.04,54.44,.05,108.88-.02,163.31-.01,3.78,.76,7.92-2.57,10.85-22.87-.01-45.72-.01-68.57-.01Z" style="fill:#969696;"/><path d="M38.96,1215.99c-.04,61.4-.07,122.79-.11,184.19H4.57c-2.82-2.34-2.68-5.76-2.53-8.97,.6-13.22,1.15-26.44,.63-39.68,.34-3.56,.13-7.14,.19-10.71-.05-25.26,.1-50.53-.08-75.79-1.5-13.87-.77-27.79-.71-41.69,.04-8.33,1.69-10.1,9.56-10.06,8.53,.04,17.13-1.3,25.57,1.19,.72,.32,1.31,.83,1.76,1.52Z" style="fill:#323433;"/><path d="M1238.63,1400.17c-.04-61.4-.07-122.79-.11-184.19,.45-.69,1.04-1.19,1.75-1.52,9.75-2.47,19.62-1.31,29.44-.89,4.21,.18,5.53,3.67,5.65,7.76,.33,10.8,.14,21.6-.02,32.4-.98,12.59-.68,25.21-.72,37.82v34.46c.82,8.47,.72,16.99,1.37,25.47-2.89,13.19,.44,26.48-.49,39.7-.23,3.23,.23,6.65-2.59,9-11.42,0-22.85,0-34.28,0Z" style="fill:#323433;"/><path d="M313.09,1400.17c-.04-36.79-.08-73.59-.12-110.38-2.19-2.1-2.42-4.92-2.43-7.8-.03-9.73-.31-19.46,.26-29.18-.56-10.01-.34-20.02-.23-30.03,.03-2.62-.14-5.38,1.83-7.5,1.72-1.36,3.68-1.92,5.79-1.99,7.69-.26,15.37-.23,23.06-.02,2.32,.06,4.49,.49,5.93,2.75,.06,29.26,.15,58.51,.18,87.77,.03,32.13,.01,64.25,.01,96.38-11.43,0-22.86,0-34.28,0Z" style="fill:#323433;"/><path d="M1033.05,1363.34c-.03,12.28-.06,24.55-.1,36.83h-34.28c0-10.36,.18-20.72-.09-31.07-.12-4.61,1.4-5.97,5.56-5.86,9.64,.28,19.28,.1,28.91,.1Z" style="fill:#302a2a;"/><path d="M861.42,1363.34c9.64,0,19.29,.17,28.93-.1,4.13-.11,5.7,1.17,5.57,5.83-.28,10.36-.09,20.73-.08,31.09h-34.28c-1.51-1.39-2.34-3.12-2.41-5.3-.29-8.95-.36-17.89,.04-26.83,.08-1.9,.69-3.56,2.23-4.69Z" style="fill:#302a2a;"/><path d="M861.42,1363.34c.05,12.28,.09,24.55,.14,36.83h-34.28c-1.75-1.53-2.4-3.56-2.46-5.92-.23-8.35-.24-16.7,.01-25.05,.07-2.37,.76-4.38,2.55-5.86l-.08,.09c1.38-1.93,3.25-2.67,5.46-2.74,7.78-.26,15.56-.26,23.33,0,2.21,.07,4.08,.82,5.46,2.74l-.13-.09Z" style="fill:#b8b8b8;"/><path d="M827.38,1363.34c-.03,12.28-.06,24.55-.1,36.83h-34.28c0-10.36,.2-20.72-.08-31.07-.13-4.63,1.4-5.97,5.55-5.85,9.63,.27,19.27,.09,28.91,.09Z" style="fill:#302a2a;"/><path d="M655.89,1363.25c0,12.31,0,24.61-.01,36.92h-34.28c-.01-12.29-.02-24.58-.03-36.87,1.24-2.26,3.34-2.53,5.45-2.61,7.79-.29,15.59-.28,23.38-.01,2.12,.08,4.22,.35,5.49,2.57Z" style="fill:#302a2a;"/><path d="M621.7,73.74c-.07-12.28-.14-24.57-.2-36.85,.03-10.4,.19-20.8,.04-31.19-.06-4.24,1.4-5.78,5.33-5.69,9.67,.22,19.35,.13,29.02,.16,2.46,1.93,2.52,4.81,2.53,7.65,.06,9.68,.33,19.37-.25,29.05,.56,9.74,.32,19.5,.25,29.25-.02,2.63,.04,5.33-1.75,7.49-2.91,1.92-4.71,1.33-4.76-2.62-.09-6.86,0-13.73-.02-17.89,0,3.85-.15,10.41,.06,16.96,.13,4.1-1.38,6.11-5.15,6.3-5.3,.27-10.61,.28-15.91,.01-.38-.02-.76-.06-1.13-.13-2.52-.45-4.27-1.67-4.13-4.77-.23,2.89-1.44,3.86-3.93,2.27Z" style="fill:#323433;"/><path d="M655.98,36.82c-.03-12.22-.06-24.44-.09-36.66,9.67-.03,19.35,.07,29.02-.16,3.93-.09,5.41,1.41,5.33,5.66-.21,10.39-.13,20.79-.17,31.19-1.36,1.96-3.26,2.62-5.44,2.69-7.74,.26-15.48,.26-23.22,0-2.19-.08-4.08-.76-5.43-2.72Z" style="fill:#5b5758;"/><path d="M655.98,36.82c11.36,.01,22.72,.02,34.08,.03,.08,12.3,.16,24.61,.25,36.92l-.26-.04c-1.13,1.48-2.5,2.47-4.35,2.55-8.73,.39-17.47,.49-26.2-.07-1.19-.08-2.16-.7-3.09-1.45-.22-.33-.43-.66-.65-.99,.07-12.32,.14-24.64,.22-36.95Z" style="fill:#484647;"/><path d="M655.89,1363.25c-11.44,.02-22.88,.03-34.32,.05l.06,.1c-1.7-1.54-2.42-3.54-2.48-5.91-.23-8.34-.23-16.68,0-25.02,.06-2.34,.66-4.4,2.45-5.91v-37.03c-1.78-1.49-2.38-3.54-2.44-5.88-.23-8.3-.23-16.61,0-24.91,.07-2.34,.66-4.38,2.44-5.88v-37.03c-1.78-1.49-2.38-3.54-2.45-5.88-.23-8.3-.23-16.61,0-24.91,.07-2.34,.67-4.38,2.45-5.88v-37.03c-1.78-1.49-2.38-3.54-2.44-5.88-.23-8.3-.23-16.61,0-24.91,.07-2.34,.66-4.38,2.44-5.87-.03-12.27-.07-24.55-.1-36.82,1.42-2.9,4.05-2.79,6.48-2.8,30.38-.2,60.77-.25,91.15,.02,2.08,.02,4.21,.1,5.86,1.84,1.32,1.83,1.86,3.96,1.93,6.24,.25,8.32,.21,16.65,.03,24.97-.06,2.53-.58,4.83-2.57,6.46l.08-.09c-1.81,2.64-4.47,2.76-7.16,2.82-6.07,.14-12.14,.04-18.21,.1-4.25,.04-6.23,2.17-6.27,6.73-.06,6.53,.04,13.05-.09,19.58-.06,2.9-.17,5.76-2.62,7.7l.08-.08c-1.81,2.65-4.47,2.77-7.17,2.82-6.08,.12-12.16,.05-18.24,.08-4.27,.02-6.27,2.1-6.24,6.71,.03,6.13-.05,12.25,.04,18.38,.06,4.03,1.92,5.96,5.63,6.06,6.27,.16,12.54-.01,18.81,.13,2.7,.06,5.36,.17,7.17,2.82l-.08-.08c2.89,2.3,2.48,5.71,2.65,8.95,.46,9.16-1,18.41,1.17,27.48-1.55,8.63-1.23,17.37-1.14,26.09,.08,7.47,.87,8.27,8.02,8.38,5.69,.09,11.38-.05,17.07,.08,2.86,.07,5.73,.16,7.86,2.72,2.55,11.06,1.22,22.23,.84,33.38-.05,1.54-1.27,2.44-2.19,3.46l.08-.08c-1.81,2.64-4.47,2.76-7.16,2.82-6.07,.14-12.14,.04-18.21,.1-4.25,.04-6.22,2.17-6.27,6.74-.06,6.53,.04,13.05-.09,19.58-.06,2.9-.17,5.75-2.62,7.7l.08-.08c-1.81,2.64-4.47,2.76-7.16,2.82-6.07,.14-12.14,.04-18.21,.1-4.25,.04-6.22,2.17-6.27,6.74-.06,6.53,.04,13.05-.09,19.58-.06,2.9-.17,5.75-2.62,7.7l.04-.07Z" style="fill:#999393;"/><path d="M724.53,1068.59c-34.35,.03-68.7,.07-103.05,.1-53.88-.04-107.77-.09-161.65-.11-37.51-.02-75.02,.01-112.53,.02-.31-.24-.61-.48-.92-.72-1.49-1.84-1.48-4.13-1.53-6.35-.15-7.73-.15-15.45,0-23.18,.05-2.67,.28-5.3,2.14-7.38,1.74-1.45,3.78-1.82,5.91-1.93,2.47-.12,4.95-.13,7.42-.13,128.54-.01,257.08-.02,385.62,.06,4.46,0,9.18-1.18,13.31,1.93,1.18,1.66,1.81,3.55,1.89,5.63,.33,8.73,.28,17.46,.04,26.2-.07,2.36-.77,4.36-2.51,5.87l.08-.09c-1.4,1.88-3.26,2.63-5.46,2.7-7.75,.26-15.5,.25-23.26,.01-2.19-.08-4.1-.71-5.5-2.63Z" style="fill:#867a7b;"/><path d="M347.25,1105.26c0,24.66,0,49.32,.01,73.98-.97,.96-1.85,2.16-3.28,2.21-10.14,.31-20.32,1.63-30.39-.85-.68-.38-1.23-.91-1.65-1.6-1.8-3.36-1.4-7.09-1.41-10.71-.02-8.73-.26-17.46,.29-26.18-.59-9.97-.34-19.94-.24-29.91,.03-2.61-.13-5.36,1.84-7.46,2.09-1.68,4.52-2,7.02-2.05,7.03-.14,14.07-.15,21.1,0,2.49,.05,4.97,.22,6.71,2.57Z" style="fill:#969696;"/><path d="M347.25,1105.26h-34.05c-1.73-.94-2.36-2.6-2.45-4.53-.44-9.4-.47-18.8,.03-28.2,.09-1.67,.78-3.14,1.73-4.46,1.65-1.53,3.61-2.07,5.73-2.15,7.71-.27,15.41-.23,23.12-.03,2.34,.06,4.47,.61,5.97,2.76l-.02-.07c-.02,12.23-.04,24.46-.06,36.68Z" style="fill:#585858;"/><path d="M621.59,1105.5v36.66c-10.04,.03-20.09-.05-30.13,.16-3.18,.07-4.28-.92-4.2-4.44,.2-9.36,.21-18.74,0-28.11-.08-3.53,1.02-4.5,4.2-4.44,10.04,.23,20.08,.14,30.13,.17Z" style="fill:#302a2a;"/><path d="M621.59,1326.57c.01,12.28,.02,24.56,.04,36.84-10.05-.03-20.1-.18-30.14-.01-3.17,.05-4.3-.88-4.22-4.42,.2-9.37,.2-18.75-.01-28.12-.08-3.53,1.02-4.51,4.2-4.44,10.03,.21,20.08,.12,30.13,.15Z" style="fill:#302a2a;"/><path d="M313.03,1179.09c11.41,.05,22.82,.1,34.23,.15-.03,12.26-.05,24.52-.08,36.78-11.3,0-22.61,0-33.91-.01-2.23-1.15-2.53-3.37-2.61-5.63-.31-8.49-.28-16.98-.02-25.47,.06-2.26,.35-4.47,2.39-5.82Z" style="fill:#585858;"/><path d="M621.59,1179.19v36.66c-10.04,.03-20.09-.07-30.13,.16-3.21,.07-4.27-.94-4.2-4.45,.2-9.37,.2-18.74-.01-28.11-.08-3.54,1.05-4.49,4.21-4.42,10.04,.21,20.08,.13,30.13,.16Z" style="fill:#302a2a;"/><path d="M621.59,1252.88v36.66c-10.04,.03-20.09-.05-30.13,.16-3.18,.07-4.28-.92-4.2-4.44,.2-9.36,.21-18.74,0-28.11-.08-3.53,1.02-4.5,4.2-4.44,10.04,.23,20.08,.14,30.13,.17Z" style="fill:#302a2a;"/><path d="M724.37,1289.64c-.04-12.28-.08-24.56-.11-36.84-.82-1.1-1.92-2.05-2.01-3.59-.6-10.16-.75-20.32,.14-30.47,.07-.78,.64-1.46,1.12-2.1,.31-.23,.62-.45,.93-.68,9.9,0,19.8,.1,29.7-.06,3.46-.06,4.66,1.28,4.64,5-.11,21.28-.12,42.57,0,63.85,.02,3.8-1.32,4.98-4.7,4.93-9.91-.15-19.81-.05-29.71-.04Z" style="fill:#302a2a;"/><path d="M758.66,1068.59c.06-12.24,.12-24.49,.19-36.73,1.41-2.91,4.04-2.79,6.47-2.82,18.8-.22,37.61-.23,56.41,0,2.07,.03,4.22,.03,5.93,1.67,1.05,1.22,1.76,2.69,1.85,4.31,.57,10.06,.66,20.12-.05,30.18-.07,1.04-.67,1.86-1.23,2.67-.31,.23-.63,.47-.94,.7-22.87,0-45.75,0-68.63,.02Z" style="fill:#302a2a;"/><path d="M998.69,1215.93c-22.86,.01-45.72,.01-68.58,.02-.31-.23-.62-.46-.93-.69-1.39-1.62-1.5-3.67-1.54-5.7-.19-8.09-.18-16.19-.01-24.28,.05-2.47,.42-4.84,2-6.79,2.19-1.98,4.86-2.11,7.52-2.13,9.09-.05,18.18-.33,27.27,.27,9.33-.59,18.66-.46,27.98-.21,6.86,.19,8.5,1.95,8.76,9.08,.28,7.77,.2,15.55,.03,23.33-.05,2.24-.02,4.54-1.56,6.38-.31,.25-.63,.49-.94,.72Z" style="fill:#3c3636;"/><path d="M1032.98,1252.68c10.05,.04,20.09,.2,30.14,.05,3.22-.05,4.23,1.03,4.18,4.5-.15,10.8,.01,21.6,.04,32.39-9.83,0-19.65-.1-29.48,.07-3.66,.06-5.02-1.36-4.96-5.32,.18-10.57,.07-21.13,.08-31.69Z" style="fill:#3c3636;"/><path d="M724.53,1068.59c11.4-.03,22.81-.06,34.21-.08-.01,10.56-.15,21.13,.02,31.69,.06,3.97-1.23,5.35-4.92,5.27-9.83-.19-19.66-.06-29.49-.06,.07-12.27,.13-24.55,.18-36.82Z" style="fill:#302a2a;"/><path d="M827.27,1105.42c.01-12.29,.02-24.57,.02-36.86l-.07,.03c1.3-1.58,2.86-2.54,4.88-2.62,8.63-.35,17.27-.39,25.9,.05,1.53,.08,2.96,.52,4.1,1.72,1.17,1.65,1.8,3.53,1.87,5.6,.32,9.08,.32,18.16,0,27.24-.07,1.86-.6,3.56-1.59,5.09-.42,.4-.77,1-1.34,1.11-11.06,2.02-22.11,2.73-33.12-.36-.22-.32-.43-.66-.65-1Z" style="fill:#3c3636;"/><path d="M1067.34,1326.49c-.04,10.81-.19,21.62-.04,32.43,.05,3.48-.93,4.54-4.16,4.49-10.05-.17-20.11-.01-30.17,.02,0-10.57,.11-21.15-.07-31.72-.07-3.97,1.24-5.36,4.93-5.29,9.83,.2,19.67,.07,29.51,.07Z" style="fill:#302a2a;"/><path d="M690.09,1142.26c.03-10.79,.16-21.58,.02-32.36-.04-3.45,1.02-4.59,4.23-4.54,10.03,.15,20.07,.01,30.11-.02-.01,10.57-.14,21.13,.04,31.7,.07,3.97-1.23,5.36-4.91,5.29-9.83-.21-19.66-.08-29.49-.07Z" style="fill:#302a2a;"/><path d="M827.32,1142.21c-9.9,.01-19.81-.09-29.7,.09-3.44,.06-4.73-1.19-4.66-4.95,.18-9,.17-18.01,0-27.01-.07-3.71,1.13-5.05,4.61-4.99,9.9,.18,19.8,.07,29.7,.07h0c1.31,1.26,2.3,2.69,2.36,4.69,.33,9.57,.55,19.14-.16,28.71-.08,1.06-.66,1.89-1.23,2.71-.31,.23-.61,.45-.92,.68Z" style="fill:#b8b8b8;"/><path d="M861.54,1363.43h-34.25c0-10.59,.07-21.18-.04-31.77-.04-3.42,.69-5.32,4.38-5.23,8.52,.19,17.05,.19,25.57,0,3.69-.08,4.41,1.82,4.38,5.23-.11,10.59-.04,21.18-.04,31.77Z" style="fill:#302a2a;"/><path d="M655.81,1363.33c.03-10.79,.15-21.58,.02-32.36-.04-3.44,1.02-4.59,4.23-4.54,10.03,.15,20.07,.01,30.11-.02-.01,10.57-.13,21.14,.05,31.7,.07,3.97-1.22,5.35-4.91,5.28-9.84-.19-19.67-.06-29.5-.06Z" style="fill:#302a2a;"/><path d="M1067.26,1289.52c9.71,.04,19.42,.27,29.12,.03,3.83-.1,5.39,.79,5.22,5.3-.33,8.79-.33,17.61,0,26.39,.17,4.53-1.41,5.41-5.22,5.32-9.7-.23-19.42-.02-29.12,.02v-37.06Z" style="fill:#3c3636;"/><path d="M964.36,1289.68c9.67-.01,19.35,.1,29.01-.11,3.74-.08,5.53,.85,5.38,5.38-.28,8.96-.18,17.94-.05,26.9,.05,3.39-1.09,4.72-4.3,4.67-8.53-.15-17.07-.19-25.6,.02-3.64,.09-4.49-1.65-4.45-5.14,.13-10.6,.06-21.2,.07-31.8,.02,0-.06,.08-.06,.08Z" style="fill:#b8b8b8;"/><path d="M690.17,1179.18c-9.69-.03-19.39-.22-29.08,0-3.77,.08-5.46-.79-5.3-5.33,.31-8.77,.32-17.58,0-26.35-.16-4.54,1.53-5.4,5.29-5.32,9.69,.21,19.39,.02,29.08,0,.01,12.33,.01,24.67,.01,37Z" style="fill:#302a2a;"/><path d="M861.6,1179.06c-9.83,.01-19.65-.11-29.48,.11-3.71,.08-4.96-1.31-4.89-5.27,.19-10.56,.08-21.12,.09-31.68l-.07,.08c1.18-1.37,2.49-2.46,4.34-2.55,8.88-.45,17.75-.52,26.62,.07,1.35,.09,2.53,.79,3.64,1.59,.37,.46,.92,.83,1.02,1.45,1.85,11.85,2.5,23.7-.33,35.5-.32,.23-.63,.46-.94,.7Z" style="fill:#b8b8b8;"/><path d="M964.44,1289.6c-9.83,.01-19.66-.11-29.48,.1-3.7,.08-4.96-1.29-4.89-5.26,.2-10.56,.08-21.12,.09-31.69l-.08,.08c9.83-.01,19.66,.11,29.49-.11,3.7-.08,4.96,1.29,4.89,5.26-.2,10.56-.09,21.13-.1,31.7l.08-.08Z" style="fill:#b8b8b8;"/><path d="M690.09,1326.49c.03-10.58,.2-21.17,0-31.74-.08-4.01,1.1-5.26,4.83-5.18,9.84,.22,19.69,.03,29.53,0-.01,10.57-.13,21.13,.04,31.7,.07,3.96-1.22,5.36-4.91,5.29-9.83-.21-19.66-.08-29.49-.07Z" style="fill:#302a2a;"/><path d="M692.43,1216.15c-3.18-.57-2.21-3.29-2.23-5.31-.1-10.58-.09-21.17-.11-31.75,9.82,0,19.65,.13,29.46-.05,3.66-.07,5.01,1.25,4.94,5.25-.18,10.55-.06,21.11-.06,31.67l.06-.07c-.27,.28-.51,.62-.83,.83-4.84,3.24-26.4,2.83-31.23-.57Z" style="fill:#302a2a;"/><path d="M895.88,1215.9c-9.83,.01-19.66-.11-29.48,.11-3.69,.08-4.97-1.29-4.9-5.26,.2-10.56,.09-21.13,.1-31.69l-.08,.08c1.18-1.37,2.49-2.46,4.34-2.56,8.88-.45,17.75-.52,26.63,.07,1.35,.09,2.53,.79,3.64,1.59,.37,.46,.92,.83,1.02,1.45,1.85,11.85,2.5,23.7-.33,35.5-.32,.24-.63,.48-.94,.71Z" style="fill:#b8b8b8;"/><path d="M930.16,1252.75c-9.83,.01-19.66-.11-29.49,.11-3.7,.08-4.97-1.28-4.89-5.26,.2-10.56,.09-21.13,.1-31.7l-.08,.09c1.42-1.87,3.29-2.61,5.49-2.69,7.77-.25,15.54-.25,23.32,0,2.2,.07,4.09,.77,5.5,2.66h0c-.01,12.29-.02,24.59-.03,36.88,0-.01,.08-.09,.08-.09Z" style="fill:#b8b8b8;"/><path d="M1032.93,1215.92c.05,12.28,.09,24.56,.14,36.84-9.71,.01-19.42-.13-29.12,.09-3.92,.09-5.41-1.29-5.32-5.62,.22-10.43,.07-20.87,.07-31.3l-.04,.05c1.19-1.38,2.5-2.48,4.37-2.56,8.92-.36,17.84-.6,26.76,.17,.99,.09,1.76,.71,2.52,1.33,.2,.34,.41,.67,.62,1Z" style="fill:#3c3636;"/><path d="M313.03,1179.09c.08,12.31,.16,24.62,.24,36.92-.09,12.21-.18,24.41-.28,36.62-1.33,1.99-3.21,2.71-5.42,2.79-7.77,.27-15.54,.26-23.31,.01-2.2-.07-4.07-.82-5.47-2.72l.08,.09c-2.45-1.95-2.57-4.8-2.62-7.7-.13-6.53-.03-13.05-.09-19.58-.04-4.57-2.02-6.69-6.27-6.73-6.07-.06-12.14,.04-18.22-.1-2.7-.06-5.35-.18-7.16-2.82l.08,.09c-2.45-1.95-2.57-4.8-2.62-7.7-.13-6.53-.03-13.05-.09-19.58-.04-4.56-2.02-6.69-6.27-6.74-6.07-.06-12.14,.04-18.22-.1-2.7-.06-5.35-.18-7.16-2.82l.08,.08c-2.45-1.95-2.56-4.8-2.62-7.7-.13-6.53-.03-13.05-.09-19.58-.04-4.57-2.02-6.69-6.27-6.73-6.07-.06-12.14,.04-18.21-.1-2.7-.06-5.35-.18-7.16-2.82l.08,.09c-1.76-1.49-2.46-3.48-2.53-5.84-.25-8.31-.23-16.62-.02-24.94,.06-2.32,.59-4.41,2.36-5.93,.04-12.35,.08-24.7,.12-37.05,1.08-1.14,2.15-2.35,3.79-2.38,9.92-.19,19.87-1.41,29.73,.81,.67,.29,1.25,.74,1.72,1.33,2.24,3.91,1.27,8.31,1.65,12.52,.61,6.79-2.8,15.19,1.9,20,4.62,4.72,12.37,1.24,18.72,1.82,3.56,.32,7.23-.43,10.64,1.32,.63,.33,1.14,.81,1.55,1.42,2.68,6.85,1.26,14.05,1.39,21.08,.25,13.03,.08,12.88,12.32,13.11,6.37,.12,12.86-1.17,19.11,1.29,.62,.36,1.12,.85,1.51,1.48,2.6,6.89,1.22,14.1,1.35,21.17,.24,12.82,.08,12.82,12.07,12.84,4.36,.01,8.73-.02,13.09,.07,2.54,.05,4.93,.41,6.59,2.8l-.07-.09Z" style="fill:#b8b8b8;"/><path d="M38.88,1142.35c11.44-.03,22.89-.06,34.33-.08-.03,22.62-.16,45.24,0,67.86,.03,4.45-.97,6.07-5.35,5.93-9.66-.32-19.34-.04-29.01-.01,.02-24.57,.03-49.14,.03-73.7Z" style="fill:#323433;"/><path d="M72.97,1085.77c.06-5.71,.12-11.42,.19-17.13,11.45-.02,22.89-.04,34.34-.06-.03,22.62-.16,45.24,0,67.86,.03,4.43-.96,6.08-5.36,5.93-9.66-.33-19.33-.04-29-.01-.06-18.87-.11-37.73-.17-56.59Z" style="fill:#323433;"/><path d="M107.42,1068.66c-.49-11.41,1.02-22.87-.92-34.25-.14-.84,.58-1.86,.9-2.8,11.46,.04,22.93,.08,34.39,.13-.04,10.57-.22,21.15-.03,31.72,.07,4.02-1.13,5.26-4.83,5.18-9.84-.21-19.67-.02-29.51,.02Z" style="fill:#323433;"/><path d="M141.71,1031.83c0-12.32-.01-24.65-.01-36.97,11.42,.01,22.85,.01,34.27,.02,.3,.22,.61,.43,.91,.65,1.24,1.42,1.49,3.21,1.54,5.05,.22,8.46,.22,16.93,0,25.39-.05,1.83-.26,3.63-1.52,5.05-.31,.21-.61,.43-.92,.64-11.43,.05-22.85,.11-34.27,.17Z" style="fill:#323433;"/><path d="M210.29,1068.61c-11.44-.03-22.88-.07-34.31-.1v-36.86l-.08,.08c1.2-1.32,2.49-2.43,4.33-2.52,9-.43,18.01-.6,27,.14,1.3,.11,2.51,.8,3.6,1.63,1.36,1.33,1.74,3.09,1.82,4.96,.36,9.15,.35,18.29,.02,27.44-.09,2.08-.55,4.03-2.38,5.23Z" style="fill:#585858;"/><path d="M175.86,1105.55c.06,12.24,.12,24.47,.18,36.71-9.88,0-19.76-.1-29.64,.04-3.34,.05-4.83-1.11-4.76-4.91,.16-8.98,.21-17.97-.01-26.95-.1-4.25,1.69-5.15,5.16-5.08,9.69,.2,19.38,.15,29.07,.19Z" style="fill:#585858;"/><path d="M175.96,1142.18c9.84,.03,19.68,.21,29.52,0,3.72-.08,4.91,1.21,4.83,5.2-.2,10.57-.02,21.15,0,31.73-9.82,0-19.65-.13-29.47,.05-3.69,.07-4.99-1.35-4.93-5.3,.17-10.56,.06-21.12,.05-31.68Z" style="fill:#585858;"/><path d="M210.24,1179.02c9.84,.03,19.68,.22,29.52,0,3.73-.08,4.91,1.22,4.84,5.2-.19,10.57-.02,21.15,0,31.73-9.83-.01-19.65-.15-29.48,.04-3.7,.07-4.99-1.35-4.93-5.29,.17-10.55,.06-21.12,.05-31.68Z" style="fill:#585858;"/><path d="M244.52,1215.87c9.84,.03,19.69,.22,29.52,0,3.73-.08,4.91,1.2,4.84,5.2-.19,10.57-.02,21.15,0,31.73-9.83,0-19.66-.14-29.49,.05-3.69,.07-4.99-1.33-4.92-5.29,.18-10.56,.05-21.13,.05-31.69Z" style="fill:#585858;"/><path d="M278.8,1252.71c11.4-.03,22.79-.05,34.19-.08-.01,12.39-.02,24.77-.03,37.16-9.5-.05-19-.36-28.49-.05-4.67,.15-5.86-1.74-5.75-6.4,.25-10.2,.08-20.42,.08-30.63Z" style="fill:#585858;"/><path d="M621.7,73.74c4.99-.4,2.51-5,3.78-7.82,1.63,2.26-.57,6.18,2.41,7.22,2.27,.79,4.87,.53,7.33,.58,3.8,.07,7.61-.1,11.42,.04,3.45,.12,4.75-1.57,4.7-5.17-.11-7.33-.03-14.66,1.12-22.02,0,7.11-.02,14.21,.01,21.32,.01,2.63-.4,5.61,3.29,5.89l.22-.02c.85,1.07,2.02,1.99,2.07,3.54,.37,10.73,1.45,21.48-.72,32.14-2.38,3.29-5.4,4.57-9.36,4.19-6.36-.61-12.77-.11-19.16-.3-2.65-.08-5.33-.07-7.12-2.73-.06-5.73-.12-11.46-.18-17.19,.07-6.58,.13-13.12,.19-19.67Z" style="fill:#313131;"/><path d="M621.7,110.57c9.39,.12,18.78,.21,28.17,.39,2.15,.04,4.06-.61,5.92-1.63,.67,.42,1.17,1,1.52,1.74,1.56,12.37,2.58,24.73-.63,37.01-.99,1.01-2.15,1.7-3.53,1.78-9.29,.56-18.58,.57-27.86,.02-1.18-.07-2.17-.68-3.07-1.45-.21-.34-.43-.68-.64-1.01,.04-12.28,.08-24.57,.12-36.85Z" style="fill:#393738;"/><path d="M587.32,184.27c.02-12.27,.04-24.54,.06-36.81,11.4-.01,22.79-.03,34.19-.04l.03,.05c.9,1.02,2.09,1.94,2.13,3.46,.3,11.26,1.94,22.59-1.38,33.69-.42,.4-.76,1-1.34,1.1-11.04,1.91-22.07,2.69-33.05-.43-.21-.34-.42-.68-.64-1.02Z" style="fill:#5b5758;"/><path d="M895.97,791c0,6.55,.01,13.1,.01,19.65-.05,10.38-.23,20.77-.08,31.15,.06,4.18-1.26,5.85-5.25,5.74-7.95-.22-15.92,.1-23.87-.11-3.95-.11-5.47,1.46-5.27,5.7,.25,5.49,.13,10.99,.17,16.49-.07,4.89-.15,9.77-.23,14.66-1.76,2.74-4.46,2.73-7.13,2.8-5.87,.14-11.74-.09-17.61,.13-5.47,.2-6.6,1.42-6.78,7.31-.19,6.1,.03,12.21-.12,18.31-.06,2.62,.14,5.33-1.38,7.66-1.76,2.98-4.56,3.29-7.47,3.39-6.05,.2-12.11-.04-18.16,.16-5.85,.19-6.98,1.36-7.16,7.56-.19,6.5,.03,13.01-.12,19.51-.07,2.86-.2,5.72-2.19,7.99-1.55,1.48-3.49,1.53-5.38,1.59-7.98,.26-15.96,.25-23.95,.01-2.08-.06-4.22-.11-5.85-1.87-1.76-2.39-1.97-5.24-1.99-8.12-.11-19.81-.14-39.62,.02-59.43,.02-2.41-.13-4.95,1.36-7.07,2.18-2.47,5.07-2.52,7.93-2.6,6.09-.16,12.18-.07,18.27-.09,4.49-.02,6.62-2.18,6.63-7.07,.01-6.75-.13-13.51,.11-20.25,.26-7.26,1.89-9.05,8.52-9.37,6.09-.29,12.18,.02,18.27-.17,6.1-.19,7.2-1.41,7.36-8.09,.16-6.75-.17-13.51,.19-20.25,.32-6.06,2.07-7.93,7.74-8.29,6.46-.41,12.94,.01,19.41-.24,5.53-.22,6.71-1.47,6.9-7.31,.18-5.52,.19-11.05,0-16.57-.2-5.79-1.39-7.02-6.97-7.23-6.28-.23-12.57,.13-18.84-.2-6.36-.33-8.01-2.12-8.29-8.98-.28-6.75,.04-13.5-.17-20.25-.19-5.96-1.31-7.19-6.81-7.41-6.09-.24-12.18,.01-18.27-.14-2.68-.07-5.35-.2-7.5-2.33-1.39-1.66-1.45-3.75-1.51-5.78-.24-8.59-.23-17.18-.01-25.76,.06-2.24,.1-4.54,1.74-6.3,1.87-1.56,4.06-2.03,6.37-2.09,7.54-.19,15.08-.19,22.62,0,2.34,.06,4.49,.59,6.08,2.63,11.4,.05,22.8,.1,34.2,.14,.01,10.39,.15,20.77-.03,31.15-.07,4.26,1.42,5.74,5.33,5.67,9.66-.17,19.32-.01,28.98,.02,.07,17.98,.12,35.96,.18,53.95Z" style="fill:#302a2a;"/><path d="M827.32,700.05c-11.38,.03-22.75,.07-34.13,.1-2.76-1.46-2.67-4.3-2.69-6.92-.19-32.52-.29-65.05,.05-97.57,.07-6.55,1.95-8.44,7.88-8.73,7.6-.38,15.22-.26,22.83-.04,1.9,.05,3.83,.17,5.36,1.66,.22,.34,.44,.69,.66,1.03,0,7.78,.01,15.55,.02,23.33,.01,29.05,.02,58.09,.02,87.14Z" style="fill:#3f3d3e;"/><path d="M655.93,110.51c-.02-.4-.07-.79-.14-1.18,.06-11.86,.12-23.73,.19-35.59,11.36-.01,22.71-.01,34.07-.02,.08,10.24,.16,20.48,.24,30.71-.07,2.04-.13,4.08-.2,6.12-1.38,1.94-3.28,2.6-5.46,2.67-7.75,.25-15.5,.26-23.25,0-2.2-.07-4.08-.78-5.45-2.71Z" style="fill:#5b5758;"/><path d="M655.93,110.51c11.38,.02,22.77,.03,34.15,.05,.04,12.29,.08,24.57,.12,36.86,1.26,1.29,2.23,2.71,2.32,4.69,.38,9.11,.48,18.23-.09,27.34-.08,1.25-.58,2.34-1.39,3.24-3.66,1.58-3.69-1.18-3.71-3.72-.06-6.92-.03-13.83-.02-19.31-.26,6.36,.41,14.24-1.28,22.06-1.08-6.6-.95-13.26-1.01-18.33,0,3.59-.1,8.71,.03,13.84,.11,4.3-1.45,6.49-5.64,6.44-5.88-.08-11.77,.01-17.66-.03-2.49-.02-5.14-.84-5.34-3.53-.78-10.87-2.31-21.75-.54-32.67,.02-12.32,.04-24.63,.06-36.93Z" style="fill:#414141;"/><path d="M690.12,183.02c.03-11.87,.05-23.74,.08-35.6,11.39,.02,22.78,.03,34.17,.05,.02,12.28,.04,24.55,.06,36.83-.21,.33-.41,.66-.62,.99-1.34,1.35-3.03,1.59-4.75,1.64-7.95,.24-15.89,.25-23.84,0-1.74-.06-3.39-.41-4.73-1.73-.57-.65-.69-1.37-.37-2.18Z" style="fill:#5b5758;"/><path d="M381.55,761.53c.04-6.3,.23-12.61,.05-18.9-.12-4.19,1.3-5.79,5.26-5.73,9.64,.16,19.29-.03,28.93-.08,.32,.22,.65,.44,.97,.66,1.86,2.17,1.7,4.91,1.71,7.54,.11,31.62,.12,63.25,0,94.87-.01,2.87-.13,5.74-1.97,8.11-1.65,1.53-3.62,2.08-5.73,2.14-7.89,.25-15.79,.26-23.68,0-2.18-.07-4.04-.8-5.47-2.62h.01c-2.39-2-2.51-4.89-2.52-7.77-.13-19.4-.12-38.8,0-58.2,.02-2.89,.16-5.76,2.48-7.82-.02-4.07-.03-8.14-.04-12.2Z" style="fill:#302a2a;"/><path d="M381.58,773.73c.02,24.6,.03,49.2,.05,73.79-11.4-.02-22.8-.04-34.21-.05-.03-12.27-.06-24.54-.08-36.81,.01-10.38,.14-20.77-.01-31.15-.06-4.17,1.31-5.83,5.28-5.76,9.65,.16,19.31,0,28.97-.02Z" style="fill:#3f3d3e;"/><path d="M450.23,368.51c-.01-6.55-.03-13.11-.04-19.66,.01-3.86,.18-7.74-.02-11.59-.23-4.29,1.53-5.72,5.37-5.65,9.65,.17,19.3,.05,28.95,.05,.3,.22,.61,.44,.92,.65,.33,.49,.85,.93,.9,1.52,.97,11.46,1.84,22.92-.54,34.33-.38,.72-.9,1.28-1.56,1.7-10.19,2.77-20.49,1.27-30.76,.94-1.43-.05-2.27-1.33-3.22-2.29Z" style="fill:#434343;"/><path d="M484.51,294.83c11.41-.01,22.82-.03,34.23-.04,.31,.22,.62,.44,.93,.66,.74,.95,1.35,2.01,1.37,3.27,.15,10.7,1.33,21.43-.75,32.08-.51,1.18-1.33,2-2.41,2.55-9.8,2.16-19.68,.96-29.53,.75-1.66-.04-2.76-1.24-3.84-2.42l-.02-.03c0-12.27,.01-24.55,.02-36.82Z" style="fill:#434343;"/><path d="M450.18,612.91c.01-7.78,.01-15.55,.01-23.33,.22-.34,.44-.68,.66-1.03,1.89-1.79,4.24-1.66,6.5-1.71,6.66-.16,13.32-.2,19.97-.01,8.06,.23,9.56,1.8,9.69,10.65,.23,15.33,.07,30.67,.08,46.01,.01,15.95,.09,31.9-.06,47.85-.03,3.2,.47,6.62-1.82,9.37-2.05,1.72-4.47,2.07-6.97,2.12-7.2,.15-14.4,.2-21.59-.03-2.42-.08-5.04,.08-6.5-2.75,.02-29.05,.03-58.09,.03-87.14Z" style="fill:#3f3d3e;"/><path d="M450.16,700.05c11.37,.03,22.75,.07,34.12,.1,1.74,.88,2.41,2.5,2.51,4.41,.48,9.49,.49,18.98-.01,28.46-.09,1.65-.77,3.1-1.7,4.41-2.33,2.24-5.22,2.25-8.08,2.27-17.7,.12-35.39,.11-53.09,0-2.83-.02-5.8,.19-7.86-2.61l-.27-.28c.06-12.21,.11-24.42,.17-36.63,11.41-.04,22.81-.08,34.21-.13Z" style="fill:#302a2a;"/><path d="M450.23,368.51c11.46,.03,22.92,.07,34.38,.1,2.5,1.72,2.38,4.52,2.39,7.13,.15,44.53,.24,89.06-.05,133.58-.05,7.13-1.94,8.9-8.64,9.25-5.89,.3-11.78-.01-17.67,.19-6.33,.21-7.69,1.59-7.76,8.44-.17,17.57,.02,35.13-.11,52.7-.03,3.4,.47,7.07-2.51,9.62l-.06,.07c-11.42-.01-22.83-.01-34.25-.02l-.03-73.68c0-9.78,.21-19.58-.06-29.35-.15-5.47,1.54-7.82,6.84-7.58,7.38,.33,14.79-.06,22.18,.13,3.89,.1,5.46-1.44,5.38-5.7-.18-9.17-.07-18.34-.07-27.52,0-13.1,0-26.2,.01-39.3-.91-6.14-.91-12.28,0-18.42,0-6.54,.02-13.09,.03-19.64Z" style="fill:#3f3d3e;"/><path d="M758.67,184.3c.02,12.27,.03,24.55,.05,36.82-.21,.34-.43,.67-.64,1.01-1.51,1.5-3.43,1.61-5.31,1.66-7.55,.2-15.1,.19-22.65,0-2.3-.06-4.51-.47-6.31-2.22-1.51-2.03-1.82-4.43-1.87-6.91-.16-7.75-.15-15.49-.01-23.24,.05-2.7,.32-5.32,2.52-7.15h-.01c11.4,.02,22.81,.03,34.23,.03Z" style="fill:#5a5758;"/><path d="M897.22,791v-46.94c.11,0,.22,.01,.34,.01v46.94c-.12-.01-.23-.01-.34-.01Z" style="fill:#3f565c;"/><path d="M1101.48,1142.22c-.04,12.25-.07,24.5-.11,36.75-11.39,.03-22.78,.05-34.18,.08-.31-.23-.62-.46-.93-.7-1.38-1.62-1.47-3.67-1.52-5.69-.19-8.28-.2-16.56,.02-24.83,.06-2.22,.12-4.48,1.75-6.21,1.55-1.25,3.31-1.91,5.24-1.98,8.3-.31,16.59-.31,24.89,.01,1.53,.06,3,.4,4.19,1.56,.22,.34,.43,.67,.65,1.01Z" style="fill:#585858;"/><path d="M1067.2,1179.05c.01,10.58-.11,21.17,.12,31.75,.09,4-1.12,5.3-4.84,5.21-9.84-.24-19.69-.09-29.54-.1l.05,.1c-1.93-1.69-2.46-3.99-2.52-6.53-.18-8.36-.34-16.72,.08-25.06,.29-5.77,1.99-7.61,7.36-7.92,7.76-.45,15.54-.28,23.32-.09,2.36,.06,4.51,.62,6.06,2.73l-.09-.09Z" style="fill:#585858;"/><path d="M552.98,201.51c.04-5.74,.08-11.48,.12-17.21,11.41-.01,22.82-.02,34.23-.02h-.01c1.29,1.27,2.28,2.7,2.36,4.71,.39,9.6,.54,19.2-.12,28.8-.1,1.43-.73,2.74-1.5,3.93-.53,.6-1.11,1.29-1.84,1.38-10.4,1.3-20.81,1.37-31.2-.01-.71-.09-1.3-.82-1.84-1.4-1.23-6.71-.93-13.44-.2-20.18Z" style="fill:#5b5758;"/><path d="M210.27,958.05c-.05-9.83-.09-19.66-.14-29.48-.63-5.86,1.72-7.52,7.17-7.5,66.18,.17,132.36,.08,198.54,.05,1.92-2.49,4.6-2.65,7.29-2.67,18.28-.12,36.56-.14,54.84,.01,2.5,.02,4.95,.31,7.07,1.96,.26,.3,.69,.57,.74,.91,1.8,12.45,2.73,24.89-.54,37.26-1.7,2.08-4.06,2.12-6.32,2.12-43.76,.06-87.52,.54-131.27-.23-11.49,.53-22.99,.59-34.49,0-11.43,.54-22.86,.58-34.29,0-11.39,.53-22.78,.59-34.18-.01-8.92,.61-17.84,.35-26.76,.29-2.43-.02-4.99,.22-7.05-1.72-.2-.33-.41-.66-.61-.99Z" style="fill:#323433;"/><path d="M484.46,921.16c-22.87-.01-45.75-.03-68.62-.04,0-12.23,0-24.45-.01-36.68,.2-.34,.4-.67,.59-1.01,2-1.99,4.52-1.79,6.93-1.81,9.01-.06,18.02-.33,27.03,.28,9.27-.64,18.55-.37,27.83-.25,2.43,.03,4.99-.13,6.93,2.01,1.38,2.05,1.8,4.41,1.85,6.88,.16,8.09,.21,16.19-.03,24.28-.07,2.4-.12,4.92-2.5,6.34Z" style="fill:#3f3d3e;"/><path d="M381.62,847.51c11.44-.01,22.87-.02,34.31-.03,.31,.23,.62,.45,.93,.68,1.54,1.82,1.53,4.11,1.58,6.33,.16,7.53,.14,15.06,.01,22.59-.04,2.69-.23,5.32-2.44,7.16l-.17,.19c-.73-.01-1.46-.02-2.19-.02-8.91-.03-17.82-.19-26.72-.03-3.91,.07-5.4-1.46-5.33-5.71,.16-10.38,.03-20.77,.02-31.16Z" style="fill:#3f3d3e;"/><path d="M552.98,201.51c.04,6.53,.08,13.05,.12,19.58,3.55,5.47,3.51,13.51-.09,18.45h-1.11c0-10.53-.01-21.06,.01-31.59,.01-2.2-.32-4.49,1.07-6.44Z" style="fill:#5e3933;"/><path d="M553.01,239.54c.03-6.15,.06-12.3,.09-18.45,11.41,.01,22.81,.02,34.22,.03,1.19-1.38,2.53-2.43,4.38-2.52,8.73-.42,17.46-.54,26.18,.12,1.17,.09,2.19,.64,3.08,1.46,1.67,1.69,1.9,3.92,1.97,6.19,.24,8.17,.32,16.35-.02,24.52-.26,6.14-1.62,7.65-7.3,7.61-7.44-.06-14.81,.21-22.09,2.01-2.1,.19-4.19,.57-6.31,.56-9.83-.54-19.67-.19-29.5-.51-1.56-.05-3-.46-4.15-1.67-.17-.31-.35-.62-.52-.93-.02-6.14-.02-12.28-.03-18.42Z" style="fill:#434343;"/><path d="M518.74,294.79c.01-10.38,.13-20.77-.03-31.15-.06-4.22,1.42-5.79,5.34-5.72,9.66,.17,19.32,.04,28.98,.04l.02,.03c1.52,1.4,2.33,3.15,2.41,5.33,.29,8.98,.34,17.96-.04,26.93-.08,1.89-.72,3.57-1.79,5.07-1.64,1.53-3.61,2.08-5.72,2.15-7.89,.26-15.78,.26-23.67,0-2.17-.07-4.05-.77-5.46-2.63l-.04-.05Z" style="fill:#434343;"/><path d="M792.97,221.18c.01,12.26,.02,24.51,.03,36.77-1.19,1.4-2.52,2.44-4.38,2.54-8.75,.45-17.49,.48-26.23-.03-1.55-.09-2.93-.8-4.18-1.8-1.22-1.63-1.82-3.52-1.9-5.59-.32-8.69-.27-17.39-.03-26.09,.06-2.35,.74-4.35,2.46-5.87v.02c11.4,.02,22.81,.03,34.23,.05Z" style="fill:#5b5758;"/><path d="M1204.49,1071.03c.01,4.91,.02,9.83,.03,14.74-.06,18.86-.11,37.72-.17,56.58-9.71-.03-19.42-.26-29.13-.01-3.95,.1-5.32-1.11-5.23-5.48,.22-10.43,.01-20.87-.03-31.31-3.67-5.96-3.6-31.72,.11-37.04,9.58,.01,19.15-.01,28.73,.07,2.12,.03,4.69-.76,5.69,2.45Z" style="fill:#323433;"/><path d="M1204.27,1142.26c11.44,.03,22.89,.05,34.33,.08,.01,24.57,.02,49.13,.02,73.7-9.67-.03-19.35-.31-29.01,.01-4.38,.14-5.38-1.48-5.35-5.93,.17-22.61,.04-45.24,.01-67.86Z" style="fill:#323433;"/><path d="M1170.07,1068.52c-.04,12.35-.07,24.69-.11,37.04-11.4-.06-22.8-.13-34.2-.19-.31-.23-.62-.47-.93-.7-1.39-1.64-1.48-3.71-1.52-5.74-.18-8.34-.22-16.68,.03-25.02,.07-2.25,.2-4.51,1.94-6.17,2.12-1.62,4.58-1.87,7.07-1.91,6.85-.13,13.69-.13,20.54,0,2.69,.05,5.37,.18,7.24,2.75l-.06-.06Z" style="fill:#585858;"/><path d="M1135.76,1105.37c.01,10.43-.11,20.87,.1,31.3,.09,4.26-1.28,5.76-5.27,5.66-9.7-.24-19.41-.1-29.12-.11l.07,.08c-1.96-1.67-2.48-3.98-2.53-6.52-.18-8.35-.34-16.71,.08-25.05,.29-5.76,2-7.6,7.36-7.91,7.76-.45,15.54-.28,23.31-.09,2.36,.06,4.51,.62,6.06,2.72l-.06-.08Z" style="fill:#585858;"/><path d="M830.72,405.37c10.28-.01,20.56-.01,30.84-.02-10.28,2.01-20.56,1.98-30.84,.02Z" style="fill:#554142;"/><path d="M792.99,957.82c0-9.57,.31-19.15-.1-28.7-.26-6.05,1.36-8.5,7.29-8.05,6.79,.51,13.63,.1,20.45,.13,2.29,.01,4.55-.04,6.64-1.24,10.47-2.95,21.06-1.47,31.62-.92,1.13,.06,1.88,1.31,2.75,2.09,1.88-.01,3.76-.03,5.65-.04,64.37,0,128.73-.01,193.1-.01,1.14-.74,2.28-.74,3.43-.01,3.63,.2,3.43,3.04,3.43,5.74,0,10.41,.01,20.82,.01,31.22-.2,.33-.41,.66-.61,.99-1.86,1.82-4.21,1.71-6.46,1.73-9.1,.07-18.2,.35-27.3-.27-11.39,.57-22.78,.57-34.16,.01-11.43,.55-22.86,.57-34.29,0-11.49,.56-22.99,.55-34.48,0-20.52,.8-41.04,.25-61.55,.34-22.23,.09-44.46,.12-66.69-.07-3.1-.03-6.67,.9-8.73-2.94Z" style="fill:#323433;"/><path d="M1101.63,965.41c-.05,9.83-.1,19.66-.14,29.49-.22,.33-.43,.67-.65,1-1.52,1.5-3.44,1.59-5.32,1.64-7.56,.2-15.12,.19-22.68,.01-2.31-.05-4.51-.5-6.38-2.12-1.64-1.77-1.65-4.07-1.72-6.31-.23-7.98-.18-15.96-.04-23.93,.05-2.71,.32-5.34,2.52-7.17h.01c9.1-.01,18.21,.35,27.29-.13,5.51-.27,7.75,1.72,7.11,7.52Z" style="fill:#323433;"/><path d="M861.63,921.12c-9.65,.02-19.3,.05-28.95,.06-1.88,0-3.81,.2-5.42-1.23,.01-9.76,.18-19.53-.06-29.29-.11-4.72,1.36-6.53,5.86-6.41,9.46,.25,18.92,.04,28.38,.02,.08,12.28,.14,24.56,.19,36.85Z" style="fill:#3f3d3e;"/><path d="M1101.49,994.9c9.68-.01,19.36,.11,29.03-.08,3.91-.08,5.41,1.43,5.33,5.69-.19,10.4-.06,20.8-.05,31.21-.21,.34-.43,.67-.64,1.01-1.52,1.5-3.44,1.62-5.33,1.66-7.77,.19-15.54,.23-23.3-.03-2.09-.07-4.2-.21-5.75-2.07-1.51-2.28-1.75-4.91-1.79-7.59-.11-7.56-.13-15.12,.02-22.68,.05-2.71,.34-5.33,2.54-7.16l-.06,.04Z" style="fill:#323433;"/><path d="M1170.13,1068.58c-11.38-.04-22.77-.07-34.15-.11-2.26-1.16-2.53-3.42-2.61-5.7-.3-8.37-.26-16.74-.03-25.11,.06-2.36,.71-4.4,2.46-5.93h.01c11.41,.02,22.83,.04,34.24,.07,.02,12.26,.05,24.52,.08,36.78Z" style="fill:#323432;"/><path d="M175.96,994.87c0-10.41,.14-20.82-.05-31.22-.08-4.25,1.37-5.77,5.31-5.69,9.68,.21,19.36,.08,29.05,.08l-.04-.04c.9,1.04,2.1,1.95,2.16,3.49,.37,10.96,1.57,21.96-.76,32.85-.36,.74-.87,1.33-1.52,1.78-10.42,2.87-20.95,1.48-31.45,.88-1.14-.05-1.86-1.31-2.7-2.13h0Z" style="fill:#323433;"/><path d="M4.38,1341.2c-2.82-1.32-2.06-4.07-2.06-6.38-.06-15.06-.03-30.13-.03-45.19,2.25-4.6,.69-9.55,1.14-14.32,.32-3.37-.76-6.91,.98-10.12-.01,25.34-.02,50.68-.03,76.01Z" style="fill:#246f81;"/><path d="M1273.07,1292.2c1.56,5.25,1.56,10.5,0,15.75v-15.75Z" style="fill:#236f82;"/><path d="M1273.08,1311.85c1.45,3.2,1.46,6.41,0,9.61v-9.61Z" style="fill:#236f82;"/><path d="M37.48,1137.51h4.9c.03,.19,.05,.38,.08,.57h-5.08c.04-.19,.07-.38,.1-.57Z" style="fill:#2b6878;"/><path d="M0,1370.7c1.52,1.92,1.09,4.14,0,6.44v-6.44H0Z" style="fill:#227083;"/><path d="M692.43,1216.15c10.69-.09,21.37-.17,32.06-.26-.08,12.3-.16,24.6-.24,36.91-9.52,0-19.04-.16-28.56,.06-4.27,.1-5.68-1.69-5.6-6.14,.13-7.76-.05-15.54-.34-23.3-.11-3,1.86-4.83,2.68-7.27Z" style="fill:#929292;"/><path d="M792.99,957.82c42.46,.07,84.91,.13,127.37,.21,3.23,.01,6.47,.12,9.7,.19,2.56,1.87,2.57,4.77,2.59,7.6,.07,9.69,.32,19.39-.24,29.07,.56,9.78,.31,19.57,.25,29.35-.02,2.87-.14,5.74-2.05,8.07-1.85,1.66-4.08,2.08-6.38,2.09-30.12,.22-60.24,.17-90.36,.03-2.53-.01-4.91-.43-6.73-2.59h-68.29c-2.85-.04-5.7-.13-8.56-.13-130.49-.01-260.98,0-391.47-.01-3.8,0-7.61-.06-11.41-.09-.31-.21-.62-.43-.94-.64-1.87-2.18-1.62-4.94-1.63-7.55-.06-9.58-.31-19.17,.26-28.75-.6-9.59-.32-19.18-.26-28.78,.02-2.86,.01-5.8,2.59-7.69,42.84-.06,85.67-.12,128.51-.2,2.85-.01,5.7-.13,8.56-.2,1.79-2.22,4.22-2.52,6.71-2.52,20.59,0,41.17-.48,61.76,.26,22.86-.56,45.73-.59,68.59,0,22.87-.56,45.75-.59,68.62,0,20.47-.72,40.94-.24,61.41-.28,2.69,0,5.33,.25,7.28,2.65,11.37-.02,22.75-.05,34.12-.09Z" style="fill:#b8b8b8;"/><path d="M347.33,1068.65c-11.43-.03-22.87-.06-34.3-.1-.31-.24-.61-.48-.92-.71-1.5-1.83-1.48-4.11-1.53-6.33-.16-7.71-.15-15.41,0-23.12,.05-2.67,.3-5.28,2.1-7.38,1.89-1.62,4.14-1.94,6.45-1.99,7.22-.18,14.43-.16,21.65-.01,2.53,.05,4.94,.4,6.68,2.7l-.04-.07c-.04,12.33-.06,24.67-.09,37.01Z" style="fill:#969696;"/><path d="M210.29,1068.61c-.05-12.25-.1-24.5-.14-36.75-3.72-5.97-3.61-31.48,.16-36.88l-.12-.22c1.01-.89,1.87-2.15,3.29-2.21,10.14-.41,20.29-1.55,30.37,.72,.67,.31,1.24,.78,1.71,1.39,2.78,6.4,1.4,13.22,1.5,19.85,.22,14.4,.07,14.2,13.4,14.5,6.31,.15,12.9-1.78,18.88,2.07,1.93,2.34,1.95,5.23,2.01,8.11,.11,5.73,0,11.46,.07,17.19,.1,8.32,.93,9.24,8.48,9.36,5.52,.09,11.04-.03,16.57,.09,2.55,.06,4.95,.4,6.62,2.8l-.07-.09c.06,12.24,.12,24.47,.18,36.71-.04,12.36-.08,24.72-.12,37.07-5.37,4.01-29.17,3.93-34.31-.13l.08,.09c-2.41-1.98-2.54-4.83-2.59-7.73-.12-6.53-.03-13.06-.09-19.58-.04-4.57-2.02-6.69-6.27-6.74-6.07-.06-12.15,.03-18.22-.1-2.7-.06-5.35-.2-7.19-2.79l.08,.09c-2.41-1.98-2.54-4.83-2.59-7.73-.12-6.53-.03-13.06-.09-19.58-.04-4.57-2.02-6.69-6.27-6.74-6.07-.06-12.15,.03-18.22-.1-2.7-.06-5.35-.2-7.19-2.79l.08,.12Z" style="fill:#b8b8b8;"/><path d="M278.77,1142.21c11.44,.04,22.87,.08,34.31,.13,.01,12.28,.01,24.56,.02,36.84-9.85-.03-19.7-.22-29.54,0-3.76,.08-4.9-1.26-4.82-5.22,.19-10.58,.04-21.17,.03-31.75Z" style="fill:#585858;"/><path d="M827.15,1031.85c30.65-.04,61.31-.08,91.96-.14,3.62-.01,7.23-.11,10.85-.17,.32,.21,.64,.42,.96,.63,.9,1.09,1.47,2.34,1.53,3.81,.41,9.67,.47,19.34-.05,29.01-.08,1.44-.71,2.7-1.44,3.9-.53,.61-1.17,1.05-1.9,1.34-2.34,1.05-4.82,1.08-7.29,1.09-17.3,.07-34.6,.09-51.9-.01-3.02-.02-6.17,.23-8.39-2.74-11.42,.01-22.85,.01-34.27,.02,0-12.24-.04-24.49-.06-36.74Z" style="fill:#867b7c;"/><path d="M1067.28,1179.14c-9.85-.01-19.71,.13-29.56-.12-3.76-.1-4.91,1.25-4.83,5.22,.21,10.59,.08,21.18,.09,31.78-11.44-.01-22.89-.03-34.33-.04,.01-10.6-.12-21.2,.11-31.79,.09-3.92-.91-5.27-4.72-5.18-9.85,.22-19.71-.03-29.57-.1-1.39-1.16-2.32-2.61-2.4-4.58-.39-9.87-.57-19.74,.14-29.6,.07-1.04,.56-1.91,1.11-2.73,2.23-2.39,5.12-2.42,7.98-2.48,5.9-.14,11.79,.08,17.69-.12,5.77-.2,6.87-1.42,7.04-7.76,.17-6.33-.03-12.68,.12-19.01,.07-2.87,.12-5.76,2.18-8.03,2.26-1.84,4.93-1.92,7.58-1.93,9.07-.05,18.14-.32,27.21,.28,9.5-.59,19-.5,28.5-.17,6.11,.21,7.81,2.05,8.08,8.48,.35,8.16,.22,16.34,.06,24.51-.05,2.54-.58,4.85-2.41,6.63-.03,12.24-.05,24.49-.07,36.74Z" style="fill:#b8b8b8;"/><path d="M964.41,1142.18c.02,12.24,.04,24.49,.06,36.73-11.45,.03-22.89,.06-34.34,.09-.29-.23-.57-.47-.86-.69-1.25-1.62-1.46-3.53-1.4-5.53,2.42-11.72,1.5-23.51,1-35.36-.64-15.31-.14-30.65-.2-45.98-.02-5.51,.18-11.03-.85-16.5-.42-2.21-.58-4.51,1.19-6.31,.41-.05,.82-.11,1.23-.16,1.07-1.18,2.19-2.27,3.83-2.36,9.26-.51,18.52-.72,27.77,.17,1.09,.11,2.16,.72,3.09,1.47,2.06,1.99,1.95,4.71,1.98,7.3,.12,10.08,.36,20.17-.22,30.24,.55,9.72,.32,19.45,.25,29.18-.02,2.87-.09,5.76-2.53,7.71Z" style="fill:#969696;"/><path d="M930.11,1215.96c-11.44,.01-22.87,.02-34.31,.03-.04-12.23-.09-24.46-.13-36.69,.2-.35,.39-.7,.59-1.05,1.64-1.71,3.74-1.79,5.82-1.84,7.17-.18,14.34-.15,21.51-.02,2.52,.05,4.9,.42,6.62,2.71l-.08-.1c0,12.32-.02,24.64-.02,36.96Z" style="fill:#706f6d;"/><path d="M928.99,1068.63c1.83,6.3,2.37,12.72,2.33,19.33-.14,26.15-.05,52.3-.08,78.46,0,2.62,.49,5.34-.94,7.78-2.58-1.23-2.55-3.78-2.66-6.21-.23-5.07-.01-10.16-.16-15.23-.19-6.36-1.17-7.47-6.99-7.65-5.67-.18-11.34,0-17.01-.09-2.45-.04-4.93,0-7.2-1.25-.63-.33-1.15-.8-1.56-1.41-2.69-6.84-1.27-14.04-1.4-21.07-.25-13.07-.09-12.83-12.27-13.19-6.29-.19-12.84,1.81-18.88-1.74-.18-.31-.35-.63-.53-.94-.05-12.28-.1-24.55-.15-36.83,22.5,0,45,.02,67.5,.04Z" style="fill:#999393;"/><path d="M861.39,1142.43c-11.38-.05-22.76-.09-34.14-.14,.01-12.29,.02-24.58,.02-36.87,11.46-.01,22.92-.01,34.38-.02l-.08-.08c.86,1.06,2.08,1.98,2.13,3.5,.41,10.71,1.46,21.43-.66,32.08-.41,.69-.96,1.2-1.65,1.53Z" style="fill:#706f6d;"/><path d="M895.67,1179.3c-11.38-.05-22.76-.1-34.14-.15-.04-12.24-.09-24.47-.13-36.71l.39-.41c5.39-3.84,29.06-3.68,34.14,.24l-.08-.09c1.45,1.42,2.34,3.1,2.41,5.27,.3,8.89,.34,17.79-.02,26.68-.08,1.95-.88,3.47-2.18,4.75l-.39,.42Z" style="fill:#706f6d;"/><path d="M210.21,1068.52c9.85,.02,19.7,.19,29.54-.03,3.73-.08,4.93,1.22,4.85,5.21-.2,10.58-.04,21.17-.03,31.75-9.85-.02-19.71-.19-29.55,.03-3.72,.08-4.92-1.19-4.84-5.2,.2-10.58,.04-21.17,.03-31.76Z" style="fill:#585858;"/><path d="M244.49,1105.37c9.85,.02,19.7,.19,29.55-.03,3.73-.08,4.92,1.21,4.84,5.21-.2,10.58-.04,21.17-.03,31.76-9.85-.02-19.71-.19-29.55,.03-3.72,.08-4.92-1.19-4.84-5.2,.21-10.59,.04-21.19,.03-31.77Z" style="fill:#585858;"/><path d="M210.31,994.98c-.05,12.29-.11,24.59-.16,36.88-11.42-.05-22.83-.09-34.25-.14,.02-12.28,.05-24.57,.07-36.85,11.44,.04,22.89,.07,34.34,.11Z" style="fill:#969696;"/><path d="M690.12,183.02c.03,.41,.05,.82,.05,1.22,.4,.64,.37,1.26-.08,1.85-2.09,2.04-4.22,3.22-7.19,1.73-2.45-1.23-5.24-.78-7.9-.79-14.84-.07-29.68,.11-44.51-.12-2.82-.04-5.72,.29-8.46-.89-.64-.44-.78-1.02-.42-1.74v-36.82c11.42-.01,22.85-.03,34.27-.04,3.28,8.83,2.39,18.11,2.17,27.22-.14,5.75,1.73,7.69,6.92,7.26,4.54-.38,9.14-.21,13.7-.05,4.11,.15,5.91-1.71,5.81-6.18-.15-6.67-.04-13.35,1.16-20.02v24.05h1v-24.96c.42-.01,.83-.02,1.25-.03,0,7.06-.01,14.12,.01,21.17-.01,2.63-.38,5.43,2.22,7.14Z" style="fill:#444243;"/><path d="M621.6,184.29c0,.4,.01,.81,.02,1.21,2.28,1.51,2.41,4.01,2.47,6.47,.2,7.55,.28,15.11-.04,22.65-.12,2.7,.24,6.03-3.58,6.53-11.05-.01-22.1-.02-33.15-.03v-36.86c11.42,.01,22.85,.02,34.28,.03Z" style="fill:#363636;"/><path d="M450.26,589.52c-.02-22.67,.08-45.34-.16-68.01-.05-4.79,1.53-5.87,5.61-5.71,7.59,.3,15.21-.21,22.79,.19,4.73,.25,6.1-1.34,6.08-6.47-.18-44.11-.11-88.23-.1-132.34,0-2.86,.08-5.72,.12-8.57h-.08c1.76-2.67,4.41-2.81,7.07-2.83,9.02-.06,18.03-.36,27.04,.27,11.46-.54,22.92-.57,34.37,0,11.85-.55,23.71-.56,35.56,0,34.21-.58,68.42-.6,102.63,0,22.48-.57,44.96-.59,67.44,0,9.06-.59,18.13-.35,27.2-.27,2.67,.02,5.35,.16,7.1,2.87-.04,12.26-.08,24.52-.12,36.77-2.53,3.47-6.19,2.67-9.5,2.68-25.26,.11-50.53,.05-75.79,.06-1.52,0-3.04-.01-4.56,.01-9.47,.07-10.13,.76-10.19,10.71-.02,3.88-.06,7.76,.02,11.64,.15,7.54,1.26,8.77,8.46,8.84,11.97,.12,23.93,.03,35.9,.04,15.77,.02,31.53-.07,47.3,.06,2.98,.03,6.19-.43,8.36,2.68,.06,22.46,.26,44.93,.07,67.39-.04,5.12,1.34,6.73,6.07,6.48,7.39-.4,14.83,.16,22.22-.2,4.56-.22,6.27,1.01,6.2,6.33-.29,22.46-.15,44.93-.17,67.4-9.87,.02-19.74,.15-29.6,0-3.32-.05-4.7,.9-4.68,4.78,.18,35.28,.19,70.57,.25,105.85,0,12.28-.01,24.57-.01,36.85,2.08,1.93,2.31,4.55,2.35,7.24,.12,7.74,.24,15.49-.05,23.23-.26,6.86-1.91,8.76-8.21,8.96-9.28,.3-18.57,.47-27.85-.19-8.51,.57-17.04,.16-25.56,.41-5.53,.16-6.6,1.34-6.77,7.31-.25,8.95,.22,17.92-.4,26.88,.62,9.94,.3,19.88,.27,29.82-.01,2.24-.22,4.46-1.26,6.48-.38,.72-.91,1.28-1.58,1.7-2.81,1.62-5.9,1.41-8.92,1.42-28.12,.05-56.25,.07-84.37-.02-3.17-.01-6.5,.55-9.41-1.55-2.24-2.35-2.29-5.43-2.36-8.49-.14-6.29,.06-12.59-.11-18.88-.17-6.54-1.26-7.68-7.46-7.84-5.67-.15-11.34,.02-17-.1-2.65-.06-5.31-.12-7.57-1.95-2.01-2.26-2.07-5.14-2.13-8-.14-6.52,.08-13.04-.13-19.55-.19-5.88-1.3-7.04-6.85-7.23-5.68-.2-11.37,.02-17.05-.12-2.64-.06-5.35,.14-7.65-1.71-2.17-2.35-2.5-5.34-2.57-8.45-.14-6.31,.04-12.62-.12-18.93-.16-6.37-1.17-7.49-7.01-7.66-8.33-.24-16.67,.24-25-.42-9.18,.69-18.36,.35-27.54,.28-2.06-.01-4.15-.08-5.84-1.68-.21-.32-.42-.64-.63-.96-.04-12.29-.07-24.57-.11-36.86,.06-35.28,.08-70.57,.25-105.85,.02-3.89-1.36-4.83-4.68-4.78-9.84,.14-19.71,0-29.58-.01Z" style="fill:#969696;"/><path d="M621.74,957.92c-22.95,0-45.89,0-68.84,.01-2.18-1.88-2.38-4.54-2.38-7.23,0-22.08-.45-44.17,.24-66.25-.56-9.96-.34-19.93-.24-29.9,.03-2.61-.17-5.35,1.65-7.54,.84-.87,1.91-1.62,2.97-1.68,10.54-.66,21.1-1.69,31.59,.61,.68,.34,1.24,.85,1.69,1.5,2.67,6.45,1.34,13.28,1.44,19.94,.22,14.14,.07,14.15,13.28,14.16,35.14,.01,70.27,0,105.41,0,1.9,0,3.8,.04,5.7-.04,6.18-.25,7.34-1.41,7.52-7.94,.17-6.12-.01-12.25,.11-18.37,.06-2.9,.19-5.76,2.6-7.74l-.09,.1c1.69-2.33,4.09-2.71,6.61-2.76,7.37-.16,14.75-.29,22.12,.06,6.07,.29,7.78,2.06,8.05,8.44,.35,8.12,.22,16.25,.06,24.38-.05,2.51-.48,4.85-2.33,6.62-.01,24.55-.03,49.1-.04,73.64-22.95,0-45.9-.01-68.85-.01-2.42-2.03-2.35-4.95-2.41-7.82-.14-6.54,.01-13.08-.11-19.62-.08-4.26-1.95-6.4-5.95-6.43-17.11-.12-34.22-.12-51.33,0-4,.03-5.87,2.17-5.95,6.43-.12,6.54,.03,13.08-.11,19.62-.05,2.87,0,5.79-2.41,7.82Z" style="fill:#969696;"/><path d="M758.91,884.29c-.06-10.6-.3-21.21-.1-31.81,.08-4.07-1.14-5.17-4.81-5.07-9.86,.26-19.73,.12-29.6,.14,.04-12.25,.07-24.5,.11-36.75,1.75-2.73,4.42-2.82,7.11-2.89,6.07-.15,12.14-.04,18.21-.1,4.25-.04,6.22-2.17,6.26-6.73,.06-6.52-.04-13.05,.09-19.57,.06-2.89,.15-5.76,2.69-7.64,9.84-.02,19.68-.22,29.52,.04,3.81,.1,4.76-1.28,4.7-5.18-.17-10.57,.04-21.14,.11-31.72,9.51-.02,19.02,.12,28.53-.12,4.21-.11,5.75,1.51,5.63,6.05-.23,8.37,.07,16.76-.11,25.14-.09,4.2,1.31,5.88,5.29,5.78,7.98-.2,15.98,.06,23.96-.1,3.61-.07,5.18,1.3,5.11,5.33-.16,8.79-.16,17.58,0,26.37,.08,4.12-1.67,5.3-5.2,5.23-7.41-.15-14.85,.32-22.24-.16-5.68-.36-7.26,2.01-6.97,7.76,.39,7.75-.08,15.54,.16,23.3,.14,4.61-1.57,6.09-5.71,5.97-7.79-.24-15.6,.09-23.39-.12-3.99-.11-5.39,1.58-5.3,5.78,.18,8.58-.06,17.17,.09,25.75,.07,3.95-1.36,5.47-5.03,5.41-9.71-.16-19.41-.08-29.11-.09Z" style="fill:#141011;"/><path d="M690.15,185.5c.01-.42,.01-.84,.02-1.26,11.42,.01,22.85,.02,34.27,.04v36.84c-.21,.34-.43,.67-.64,1.01-1.52,1.5-3.43,1.61-5.32,1.66-7.56,.21-15.13,.19-22.69,.01-2.31-.05-4.51-.5-6.38-2.11-1.16-1.23-1.53-2.8-1.61-4.47-.39-8.58-.4-17.17-.02-25.75,.09-2.23,.41-4.51,2.37-5.97Z" style="fill:#333;"/><path d="M553.15,847.66c-.1,12.21-.19,24.42-.29,36.63-1.61,2.53-4.09,2.73-6.58,2.76-18.38,.19-36.77,.17-55.15,.01-2.52-.02-4.93-.36-6.7-2.61-11.38-.06-22.75-.12-34.13-.19-2.53-1.9-2.57-4.78-2.63-7.66-.14-6.52-.04-13.03-.1-19.55-.04-4.56-2.02-6.68-6.26-6.72-6.06-.06-12.13,.04-18.19-.1-2.69-.06-5.35-.14-7.19-2.74h0c.04-36.8,.08-73.6,.13-110.39,22.78-.03,45.56-.06,68.34-.08l.21-.13c1.83,1.74,2.38,4.01,2.39,6.52,.04,9.87,.49,19.74-.33,29.59,.57,8.9,.32,17.83,.45,26.75,.1,7,1.05,7.95,7.69,8.1,8.11,.17,16.23-.24,24.34,.4,9.33-.69,18.66-.34,27.98-.29,1.92,.01,3.79,.31,5.53,1.29,.68,.4,1.21,.95,1.61,1.65,2.58,11.2,1.34,22.52,.78,33.8-.06,1.18-1.21,2-1.9,2.96Z" style="fill:#141011;"/><path d="M518.75,368.3c-11.41,.11-22.82,.21-34.22,.32l-.03-36.93c11.04,0,22.08-.01,33.11-.01,2.4,.87,3.86,2.68,3.8,5.38-.2,8.68,.13,17.36-.24,26.04-.08,2.14-.78,3.91-2.42,5.2Z" style="fill:#363636;"/><path d="M518.75,368.3c.09-10.3,.11-20.6,.34-30.9,.05-2.18-.68-3.91-1.47-5.73,.38-.41,.77-.83,1.15-1.24,3.49-2.31,7.38-1.38,11.11-1.51,5.49-.2,11,.23,16.49-.34,3.02-.32,5.55,.87,7.82,2.9,2.33,4.8,1.25,9.99,1.43,15.03,.17,4.89,.11,9.8-.05,14.7-.08,2.69-.2,5.36-2.55,7.11-11.42-.02-22.85-.02-34.27-.02Z" style="fill:#3a3a3a;"/><path d="M553.02,331.65c-9.03,0-18.06,0-27.09,.02-2.46,0-4.91,.07-7.17-1.24,0-11.87,.01-23.73,.01-35.6h34.26c.31,.23,.62,.45,.94,.68,1.53,1.79,1.53,4.06,1.57,6.26,.16,7.65,.19,15.31-.01,22.96-.06,2.57,.11,5.36-2.51,6.92Z" style="fill:#343434;"/><path d="M792.82,442.12c-32.15,.02-64.29-.03-96.44,.15-4.59,.03-6.53-1.33-6.31-6.56,.33-7.96,.33-15.95,0-23.91-.22-5.25,1.74-6.57,6.32-6.54,32.15,.18,64.29,.13,96.44,.16,0,12.23,0,24.47,0,36.7Z" style="fill:#b8b8b8;"/><path d="M895.81,221.13c-34.28,.02-68.56,.04-102.83,.06-2.41,1.96-2.49,4.83-2.51,7.67-.06,9.69-.32,19.38,.25,29.06-.51,12.27-.52,24.54,.01,36.82-.48,12.07-.59,24.14,.06,36.21-.57,12.64-.58,25.28-.05,37.92-.58,12.19-.51,24.39-.02,36.58-.54,12.29-.5,24.57,0,36.86-.7,22.3-.35,44.61-.19,66.91,.05,7.22,1.91,9,8.55,9.35,5.52,.29,11.04,.06,16.56,.15,7.9,.13,8.94,1.18,8.99,9.58,.09,17.19-.04,34.38,.08,51.57,.02,3.41-.49,7.08,2.51,9.64l.06,.07c11.42-.01,22.83-.01,34.25-.02,.01-14.73,.02-29.47,.03-44.2v-49.13c-.01-3.46-.18-6.94,.02-10.39,.3-4.98-1.61-7.02-6.3-6.86-7.39,.24-14.79-.15-22.17,.13-4.47,.17-6.01-1.61-5.92-6.38,.23-11.81,.08-23.63,.09-35.45,0-8.3-.02-16.59-.01-24.89,0-2.61-.33-5.37,2.28-7.02,.39,0,.77,0,1.16-.01,10.28,.95,20.56,1.02,30.84-.02,0-10.37,.06-20.75-.03-31.12-.03-3.54,.56-6.14,4.61-5.69,9.9-.01,19.8-.03,29.69-.04,.98-6.55,.9-13.09,.02-19.64,0-13.1,.01-26.21,.01-39.31v-47.88c2.03-1.37,2.08-3.55,2.29-5.82,1.06-11.72-1.26-23.17-2.33-34.71Zm-41.22,110.61c-7.03-.31-14.07-.21-21.11-.03-4.25,.11-6.28-1.45-6.25-6.34,.13-20.44,.1-40.89,.01-61.33-.02-4.52,1.82-6.19,5.87-6.11,7.61,.15,15.22,.15,22.82,0,4.21-.08,5.72,1.98,5.67,6.33l.04,60.1c.18,5.71-1.94,7.61-7.05,7.38Z" style="fill:#3f3d3e;"/><path d="M792.98,294.8c.01,12.28,.01,24.57,.02,36.85-1.11,1.47-2.46,2.49-4.29,2.52-9.54,.19-19.1,1.04-28.62-.55-1.11-.31-2.2-.66-3-1.62-1.89-11.56-.99-23.17-.4-34.76,.06-1.14,.8-2.28,1.64-3.17,2.06-1.75,4.52-1.93,7-1.98,6.81-.14,13.63-.14,20.44-.01,2.67,.05,5.36,.13,7.21,2.72Z" style="fill:#333;"/><path d="M792.98,294.8h-34.23c-.31-.21-.61-.42-.92-.64-.59-.79-1.23-1.6-1.27-2.65-.38-10.65-1.32-21.31,.59-31.92,.38-.69,.91-1.23,1.57-1.6,11.43-.01,22.85-.03,34.28-.04,0,12.28-.02,24.56-.02,36.85Z" style="fill:#2d2d2d;"/><path d="M759.86,331.68c11.04-.01,22.09-.02,33.13-.02-.02,12.33-.03,24.66-.05,36.99-11.41-.12-22.82-.23-34.23-.35-2.13-1.58-2.44-3.95-2.48-6.46-.14-8.13,0-16.25,.2-24.38,.08-2.96,1.53-4.38,3.43-5.78Z" style="fill:#434343;"/><path d="M758.72,257.99c.01,.4,.01,.8,0,1.2-2.72,1.93-5.82,1.51-8.82,1.54-6.43,.05-12.86,.11-19.29-.07-2.49-.07-4.93-.3-6.87-2.29-1.63-2.23-1.78-4.87-1.83-7.54-.13-7.33-.13-14.66-.01-21.99,.05-2.88,.15-5.75,2.53-7.76v.03c11.44,0,22.87-.01,34.3-.01,0,12.31-.01,24.6-.01,36.89Z" style="fill:#3b3b3b;"/><path d="M1067.33,1142.39c-.03-10.35-.22-20.71-.03-31.06,.08-4.5-1.41-6.08-5.59-6-9.63,.2-19.26-.01-28.89-.05-.89-1.03-2-1.97-2.04-3.5-.34-10.83-1.4-21.68,.67-32.45,.28-.72,.7-1.34,1.25-1.84,5.73-3.04,11.87-1.56,17.83-1.65,15.01-.21,14,.8,14.18-15.34,.07-6.22-1.13-12.59,1.33-18.64,.4-.68,.92-1.2,1.58-1.59,10.15-2.61,20.41-1.21,30.63-.91,1.43,.04,2.32,1.31,3.37,2.16,11.39,.06,22.79,.12,34.18,.19,.06,12.25,.12,24.49,.18,36.74-.05,12.33-.09,24.66-.14,36.98-9.9-.01-19.8,.08-29.7-.09-3.45-.06-4.71,1.3-4.66,5.01,.16,10.64,.07,21.28,.08,31.93-11.41,.05-22.82,.08-34.23,.11Z" style="fill:#969696;"/><path d="M484.42,884.44c22.81-.05,45.63-.1,68.44-.16,.01,24.55,.03,49.1,.04,73.64-22.8-.04-45.6-.07-68.4-.11-.01-12.22-.02-24.44-.03-36.66-.02-12.23-.04-24.47-.05-36.71Z" style="fill:#302a2a;"/><path d="M278.75,958.22h34.39c.96,.98,2.06,1.93,2.11,3.46,.34,10.87,1.48,21.75-.72,32.56-.33,.74-.8,1.35-1.42,1.83-3.09,1.96-6.55,1.69-9.88,1.53-8.01-.39-16.12,1.36-24.02-1.3-.68-.39-1.21-.94-1.62-1.64-2.6-11.12-1.32-22.37-.82-33.58,.06-1.22,1.17-2.03,1.98-2.86Z" style="fill:#877b7c;"/><path d="M313.07,994.89c.02-12.22,.04-24.45,.07-36.67h34.29l-.21,36.75c-1.41,1.92-3.35,2.49-5.51,2.56-7.74,.24-15.49,.27-23.23-.02-2.1-.08-4.19-.36-5.41-2.62Z" style="fill:#969696;"/><path d="M278.75,958.22c0,12.25,0,24.5,.01,36.75-1.13,1.97-2.96,2.42-4.91,2.51-7.96,.34-15.92,.28-23.88,.04-2.2-.07-4.07-.82-5.51-2.65l.08,.08c-1.7-1.55-2.41-3.56-2.47-5.92-.23-8.35-.24-16.7,.01-25.06,.07-2.36,.72-4.39,2.59-5.82,11.36,.02,22.72,.05,34.08,.07Z" style="fill:#969696;"/><path d="M244.66,958.15c-.04,12.27-.09,24.53-.13,36.8-11.45-.06-22.9-.13-34.35-.19,.02-12.25,.03-24.5,.05-36.76,11.48,.05,22.96,.1,34.43,.15Z" style="fill:#585858;"/><path d="M415.93,847.49c9.66,0,19.32,.12,28.98-.05,3.88-.07,5.42,1.41,5.35,5.68-.16,10.38,0,20.76,.03,31.14-11.43,0-22.86,0-34.28-.01-.03-12.25-.06-24.51-.08-36.76Z" style="fill:#302a2a;"/><path d="M690.15,185.5c.01,11.86,.02,23.72,.03,35.58,2.59,2.18,2.46,5.31,2.53,8.37,.22,9.35-.61,18.75,1.32,28-2.08,12.03-1.59,24.13-.69,36.22,.23,3.11,.16,5.69-3.19,6.65-5.69-3.47-11.94-2.72-18.09-2.76-5.44-.03-10.89,.12-16.32-.38-3.11,.23-6.21,.44-9.32,.17-6.89-1.3-13.79-2.41-20.84-2.02-3.86,.22-5.34-2.09-5.38-6.06-.05-6.1-.02-12.2-.06-18.3-.07-9.47-.69-10.15-9.27-10.24-4.35-.05-8.7,.1-13.05-.13-2.25-.12-4.63-.05-5.93-2.67,6.64-2.63,13.52-.87,20.28-1.15,8.26-.34,8.27-.09,8.28-8.69,.01-8.99,.01-17.98,.01-26.97,2.31-5.02,.87-10.37,1.07-15.56,.26-6.68,.07-13.39,.08-20.09,1.41-.37,1.73-2.43,3.78-2.15,14.73,2.05,29.55,.48,44.32,.89,6.83,.23,13.68-.22,20.44,1.29Z" style="fill:#464646;"/><path d="M591.89,257.97c8.35,0,16.71,.21,25.06-.08,4.55-.15,6,1.76,5.86,6.46-.25,8.15,.17,16.34-.2,24.48-.18,3.97,1.06,4.71,4.43,4.86,6.56,.29,13.25-1.53,19.69,1.11-1.04,2.1-2.89,2.56-4.84,2.59-16.9,.32-33.81,.48-50.71-.09-.96-.03-1.87-.33-2.7-.87-1.04-.63-1.81-1.55-2.48-2.59-2.38-10.56-1.26-21.23-.71-31.87,.06-1.22,1.07-2.09,2.03-2.78,1.53-.4,3.05-.81,4.57-1.22Z" style="fill:#494949;"/><path d="M587.32,259.2c0,11.46,.01,22.93,.01,34.39-.04,2.67-1.83,3.5-3.79,3.64-8.9,.65-17.8,.63-26.7,.02-1.65-.11-2.73-1.28-3.81-2.43h.01c0-12.27,.01-24.56,.01-36.84,11.42,.54,22.91-1.29,34.27,1.22Z" style="fill:#3c3c3c;"/><path d="M1067.24,958.03c.06,12.25,.11,24.5,.17,36.74,3.65,6.02,3.51,31.53-.21,36.99l.08-.08c-1.84,2.59-4.49,2.73-7.19,2.78-6.07,.13-12.15,.03-18.22,.1-4.25,.04-6.23,2.17-6.27,6.74-.06,6.53,.03,13.05-.09,19.58-.05,2.9-.18,5.75-2.59,7.73l.08-.08c-1.19,1.38-2.51,2.47-4.37,2.56-8.92,.44-17.84,.55-26.75-.09-1.34-.1-2.55-.76-3.67-1.57-2.12-1.99-2.01-4.75-2.04-7.37-.11-9.99-.38-19.99,.23-29.97-.55-9.98-.31-19.97-.26-29.96,.01-2.24,.07-4.5,1.06-6.56,.29-.72,.73-1.32,1.3-1.81,5.03-2.77,10.46-1.54,15.72-1.61,17.57-.22,16.08,1.54,16.14-17.12,.01-3.48,0-6.95,.09-10.43,.07-2.56,.52-4.88,2.64-6.43,11.39-.06,22.77-.1,34.15-.14Z" style="fill:#969696;"/><path d="M930.26,994.97c-.07-12.25-.14-24.5-.21-36.75h34.29c1.19,1.06,2.22,2.26,2.31,4.03,.51,9.96,.71,19.92-.16,29.87-.1,1.16-.74,2.3-1.51,3.25-1.82,1.73-4.05,2.14-6.37,2.2-7.41,.19-14.83,.19-22.24,0-2.32-.06-4.55-.42-6.11-2.6Z" style="fill:#969696;"/><path d="M964.25,994.7c.03-12.16,.06-24.32,.09-36.49,11.41-.02,22.81-.03,34.22-.05,1.87,1.43,2.5,3.47,2.57,5.82,.25,8.35,.24,16.69,.01,25.04-.06,2.37-.77,4.37-2.47,5.92l.08-.08c-.98,.93-1.83,2.23-3.24,2.3-9.95,.44-19.92,1.56-29.82-.7-.65-.43-1.13-1.01-1.44-1.76Z" style="fill:#877b7c;"/><path d="M998.67,994.95c-.04-12.26-.08-24.52-.11-36.78,11.51-.01,23.02-.01,34.54-.02-.05,10.41-.25,20.82-.07,31.22,.08,4.33-1.41,5.66-5.31,5.58-9.68-.2-19.37-.03-29.05,0Z" style="fill:#585858;"/><path d="M1067.2,1031.76c.07-12.33,.14-24.66,.21-36.99,11.38,.03,22.75,.06,34.13,.09,.03,12.23,.05,24.45,.08,36.68-11.48,.07-22.95,.15-34.42,.22Z" style="fill:#585858;"/><path d="M621.74,957.92c-.05-10.64,.02-21.28-.2-31.91-.08-3.8,1.24-4.92,4.66-4.89,19.79,.13,39.59,.13,59.38,0,3.43-.02,4.71,1.1,4.63,4.89-.22,10.63-.15,21.27-.2,31.91h-68.27Z" style="fill:#3f3d3e;"/><path d="M313.07,994.89c11.38,.03,22.77,.05,34.15,.08,.07,12.24,.15,24.49,.23,36.73-11.49,.03-22.97,.05-34.46,.08-.3-.24-.6-.48-.9-.72-1.47-1.86-1.47-4.15-1.52-6.39-.14-7.55-.13-15.11-.01-22.66,.05-2.71,.32-5.32,2.54-7.14l-.03,.02Z" style="fill:#867b7c;"/><path d="M930.26,994.97c11.33-.09,22.66-.18,33.99-.26l.25,.28c.9,1.03,2.03,1.98,2.07,3.52,.29,10.91,1.53,21.85-.79,32.69-.35,.74-.86,1.33-1.5,1.78-10.34,2.9-20.81,1.4-31.24,.98-1.13-.05-1.91-1.2-2.73-2.03l-.35-.37c.1-12.2,.2-24.4,.3-36.59Z" style="fill:#867b7c;"/><path d="M313.09,1068.64c-9.85-.03-19.7-.21-29.54,0-3.76,.08-4.9-1.28-4.82-5.24,.23-10.58,.11-21.17,.14-31.75,.22-.33,.43-.66,.65-.99,1.71-1.65,3.85-1.6,5.92-1.64,7.01-.17,14.03-.15,21.04-.01,2.53,.05,4.94,.36,6.58,2.8l-.07-.04c.03,12.3,.07,24.58,.1,36.87Z" style="fill:#585858;"/><path d="M244.46,994.87c11.43,.03,22.87,.07,34.3,.1l-.04-.07c1.79,1.48,2.47,3.5,2.54,5.87,.24,8.36,.24,16.72,0,25.07-.07,2.37-.75,4.38-2.49,5.91l.1-.1c-9.85,.02-19.7-.11-29.55,.14-3.68,.09-4.95-1.12-4.87-5.17,.21-10.58,.03-21.17,.01-31.75Z" style="fill:#585858;"/><path d="M930.31,1031.92c11.41-.05,22.82-.1,34.23-.14,1.77,1.26,2.22,3.21,2.29,5.3,.29,8.74,.33,17.48-.03,26.22-.09,2.09-.54,4.05-2.51,5.11-11.35,.02-22.71,.04-34.06,.06,.02-12.18,.05-24.36,.08-36.55Z" style="fill:#585858;"/><path d="M998.78,1068.7c11.4-.06,22.81-.12,34.21-.18-.06,12.26-.12,24.51-.17,36.77-11.4,.02-22.79,.05-34.19,.07-.31-.23-.62-.46-.93-.69-1.54-1.83-1.5-4.13-1.54-6.36-.16-7.55-.19-15.1,.02-22.65,.08-2.61-.11-5.44,2.6-6.96Z" style="fill:#585858;"/><path d="M964.41,1142.18v-36.71c1.4-1.91,3.28-2.64,5.48-2.71,7.78-.26,15.56-.25,23.34,0,2.21,.07,4.08,.82,5.5,2.69l-.08-.09c.01,10.58-.11,21.16,.11,31.73,.08,3.95-1.06,5.33-4.82,5.23-9.85-.25-19.69-.12-29.53-.14Z" style="fill:#585858;"/><path d="M998.72,1105.45c-11.44,.01-22.88,.02-34.31,.02-.04-12.35-.08-24.71-.12-37.06,.09-12.21,.17-24.42,.26-36.63l-.12,.05c1.37-1.93,3.23-2.68,5.44-2.75,7.76-.27,15.52-.25,23.28-.01,2.18,.07,4.09,.73,5.53,2.58,.04,12.35,.08,24.7,.11,37.05-.03,12.25-.05,24.5-.07,36.75Z" style="fill:#b8b8b8;"/><path d="M896.05,1178.87c-.07-12.23-.14-24.47-.21-36.7,9.83,.03,19.67,.21,29.49,.02,3.69-.07,4.94,1.17,4.85,5.19-.18,8.93,.05,17.88,.12,26.82-.03,1.64-.07,3.27-.1,4.91-11.38-.09-22.77-.16-34.15-.24Z" style="fill:#3c3636;"/><path d="M895.92,1142.25c-11.38-.08-22.76-.16-34.14-.24-.07-12.23-.15-24.46-.22-36.7,9.84,.03,19.68,.22,29.51,.01,3.72-.08,4.91,1.21,4.84,5.21-.19,10.58-.02,21.15,.01,31.72Z" style="fill:#3c3636;"/><path d="M656.02,700.11c21.13,0,42.25,.1,63.38-.09,4.02-.04,5.25,1.27,5.12,5.55-.28,8.79-.27,17.6,0,26.38,.13,4.19-1.36,5.17-4.95,5.07-7.99-.23-15.99,.15-23.98-.16-4.12-.16-5.74,.91-5.54,5.71,.36,8.78-.05,17.59,.17,26.38,.09,3.72-.97,4.96-4.51,4.93-19.98-.16-39.97-.16-59.95-.03-3.29,.02-4.27-1.21-4.21-4.61,.16-8.59-.31-17.21,.18-25.77,.32-5.69-1.62-6.89-6.45-6.63-7.59,.41-15.23-.1-22.83,.19-3.89,.15-5.38-.96-5.21-5.41,.31-8.58,.32-17.19,0-25.77-.18-4.59,1.12-5.9,5.41-5.85,21.12,.24,42.25,.11,63.37,.11Z" style="fill:#302a2a;"/><path d="M588.47,294.81c19.42,0,38.85,0,58.27-.01,3.05,0,6.1,.01,9.15,.01,2.19,1.81,2.48,4.38,2.52,7.1,.08,5.28,.02,10.56,.06,15.84,.08,9.1,.7,9.77,8.96,9.9,5.85,.09,11.71-.11,17.56,.47,2.57,.25,4.77,1.01,6.75,2.69,1.32,2.06,1.81,4.33,1.89,6.83,.23,7.88,.3,15.75,.18,23.63-.04,2.66-.17,5.3-2.5,7.02h-102.84c-1.66-1.31-2.53-3.13-2.4-5.28,1.15-19.44-3.45-38.6-2.45-58.04,.22-4.28,.6-8.22,4.85-10.16Z" style="fill:#424242;"/><path d="M587.41,589.56c-11.45-.01-22.9-.01-34.35-.02h.01c-.01-34.51,.06-69.03-.13-103.55-.03-5.29,1.33-7.14,6.43-7.06,18.62,.29,37.25,.28,55.87,0,5.06-.08,6.64,1.71,6.46,7.04-.34,10-.11,20.01-.12,30.02-1.73,2.32-4.16,2.56-6.67,2.62-5.49,.14-10.98,0-16.47,.1-7.43,.14-8.43,1.17-8.48,9.35-.11,17.5,.04,35-.08,52.5-.02,3.22,.28,6.62-2.47,9Z" style="fill:#b8b8b8;"/><path d="M690.11,589.64c.02-34.33,.14-68.66-.06-102.99-.03-5.75,1.31-7.85,6.97-7.75,18.44,.35,36.88,.3,55.32,.02,5.03-.08,6.66,1.64,6.48,7.01-.35,10-.11,20.02-.11,30.03-1.73,2.33-4.16,2.57-6.68,2.63-5.5,.13-11,0-16.49,.09-7.48,.13-8.42,1.1-8.46,9.34-.09,17.12,.01,34.24-.05,51.36-.01,3.24,.26,6.55-1.17,9.61-.34,.72-.82,1.3-1.44,1.75-11.23,2.3-22.45,2.91-33.66-.14-.22-.31-.44-.63-.65-.96Z" style="fill:#b8b8b8;"/><path d="M724.48,847.45c-.01,10.42-.18,20.85,.03,31.27,.08,4.11-.87,5.72-5.03,5.71-42.4-.15-84.81-.15-127.21,0-4.16,.01-5.1-1.61-5.02-5.7,.21-10.42,.07-20.85,.06-31.27,1.24-2.24,3.32-2.52,5.43-2.59,7.76-.29,15.51-.25,23.27-.03,2.18,.06,4.08,.73,5.6,2.46,34.3,.04,68.59,.09,102.87,.15Z" style="fill:#3f3d3e;"/><path d="M570.05,442.19c-15.21,0-30.42-.11-45.63,.07-4.09,.05-5.87-1.25-5.73-5.91,.25-8.37,.25-16.76,0-25.13-.14-4.64,1.6-5.96,5.7-5.94,30.61,.13,61.22,.11,91.83,.01,3.82-.01,5.54,1.21,5.43,5.59-.21,8.58-.21,17.17,0,25.74,.11,4.36-1.57,5.66-5.41,5.62-15.39-.13-30.79-.05-46.19-.05Z" style="fill:#b8b8b8;"/><path d="M588.47,294.81c-4.14,9.79-3.33,20.46-1.81,30.17,2.28,14.51,1.24,28.89,1.81,43.32h-35.45c0-12.22,.01-24.44,.01-36.66s0-24.55,.01-36.83c9.25,0,18.5,.02,27.76-.02,2.23-.01,4.57,.47,6.55-1.21,.36,.41,.74,.82,1.12,1.23Z" style="fill:#444;"/><path d="M724.53,589.55c-.03-23.07,0-46.14-.15-69.21-.02-3.41,.83-4.61,4.12-4.53,10.06,.23,20.13,.14,30.2,.17,0,24.49-.01,48.99-.01,73.48-1.37,1.93-3.23,2.68-5.43,2.75-7.76,.26-15.51,.3-23.27-.02-2.12-.08-4.15-.53-5.46-2.64Z" style="fill:#302a2a;"/><path d="M587.41,589.56c-.03-23.07,0-46.14-.14-69.21-.02-3.41,.82-4.62,4.12-4.54,10.06,.24,20.13,.15,30.2,.18,0,24.54-.01,49.08-.01,73.62l.08-.09c-11.42,.02-22.84,.03-34.25,.04Z" style="fill:#302a2a;"/><path d="M690.02,663.19h-68.27c-1.83-1.44-2.52-3.45-2.6-5.82-.26-8.34-.23-16.69-.02-25.03,.06-2.35,.7-4.39,2.37-5.98l.24,.14c1.74-2.72,4.43-2.78,7.08-2.81,9.02-.08,18.05-.35,27.07,.26,9.09-.6,18.19-.33,27.29-.27,2.66,.02,5.33,.15,7.52,2.16,1.55,1.96,1.92,4.32,1.98,6.78,.18,7.86,.17,15.73,.01,23.6-.07,2.69-.4,5.26-2.67,6.97Z" style="fill:#302a2a;"/><path d="M724.53,589.55c11.39-.03,22.77-.06,34.16-.09,.01,22.27-.1,44.54,.12,66.8,.05,5.26-1.34,7.31-6.45,7.11-9.3-.37-18.62-.1-27.94-.11-1.97-1.66-2.47-3.97-2.49-6.49-.07-9.73-.43-19.46,.25-29.17-.45-10.3-.28-20.61-.23-30.92,.01-2.75,.35-5.23,2.38-7.12,0-.01,.2-.01,.2-.01Z" style="fill:#a1a0a0;"/><path d="M691.31,368.3v-36.64c.55-1.15,1.57-1.67,2.56-2.22,10.24-1.08,20.5-.6,30.76-.22,8.63-.63,17.28-.37,25.91-.27,2.58,.03,5.38-.2,7.06,2.71,.76,.01,1.51,.01,2.27,.02-1.58,4.99-.78,10.2-1.05,15.3-.38,7.09-.1,14.21-.1,21.32-22.47,0-44.94,0-67.41,0Z" style="fill:#414141;"/><path d="M518.67,737.01c9.67-.02,19.34,.08,29.01-.11,3.84-.07,5.48,1.35,5.42,5.65-.14,10.37,.02,20.75,.06,31.12-.19,.34-.38,.67-.58,1.01-.45,.37-.86,.94-1.4,1-10.7,1.19-21.4,1.98-32.05-.5-.67-.4-1.2-.96-1.6-1.66-2.54-11.14-1.3-22.39-.79-33.61,.05-1.21,1.18-2,1.93-2.9Z" style="fill:#8f8f8f;"/><path d="M621.62,847.29c-11.43,.05-22.87,.11-34.3,.16l.04,.09c-1.07-1.15-2.27-2.29-2.29-4.05-.15-10.48-1.41-21,.76-31.42,.4-.69,.94-1.21,1.63-1.55,9.51,.04,19.02,.24,28.53,.06,4.17-.08,5.77,1.48,5.68,6.04-.21,10.22-.06,20.44-.05,30.67Z" style="fill:#8f8f8f;"/><path d="M758.87,773.87c-.05,10.58-.26,21.17-.06,31.74,.07,4-1.05,5.21-4.77,5.13-9.84-.21-19.69,.01-29.53,.06-.02-10.43,.08-20.87-.11-31.3-.07-4.24,1.42-5.83,5.36-5.75,9.69,.2,19.4,.1,29.11,.12Z" style="fill:#8f8f8f;"/><path d="M553.15,773.68c9.63,.04,19.27,.21,28.9,.07,3.9-.06,5.38,1.51,5.33,5.72-.13,10.35,.03,20.71,.08,31.06l-.24,.24c-5.32,3.97-29.06,3.88-34.16-.14l.03-.02c-1.77-1.48-2.43-3.5-2.5-5.84-.24-8.3-.23-16.6-.01-24.9,.06-2.32,.6-4.4,2.35-5.93l.22-.26Z" style="fill:#8f8f8f;"/><path d="M518.67,737.01c.05,12.23,.1,24.47,.15,36.7-1.16,2.29-3.21,2.62-5.31,2.7-7.88,.31-15.77,.31-23.65,0-2.13-.08-4.12-.54-5.29-2.78,.01-12.25,.02-24.51,.03-36.76,11.35,.05,22.71,.1,34.07,.14Z" style="fill:#6e6e6e;"/><path d="M724.4,626.5c.01,12.26,.02,24.51,.03,36.77-11.47-.03-22.94-.05-34.41-.08-.03-12.27-.06-24.55-.1-36.82,.23-.32,.45-.65,.68-.97,1.71-1.54,3.8-1.64,5.87-1.68,7.14-.15,14.28-.15,21.42,0,2.49,.05,4.88,.36,6.51,2.78Z" style="fill:#888687;"/><path d="M621.5,626.36c.08,12.28,.17,24.55,.25,36.83-9.71,.02-19.42-.08-29.13,.13-3.95,.08-5.44-1.52-5.35-5.76,.18-8.59,.16-17.19,.01-25.78-.07-3.98,1.44-5.45,5.08-5.4,9.72,.12,19.43,.01,29.14-.02Z" style="fill:#8b8788;"/><path d="M689.92,626.37h-34.08c-1.74-1.52-2.35-3.56-2.42-5.89-.23-8.3-.24-16.59,.01-24.89,.07-2.33,.63-4.39,2.5-5.82,11.39-.04,22.79-.09,34.18-.13v-.03c1.79,1.49,2.45,3.51,2.51,5.86,.25,8.32,.21,16.64,.03,24.96-.05,2.34-.69,4.37-2.25,6.04l-.48-.1Z" style="fill:#3b393a;"/><path d="M655.93,589.77c-.03,12.2-.06,24.4-.09,36.6-11.37,.05-22.73,.09-34.1,.14-.03-12.32-.06-24.65-.09-36.97,0,0-.08,.08-.08,.09,11.45,.04,22.91,.09,34.36,.14Z" style="fill:#4c4a4b;"/><path d="M553.06,589.54c-.04,10.99-.04,21.97-.17,32.96-.03,2.77-1.9,3.85-4.27,3.86-8.36,.04-16.72,.01-25.08,.03-3.37,.01-4.78-1.86-4.76-5.35,.03-8.37,0-16.75,.02-25.12,.01-4.14,1.58-6.44,5.82-6.39,9.49,.13,18.98,.02,28.46,.01,0,0-.02,0-.02,0Z" style="fill:#929292;"/><path d="M553.06,810.63c11.39,.05,22.77,.09,34.16,.14,.05,12.26,.09,24.52,.14,36.78-11.4,.04-22.81,.08-34.21,.12-.03-12.36-.06-24.7-.09-37.04Z" style="fill:#393738;"/><path d="M692.45,257.97c-2.48-3.98-2.34-8.48-2.3-13,.07-7.96,.03-15.92,.03-23.89,11.42,0,22.83,.01,34.25,.01,.01,12.29,.02,24.58,.02,36.87-.21,.33-.42,.67-.63,1-1.67,1.64-3.77,1.64-5.82,1.69-6.37,.17-12.74,.2-19.1-.01-2.4-.07-5,.13-6.45-2.67Z" style="fill:#444;"/><path d="M484.57,773.64c11.41,.02,22.83,.05,34.24,.07l-.11,.18c1.81,1.46,2.45,3.49,2.52,5.83,.25,8.31,.23,16.62,.01,24.92-.06,2.33-.64,4.39-2.37,5.93-9.82,.02-19.64,.01-29.46,.06-2.75,.01-4.9-.52-4.89-4.21,.05-10.92,.05-21.85,.06-32.78Z" style="fill:#1c1a1b;"/><path d="M518.86,810.59c-.05-12.23-.11-24.46-.16-36.69,11.41,.01,22.81,.02,34.22,.04,.05,12.22,.11,24.45,.16,36.67-11.4-.01-22.81-.02-34.22-.02Z" style="fill:#404040;"/><path d="M757.6,331.66c-11.05,0-22.1-.01-33.15-.01-1.76-1.53-2.41-3.58-2.46-5.94-.21-8.59-.27-17.18,.06-25.76,.1-2.61,.95-4.77,2.97-6.31,5.02-2.71,10.42-1.32,15.66-1.59,3.97-.2,7.96-.09,11.95,.08,2.35,.1,4.53,.55,6.06,2.72l.08-.05c-.01,9.72-.03,19.44-.03,29.16-.02,2.63,.08,5.27-1.14,7.7Z" style="fill:#4a4a4a;"/><path d="M758.67,294.84c-11.03-.01-22.06-.02-33.09-.03-2.5-.02-3.24-1.96-3.38-4.05-.62-9.56-.58-19.13-.03-28.69,.1-1.78,1.18-2.94,2.26-4.1h.02c9.04-.01,18.07,0,27.11-.01,2.45,0,4.91-.07,7.16,1.23-.02,11.89-.03,23.77-.05,35.65Z" style="fill:#424242;"/><path d="M1032.92,1068.61c.01-10.44,.17-20.88-.03-31.31-.08-4.26,1.26-5.75,5.26-5.65,9.7,.23,19.42,.05,29.13,.03-.01,10.44-.17,20.87,.03,31.3,.08,4.27-1.26,5.74-5.26,5.65-9.71-.23-19.42-.04-29.13-.02Z" style="fill:#585858;"/><path d="M278.78,1031.75c-.02-12.28-.04-24.57-.06-36.85,11.46-.01,22.92-.03,34.38-.04-.01,12.32-.03,24.64-.04,36.96-11.43-.03-22.85-.05-34.28-.07Z" style="fill:#969696;"/><path d="M724.43,257.97c0,9.94-.01,19.88,.03,29.81,.01,2.39-.44,4.91,1.13,7.03-2.33,7.1-.75,14.44-1.1,21.66-.24,5.04-.04,10.11-.04,15.17-10.28,0-20.57,0-30.85,.01-4.39-1.14-6.1-4.17-6-8.95,.12-5.51-.12-11.03,.09-16.55,.09-2.43,.06-5,2.48-6.43,1.01-1.01,1.72-2.13,1.31-3.74-2.79-10.76-.7-21.74-1.22-32.6-.1-2.09,.76-3.94,2.2-5.42,10.65,0,21.31,0,31.97,0Z" style="fill:#484848;"/><path d="M690.16,299.72c0,7.87,.13,15.74-.06,23.6-.08,3.53,.72,6.33,3.48,8.33h-2.29c-9.35-1.54-18.78-1.44-28.18-1.14-5.33,.17-7.54-1.7-7.33-7.66,.33-9.34,.09-18.7,.09-28.05,9.01,0,18.02,.03,27.04-.01,3.46-.01,6.46,.54,7.25,4.93Z" style="fill:#444;"/><path d="M998.67,1031.65c-11.42,.06-22.83,.12-34.25,.18,.03-12.28,.05-24.56,.08-36.84,11.41-.04,22.83-.08,34.24-.12-.02,12.26-.04,24.52-.07,36.78Z" style="fill:#585858;"/><path d="M690.39,626.47c-.09-12.28-.19-24.57-.28-36.85,11.41-.02,22.82-.04,34.22-.06,.02,12.31,.04,24.63,.06,36.94-11.32-.01-22.66-.02-34-.03Z" style="fill:#9d9b9c;"/></svg>