<?xml version="1.0" encoding="UTF-8"?><svg id="a" xmlns="http://www.w3.org/2000/svg" width="287.41" height="478.76" viewBox="0 0 287.41 478.76"><path d="M14.6,478.73H1.66c-1.56-1.45-1.17-3.37-.95-5.07,.37-2.93,.21-5.84,.3-8.77,.03-7.33,.34-14.68-.11-21.98-.33-5.33,.37-10.6,.12-15.89,.03-5.59-.69-11.16-.43-16.76,.05-1,.09-2,.26-2.99,.19-1.43-.31-2.83-.2-4.27,.18-2.26,.59-2.76,2.83-2.9,2.14-.14,4.29-.01,6.44-.08,2.77-.09,3.52-.87,3.62-3.65,.09-2.5-.14-5,.14-7.5,.52-1.33,1.59-1.71,2.92-1.74,2.08-.04,4.16,.01,6.24-.05,2.81-.08,3.56-.83,3.64-3.61,.05-1.86,0-3.73,.03-5.59,.02-1.02,.17-2,.63-2.91,.82-.93,1.96-.74,3-.78,2.07-.08,4.14,.04,6.21-.07,2.18-.12,2.95-.87,3.04-3.04,.12-2.85-.02-5.71,.14-8.56-.18-3.42-.09-6.83-.08-10.25,0-1.07,.11-2.13,.63-3.11,.72-.94,1.79-.81,2.77-.84,2.65-.09,5.31-.05,7.96-.03,1.05,.01,1.94-.2,1.92-1.46-.06-5.66,.35-11.32-.26-16.97-.49-3.49,.52-6.94,.29-10.43-.06-.88-.1-1.75-.3-2.61,.01-.46,.08-.92,.1-1.38,.17-3.4-.71-4.36-4.03-4.32-2.02,.03-4.05,.05-6.07,.02-2.6-.04-2.9-.3-3.01-2.91-.08-2.01,.01-4.03-.05-6.04-.08-2.71-.81-3.47-3.5-3.52-2.29-.05-4.59,.01-6.86-.43-1.6,.18-2.38-.69-2.69-2.13-.29-1.26-.26-2.52-.1-3.79,.34-3.66,.63-7.31-.01-10.97-.16-.9-.12-1.84,.01-2.76,.22-2.7,.37-5.39,.08-8.12-.25-2.41,.52-4.8,.64-7.24,.2-4.11-.98-8.09-.73-12.17,.41-1.8-.1-3.77,1.04-5.42,.68-.59,1.51-.8,2.39-.83,3.01-.09,6.02-.14,9.02,.02,2.16,.11,2.6,.6,2.78,2.73,.1,1.14,.07,2.29,.07,3.44,.01,9.31-.01,18.63,.01,27.94,.01,3.9,.74,4.55,4.68,4.64,2.42,.06,4.88-.38,7.23,.55,1.01,.54,.92,1.55,.97,2.46,.1,1.94,.03,3.87,.05,5.81,.04,3.5,.63,4.07,4.2,4.1,1.22,.01,2.44,.06,3.66-.03,2.06-.14,2.8-.86,2.91-2.96,.12-2.22-.02-4.45,.08-6.67,.04-.97-.12-2.06,.95-2.69,4.42-.87,8.84-1.01,13.24,.1,.87,.76,.77,1.81,.79,2.79,.06,3.42,.12,6.85-.06,10.27,.14,2.86,.05,5.73,.12,8.6,.07,2.68,.83,3.43,3.51,3.52,1.86,.06,3.73-.01,5.59,.04,1.15,.03,2.3,.1,3.25,.9,1.07,2.82,.41,5.76,.54,8.64,.07,1.54,.21,3.15-.7,4.56-.42,.41-.93,.71-1.5,.75-3.82,.21-7.64,.57-11.43-.24-.25-.08-.48-.21-.67-.39-1.13-1.85-.71-3.9-.72-5.88-.05-6.25-.02-6.25-6.35-6.23-.43,0-.86-.01-1.29,.01-2.36,.12-3.09,.79-3.16,3.13-.09,3.01,.03,6.02-.14,9.03,.22,12.07,.11,24.14,.06,36.21-.01,2.78-.53,3.2-3.32,3.34-1.08,.05-2.15,.04-3.23,.04-6.22,.01-6.33,.13-6.34,6.45,0,4.96,.02,9.91-.01,14.87-.01,1.22,.02,2.45-.65,3.55-.81,.88-1.9,.93-2.98,.97-1.58,.06-3.16,.02-4.74,.03-3.96,.02-4.52,.58-4.55,4.45-.01,1.58,.01,3.16-.02,4.74-.02,1.02-.13,2.01-.75,2.87-.88,.75-1.94,.82-3.02,.85-1.85,.05-3.71-.02-5.56,.04-2.77,.08-3.49,.82-3.57,3.64-.05,1.78,0,3.57-.03,5.35-.02,1.08-.09,2.14-.75,3.06-1.15,.96-2.54,.84-3.9,.87-1.65,.03-3.3-.04-4.95,.03-2.45,.1-3.22,.84-3.3,3.26-.09,2.94,.02,5.88-.13,8.82,.17,12.86,.16,25.71,.01,38.57,.13,3.35,.11,6.7,.05,10.06-.01,1.08-.04,2.17-1.02,2.91Z" style="fill:#1e1108;"/><path d="M286.39,409.72v31.04c1.23,.94,.96,2.32,.97,3.57,.04,8.15,.18,16.29-.38,24.43-.19,2.37,.54,4.7,.38,7.07-.07,1.07-.06,2.16-1.04,2.91h-12.94c-.97-.73-1.02-1.81-1.03-2.88-.05-3.33-.09-6.65,.06-9.98-.21-15.09-.04-30.17-.09-45.26-.02-5.13-.39-5.47-5.52-5.53-2-.02-4.03,.3-5.98-.4-.26-.1-.49-.24-.69-.42-.77-1.14-.73-2.45-.74-3.74-.03-5.24-.01-10.49-.01-15.73-.01-5.25-.32-5.55-5.66-5.56-1.36,0-2.73,.03-4.09-.04-2.58-.14-3-.54-3.13-3.07-.11-2.15,.02-4.31-.08-6.46-.11-2.39-.93-3.2-3.31-3.33-2.3-.12-4.6,0-6.9-.1-1.77-.07-2.59-.93-2.64-2.68-.06-1.94-.04-3.88-.06-5.82-.04-3.6-.74-4.32-4.27-4.37-1.72-.02-3.45,.03-5.17-.04-2.93-.12-3.42-.52-3.44-3.43-.06-7.83-.14-15.66,.05-23.49-.13-4.25-.17-8.5,.01-12.75-.16-2.92-.04-5.84-.13-8.76-.08-2.42-.84-3.17-3.25-3.27-1.92-.08-3.85,.01-5.77-.05-1.14-.03-2.29-.05-3.19-.94-.65-1.01-.67-2.15-.68-3.28-.02-3.26-.07-6.51,.06-9.77-.13-3.41-.11-6.81-.05-10.22,.02-1.04-.13-2.16,.71-3.02,.88-.55,1.86-.75,2.87-.72,3.48,.13,7-.56,10.43,.53,1.01,.54,.93,1.54,.98,2.45,.1,1.79,.04,3.58,.05,5.37,.03,3.93,.59,4.51,4.45,4.54,1.58,.01,3.15-.02,4.73,.03,1.08,.03,2.16,.11,3.02,.89,1.01,1.63,.72,3.43,.65,5.2-.03,.76-.19,1.52-.13,2.29,.46,4.42,.21,8.84,.14,13.27-.01,.74-.25,1.41-.9,1.85-.02,9.18-.03,18.36-.09,27.54-.01,1.49,.66,1.79,1.96,1.77,3.66-.04,7.32,.01,10.97,.03,1.09,.47,.99,1.49,1.04,2.39,.12,2.07-.02,4.15,.08,6.22,.11,2.29,.88,3.07,3.17,3.18,2.22,.11,4.44,.04,6.65,.06,1.54,.02,2.62,.56,3.1,2.09,.02,2.51-.08,5.01,.02,7.52,.09,2.43,.85,3.18,3.29,3.27,2.15,.08,4.3-.03,6.45,.07,.91,.04,1.9-.06,2.54,.85,.69,1.33,.62,2.77,.63,4.19,.03,3.21,0,6.42-.02,9.63,.06,2.57-.04,5.15,.05,7.72,.09,2.52,.89,3.31,3.39,3.42,2.07,.09,4.15-.03,6.22,.07,2.73,.12,3.16,.59,3.27,3.37,.03,2.15-.58,4.2-1.01,6.28Z" style="fill:#1e1108;"/><path d="M182.81,478.73h-25.88c-.4-.4-.86-.79-.88-1.4-.13-3.88-.63-7.77,.32-11.62,.97-.92,2.2-.93,3.42-.96,1.86-.05,3.73,.02,5.59-.04,2.57-.09,3.33-.83,3.4-3.38,.08-2.86-.04-5.73,.13-8.6-.16-4.22-.17-8.44,0-12.65-.13-2.35-.1-4.71-.11-7.07-.01-4.57-.4-4.95-5.06-4.96-1.43,0-2.86,.02-4.29-.03-1.08-.04-2.14-.14-3.02-.89-.6-.89-.53-1.92-.54-2.91-.05-6.67-.04-13.33,0-20,.01-1.15,.03-2.31,.78-3.28,.38-.33,.83-.63,1.31-.66,3.96-.23,7.92-.66,11.85,.3,1.13,.55,1.02,1.65,1.06,2.62,.11,2.23-.03,4.46,.08,6.68,.1,2.22,.84,2.95,3.03,3.08,1.43,.08,2.88,.06,4.31,.01,2.62-.08,3.34-.77,3.42-3.35,.07-2.08-.03-4.17,.05-6.25,.04-.92-.07-1.9,.71-2.62,1.59-.87,3.33-.66,5.04-.69,1.36-.03,2.72,.05,4.08-.04,2.16-.14,2.91-.9,3.04-3.08,.11-1.93,.01-3.86,.06-5.79,.03-1.22,.05-2.44,.9-3.45,1.6-.85,3.34-.52,5.03-.56,2.06-.05,4.13-.08,6.19,.06,.92,.06,1.89,.07,2.39,1.08,.41,.78,.5,1.63,.51,2.49,.02,7.71,.14,15.41-.06,23.12,.14,2.87,.04,5.74,.12,8.61,.08,2.53,.89,3.32,3.42,3.42,2.15,.09,4.31-.04,6.46,.08,2.42,.13,2.9,.57,2.97,2.99,.15,5.1,.04,10.2,.06,15.3,.01,1.36-.04,2.73,.02,4.09,.12,2.54,.89,3.32,3.42,3.42,2.01,.08,4.02-.02,6.03,.06,.92,.04,1.89-.08,2.66,.61,.85,1.28,.79,2.73,.79,4.16,0,8.73-.56,8.13,8.23,8.14,1.43,0,2.9-.09,4.13,.89,.94,1.75,.5,3.64,.58,5.47,.07,1.71,.04,3.43-.03,5.15-.04,.95-.19,1.85-1.02,2.48h-25.88c-.89-.69-1.01-1.68-1.04-2.7-.05-1.79,0-3.58-.04-5.37-.06-3.05-.77-3.74-3.88-3.79-1.72-.03-3.44,.01-5.16-.03-1.15-.03-2.29-.11-3.28-.83-.6-.71-.57-1.59-.58-2.43-.05-3.48-.12-6.96,.06-10.43-.14-2.86-.07-5.72-.12-8.59-.05-2.82-.77-3.45-3.62-3.58-2.7-.13-5.45,.43-8.1-.49-.23-.1-.42-.26-.57-.46-.7-1.25-.61-2.62-.63-3.97-.02-1.57,.03-3.14-.02-4.71-.09-2.49-.77-3.19-3.21-3.28-1.36-.05-2.71-.04-4.07-.01-2.74,.06-3.44,.73-3.49,3.43-.06,2.93,.02,5.86-.12,8.79,.22,11.92,.09,23.84,.07,35.75,0,.98-.11,1.98-1.02,2.67Z" style="fill:#43281d;"/><path d="M79.3,478.73h-12.94c-1.13-.87-1.03-2.15-1.04-3.35-.06-4.95-.02-9.9-.02-14.85,0-13.99-.01-27.98,.01-41.97,0-1.5-.13-3.02,.55-4.44,.77-1.07,1.95-1.06,3.08-1.11,2-.08,4,.02,5.99-.06,2.43-.1,3.21-.84,3.28-3.25,.09-3-.01-5.99,.15-8.99-.01-4.13-.59-8.29,.38-12.39,.43-.93,1.28-1.12,2.16-1.13,7.47-.15,14.94-.14,22.42-.01,.58,.01,1.13,.18,1.66,.42,.26,.13,.48,.31,.64,.55,.52,.9,.61,1.9,.61,2.91,0,7.66,.12,15.31-.06,22.97,.13,3.26,.09,6.51,.07,9.77-.01,1.13-.03,2.28-.68,3.28-1.1,1.06-2.51,.94-3.86,.95-5.67,.04-11.33-.01-17,.03-3.6,.02-4.28,.71-4.32,4.28-.02,2.58,.03,5.16-.1,7.75,.2,11.91,.08,23.82,.06,35.74-.02,1.06-.06,2.15-1.04,2.9Z" style="fill:#43281d;"/><path d="M247.5,478.73c-.01-4.31-.02-8.61-.03-12.92-.93-.77-.99-1.84-1.02-2.92-.05-2,.06-4-.06-5.99-.13-2.06-.87-2.8-2.93-2.93-1.99-.13-4-.01-5.99-.06-1.08-.03-2.15-.09-2.92-1.02-3.44-.01-6.88-.1-10.32,0-1.94,.06-2.66-.58-2.64-2.58,.09-6.88-.03-13.76,.07-20.64,.03-2.05-.64-2.83-2.72-2.72-2.57,.13-5.16-.04-7.74,.06-1.81,.07-2.62-.51-2.55-2.44,.12-3.51,.06-7.02,.07-10.53,.51-.69,1.22-.96,2.05-.98,7.37-.13,14.73-.15,22.1,.01,.5,.01,.99,.16,1.46,.32,.26,.06,.5,.17,.73,.31,.72,.77,.53,1.75,.55,2.66,.05,2.08-.03,4.17,.04,6.25,.08,2.49,.78,3.2,3.25,3.28,1.94,.07,3.88,.01,5.82,.03,.94,.01,1.86,.11,2.73,.53,.23,.12,.41,.29,.55,.51,1.01,2.41,.5,4.94,.56,7.42,.1,3.9,.58,4.37,4.49,4.49,2.61,.08,5.3-.56,7.79,.75,.87,1.04,.64,2.31,.65,3.5,.06,5.8,0,11.61,.03,17.41,.02,3.43,.75,4.13,4.2,4.18,1.72,.02,3.44-.03,5.16,.05,.95,.04,1.87,.17,2.46,1.05,.02,4.3,.03,8.6,.05,12.91-8.63,0-17.26,0-25.89,0Z" style="fill:#604731;"/><path d="M131.05,478.73h-12.94c-.97-.74-1.02-1.82-1.03-2.89-.05-3.33-.09-6.67,.06-10-.13-4.33-.15-8.65,0-12.98-.13-4.31-.14-8.63,0-12.94-.13-4.32-.14-8.63,0-12.95-.14-4.34-.14-8.67,0-13.01-.18-7.6-.07-15.2-.07-22.81,0-1.15,.1-2.3,.73-3.32,.11-.1,.2-.26,.32-.28,4.37-.68,8.73-.9,13.08,.12,1.08,1.36,.9,2.98,.9,4.54,.03,13.35,.01,26.7,.01,40.05,0,.86-.01,1.72,.01,2.58,.08,3.13,.86,3.86,4.01,3.99,2.56,.11,5.17-.41,7.69,.51,.25,.12,.46,.3,.61,.54,1.03,2.26,.5,4.66,.6,7.01,.06,1.5,.02,3.01-.07,4.52-.09,1.56-.87,2.32-2.43,2.41-2.15,.12-4.3,.04-6.45,.09-3.12,.08-3.92,.86-3.95,4.02-.05,5.74,.02,11.47-.04,17.21,0,1.29,.15,2.65-1.04,3.59Z" style="fill:#43281d;"/><path d="M66.42,414.01c-.02,21.57-.04,43.15-.06,64.72h-12.94c-1.18-.94-1.04-2.29-1.05-3.56-.05-5.65,0-11.3-.03-16.95-.02-3.57-.73-4.17-4.29-4.32-2.68-.11-5.45,.61-8-.82-.71-.85-.6-1.89-.61-2.87-.06-6.71-.05-13.42-.01-20.12,.01-1.07,.04-2.15,.62-3.11,.77-.93,1.85-.99,2.93-1.03,1.64-.07,3.29-.02,4.94-.04,3.77-.03,4.39-.64,4.43-4.34,.02-1.86-.07-3.72,.09-5.58,.15-1.74,1.13-2.82,2.86-2.91,3.63-.19,7.27-.15,10.91-.13,.39,.29,.42,.65,.21,1.06Z" style="fill:#604731;"/><path d="M79.3,478.73c.01-12.93,.02-25.85,.03-38.78,.65-.97,1.67-1.05,2.68-1.06,6.9-.08,13.79-.07,20.69,0,.94,.01,1.86,.15,2.67,.71,.8,.95,.84,2.11,.85,3.26,.03,3.3,.09,6.61-.07,9.91,.14,4.35,.14,8.7,0,13.05,.14,3.34,.1,6.68,.05,10.02-.02,1.07-.05,2.15-1.03,2.89h-25.87Z" style="fill:#6d4931;"/><path d="M131.05,478.73c0-7.73,.06-15.47-.04-23.2-.02-2.07,.68-2.81,2.73-2.71,2.5,.13,5.02-.07,7.52,.06,2.01,.1,2.84-.56,2.76-2.67-.13-3.43-.04-6.87-.04-10.31,.31-.54,.8-.86,1.39-.88,3.78-.13,7.56-.59,11.31,.31,.26,.11,.48,.28,.65,.5,.67,1.18,.63,2.48,.64,3.78,.02,3.09,.01,6.17,.03,9.26-.04,3.27,.01,6.55-.04,9.82-.02,1.14-.02,2.3-1.01,3.13-.01,4.3-.02,8.61-.03,12.91-8.62,0-17.24,0-25.87,0Z" style="fill:#604731;"/><path d="M208.65,452.84c.02,4.31,.05,8.63,.07,12.94,1.5,2.1,1.48,10.94-.03,12.95h-25.88c.01-12.94,.02-25.88,.04-38.82,.52-.68,1.23-.94,2.05-.98,2.93-.12,5.87-.12,8.8,0,.83,.04,1.52,.34,2.07,.97h-.01c.94,.75,1.01,1.82,1.03,2.9,.04,1.93-.04,3.85,.05,5.78,.11,2.31,.85,3.06,3.13,3.18,1.99,.1,3.99,0,5.99,.06,1.01,.03,2.01,.1,2.69,1.02Z" style="fill:#604731;"/><path d="M40.48,426.97c.01,8.64,.01,17.28,.02,25.91,.92,.69,1,1.7,1.01,2.71,.07,6.81,.07,13.62,0,20.43-.01,1.02-.11,2.02-1.02,2.7H14.61c.02-4.3,.03-8.6,.05-12.9,.65-.98,1.66-1.03,2.68-1.07,1.8-.07,3.59,0,5.39-.05,2.89-.08,3.71-.86,3.73-3.79,.06-7.11,.01-14.23,.02-21.34,0-3.31-.03-6.61,.02-9.92,.01-.87,.11-1.72,.49-2.52,.12-.25,.3-.46,.54-.61,4.25-.89,8.49-1.11,12.72,.09,.07,.13,.15,.24,.23,.36Z" style="fill:#6d4931;"/><path d="M40.48,478.73c.01-8.62,.01-17.23,.02-25.85,3.52-.01,7.04,.04,10.56-.06,1.79-.05,2.39,.65,2.38,2.4-.06,7.83-.02,15.67-.02,23.5-4.32,.01-8.63,.01-12.94,.01Z" style="fill:#43281d;"/><path d="M208.69,478.73c.01-4.32,.02-8.63,.03-12.95,3.51,0,7.03,.06,10.54-.01,1.78-.04,2.42,.67,2.38,2.42-.08,3.51-.02,7.03-.02,10.54-4.31,0-8.62,0-12.93,0Z" style="fill:#443123;"/><path d="M105.17,478.73c0-4.32,.01-8.63,.01-12.95,.53-.66,1.23-.94,2.06-.98,2.93-.12,5.87-.12,8.8,0,.83,.04,1.53,.31,2.04,1,.01,4.31,.02,8.61,.03,12.92-4.31,0-8.62,0-12.94,0Z" style="fill:#5b483a;"/><path d="M40.47,.01c0,3.52,.07,7.04-.01,10.56-.04,1.79,.66,2.43,2.41,2.38,2.8-.09,5.6,.03,8.4-.03,1.57-.03,2.22,.61,2.16,2.17-.06,1.58,0,3.16,.01,4.74,.81,.64,.98,1.54,.99,2.5,.08,4.73,.09,9.46-.01,14.19-.02,.87-.17,1.71-.71,2.44-.86,.78-1.94,.85-3.02,.89-1.72,.05-3.44,0-5.17,.04-3.08,.08-3.89,.92-3.98,4.05-.03,1-.01,2.01-.01,3.01,0,30.21,.01,60.42-.02,90.62,0,1.69,.32,3.47-.86,4.98-.22,.18-.46,.38-.74,.42-4.23,.56-8.46,.92-12.65-.29-.89-.85-.76-1.98-.77-3.04-.06-10.99-.06-21.99-.01-32.98,.01-1.14-.04-2.34,1.03-3.14-.01-4.89-.01-9.79-.02-14.68V19.84c.01-6.61,.03-13.22,.04-19.83,4.33,0,8.63,0,12.94,0Z" style="fill:#43281d;"/><path d="M234.54,19.83c.01-6.61,.03-13.22,.04-19.83h12.9c.02,6.61,.03,13.22,.05,19.83v58.66c-.02,4.03-.04,8.06-.06,12.09-.35,.35-.67,.81-1.21,.83-3.97,.16-7.97,.78-11.89-.44-1.21-1.15-.84-2.68-.85-4.06-.05-13.69-.02-27.38-.03-41.07,0-5.7-.25-5.91-5.92-5.98-2.05-.02-4.18,.43-6.1-.72-.62-.67-.82-1.51-.85-2.38-.11-3.08-.09-6.16,0-9.24,.05-1.77,.92-2.58,2.67-2.64,2.15-.07,4.3-.01,6.45-.07,2.63-.08,3.22-.55,3.81-3.11,.17-.76,.43-1.38,.99-1.87Z" style="fill:#44281d;"/><path d="M131.09,388.18h-13.02c-2.06,1.52-10.9,1.5-12.91-.04l.03,.02c-.82-.63-1.01-1.52-1.05-2.48-.06-1.58-.03-3.16-.04-4.74-.02-4.08-.56-4.64-4.57-4.65-8.4-.01-16.81,0-25.21,0-1.08,0-2.16-.02-3.23,.01-2.83,.08-3.58,.81-3.66,3.61-.05,1.72,0,3.45-.03,5.17-.01,1.01-.05,2.01-.51,2.95-.12,.25-.3,.44-.52,.59-4.16,.98-8.32,.88-12.5,.11-.24-.15-.41-.36-.52-.61,.02-7.4,.03-14.8,.05-22.2q.01-3.62,3.72-3.62h5.6q3.61,0,3.61-3.51c.01-11.78,.03-23.57,.04-35.35,2.1-1.5,10.89-1.46,12.93,.05l-.03-.03c.95,.76,1.02,1.83,1.05,2.92,.05,2-.06,4.01,.07,6.01,.13,2.06,.88,2.8,2.95,2.93,1.93,.12,3.87,.02,5.8,.06,1.15,.02,2.3,.04,3.28,.78,.69,.82,.8,1.8,.83,2.81,.05,1.43,.03,2.85,.03,4.28,.01,4.7,.37,5.05,5.17,5.06,1.35,0,2.71-.01,4.06,.02,1.01,.02,1.99,.14,2.84,.76,.74,.88,.82,1.94,.85,3.02,.05,1.85-.02,3.71,.04,5.56,.08,2.76,.83,3.49,3.64,3.56,1.78,.05,3.56,0,5.35,.03,1.08,.02,2.14,.09,3.06,.75,.75,.88,.83,1.95,.86,3.03,.04,1.79-.01,3.58,.03,5.37,.06,2.97,.76,3.7,3.69,3.75,2.79,.05,5.59-.03,8.38,.12,8.49-.17,16.97-.17,25.45,0,2.78-.14,5.57-.07,8.35-.11,2.97-.05,3.68-.75,3.74-3.67,.04-1.78-.01-3.57,.03-5.35,.02-1.08,.08-2.15,.79-3.05,.88-.73,1.95-.8,3.03-.83,1.78-.04,3.56,.01,5.34-.03,2.95-.06,3.68-.78,3.75-3.67,.04-1.78,0-3.56,.03-5.34,.02-1.08,.09-2.14,.77-3.05,.82-.69,1.8-.8,2.81-.83,1.43-.05,2.85-.03,4.28-.03,4.68-.01,5.05-.39,5.06-5.17,0-1.43-.02-2.85,.04-4.28,.04-1.01,.15-2,.9-2.78,1-.67,2.14-.69,3.28-.7,3.26-.02,6.51-.08,9.77,.07,3.34-.13,6.69-.11,10.03-.05,1.07,.02,2.16,.02,2.9,1.02,.01,7.69,.02,15.37,.03,23.06,.01,2.7,.13,2.82,2.77,2.84,2.59,.01,5.17,.07,7.76-.02,1.74-.06,2.48,.58,2.43,2.37-.09,2.73,.04,5.46-.04,8.19-.05,1.75,.58,2.48,2.38,2.42,2.8-.09,5.6,.02,8.4-.03,1.55-.03,2.22,.57,2.19,2.15-.06,2.87,.03,5.75-.02,8.62-.03,1.55,.57,2.23,2.15,2.19,2.73-.06,5.46,.07,8.19-.04,1.95-.08,2.66,.62,2.64,2.61-.07,7.76-.01,15.51,0,23.27-.25,.48-.66,.83-1.17,.86-3.92,.2-7.86,.74-11.74-.38-1.02-.81-1.06-1.97-1.09-3.12-.07-2.01,.04-4.01-.06-6.02-.11-2.31-.85-3.06-3.17-3.16-2-.09-4.01-.01-6.02-.05-.87-.02-1.71-.11-2.51-.48-.24-.11-.43-.27-.58-.47-.86-1.6-.58-3.35-.62-5.06-.04-1.36,.06-2.72-.05-4.08-.15-1.95-.86-2.66-2.84-2.79-1.93-.12-3.87-.03-5.8-.05-1.08-.01-2.15-.05-3.15-.55-.23-.13-.41-.31-.54-.53-.57-1.13-.55-2.36-.56-3.58-.03-1.79,.08-3.59-.06-5.37-.15-1.93-.9-2.65-2.83-2.85-.64-.07-1.29-.05-1.93-.05-9.03,0-18.07-.01-27.1,0-4.22,0-4.74,.53-4.77,4.66-.01,1.58,.02,3.15-.04,4.73-.04,1.01-.15,2.01-.89,2.8-.94,.65-2.02,.7-3.1,.71-3.3,.03-6.61,.08-9.91-.07-4.33,.14-8.66,.15-12.99,0-4.33,.13-8.65,.14-12.98,0-3.33,.14-6.66,.1-9.99,.06-1.07-.05-2.16-.05-2.9-1.04Z" style="fill:#372113;"/><path d="M27.58,142.36c4.31-.03,8.62-.07,12.93-.1,.11,.07,.21,.14,.32,.21,.81,.97,.67,2.16,.7,3.29,.05,1.65-.02,3.3,.03,4.95,.08,2.67,.82,3.39,3.54,3.47,2.08,.06,4.16-.03,6.24,.06,.91,.04,1.9-.06,2.53,.87,.72,1.41,.62,2.94,.62,4.44,.01,13.44,.01,26.87,.01,40.31,0,.79-.02,1.58,.02,2.37,.12,2.74,.94,3.59,3.66,3.7,2.15,.09,4.31,0,6.47,.08,1.72,.06,2.68,.8,2.72,2.61,.13,7.4,.11,14.8,.01,22.2-.01,.8-.21,1.56-.69,2.23-.93,.83-2.09,.85-3.24,.89-1.93,.06-3.87-.07-5.8,.07-2.12,.15-2.9,.97-3.1,3.1-.08,.86-.04,1.72-.04,2.58-.01,13.76,.03,27.51-.04,41.27-.01,1.28,.45,2.79-1.04,3.7-3.44,0-6.89-.12-10.32,.04-2.04,.1-2.68-.45-2.66-2.58,.11-11.04,.06-22.08,.04-33.12-.01-3.58,.4-3.13-3.26-3.16-3.23-.03-6.45-.01-9.68-.01h.03c-.67-.51-.97-1.21-1.01-2.04-.02-.43-.06-.86-.07-1.29-.03-32.36-.04-64.72,.02-97.08,0-1.1-.24-2.37,1.06-3.06Z" style="fill:#7e695c;"/><path d="M66.37,232.9c0-7.68,0-15.35-.01-23.03,0-2.8-.06-2.85-2.93-2.85-2.51-.01-5.03-.09-7.53,.02-1.87,.08-2.51-.61-2.5-2.49,.06-16.43,.05-32.86,.06-49.29,.27-.57,.76-.87,1.36-.91,3.5-.23,7-.31,10.49,.06,.43,.05,.81,.27,1.17,.5,.98,1.05,.9,2.37,.93,3.66,.05,1.72-.04,3.45,.05,5.17,.13,2.38,.94,3.22,3.3,3.35,2.08,.12,4.16-.01,6.24,.08,2.78,.12,3.28,.55,3.31,3.34,.07,7.82,.15,15.65-.05,23.47,.21,6.8,.05,13.6,.1,20.4,.03,3.85,.65,4.47,4.52,4.5,1.72,.01,3.44-.04,5.15,.04,.91,.04,1.89-.04,2.59,.77,.8,1.52,.66,3.18,.67,4.81,.01,2.77,.06,5.55-.08,8.32,.14,4.34,.14,8.69,0,13.03,.14,8.6,.16,17.19,0,25.79,.13,4.32,.16,8.63,0,12.95,.15,3.38,.1,6.75,.07,10.13-.01,.94-.09,1.87-.52,2.73-.14,.26-.33,.46-.57,.61-3.87,1.07-7.78,.58-11.68,.35-.54-.03-.84-.51-1.17-.88-.02-4.28-.03-8.57-.05-12.85-1.26-1.1-1.03-2.61-1.04-4.01-.03-13.33-.01-26.66-.02-39.99,0-6.72,0-6.69-6.64-6.75-1.68-.02-3.46,.39-5.01-.69-.06-.11-.14-.23-.21-.34Z" style="fill:#6d4931;"/><path d="M53.41,284.65c0-16.2,.01-32.4,.01-48.6,0-3.15,.01-3.15,3.05-3.16,3.3,0,6.6,0,9.89,.01l-.02-.02c.99,.75,1.04,1.84,1.04,2.92,.06,15.31,.06,30.62,0,45.92,0,1.09-.06,2.17-1.02,2.94,0,3.65-.06,7.29,.01,10.94,.03,1.48-.5,2.04-1.99,2-3-.08-6.01-.08-9.01,0-1.5,.04-2-.55-1.98-2.01,.07-3.65,.02-7.29,.02-10.94Z" style="fill:#6d4931;"/><path d="M66.37,284.66c-.01-17.26-.02-34.53-.02-51.79,3.37,0,6.75,.11,10.11-.03,2.11-.09,2.89,.54,2.88,2.77-.08,16.35-.05,32.7-.05,49.06-4.31,0-8.62,0-12.92-.01Z" style="fill:#7f695c;"/><path d="M27.5,426.95c.01,12.14-.01,24.29,.06,36.43,.01,1.94-.77,2.48-2.57,2.44-3.45-.08-6.9,0-10.35,.01-.01-12.94-.01-25.89-.02-38.83,.5-.7,1.2-.97,2.03-1,2.93-.13,5.86-.13,8.8,0,.81,.03,1.59,.17,2.05,.95Z" style="fill:#443123;"/><path d="M92.22,323.49c0-4.32-.01-8.63-.01-12.95-1.51-2.09-1.51-10.91,0-13v.02c.45-.45,.92-.87,1.62-.91,3.33-.22,6.65-.24,9.98,.02,.57,.04,1.09,.3,1.55,.66,.75,.88,.84,1.95,.85,3.03,.05,6.88,.06,13.75-.01,20.63-.01,.92,.05,1.88-.61,2.66-.71,.54-1.53,.75-2.39,.79-2.91,.13-5.82,.11-8.73,.01-.71-.02-1.42-.13-1.99-.62-.08-.11-.17-.22-.26-.34Z" style="fill:#43281d;"/><path d="M79.32,323.46c-4.31-.02-8.62-.03-12.93-.05-.01-3.66,.01-7.32-.05-10.98-.02-1.37,.47-1.95,1.88-1.92,3.09,.06,6.17,.06,9.26,0,1.45-.03,1.84,.65,1.83,1.97-.04,3.66,0,7.32,0,10.98Z" style="fill:#604731;"/><path d="M92.24,336.4c-3.57,0-7.15-.05-10.72,.03-1.68,.04-2.28-.61-2.24-2.27,.08-3.57,.02-7.15,.02-10.72l12.93,.06-.02-.03c.49,.43,.9,.9,.95,1.59,.21,3.39,.3,6.79-.06,10.18-.04,.37-.28,.64-.49,.93-.14,.07-.25,.15-.37,.23Z" style="fill:#604731;"/><path d="M40.42,401.04c.02-3.51,.1-7.01,.03-10.52-.03-1.76,.64-2.42,2.39-2.39,3.5,.07,7.01-.01,10.52-.03l.1,.11c.41,.4,.84,.81,.85,1.43,.11,3.75,.58,7.52-.32,11.24-.11,.26-.28,.47-.51,.64-4.17,1.06-8.36,.9-12.55,.14-.22-.16-.4-.36-.51-.62Z" style="fill:#372113;"/><path d="M27.48,413.97c.02-3.5,.1-7.01,.04-10.51-.03-1.76,.64-2.42,2.39-2.39,3.5,.07,7.01-.01,10.51-.03l.1,.11c.41,.4,.84,.81,.86,1.43,.11,3.75,.58,7.52-.32,11.24-.11,.26-.28,.47-.51,.64-4.17,1.06-8.36,.9-12.55,.14-.24-.16-.41-.37-.52-.63Z" style="fill:#372113;"/><path d="M27.5,426.95c-4.29,.02-8.58,.03-12.87,.05-.01-3.44,.05-6.89-.06-10.33-.06-1.92,.57-2.72,2.58-2.66,3.44,.1,6.89-.01,10.33-.03l.1,.11c1.48,2.07,1.46,10.86-.02,12.91l-.06-.05Z" style="fill:#372113;"/><path d="M92.22,297.55v13c-3.37-.01-6.74,0-10.11-.03-2.55-.02-2.8-.27-2.81-2.88-.01-3.37,.02-6.74,.03-10.11,4.3,0,8.6,.01,12.89,.02Z" style="fill:#372113;"/><path d="M27.47,295.82c-.49-1.13-.5-2.25,.01-3.38-.01,1.13-.01,2.25-.01,3.38Z" style="fill:#375c66;"/><path d="M27.58,142.36c-.01,22.06-.03,44.12-.04,66.18,0,12.43,.01,24.86,.02,37.29-4.3-.01-8.61-.02-12.91-.03-.04-6.32-.09-12.63-.13-18.95,0-2.31,0-4.63,.01-6.94-.24-2.29-.24-4.58,0-6.87,0-5.75,0-11.5,.01-17.25V123.33c.03-6.6,.06-13.2,.08-19.79,4.31-.01,8.61-.02,12.92-.03,0,12.95,.02,25.9,.04,38.85Z" style="fill:#1e1108;"/><path d="M260.51,149.65v12.51c0,6.61-.01,13.23-.01,19.84v58.65q-.25,5.17-5.5,5.17c-2.51,0-5.01-.01-7.52-.01-.12-.08-.24-.16-.35-.24-1.02-1.41-.68-3.04-.68-4.59-.03-26.83-.03-53.67-.01-80.5,0-6.03-.11-12.05,.09-18.08-.14-4.34-.15-8.67,0-13.01-.13-4.3-.15-8.61,.01-12.91-.15-3.37-.1-6.75-.07-10.12,.01-.94,.09-1.87,.52-2.73,.14-.26,.34-.46,.6-.61,3.75-.51,7.5-.95,11.18,.41,1.26-.02,1.74,.63,1.7,1.86-.04,1.41,.04,2.83,.06,4.24v20.7c-.02,6.48-.02,12.95-.02,19.42Z" style="fill:#1e1108;"/><path d="M208.7,284.68c-.02,4.29-.04,8.57-.06,12.86-.4,.53-.89,.92-1.59,.96-3.42,.2-6.84,.3-10.26-.08-.43-.05-.81-.26-1.17-.51-1.12-1.26-.92-2.82-.93-4.31-.03-13.72-.01-27.44-.02-41.16,0-5.14-.42-5.5-5.48-5.59-2.19-.04-4.45,.46-6.57-.56-.95-1.23-.85-2.69-.88-4.12-.03-1.65,.04-3.3-.04-4.95-.12-2.4-.88-3.16-3.32-3.26-1.86-.08-3.73-.01-5.59-.04-1.16-.02-2.29-.11-3.31-.76-.88-1.04-.65-2.32-.66-3.51-.06-5.67-.01-11.34-.03-17.01-.02-3.88-.68-4.58-4.47-4.58-13.56-.02-27.13-.02-40.69,0-3.71,.01-4.42,.72-4.44,4.4-.03,5.74,.03,11.48-.03,17.22-.01,1.19,.22,2.47-.71,3.49-1.08,.67-2.29,.77-3.51,.73-3.19-.13-6.41,.47-9.56-.47-.26-.12-.47-.31-.64-.55-.67-1.18-.62-2.49-.62-3.77-.01-3.08-.06-6.17,.08-9.25-.18-7.64-.08-15.29-.07-22.93,0-1.08,.08-2.15,.77-3.06,.94-.82,2.1-.86,3.25-.87,3.3-.03,6.59-.08,9.89,.07,4.35-.14,8.69-.14,13.04,0,8.6-.14,17.2-.16,25.8,0,4.34-.14,8.68-.14,13.02,0,3.23-.14,6.46-.09,9.69-.07,1.15,.01,2.31,.02,3.33,.68,1,1.04,.93,2.36,.94,3.65,.04,5.75-.01,11.49,.03,17.24,.02,3.58,.72,4.27,4.32,4.28,5.1,.02,10.2,.03,15.3,0,3.33-.02,4.07-.76,4.11-4.06,.08-6.97-.11-13.94,.11-20.9-.2-11.93-.07-23.86-.07-35.79,0-1.08,.08-2.16,.81-3.06,.95-.79,2.1-.84,3.25-.85,6.65-.04,13.29-.04,19.94,0,1.08,.01,2.14,.1,3.11,.64,.92,.73,.82,1.8,.83,2.78,.06,15.66,.08,31.31-.01,46.97-.02,2.9-.53,3.32-3.44,3.44-1.65,.07-3.3,.02-4.95,.04-3.69,.05-4.46,.78-4.48,4.41-.03,5.53,0,11.06-.02,16.59-.01,1.22,.04,2.45-.48,3.6-.12,.26-.29,.47-.52,.63-.97,.55-2.05,.6-3.13,.62-1.65,.03-3.3-.02-4.94,.03-2.97,.08-3.76,.89-3.84,3.92-.02,.86-.01,1.72-.01,2.58,0,13.33,.02,26.66-.02,39.99-.03,1.49,.26,3.08-1.06,4.25Z" style="fill:#6d4931;"/><path d="M234.57,297.57c-3.65,0-7.3-.04-10.95,.03-1.47,.03-2.04-.48-2.01-1.98,.07-3.65,.01-7.3,.01-10.95-.96-.76-1.02-1.85-1.02-2.94-.05-15.31-.06-30.62,0-45.92,0-1.08,.06-2.18,1.04-2.92l-.02,.02c.58-.74,1.38-.98,2.27-1.01,3.01-.1,6.02-.09,9.04,.01,1.77,.06,2.59,.92,2.64,2.68,.1,3.73,.1,7.46-.02,11.19,.18,16.16,.06,32.32,.06,48.48,0,1.21,.07,2.48-1.05,3.36v-.05Z" style="fill:#6d4931;"/><path d="M221.64,232.88c-.01,17.26-.02,34.53-.02,51.79-4.31,0-8.61,.01-12.92,.01,0-16.35,.03-32.7-.05-49.06-.01-2.24,.77-2.86,2.88-2.77,3.36,.14,6.74,.03,10.11,.03Z" style="fill:#7f695c;"/><path d="M273.33,465.82c-3.45-.01-6.89-.12-10.34,0-2.02,.07-2.6-.74-2.58-2.66,.07-7.75,.03-15.51,.03-23.26-.98-.73-1.01-1.82-1.03-2.88-.05-3.33-.09-6.67,.06-10-.13-3.37-.12-6.74-.05-10.11,.02-1.17,.12-2.33,1.45-2.84,3.37-.01,6.74,.04,10.11-.06,1.72-.05,2.43,.5,2.43,2.33-.07,16.49-.06,32.99-.08,49.48Z" style="fill:#443123;"/><path d="M260.87,414.07c-.86,2.92-.26,5.92-.41,8.87-.07,1.34-.02,2.69-.02,4.04-2.04,1.53-10.92,1.52-12.86-.02l-.14,.02c-.18-.22-.49-.42-.53-.65-.59-4.05-1.03-8.1,.28-12.11,.12-.07,.24-.15,.36-.22,4.31,0,8.62,.01,12.93,.01,.13,.01,.26,.03,.39,.06Z" style="fill:#43281d;"/><path d="M195.78,297.59c4.29-.02,8.57-.03,12.86-.05,.02,4.34,.04,8.68,.06,13.01-.08,.12-.17,.23-.25,.35-.51,.44-1.13,.58-1.78,.61-2.98,.13-5.96,.12-8.94,0-.8-.03-1.54-.26-2.18-.75-.47-.57-.73-1.23-.77-1.96-.15-3.14-.16-6.29,.01-9.43,.03-.58,.21-1.12,.63-1.56,.12-.07,.24-.15,.36-.22Z" style="fill:#43281d;"/><path d="M208.7,310.55c3.64-.01,7.29,.02,10.93-.05,1.46-.03,2.05,.49,2.02,1.99-.08,3.64-.05,7.28-.07,10.93-.37,.45-.76,.9-1.39,.92-3.79,.13-7.59,.64-11.35-.35-.26-.13-.47-.32-.62-.57-1.09-3.87-.59-7.79-.36-11.7,.03-.54,.51-.84,.85-1.2v.03Z" style="fill:#604731;"/><path d="M208.68,323.46c4.3-.01,8.6-.02,12.89-.04,.01,4.32,.01,8.64,.02,12.96-4.31,0-8.63,0-12.94-.01-1.5-2.08-1.48-10.97,.03-12.91Z" style="fill:#43281d;"/><path d="M182.82,388.17c0-3.51,.06-7.03-.03-10.54-.04-1.71,.47-2.45,2.31-2.44,11.4,.06,22.81,.06,34.21,0,1.81-.01,2.38,.67,2.34,2.41-.08,3.51-.01,7.03-.01,10.54-.33,.63-.91,.9-1.57,.94-3.4,.22-6.8,.24-10.19-.01-.44-.03-.8-.27-1.17-.49-2.07-.85-4.23-.32-6.35-.41-2.21-.08-4.43,.01-6.64,.03-.37,.33-.69,.77-1.23,.81-3.64,.26-7.28,.48-10.9-.15-.21-.04-.36-.22-.54-.34-.08-.12-.15-.23-.23-.35Z" style="fill:#614731;"/><path d="M156.93,439.84c-4.31,.02-8.63,.04-12.94,.06l.02,.02c-.92-.68-1.04-1.67-1.04-2.69-.07-11.37-.08-22.75,.01-34.12,.01-.78,.02-1.59,.6-2.23,.71-.53,1.53-.74,2.39-.78,2.91-.12,5.82-.11,8.73-.01,.71,.03,1.42,.12,1.98,.65,.08,.12,.15,.24,.23,.37,.01,8.62,.02,17.24,.02,25.86,1.53,2.04,1.53,10.96,0,12.87Z" style="fill:#342015;"/><path d="M208.72,388.58c2.93-.86,5.92-.26,8.88-.41,1.34-.07,2.7-.02,4.04-.03h-.01c.94,.75,1,1.82,1.03,2.91,.05,1.93-.04,3.86,.05,5.78,.11,2.3,.86,3.06,3.15,3.17,2,.1,4,0,5.99,.06,1.01,.03,2.01,.12,2.67,1.05l.08-.04c1.47,2.09,1.48,10.88,.01,12.95h-25.89c0-8.48,0-16.96,0-25.44Z" style="fill:#6c4931;"/><path d="M169.91,388.19c4.3-.01,8.6-.01,12.91-.02l-.02-.02c.2,.2,.53,.39,.57,.62,.74,3.94,.92,7.89-.09,11.82-.05,.19-.27,.33-.41,.49-.02,3.58-.1,7.16-.03,10.74,.03,1.69-.65,2.29-2.29,2.24-2.79-.08-5.59-.1-8.38,.01-1.83,.07-2.36-.72-2.32-2.43,.07-3.51-.01-7.02-.02-10.52-1.53-2.19-1.47-11.03,.08-12.93Z" style="fill:#6d4931;"/><path d="M169.91,388.19c-.03,4.31-.06,8.61-.09,12.92-4.3,0-8.6,.01-12.91,.01v-.03c-.65-.53-.94-1.22-.97-2.06-.12-2.93-.12-5.87,0-8.8,.03-.83,.31-1.53,.97-2.06,4.34,.01,8.67,.01,13,.02Z" style="fill:#443123;"/><path d="M234.55,452.88c3.57-.01,7.13,.03,10.7-.04,1.65-.03,2.31,.62,2.27,2.27-.07,3.57-.03,7.13-.04,10.7-3.58-.01-7.17-.05-10.75-.01-1.56,.02-2.19-.62-2.17-2.17,.04-3.59,0-7.17,0-10.75Z" style="fill:#4e3328;"/><path d="M156.96,465.81c-.01-3.56-.02-7.13-.03-10.69,0-.79-.02-1.57,.43-2.28,.46-.78,1.22-.95,2.03-.98,2.79-.12,5.59-.12,8.38,0,.83,.03,1.54,.31,2.07,.96,.01,3.52-.04,7.04,.05,10.56,.04,1.74-.58,2.47-2.37,2.43-3.52-.07-7.04,0-10.56,0Z" style="fill:#4d392e;"/><path d="M208.65,452.84c-3.44,0-6.89-.08-10.33,.04-2,.07-2.65-.72-2.59-2.66,.11-3.44,.03-6.89,.04-10.33,3.56,.01,7.13,.07,10.69,0,1.66-.03,2.3,.59,2.26,2.25-.1,3.57-.06,7.14-.07,10.7Z" style="fill:#6d4931;"/><path d="M182.87,401.07c-.02-4.31-.05-8.62-.07-12.93,4.31,.02,8.62,.04,12.94,.06,0,3.58-.03,7.15,.03,10.73,.02,1.55-.61,2.2-2.16,2.17-3.59-.05-7.17-.02-10.74-.03Z" style="fill:#342015;"/><path d="M156.93,439.84c0-4.29,0-8.57,.01-12.86,3.56,0,7.13,.04,10.69-.02,1.67-.03,2.28,.67,2.25,2.3-.07,3.56-.03,7.13-.03,10.69-.1,.1-.2,.22-.31,.29-1.95,1.2-10.73,1.02-12.62-.25v-.15Z" style="fill:#443123;"/><path d="M195.77,439.9h-12.92c-.01-3.51,.03-7.01-.06-10.52-.04-1.7,.47-2.51,2.31-2.44,2.79,.1,5.58,.1,8.37,0,1.84-.07,2.35,.74,2.31,2.44-.08,3.51-.02,7.02-.01,10.52Z" style="fill:#6d4931;"/><path d="M156.92,439.98c4.31-.01,8.62-.02,12.93-.04,0,4.29-.01,8.59-.01,12.88-4.16,.01-8.32,.01-12.48,.02-.88-3.03-.25-6.14-.42-9.2-.07-1.21-.02-2.44-.02-3.66Z" style="fill:#6d4931;"/><path d="M234.59,90.55c4.29,.01,8.59,.01,12.88,.02,.03,2.73,.05,5.46,.08,8.18v3.01c.47,.6,.41,1.18-.05,1.75l.03-.02c-.42,.39-.8,.84-1.42,.88-3.62,.23-7.25,.42-10.86-.14-.35-.05-.68-.22-.98-.42-.54-.46-.63-1.1-.67-1.73-.17-3.19-.16-6.38-.02-9.57,.04-.78,.17-1.56,1.01-1.96Z" style="fill:#3c2116;"/><path d="M49.77,312.16h-8.31v-.22h8.39c-.03,.07-.06,.14-.08,.22Z" style="fill:#365e6a;"/><path d="M234.56,297.6c.01-17.25,.01-34.5,.02-51.76,.52-.68,1.22-.96,2.05-1,2.94-.13,5.89-.13,8.83,0,.84,.04,1.53,.34,2.06,.99l-.03-.03c.03,6.04,.05,12.08,.08,18.13v27.17c-.03,1.58-.11,3.16-.06,4.73,.04,1.31-.49,1.76-1.77,1.75-3.73-.03-7.46,.01-11.18,.02Z" style="fill:#1e1108;"/><path d="M247.5,103.52c.02-.58,.03-1.17,.05-1.75,2.73,0,5.46-.04,8.18,.03,1.22,.03,2.55,.09,3.01,1.63-3.74,.03-7.49,.06-11.24,.09Z" style="fill:#5b3b36;"/><path d="M.33,456.17c-.08,.08-.16,.15-.24,.23-.04-.13-.11-.26-.09-.37,.01-.09,.14-.16,.22-.23,.03,.11,.07,.24,.11,.37Z" style="fill:#256e7f;"/><path d="M14.53,213.05v6.87c-.74-2.26-.19-4.58-.36-6.87h.36Z" style="fill:#484d51;"/><path d="M66.34,388.14c.01-3.59,.06-7.17,0-10.76-.02-1.54,.51-2.19,2.12-2.18,11.55,.04,23.09,.04,34.64,0,1.62-.01,2.12,.68,2.09,2.2-.05,3.58,0,7.17,0,10.76-7.74,0-15.48-.01-23.21,0-.92,0-1.88-.14-2.72,.42-1.14,.77-2.45,.61-3.71,.63-2.2,.03-4.39,.06-6.59-.03-.97-.05-2.02,0-2.62-1.04Z" style="fill:#614731;"/><path d="M105.17,388.14c4.3,.01,8.6,.03,12.91,.04v25.84c-.5,.7-1.21,.96-2.03,1-2.93,.13-5.86,.12-8.78,0-.83-.03-1.53-.3-2.04-.99-.03-8.63-.05-17.26-.06-25.89Z" style="fill:#6d4931;"/><path d="M105.17,439.9c-8.62,.02-17.23,.03-25.85,.05-.01-3.38-.03-6.75-.02-10.13,.01-2.74,.11-2.84,2.99-2.85,7.61-.01,15.23,0,22.84,0,.12,.07,.24,.14,.36,.21,.19,.22,.43,.44,.46,.71,.35,3.82,.67,7.65-.18,11.46-.15,.24-.35,.42-.6,.55Z" style="fill:#4e3328;"/><path d="M66.42,414.01c-.03-.27-.07-.55-.1-.82-.49-.34-.84-.8-.86-1.4-.12-3.46-.54-6.92,.29-10.36,.19-.41,.47-.73,.88-.93,3.73-.89,7.49-.44,11.24-.3,.62,.02,1.01,.47,1.41,.88,0,3.57-.02,7.14,.02,10.7,.02,1.67-.8,2.27-2.38,2.25-3.5-.04-7-.02-10.5-.02Z" style="fill:#342015;"/><path d="M105.22,414.02c4.28,0,8.57,0,12.85-.01v12.96c-.51,.68-1.22,.95-2.05,.98-2.93,.12-5.85,.12-8.78,0-.83-.03-1.53-.3-2.04-.99h-.08c.04-4.3,.07-8.62,.1-12.94Z" style="fill:#594638;"/><path d="M79.27,401.08c-4.17-.01-8.33-.02-12.5-.03-.97-.27-1.34-.98-1.38-1.92-.16-3.05-.16-6.11,0-9.16,.04-.76,.4-1.34,.95-1.84h-.01c3.48,.02,6.95,.02,10.43,.03,.86,0,1.7,.06,2.5,.42,.01,4.17,.01,8.33,.01,12.5Z" style="fill:#6d4931;"/><path d="M14.11,386.63c-.08,.15-.14,.42-.27,.47-.28,.1-.3-.17-.24-.35,.06-.17,.21-.32,.31-.47,.06,.1,.12,.21,.2,.35Z" style="fill:#2b6878;"/><path d="M234.61,414.02c0-4.32,0-8.63-.01-12.95,3.51,.01,7.02,.07,10.53,0,1.76-.04,2.43,.65,2.39,2.4-.07,3.51,0,7.02,.01,10.53l-.07,.07c-2.05,1.49-10.54,1.49-12.48,0-.12-.02-.24-.04-.37-.05Z" style="fill:#43281d;"/><path d="M247.57,426.96c4.29,.01,8.58,.01,12.86,.02,0,4.31,0,8.61,.01,12.92-3.57,0-7.14-.05-10.71,.03-1.67,.04-2.29-.6-2.25-2.26,.1-3.56,.07-7.14,.09-10.71Z" style="fill:#342015;"/><path d="M234.99,414.06h12.48c-.01,4.31-.03,8.61-.04,12.92-3.44,0-6.88-.07-10.32,.01-1.8,.04-2.69-.53-2.55-2.45,.25-3.49-.47-7.01,.43-10.48Z" style="fill:#6d4931;"/><path d="M144.03,401.13c-.01,12.93-.01,25.86-.02,38.79-3.51,0-7.02-.06-10.53,.02-1.69,.04-2.46-.47-2.45-2.31,.06-16.48,.05-32.96,.07-49.44,4.29,.01,8.58,.01,12.87,.02,.71,.49,.97,1.2,1.01,2.03,.13,2.94,.12,5.87,.01,8.81-.05,.82-.36,1.51-.96,2.08Z" style="fill:#6d4931;"/><path d="M105.17,439.9c0-.14,0-.28,.01-.42,1.23-.79,2.63-.6,3.97-.62,2.08-.03,4.16-.04,6.23,.02,1.01,.03,2.02,.09,2.7,1.02,0,4.31,.01,8.63,.01,12.94-.51,.68-1.22,.96-2.05,.99-2.93,.12-5.86,.12-8.8,0-.83-.03-1.53-.31-2.06-.98,.01-4.31,0-8.63-.01-12.95Z" style="fill:#553f32;"/><path d="M105.19,452.86c4.3,0,8.6-.01,12.9-.01,0,4.32-.01,8.64-.01,12.97-4.3-.01-8.6-.02-12.9-.03,.01-4.32,.01-8.63,.01-12.93Z" style="fill:#503a2c;"/><path d="M118.08,439.9c-3.54,0-7.09,.03-10.63-.01-.76-.01-1.52-.27-2.28-.41,.01-4.17,.02-8.34,.03-12.51,4.29,0,8.58,.01,12.86,.01,.02,4.3,.02,8.61,.02,12.92Z" style="fill:#5d473a;"/><path d="M66.31,401.52v11.67c-.75,.85-1.75,.85-2.77,.85-2.58-.01-5.15,.05-7.73-.01-1.76-.04-2.45,.75-2.41,2.46,.06,2.5,.02,5.01,.01,7.51-.01,2.88-.09,2.96-3.06,2.97-3.29,.01-6.58,0-9.88,0h0c-.66-.53-.95-1.23-.98-2.06-.12-2.94-.12-5.88,0-8.82,.03-.84,.34-1.53,.97-2.07h-.01c.76-.93,1.83-.99,2.91-1.02,2-.05,4,.07,5.99-.07,2.04-.14,2.8-.9,2.94-2.94,.13-1.99,.02-4,.07-5.99,.03-1.08,.09-2.15,1.03-2.91h-.01c.23-.16-.1-.02,.16-.13,3.96-1.66,8.01-.98,12.04-.44,.41,.04,.59,.59,.73,1Z" style="fill:#6d4931;"/><path d="M40.47,414.01c0,4.32,.01,8.64,.01,12.96-4.3,0-8.61,.01-12.91,.01,.01-4.3,.01-8.6,.02-12.91,4.29-.01,8.58-.03,12.88-.06Z" style="fill:#604731;"/><path d="M40.51,142.26c-.01-33.63-.01-67.26-.06-100.89,0-1.98,.66-2.67,2.62-2.6,3.45,.12,6.9,.03,10.35,.03h0c.9,.69,1.02,1.68,1.04,2.7,.04,1.79,0,3.59,.03,5.38,.06,3.08,.73,3.73,3.87,3.78,1.79,.03,3.59-.01,5.38,.03,.87,.02,1.72,.13,2.51,.5,.23,.12,.42,.28,.56,.5,.96,2.05,.49,4.24,.6,6.38,.05,.93-.01,1.87,.05,2.8,.11,1.72,1.05,2.61,2.75,2.7,2.01,.1,4.02,.01,6.03,.06,1.15,.03,2.31,.03,3.28,.81,1.05,1.37,.78,2.98,.82,4.53,.05,1.57-.03,3.14,.05,4.7,.09,1.79,1.03,2.75,2.82,2.84,2.07,.1,4.13,0,6.2,.07,1.14,.04,2.3,.05,3.19,.95,.57,.89,.65,1.89,.66,2.89,.05,6.72,.05,13.44,0,20.16-.01,1-.07,2.01-.61,2.9-.82,1-1.99,1.01-3.13,1.05-2,.07-4-.04-6,.06-2.28,.12-3.04,.89-3.15,3.18-.09,1.93-.01,3.86-.05,5.78-.02,1.08-.09,2.15-.76,3.06-.88,.75-1.95,.82-3.02,.85-1.57,.04-3.14,.01-4.71,.03-3.85,.03-4.4,.59-4.43,4.53-.01,1.57,.01,3.14-.03,4.71-.02,1.01-.14,2-.77,2.84-1.36,1.08-2.99,.8-4.54,.85-1.57,.05-3.15-.07-4.72,.06-1.93,.16-2.68,.89-2.83,2.83-.15,2-.02,4.01-.07,6.01-.03,1.22-.05,2.44-.89,3.46-1.75,.93-3.64,.5-5.47,.57-1.71,.07-3.43,.04-5.14-.03-.96-.04-1.85-.21-2.51-.98l.08-.08Z" style="fill:#1e1109;"/><path d="M234.59,90.55c.01,4.33,.01,8.66,.02,12.98,.98,.76,.98,1.87,.99,2.94,.04,3.3,.09,6.61-.06,9.91,.13,4.31,.15,8.62-.01,12.94,.15,3.37,.1,6.75,.07,10.12-.01,.94-.14,1.86-.53,2.73-.13,.26-.32,.46-.57,.61-4.34,.92-8.68,.94-13.03,.02-.98-1.2-.88-2.66-.91-4.08-.04-1.71,.05-3.42-.04-5.13-.12-2.27-.89-3.02-3.19-3.14-1.92-.09-3.85,0-5.77-.05-1.14-.03-2.29-.06-3.21-.9-.59-.86-.7-1.85-.7-2.85-.03-3.33-.11-6.66,.07-9.98-.15-2.94-.04-5.88-.13-8.82-.07-2.46-.82-3.21-3.26-3.28-2.94-.09-5.88,.03-8.82-.13-3.3,.17-6.59,.1-9.88,.07-1.08-.01-2.15-.09-3.04-.83-.77-.96-.82-2.11-.82-3.25-.04-6.57-.04-13.13,0-19.7,.01-1.07,.04-2.15,.61-3.11,.82-1.01,1.98-1.02,3.12-1.06,2-.07,3.99,.04,5.99-.06,2.29-.11,3.06-.88,3.17-3.15,.1-1.92,.01-3.85,.05-5.78,.02-1.08,.08-2.14,.71-3.07,.87-.78,1.94-.85,3.02-.88,1.94-.05,3.87,.02,5.81-.04,2.55-.09,3.28-.83,3.36-3.42,.06-1.86,.01-3.73,.03-5.59,.01-.94,.09-1.86,.5-2.73,.11-.23,.28-.42,.49-.57,1.61-.83,3.36-.56,5.06-.6,1.22-.03,2.44,.03,3.65-.03,2.33-.12,3.08-.84,3.18-3.14,.09-2,0-4.01,.06-6.01,.03-1.02,.14-2.01,1.04-2.7h0c3.38,0,6.76-.01,10.14,0,2.7,.01,2.8,.09,2.8,2.79,.01,15.6,0,31.2,0,46.79,0,.74,.02,1.46,.03,2.18Z" style="fill:#1e1108;"/><path d="M156.9,375.19h-25.82c-.36-.34-.83-.64-.86-1.18-.18-4.02-.83-8.06,.5-12.02,.79-.82,1.84-.73,2.82-.74,7.01-.07,14.02-.07,21.03,0,.91,.01,1.88-.06,2.63,.67,.72,1.07,.77,2.28,.78,3.5,.02,2.36,.05,4.72-.03,7.08-.03,1.03-.09,2.04-1.05,2.69Z" style="fill:#604731;"/><path d="M66.31,401.52c-2.92-.85-5.92-.25-8.88-.41-1.34-.07-2.69-.02-4.04-.02,.02-4.29,.05-8.58,.07-12.88,4.29-.02,8.58-.05,12.87-.07,.01,3.47,.01,6.95,.01,10.42,0,.86,.05,1.7,.42,2.49-.14,.16-.29,.31-.45,.47Z" style="fill:#604731;"/><path d="M208.68,323.46c-.01,4.31-.02,8.61-.03,12.92-4.3,.01-8.61,.01-12.91,.02-.12-.08-.24-.16-.36-.24-.52-.57-.62-1.28-.64-2-.1-2.86-.1-5.72,0-8.58,.03-.87,.24-1.7,.83-2.38,.71-.54,1.53-.72,2.39-.75,2.76-.1,5.52-.09,8.28-.01,.95,.03,1.83,.21,2.45,1.02h0Z" style="fill:#604731;"/><path d="M105.18,349.33c-3.57,0-7.14-.05-10.71,.03-1.67,.04-2.29-.59-2.25-2.25,.08-3.57,.02-7.14,.02-10.71l-.02,.02c.36-.33,.67-.81,1.19-.84,3.94-.21,7.9-.78,11.8,.39,.24,.16,.42,.38,.55,.64,.64,4.18,1.02,8.35-.23,12.49-.12,.08-.23,.16-.35,.23Z" style="fill:#604731;"/><path d="M195.74,336.4c0,3.57-.05,7.14,.02,10.71,.04,1.67-.59,2.29-2.25,2.25-3.57-.08-7.14-.03-10.71-.03-.12-.08-.23-.15-.35-.23-.21-.29-.47-.56-.5-.93-.22-3.83-.59-7.67,.24-11.48,.11-.27,.28-.5,.5-.69,3.92-1.24,7.9-.63,11.87-.43,.53,.03,.84,.5,1.2,.84h-.02Z" style="fill:#604731;"/><path d="M118.1,362.25c-3.64,.01-7.28-.01-10.92,.04-1.47,.02-2.04-.58-2.02-2.04,.05-3.64,.02-7.28,.02-10.92l-.02,.02c.45-.48,.93-.89,1.63-.94,3.36-.21,6.72-.26,10.08,.04,.5,.04,.96,.27,1.38,.56,.46,.49,.74,1.08,.78,1.74,.23,3.37,.25,6.74-.01,10.11-.03,.45-.27,.81-.55,1.15-.13,.08-.25,.16-.37,.24Z" style="fill:#604731;"/><path d="M182.8,349.33c0,3.57-.05,7.14,.03,10.7,.04,1.65-.57,2.3-2.25,2.26-3.57-.09-7.13-.04-10.7-.05-.12-.08-.24-.15-.36-.23-.54-.56-.63-1.27-.65-1.99-.1-2.86-.1-5.71,0-8.57,.03-.87,.24-1.7,.83-2.38,.77-.59,1.68-.73,2.61-.76,2.62-.07,5.24-.07,7.86,0,1.01,.03,1.99,.15,2.66,1.04l-.03-.02Z" style="fill:#604731;"/><path d="M131.08,362.32v12.86c-3.57,.01-7.14-.03-10.71,.04-1.65,.03-2.31-.62-2.28-2.28,.06-3.57,.01-7.14,.01-10.71v.03c.53-.63,1.21-.95,2.04-.98,2.99-.13,5.98-.14,8.98,0,.79,.06,1.58,.18,1.96,1.04Z" style="fill:#443123;"/><path d="M156.9,375.19v-12.86c.38-.87,1.17-.99,1.96-1.02,2.99-.14,5.98-.14,8.98,0,.83,.04,1.51,.35,2.05,.98v-.03c-.02,3.57-.07,7.14-.01,10.71,.03,1.65-.62,2.31-2.28,2.28-3.56-.09-7.13-.05-10.7-.06Z" style="fill:#443123;"/><path d="M144.03,401.13c-.02-4.31-.04-8.62-.07-12.93,4.32-.01,8.64-.02,12.95-.03,0,4.31,.01,8.61,.01,12.92-4.29,.01-8.59,.03-12.89,.04Z" style="fill:#4c3b31;"/><path d="M234.53,401.11c-3.52-.01-7.03-.07-10.55,0-1.79,.04-2.41-.7-2.37-2.43,.08-3.52,.03-7.03,.03-10.55,3.57,.01,7.14,.07,10.71,0,1.68-.03,2.28,.63,2.24,2.27-.09,3.57-.05,7.14-.06,10.71Z" style="fill:#604731;"/><path d="M40.46,142.35c4.31-.03,8.61-.07,12.92-.1,.29-.21,.51-.59,.86-.63,4.1-.43,8.21-.97,12.26,.37,.45,.49,.74,1.08,.78,1.74,.23,3.37,.25,6.75-.01,10.12-.03,.45-.27,.81-.54,1.16-.12,.08-.24,.16-.36,.24h-12.92c-3.45,0-6.89-.08-10.34,.02-1.93,.06-2.73-.58-2.66-2.59,.11-3.43,.02-6.88,0-10.33Z" style="fill:#785f4d;"/><path d="M79.3,194.05c0-7.73-.06-15.47,.03-23.2,.03-2.08-.68-2.81-2.73-2.69-2.36,.14-4.72,.03-7.09,.03q-3.15-.01-3.16-3.05c-.01-3.29,0-6.59,.01-9.88h0c.8-1.07,1.98-1.04,3.12-1.04,7.58-.02,15.17-.12,22.75,.05,7.71-.16,15.42-.08,23.13-.05,1.04,0,2.17-.14,3.04,.7,1.23,2.27,.72,4.74,.74,7.13,.01,2.1,.45,4.29-.71,6.27-.91,.84-2.06,.89-3.2,.91-3.26,.03-6.53,.1-9.79-.07-2.94,.14-5.88,.04-8.83,.13-2.47,.07-3.22,.81-3.29,3.26-.09,2.94,.02,5.89-.13,8.83,.17,3.33,.1,6.66,.07,9.98-.01,1.07-.14,2.12-.75,3.05-.6,.65-1.42,.64-2.19,.67-2.85,.11-5.71,.09-8.57,.01-.94-.04-1.83-.2-2.45-1.04Z" style="fill:#43281d;"/><path d="M79.3,194.05c4.31,.01,8.63,.01,12.94,.02,.4-.41,.79-.86,1.41-.88,3.68-.15,7.36-.57,11.01,.27,.25,.12,.45,.31,.61,.54-.04,8.64-.07,17.29-.11,25.93-.52,.67-1.22,.96-2.05,1-2.94,.13-5.88,.12-8.81,0-.83-.03-1.53-.33-2.07-.97-3.36-.01-6.72-.01-10.08-.02-2.76-.01-2.85-.1-2.85-2.94,0-7.65,0-15.3,0-22.95Z" style="fill:#785f4d;"/><path d="M92.3,271.71c-.01-8.62-.02-17.23-.03-25.85,.37-.44,.75-.89,1.37-.92,3.81-.15,7.62-.64,11.4,.36,.26,.14,.46,.33,.61,.59,.45,.85,.55,1.76,.56,2.7,.04,6.93,.06,13.86-.02,20.79-.01,.91,.06,1.88-.69,2.62-1.77,1.05-3.73,.71-5.62,.76-1.7,.04-3.41,.04-5.12-.04-.94-.04-1.85-.15-2.46-1.01Z" style="fill:#331d10;"/><path d="M105.16,297.6l-12.96-.03c.03-4.31,.07-8.62,.1-12.94,.66-.97,1.68-.98,2.69-1.02,2.79-.13,5.59,.11,8.38-.21,1-.12,1.79,.38,2.45,1.1,.49,4.3,1.02,8.61-.31,12.86-.11,.09-.23,.16-.35,.24Z" style="fill:#321e13;"/><path d="M105.15,245.78c-4.29,.03-8.59,.06-12.88,.08-.01-4.32-.02-8.64-.04-12.96,.52-.67,1.21-.96,2.05-1,2.93-.13,5.86-.12,8.79-.01,.83,.03,1.53,.33,2.11,.91v.15c.69,.5,.94,1.22,.97,2.04,.12,2.93,.13,5.86-.01,8.78-.03,.81-.17,1.59-.99,2.01Z" style="fill:#513422;"/><path d="M105.18,232.81c-4.31,.03-8.63,.06-12.94,.09,0-4.31-.01-8.62-.01-12.93,4.31-.01,8.63-.02,12.94-.03,0,4.29,.01,8.58,.01,12.87Z" style="fill:#734f37;"/><path d="M105.17,284.65c-4.29,0-8.58-.01-12.86-.01v-12.92c4.29,0,8.58-.01,12.87-.01,.84,.41,.95,1.2,.98,1.99,.14,2.99,.14,5.98,0,8.96-.04,.79-.15,1.58-.99,1.99Z" style="fill:#30180c;"/><path d="M105.2,336.83c-.03-.12-.04-.24-.04-.36-1.53-2.16-1.52-11,.01-13,0-8.62-.01-17.25-.01-25.87l.02-.04c.41-.41,.81-.84,1.43-.88,3.5-.24,7.01-.33,10.51,.07,.42,.05,.82,.27,1.15,.55,.81,.93,.86,2.07,.87,3.21,.03,3.33,.08,6.66-.06,10,.17,7.57,.06,15.14,.06,22.71,0,1.14-.02,2.3-.71,3.3-.2,.21-.43,.43-.71,.47-4.17,.66-8.35,.94-12.52-.16Z" style="fill:#372113;"/><path d="M105.17,323.47c0,4.33-.01,8.67-.01,13-4.32-.02-8.63-.04-12.95-.06,0-4.32-.01-8.63-.01-12.95,4.33,.01,8.65,.01,12.97,.01Z" style="fill:#1e1108;"/><path d="M53.4,401.07c0,3.51-.03,7.02,.02,10.53,.03,1.73-.7,2.47-2.44,2.44-3.51-.06-7.02-.02-10.53-.02,.02-4.29,.04-8.59,.07-12.88,4.3-.02,8.59-.04,12.88-.07Z" style="fill:#604731;"/><path d="M247.52,245.84h-12.94c0-3.57-.06-7.14,.01-10.71,.03-1.66-.59-2.3-2.26-2.26-3.57,.08-7.14,.03-10.71,.03,0-7.75,.07-15.49-.03-23.24-.03-2.1,.72-2.79,2.75-2.68,2.58,.13,5.17-.05,7.74,.06,1.85,.08,2.52-.58,2.51-2.47-.06-16.43-.05-32.85-.05-49.28-1.5-2.11-1.5-10.9,0-13.01v.03c.44-.67,.92-1.31,1.86-1.2,2.93,.33,5.86,.04,8.79,.2,.89,.05,1.71,.22,2.24,1.02,.02,1.08,.07,2.15,.07,3.23,.01,33.42,.01,66.85,.02,100.28Z" style="fill:#7e695c;"/><path d="M234.64,129.4c0-4.31-.01-8.63-.01-12.94,.48-.72,1.2-.97,2.02-1.01,2.92-.13,5.85-.13,8.77,0,.83,.04,1.54,.29,2.02,1.01v12.94c-.51,.67-1.22,.93-2.04,.96-2.91,.12-5.81,.12-8.72,0-.82-.03-1.53-.28-2.04-.96Z" style="fill:#66483d;"/><path d="M247.44,116.46h-12.82c-.01-4.31-.01-8.62-.02-12.93,4.31-.01,8.62-.02,12.92-.03-.02,4.32-.05,8.64-.08,12.96Z" style="fill:#52382b;"/><path d="M234.64,129.4h12.8c0,4.31-.01,8.61-.01,12.92-4.3,0-8.6-.01-12.9-.01,.04-4.31,.07-8.61,.11-12.91Z" style="fill:#7f6357;"/><path d="M118.11,155.32c-8.62-.04-17.23-.08-25.85-.12-.52-.41-.91-.89-.95-1.59-.19-3.4-.29-6.81,.07-10.2,.05-.43,.27-.81,.48-1.17,1.09-1.08,2.49-.96,3.84-.97,5.66-.04,11.31,0,16.97-.03,3.67-.02,4.34-.71,4.37-4.44,.02-1.58-.02-3.15,.03-4.73,.03-1.08,.11-2.16,.89-3.02,.93-.66,2.01-.72,3.08-.72,10.94-.05,21.88-.04,32.83,0,1.08,0,2.15,.06,3.11,.65,.88,.81,.93,1.89,.97,2.97,.07,1.58,.02,3.15,.04,4.73,.03,3.89,.66,4.54,4.48,4.56,5.66,.03,11.32-.02,16.98,.02,1.28,.01,2.6-.04,3.67,.9,.43,.6,.66,1.28,.65,1.99-.06,3.73,.65,7.5-.52,11.19-.79,1.16-2.04,.92-3.15,.93-5.82,.08-11.64,.02-17.46,.04-4.04,.02-4.63,.61-4.66,4.61-.01,2.44,.03,4.89-.1,7.33,.15,4.3,.14,8.61,.01,12.91,.14,3.34,.11,6.67,.05,10.01-.02,1.07-.05,2.16-1.05,2.88-8.62,0-17.24,.01-25.87,.01-.97-.74-1-1.82-1.03-2.88-.07-3.33-.06-6.65,.06-9.98-.19-4.27-.13-8.55,.01-12.82-.15-2.79-.07-5.58-.12-8.38-.05-2.93-.77-3.62-3.75-3.68-1.79-.04-3.58,.01-5.37-.03-.99-.02-1.98-.13-2.71-.97Z" style="fill:#785e4d;"/><path d="M118.06,232.84c.02-7.82,.1-15.64,.01-23.46-.02-1.93,.61-2.41,2.46-2.41,15.64,.06,31.28,.07,46.92,0,1.87-.01,2.47,.5,2.45,2.42-.08,7.82,0,15.64,.02,23.46,.3,.4,.76,.72,.79,1.26,.21,3.78,.64,7.57-.28,11.32-.22,.38-.53,.67-.92,.89-4.22,.94-8.44,.84-12.67,.08-.86-.9-.92-2.04-.95-3.18-.06-1.92,.01-3.85-.04-5.77-.07-2.76-.71-3.41-3.43-3.48-1.99-.05-3.99,.02-5.98-.04-.91-.03-1.87,.07-2.67-.55-.77-1.05-.82-2.26-.84-3.49-.03-2.08,.05-4.17-.05-6.25-.08-1.62-.94-2.51-2.58-2.58-1.79-.08-3.59-.1-5.38,0-1.98,.11-2.69,.8-2.77,2.82-.11,3.01,0,6.03-.19,9.05,.24,3.42,.15,6.84,.11,10.26-.01,1.07-.1,2.15-.91,2.99-.68,.46-1.45,.63-2.24,.65-2.94,.1-5.88,.11-8.82-.01-.8-.03-1.56-.24-2.22-.72-.64-.84-.78-1.82-.8-2.83-.06-2.57-.06-5.13,0-7.7,.03-1.02,.17-2,.98-2.73Z" style="fill:#0c0e0d;"/><path d="M157,168.19c-.02-3.58,.02-7.16-.1-10.74-.05-1.7,.59-2.23,2.25-2.22,7.88,.04,15.76-.01,23.63-.03,.79-.92,1.87-.98,2.96-.99,6.68-.05,13.37-.05,20.05,.01,.93,.01,1.89-.01,2.65,.68,.08,.12,.15,.24,.23,.36,0,12.93,0,25.86,.01,38.79-.47,.57-1.05,.94-1.81,.97-3.4,.16-6.81,.22-10.21-.05-.43-.03-.82-.2-1.14-.51-.7-.98-.8-2.11-.81-3.25-.02-3.27-.1-6.54,.08-9.8-.11-2.43-.1-4.87-.1-7.3-.01-4.47-.39-4.84-4.96-4.85-2.36,0-4.73,.02-7.09-.11-4.27,.17-8.53,.14-12.8,.02-3.33,.14-6.65,.11-9.98,.05-1.06-.02-2.16,0-2.86-1.03Z" style="fill:#41261d;"/><path d="M169.44,245.84c.13-.15,.27-.3,.4-.45,3.89-1.15,7.84-.6,11.78-.4,.52,.03,.84,.49,1.23,.79,3.3,.01,6.6,.03,9.9,.04q2.99,.01,2.99,2.92v45.83c0,1,.02,2.01,.03,3.01l-.1-.04c-.44,.62-1.03,.95-1.79,.99-3.33,.17-6.66,.19-9.99-.02-.5-.03-.98-.18-1.34-.56-.69-1-.79-2.14-.79-3.3-.02-3.3-.09-6.61,.07-9.91-.12-4.25-.18-8.51,.02-12.76-.13-2.65-.1-5.3-.11-7.95-.02-3.64-.58-4.18-4.3-4.21-1.79-.02-3.59,.05-5.38-.07-.86-.06-1.72-.17-2.46-.67-.81-.58-.82-1.42-.82-2.31,.01-3.01,.11-6.02-.08-9.03-.04-.78,.15-1.4,.74-1.9Z" style="fill:#24130b;"/><path d="M195.74,194.07c4.31-.01,8.63-.01,12.94-.02,0,7.68-.05,15.36,.05,23.04,.03,2.1-.54,2.94-2.78,2.9-6.89-.12-13.78-.09-20.67-.01-1.87,.02-2.51-.65-2.5-2.51,.04-7.82-.03-15.64-.07-23.46,.09-.11,.18-.22,.27-.33,.72-.55,1.57-.61,2.43-.63,2.55-.06,5.11-.06,7.66,0,1.01,.02,2,.12,2.67,1.02Z" style="fill:#785f4d;"/><path d="M234.54,142.28v13.01l-25.86-.03h0c-.46-.45-.87-.93-.92-1.62-.21-3.33-.24-6.65,.03-9.98,.05-.57,.31-1.09,.67-1.54,.75-.63,1.65-.8,2.59-.83,2.71-.08,5.41-.07,8.12,0,.96,.03,1.83,.23,2.51,.97,4.28,.01,8.57,.01,12.86,.02Z" style="fill:#785f4d;"/><path d="M182.85,245.78c-3.65,.01-7.3,.03-10.94,.04-.72,0-1.44-.01-2.07-.43,.03-4.18,.06-8.36,.08-12.54,3.58,.01,7.17,.07,10.75,.02,1.57-.02,2.17,.6,2.15,2.16-.05,3.58,.02,7.17,.03,10.75Z" style="fill:#462c16;"/><path d="M118.06,232.84c.02,4.33,.03,8.66,.05,12.99-.13,.26-.33,.46-.57,.61-3.61,.87-7.27,.41-10.91,.3-.62-.02-1.03-.46-1.44-.86l-.03-.08c.01-4.28,.01-8.55,.02-12.83,4.29-.05,8.59-.09,12.88-.13Z" style="fill:#3b2317;"/><path d="M182.71,194c-4.26,.02-8.53,.03-12.79,.05-.44-.38-.9-.77-.92-1.39-.17-3.78-.61-7.57,.3-11.32,.12-.26,.3-.47,.53-.64,4.28-1.05,8.56-.92,12.85-.09,.26,.14,.46,.33,.61,.58,1.07,3.86,.56,7.77,.36,11.66-.03,.54-.49,.84-.83,1.21l-.11-.06Z" style="fill:#0a0503;"/><path d="M169.9,181.15c0,4.3,.01,8.6,.01,12.9h-13.01c.02-4.32,.03-8.65,.05-12.97,2.14-1.5,11.03-1.46,12.95,.07Z" style="fill:#6c4d3b;"/><path d="M118.06,194.03c-4.26-.01-8.53-.02-12.79-.03l-.11,.06c-.41-.4-.86-.8-.88-1.43-.12-3.78-.62-7.58,.34-11.33,.13-.26,.32-.47,.56-.63,4.36-.93,8.71-1.03,13.06,.07,.21,.2,.38,.43,.49,.7,.82,3.65,.4,7.33,.29,11-.02,.71-.43,1.19-.96,1.59Z" style="fill:#0a0503;"/><path d="M118.06,194.03c.04-4.16,.08-8.33,.11-12.49,.31-1.08,1.15-1.35,2.14-1.4,2.99-.13,5.97-.08,8.96-.03,.77,.01,1.39,.25,1.72,1.01,.02,4.32,.04,8.63,.05,12.95-4.32-.02-8.65-.03-12.98-.04Z" style="fill:#483322;"/><path d="M182.8,297.58c4.3-.01,8.59-.02,12.89-.03,.02,4.33,.05,8.66,.07,12.99-.07,.11-.13,.21-.19,.32-1.17,.97-2.59,.66-3.92,.71-1.5,.06-3.01-.03-4.51,.04-2.43,.1-3.16,.83-3.23,3.31-.08,2.94,.02,5.88-.13,8.81,.18,3.2,.1,6.41,.08,9.61-.01,1.15-.06,2.3-1.03,3.14,0,.12-.01,.24-.04,.36-1.16,.76-2.48,.6-3.75,.62-2.36,.02-4.72,.07-7.08-.05-.87-.04-1.7-.24-2.38-.84-.72-.99-.75-2.14-.75-3.29-.04-10.87-.04-21.73,0-32.6,0-1.15,.04-2.3,.8-3.27,.75-.63,1.65-.8,2.59-.83,2.71-.08,5.41-.08,8.12,0,.94,.02,1.84,.18,2.46,1Z" style="fill:#372113;"/><path d="M208.7,323.47c-4.32-.01-8.64-.02-12.96-.02-.12-.08-.23-.16-.35-.24-.52-.57-.62-1.29-.64-2.01-.09-2.8-.1-5.6,0-8.4,.03-.89,.26-1.7,1.02-2.27h-.01c4.32,.01,8.64,0,12.96-.01-.01,4.32-.02,8.64-.02,12.95Z" style="fill:#1e1108;"/><path d="M64.63,38.77c1.44-.01,1.74,.88,1.73,2.11-.03,3.62-.01,7.24-.01,10.86-3.56,0-7.13-.05-10.69,.02-1.66,.03-2.3-.61-2.26-2.26,.07-3.56,.02-7.13,.02-10.69,3.73-.02,7.47-.03,11.21-.04Z" style="fill:#43281d;"/><path d="M208.69,51.75c.01-4.31,.01-8.62,.02-12.93,4.31,0,8.61-.01,12.92-.01,0,3.56-.05,7.13,.02,10.69,.03,1.66-.61,2.3-2.26,2.27-3.57-.08-7.14-.03-10.7-.02Z" style="fill:#43281d;"/><path d="M92.21,103.39c-.01-8.57-.02-17.14-.02-25.71,.08-.12,.15-.25,.23-.37,.62-.59,1.41-.66,2.19-.69,2.92-.09,5.84-.1,8.76,.01,1.2,.05,2.28,.32,2.67,1.68,.18,7.56,.26,15.12,.16,22.68-.01,.94-.16,1.85-.62,2.69-.22,.29-.48,.58-.84,.61-4.01,.31-8.03,.72-12.02-.24-.24-.17-.41-.39-.51-.66Z" style="fill:#43281d;"/><path d="M66.33,129.27c.01-3.5,.08-7,0-10.49-.04-1.78,.68-2.4,2.41-2.36,3.5,.08,6.99,.03,10.49,.03,.12,.07,.25,.14,.37,.21,.13,.17,.34,.31,.36,.52,.5,4.16,.87,8.32-.3,12.45-.19,.22-.41,.48-.68,.5-4.06,.37-8.12,.74-12.15-.21-.23-.16-.4-.38-.5-.65Z" style="fill:#342015;"/><path d="M66.35,142.29c-4.32-.01-8.65-.02-12.97-.03,.01-3.52,.1-7.03,.01-10.55-.04-1.8,.65-2.39,2.4-2.36,3.51,.06,7.03-.04,10.54-.08l.05,.18c.51,.43,.88,.93,.91,1.63,.17,3.28,.23,6.57-.04,9.85-.04,.45-.27,.81-.55,1.14-.12,.07-.23,.14-.35,.22Z" style="fill:#453128;"/><path d="M79.24,116.45c.02-3.57,.1-7.15,.03-10.72-.03-1.65,.53-2.29,2.23-2.26,3.57,.06,7.14-.05,10.71-.09l.06,.2c.61,.47,.9,1.09,.94,1.85,.15,3.07,.15,6.15,0,9.22-.04,.73-.28,1.4-.74,1.98-.81,.68-1.79,.81-2.8,.83-2.55,.06-5.11,.07-7.66-.01-1-.03-2.01-.07-2.64-1.05l-.13,.05Z" style="fill:#543e33;"/><path d="M92.18,77.67c-3.51-.02-7.02-.1-10.53-.03-1.76,.04-2.43-.62-2.39-2.39,.07-3.51-.01-7.02-.02-10.53,.08-.12,.15-.25,.23-.37,.44-.4,.97-.6,1.55-.63,3.34-.18,6.67-.19,10.01,.01,.57,.03,1.13,.17,1.53,.64,1.16,2.2,.63,4.58,.73,6.89,.06,1.41,.03,2.83-.06,4.25-.05,.81-.3,1.52-.94,2.06,0,0-.11,.1-.11,.1Z" style="fill:#43281d;"/><path d="M66.35,51.74c4.31,0,8.61,.01,12.92,.01,.68,.51,.97,1.2,1,2.03,.13,2.92,.12,5.85,.01,8.77-.03,.82-.29,1.53-.94,2.07l-.1,.1c-3.52-.02-7.03-.1-10.55-.03-1.79,.04-2.41-.67-2.36-2.41,.09-3.5,.03-7.02,.02-10.54Z" style="fill:#43281d;"/><path d="M182.86,77.67c-.01,8.57-.02,17.15-.03,25.72-.07,.13-.13,.26-.2,.38-.37,.36-.8,.59-1.32,.63-3.55,.25-7.09,.26-10.64-.02-.44-.04-.81-.24-1.11-.56-.73-1.15-.75-2.45-.74-3.75,.04-5.39-.17-10.77,.12-16.16,.04-.67-.2-1.27-.28-1.91,.48-5.43,.48-5.48,5.94-5.43,2.56,.03,5.16-.43,7.68,.46,.25,.17,.45,.38,.58,.64Z" style="fill:#43281d;"/><path d="M208.63,116.47c.05,4.29,.09,8.59,.14,12.88-.08,.12-.16,.24-.25,.36-.4,.32-.84,.55-1.36,.59-3.44,.23-6.88,.22-10.32,0-1.03-.07-1.89-.55-1.95-1.65-.22-4-.64-8.01,.28-11.98,.13-.27,.31-.48,.55-.65,3.87-1.17,7.81-.59,11.73-.41,.55,.02,.85,.49,1.18,.86Z" style="fill:#634f46;"/><path d="M208.63,116.47c-4.29-.03-8.59-.07-12.88-.1-.82-.43-.95-1.21-.99-2-.14-2.92-.13-5.84-.01-8.77,.03-.82,.29-1.53,.97-2.05,3.58-.02,7.15,.01,10.73-.08,1.68-.04,2.29,.61,2.25,2.27-.08,3.58-.05,7.15-.07,10.73Z" style="fill:#4d3227;"/><path d="M195.73,103.55c.01,4.27,.02,8.55,.03,12.82l-.02,.13c-.52,.52-1.11,.87-1.87,.9-3.33,.14-6.67,.19-10-.04-.51-.03-.97-.19-1.34-.58-.66-.99-.76-2.12-.77-3.27-.03-2.42-.05-4.83,.02-7.25,.03-1,.07-2.01,1-2.68l.05-.19c4.3,.05,8.6,.11,12.9,.16Z" style="fill:#593e33;"/><path d="M221.67,142.27c-4.33,.01-8.66,.02-12.98,.03-.12-.08-.24-.15-.36-.23-.59-.62-.64-1.42-.66-2.2-.08-2.64-.07-5.29-.01-7.93,.02-.95,.18-1.85,.92-2.54l.19-.04c3.58,.01,7.17,.07,10.75,0,1.59-.03,2.15,.6,2.12,2.16-.05,3.58,.02,7.16,.03,10.75Z" style="fill:#513a32;"/><path d="M195.8,64.73c-.02,3.51-.1,7.02-.02,10.53,.04,1.77-.62,2.42-2.39,2.38-3.51-.07-7.02,.01-10.53,.02l-.1-.11c-1.26-1.09-1.06-2.61-.96-3.97,.22-3.02,.22-6.06,.64-9.07,.25-.37,.61-.67,1.05-.69,3.93-.21,7.86-.66,11.76,.27,.24,.17,.42,.38,.55,.64Z" style="fill:#43281d;"/><path d="M195.73,52.17c2.06-.85,4.22-.33,6.34-.41,2.21-.09,4.42-.02,6.63-.02,0,3.52-.06,7.04,.02,10.55,.04,1.75-.57,2.45-2.37,2.41-3.51-.08-7.03,.01-10.55,.02l-.1-.1c-1.48-2.06-1.46-10.43,.03-12.45Z" style="fill:#43281d;"/><path d="M169.89,362.28c-4.33,.02-8.66,.03-12.99,.05h-25.82c-4.33-.02-8.66-.03-12.99-.05,.01-4.31,.01-8.63,.02-12.94,.08-.12,.16-.24,.24-.36,.9-.77,2.01-.68,3.07-.68,15.04-.04,30.09-.04,45.13,0,1.06,0,2.17-.09,3.07,.68,.08,.12,.16,.24,.24,.36,.02,4.31,.02,8.63,.03,12.94Z" style="fill:#1e1108;"/><path d="M182.82,336.47c0-4.33-.01-8.67-.01-13,.52-.67,1.22-.96,2.06-1,2.94-.13,5.88-.13,8.82,0,.84,.04,1.53,.33,2.06,.99l-.02-.02c.01,4.32,.02,8.65,.03,12.97-4.31,.03-8.63,.04-12.94,.06Z" style="fill:#1e1108;"/><path d="M105.2,336.83c2.78-.89,5.63-.27,8.44-.42,1.48-.08,2.98-.01,4.47-.01,.12,.08,.24,.16,.35,.23,.63,.69,.65,1.55,.67,2.4,.07,2.55,.07,5.09,0,7.64-.03,1.01-.13,1.99-1.02,2.67h0c-4.32,.01-8.64,.01-12.96,.02,.02-4.18,.04-8.35,.05-12.53Z" style="fill:#1e1108;"/><path d="M169.87,336.4h10.42c.86,0,1.7,.03,2.49,.43,.01,4.17,.03,8.35,.04,12.52-4.32-.01-8.64-.01-12.96-.02h0c-.48-.44-.88-.92-.92-1.61-.21-3.32-.24-6.64,.03-9.96,.04-.44,.28-.79,.54-1.13,.12-.07,.24-.15,.36-.23Z" style="fill:#1e1108;"/><path d="M92.23,142.31c.01,4.3,.02,8.6,.03,12.89-8.63,.02-17.27,.04-25.9,.06-.01-4.32-.01-8.65-.02-12.97l-.02,.02c.7-.87,1.68-1.01,2.7-1.02,6.85-.07,13.69-.07,20.54,0,.85,.01,1.72,.04,2.42,.66,.09,.12,.17,.24,.25,.36Z" style="fill:#6d4931;"/><path d="M118.11,155.32c3.65-.02,7.29,0,10.94-.08,1.47-.03,2.05,.51,2.02,2-.08,3.64-.06,7.29-.08,10.94-.4,.54-.91,.91-1.61,.95-3.3,.2-6.59,.23-9.89-.03-.45-.04-.81-.27-1.16-.53-.08-.11-.16-.23-.25-.35,.02-4.3,.03-8.6,.03-12.9Z" style="fill:#432d18;"/><path d="M92.24,181.16c0-3.65,.03-7.3-.02-10.95-.02-1.47,.56-2.05,2.03-2.03,3.65,.06,7.3,.02,10.95,.02,1.53,2.1,1.49,10.93-.06,12.96l.06-.06c-.23,.17,.08-.02-.15,.15-1.99,1.41-10.82,1.35-12.81-.09Z" style="fill:#0a0503;"/><path d="M105.14,181.16c.02-4.32,.04-8.64,.06-12.96,4.3,.01,8.59,.01,12.89,.02h-.02c.71,.49,.98,1.2,1.02,2.03,.14,2.94,.13,5.87,.01,8.81-.03,.83-.28,1.55-.99,2.05-4.32,.02-8.64,.03-12.97,.05Z" style="fill:#a9998c;"/><path d="M92.24,181.16c4.32-.02,8.64-.04,12.96-.06-.01,4.32-.03,8.64-.04,12.96-4.31,0-8.62,.01-12.92,.01,0-4.3,0-8.61,0-12.91Z" style="fill:#a9998c;"/><path d="M105.19,245.87c4.17-.01,8.33-.01,12.5-.02,1.31,.52,1.43,1.66,1.45,2.84,.06,3.36,.09,6.72-.05,10.07,.13,4.32,.14,8.65,0,12.97,.18,7.59,.07,15.18,.06,22.77,0,.99,.05,2.03-.68,2.86-.12,.08-.24,.16-.35,.23-4.31-.01-8.62-.01-12.93-.02-.01-4.31-.01-8.61-.02-12.92v-12.94c0-8.62,0-17.23,.02-25.84Z" style="fill:#24130b;"/><path d="M169.87,297.57v38.83h0c-1.01,1.26-2.45,1.04-3.79,1.04-9.55,.05-19.11,.02-28.66,.02-5.32,0-10.63,.03-15.95-.02-1.21-.01-2.48,.09-3.36-1.04h0c.01-8.63,.02-17.25,.02-25.88,.68-.92,1.68-1,2.7-1.04,1.86-.06,3.73,.01,5.59-.05,2.69-.09,3.45-.84,3.55-3.49,.07-1.93-.01-3.87,.05-5.8,.03-1.08,.14-2.15,.87-3.04,.88-.64,1.92-.55,2.91-.56,10.92-.05,21.83-.04,32.75,0,1.06,0,2.18-.09,3.09,.68,.06,.12,.14,.23,.23,.35Z" style="fill:#4e3328;"/><path d="M131.05,297.61c0,3.5-.04,7,.01,10.49,.03,1.73-.7,2.46-2.43,2.43-3.5-.05-7-.01-10.49-.01-.01-4.31-.01-8.62-.02-12.94h0c.52-.65,1.21-.95,2.03-.99,2.98-.13,5.96-.14,8.94,0,.78,.05,1.57,.16,1.96,1.02Z" style="fill:#4f3423;"/><path d="M156.94,129.37h-38.83c-.12-.08-.24-.16-.36-.24-.33-.39-.54-.85-.57-1.36-.2-3.29-.21-6.59,.01-9.88,.04-.65,.3-1.25,.65-1.8,.75-.74,1.72-.66,2.64-.67,11.33-.07,22.66-.06,33.99-.01,.92,0,1.88-.05,2.67,.61,.54,.71,.75,1.53,.79,2.39,.13,2.91,.11,5.82,.01,8.73-.02,.71-.12,1.42-.64,1.99-.12,.08-.24,.16-.36,.24Z" style="fill:#6d4931;"/><path d="M182.82,142.31c-7.72,0-15.44-.05-23.16,.04-2.01,.02-2.84-.58-2.76-2.69,.13-3.43,.04-6.86,.04-10.29v.02c.68-.91,1.67-1.02,2.69-1.03,7.03-.07,14.05-.11,21.08,.02,2.55,.05,3,.55,3.11,3.07,.12,2.72,.09,5.45,.02,8.17-.02,.86-.04,1.73-.66,2.44-.12,.08-.24,.16-.36,.25Z" style="fill:#6d4931;"/><path d="M208.69,142.3c0,4.32-.01,8.65-.01,12.97-8.63-.02-17.26-.04-25.89-.06,.01-4.3,.02-8.6,.03-12.9v.02c.68-.91,1.68-1.02,2.7-1.03,6.83-.07,13.65-.07,20.48,0,1.02,.01,2.02,.13,2.72,1.02l-.03-.02Z" style="fill:#6d4931;"/><path d="M118.11,129.37c0,3.5-.07,7.01,.03,10.51,.06,1.9-.72,2.48-2.54,2.46-7.79-.07-15.58-.03-23.38-.03h.02c-.4-.39-.86-.78-.89-1.39-.15-3.81-.64-7.63,.35-11.41,.14-.26,.33-.46,.58-.61,.78-.41,1.62-.55,2.49-.56,6.88-.05,13.76-.07,20.64,.01,1.02,.01,2.02,.12,2.7,1.03h0Z" style="fill:#6d4931;"/><path d="M118.11,181.11c-.01-4.3-.03-8.59-.04-12.89,4.31-.02,8.61-.03,12.92-.05v12.95c-4.27,.19-8.57-.43-12.82,.42-.02-.14-.04-.29-.06-.43Z" style="fill:#493628;"/><path d="M169.9,181.15c-4.31-.02-8.63-.04-12.94-.06,.01-4.3,.02-8.6,.04-12.9,4.31,.01,8.61,.01,12.92,.02,1.49,2.12,1.46,10.92-.05,12.95-.01,0,.03-.01,.03-.01Z" style="fill:#402a1d;"/><path d="M169.44,245.84c.86,4.27,.19,8.6,.44,12.89-.06,.11-.11,.22-.17,.33-.8,.79-1.83,.71-2.82,.74-1.85,.05-3.71-.02-5.56,.04-2.55,.08-3.25,.8-3.33,3.39-.05,1.85,0,3.71-.03,5.56-.01,1.01-.1,2-.58,2.91-.15,.23-.34,.41-.58,.53-2.57,.94-5.24,.4-7.86,.52-1.64,.07-3.29,.01-4.93-.08-3.36,.15-6.72,.1-10.07,.07-.93-.01-1.86-.08-2.72-.49-.26-.12-.46-.3-.62-.54-1.04-4.24-.85-8.49-.15-12.74,.1-.25,.26-.46,.48-.63,1.46-.82,3.06-.61,4.63-.65,1.22-.03,2.44,.01,3.65-.02,2.94-.07,3.63-.77,3.7-3.75,.04-1.79-.01-3.58,.03-5.37,.03-1.15,.1-2.3,.9-3.24,3.93-1.04,7.9-.53,11.86-.34,.53,.03,.85,.49,1.21,.82,4.18,.03,8.35,.04,12.52,.05Z" style="fill:#24120e;"/><path d="M156.92,245.81c-4.31,.01-8.62,.02-12.92,.03-.45,.46-.93,.87-1.62,.91-3.32,.2-6.64,.24-9.96-.03-.44-.04-.79-.28-1.13-.55-.08-.12-.15-.24-.23-.36v-12.93c.53-.66,1.23-.95,2.06-.98,2.94-.12,5.87-.12,8.81,0,.83,.03,1.53,.32,2.06,.98,3.45,0,6.9,.12,10.34-.04,2.07-.1,2.65,.76,2.62,2.63-.07,3.45-.03,6.89-.03,10.34Z" style="fill:#060606;"/><path d="M118.13,258.81c-.01-3.49-.02-6.97-.02-10.46,0-.86-.06-1.71-.43-2.5,.14-.01,.28-.02,.42-.02,4.32,0,8.63,0,12.95-.01h-.01c.66,.53,.95,1.23,.99,2.06,.13,2.93,.12,5.85,.01,8.77-.03,.82-.3,1.53-.95,2.07l-.07,.07c-.23,.17,.08-.01-.15,.15-1.99,1.35-10.79,1.26-12.74-.13Z" style="fill:#24120e;"/><path d="M143.99,232.88h-12.94c0-3.66,.03-7.32,0-10.97-.01-1.53,.77-1.99,2.16-1.97,2.87,.04,5.74,.05,8.61,0,1.56-.03,2.2,.61,2.18,2.18-.05,3.58-.01,7.17-.01,10.76Z" style="fill:#130f0e;"/><path d="M169.86,181.16c.02-4.32,.04-8.63,.05-12.95,4.29,0,8.57-.01,12.86-.01,.67,.51,.97,1.19,1,2.01,.14,2.97,.14,5.95,0,8.92-.04,.79-.21,1.55-.95,2.03h-12.96Z" style="fill:#a9998c;"/><path d="M182.84,181.17l-.06-12.96c3.58,0,7.16,.05,10.74-.03,1.67-.04,2.29,.58,2.25,2.25-.08,3.58-.03,7.16-.03,10.74-2.11,1.53-10.93,1.49-12.96-.06l.06,.06Z" style="fill:#0a0501;"/><path d="M182.78,181.1c4.32,.02,8.64,.04,12.96,.06v12.91c-4.31,0-8.62-.01-12.92-.01,0-4.32-.03-8.64-.04-12.96Z" style="fill:#a9998c;"/><path d="M182.8,297.58c-4.31,0-8.62-.01-12.93-.01h.02c-.57-.47-.93-1.05-.97-1.82-.16-3.35-.19-6.7,.03-10.04,.03-.51,.19-.98,.58-1.34,1-.66,2.13-.76,3.28-.77,2.43-.03,4.85-.06,7.28,.02,1.01,.03,2.02,.08,2.67,1.04,0,4.31,.03,8.61,.04,12.92Z" style="fill:#563927;"/><path d="M182.76,284.66h-12.86c-.58-.26-.88-.74-.92-1.34-.26-3.48-.3-6.97,.03-10.45,.05-.49,.29-.95,.61-1.35,.75-.63,1.65-.81,2.59-.83,2.71-.08,5.42-.08,8.13,.01,.95,.03,1.85,.18,2.45,1.04-.01,4.31-.02,8.61-.03,12.92Z" style="fill:#463120;"/><path d="M182.79,271.74c-4.31-.02-8.61-.03-12.92-.05-.12-.08-.24-.15-.36-.23-.65-.69-.65-1.57-.67-2.43-.07-2.51-.06-5.02,0-7.52,.02-1.01,.08-2.02,1-2.71l.04-.06c3.58,.01,7.15,.05,10.73,.03,1.54-.01,2.2,.72,2.19,2.23-.02,3.58,0,7.16,0,10.74Z" style="fill:#28170f;"/><path d="M195.75,323.47c-4.31,0-8.63,.01-12.94,.01,0-3.56,.05-7.13-.02-10.69-.03-1.65,.63-2.3,2.28-2.27,3.56,.06,7.13,.02,10.69,.02,0,4.3,0,8.61-.01,12.93Z" style="fill:#43281d;"/><path d="M105.14,103.43c13.77,.02,27.54,.06,41.31,.07,7.82,0,15.63-.04,23.45-.06,4.29,.05,8.59,.1,12.88,.15,.02,4.28,.03,8.57,.05,12.85-.46,.94-1.36,.99-2.21,1-7.14,.11-14.29,.12-21.43,0-.9-.01-1.68-.28-2.29-.98h-38.76c-.77,.93-1.85,1-2.93,1.01-6.71,.06-13.42,.05-20.13,0-.92-.01-1.87-.01-2.64-.66-.08-.12-.17-.23-.25-.35,.03-4.29,.05-8.58,.08-12.88,4.29-.05,8.58-.1,12.87-.15Z" style="fill:#7e695c;"/><path d="M92.23,129.36c0,4.32,.01,8.64,.01,12.97-8.64,0-17.28-.01-25.91-.01,.02-4.29,.04-8.58,.06-12.86,4.29-.05,8.58-.09,12.87-.14,2.19-1.48,11.01-1.44,12.97,.04Z" style="fill:#785f4d;"/><path d="M92.23,129.36c-4.32-.02-8.65-.03-12.97-.05,.04-4.3,.07-8.6,.11-12.9,4.28,.02,8.55,.04,12.82,.05l.09-.05c1.51,2.17,1.46,10.99-.07,12.96h.02Z" style="fill:#4a362f;"/><path d="M156.9,116.46c8.64-.01,17.29-.02,25.93-.03,4.3,.02,8.61,.04,12.91,.07,0,3.5,.06,7-.01,10.49-.04,1.73,.59,2.45,2.37,2.41,3.49-.08,6.99-.01,10.49-.01,.04,4.31,.08,8.61,.13,12.92-8.64,0-17.27,.01-25.91,.01,0-3.5-.07-7.01,.03-10.51,.06-1.9-.71-2.48-2.53-2.46-7.79,.07-15.58,.03-23.38,.03-.01-4.31-.02-8.61-.03-12.92Z" style="fill:#785f4d;"/><path d="M118.11,336.4h51.76v12.94h-51.75c0-4.32,0-8.63,0-12.94Z" style="fill:#372113;"/><path d="M169.88,271.69c.01,4.32,.01,8.65,.02,12.97-.01,4.31-.01,8.62-.02,12.93-12.94,.01-25.88,.01-38.83,.02-4.31-.01-8.62-.01-12.94-.02,.01-8.64,.02-17.28,.03-25.93,2.1-1.5,10.9-1.47,12.92,.05l-.02-.03c.88,.7,1.01,1.68,1.04,2.71,.04,1.65,.01,3.31,.03,4.96,.03,3.62,.62,4.19,4.32,4.22,2.51,.02,5.03-.05,7.54,.12,2.13-.14,4.27-.11,6.41-.11,5.28,0,5.47-.19,5.47-5.58,0-1.28-.01-2.56,.03-3.85,.03-.96,.24-1.83,1.03-2.47l-.03,.03c2.07-1.54,10.92-1.54,12.97,0l.03-.02Z" style="fill:#3f1b0f;"/><path d="M131.07,271.71c-4.31-.02-8.62-.03-12.92-.05-.01-4.28-.01-8.57-.02-12.85,4.3,0,8.59-.01,12.89-.01,.02,4.3,.04,8.61,.05,12.91Z" style="fill:#682d33;"/><path d="M92.21,129.37c.02-4.32,.05-8.64,.07-12.96,8.62,.02,17.24,.03,25.86,.05-.01,4.31-.02,8.62-.02,12.92-8.64,0-17.27,0-25.91,0Z" style="fill:#785f4d;"/><path d="M156.93,271.68c0,3.57-.06,7.13,.01,10.7,.03,1.64-.56,2.32-2.24,2.28-3.56-.08-7.13-.04-10.7-.06-.7-.5-.96-1.2-1-2.03-.13-2.93-.13-5.85,0-8.78,.04-.83,.29-1.54,1-2.03,4.32-.02,8.63-.05,12.93-.08Z" style="fill:#682d33;"/><path d="M144.01,271.76v12.84c-3.57,.01-7.14-.02-10.71,.06-1.66,.04-2.3-.62-2.27-2.27,.07-3.57,.02-7.14,.02-10.71,4.32,.03,8.64,.06,12.96,.08Z" style="fill:#5c232a;"/><path d="M169.88,271.71h-12.97c.01-3.64,.06-7.29,.01-10.93-.02-1.46,.51-2.06,2-2.03,3.64,.07,7.29,.04,10.93,.05,0,4.3,0,8.6,.03,12.91Z" style="fill:#682d33;"/><path d="M131.09,258.72c-.02-4.3-.03-8.59-.05-12.89,4.32,0,8.63,.01,12.95,.01,0,3.58-.04,7.17,0,10.75,.02,1.55-.59,2.21-2.16,2.19-3.57-.07-7.15-.04-10.74-.06Z" style="fill:#1a0c0d;"/></svg>