<?xml version="1.0" encoding="UTF-8"?><svg id="a" xmlns="http://www.w3.org/2000/svg" width="1105.21" height="1164.48" viewBox="0 0 1105.21 1164.48"><path d="M538.17,359.09c-40.8-.24-81.6-.21-122.4-.03-4.8,.02-9.79-.32-13.58,5.95-.03,49.63-.06,99.27-.09,148.9,5.52,8.23,12.45,5.23,18.85,5.6,15.72,.7,4.04,31.26,11.8,44.63,2.5,14.21-5.82,51.78,7.9,50.02,7.35-.46,19.16-3.33,24.02,4.47,1.35,79.07-3.17,163.73,.8,240.96,4.48,9.13,14.83,2.01,22.59,3.32,13.47-4.44,5.37,36.84,7.74,49.89,13.12-.02,26.23-.05,39.35-.06,22.24-.01,22.51,0,22.56,34.75,.02,11.27,1.93,15.53,9.34,15.29,20.36-.68,40.73-.23,61.09-.23,22.68,0,22.91,.01,23.17-35.5-.58-25.42,21.61-10.38,31.53-14.56,16.41-89.89-26.98-32.33-27.95-68.74-.14-36.9-.12-73.8-.01-110.7,.03-23.86,18.5-8.67,27.12-17.29,8.72-21.31,2.1-54.75,3.94-79.84-1.39-30.39,23.18-5.89,29.87-24.78,2.05-32.1,2.58-65.01,.48-97.2,10.01-1.31,30.3,8.34,28.85-11.77-.36-45.72-.33-91.46-.44-137.19" style="fill:#fee2cd;"/><path d="M791.15,209.41V15.42c-.06-3.81-.31-7.63-.1-11.42,.16-2.93-.92-3.67-3.67-3.55-4.63,.2-9.28-.04-13.92,.08-3.94,.11-8.91-1.65-11.52,.7-2.43,2.19-.77,7.2-.71,10.95,.04,2.71-.9,3.41-3.44,3.3-3.8-.17-7.62-.01-11.44,0-2.96,4.43-2.46,9.35-.79,13.78,1.42,3.77,5.68,2.7,8.85,2.72,3.98,.02,4.99,1.99,5.11,5.56,.28,8.77,.64,9.02,8.93,9.4,.5,.02,.99,.07,1.49,.05,4.01-.17,4.48,2.4,4.46,5.54-.02,3.23-.24,5.99-4.59,5.98-5.46-.02-10.92-.04-16.39,.04-7.67,.11-8.56,.98-8.86,8.52-.24,5.94-.52,6.35-6.18,6.36-24.66,.06-49.33,.07-73.99,0-5.51-.02-5.81-.44-6.03-5.98-.32-8.07-.81-8.56-8.95-8.91-.5-.02-.99-.06-1.49-.04-3.13,.12-4.48-1.4-4.47-4.5,.02-3.97-.01-7.94-.02-11.92q-.01-9.19,8.95-10.15c2.61-.28,5.09-.84,5.55-3.92,.53-3.58,1.14-7.25-1.08-10.58-.11-.67-.21-1.34-.32-2.01-2.52-2.22-5.62-1.53-8.5-1.53-3.35,0-4.72-1.36-4.72-4.71,0-2.88,.7-5.98-1.53-8.5h-29.89c-2.22,2.52-1.53,5.62-1.53,8.5,0,3.35-1.36,4.72-4.71,4.71-2.88,0-5.98-.7-8.5,1.53-.11,4.32-.22,8.63-.33,12.95-.78,2.76,1.37,2.96,3.08,3.36,1.94,.45,3.96,.32,5.94,.32,2.78,0,4.35,1.08,4.37,4.08,.04,6.13,.07,12.25-.01,18.38-.03,2.64-1.29,3.92-3.95,3.99-1.82,.04-3.64,.08-5.46,.21-3.34,.23-5.15,1.93-5.34,5.31-.08,1.32-.21,2.66-.11,3.97,.31,4.08-1.59,5.57-5.57,5.53-9.77-.1-19.54-.01-29.31-.04-6.2-.02-6.36-.22-6.6-6.39-.3-7.57-1.17-8.45-8.85-8.5-10.1-.07-20.2-.08-30.3,.01-3.93,.04-5.79-1.33-5.65-5.47,.18-5.29,.15-10.6,.01-15.89-.1-3.86,1.58-5.27,5.33-5.26,3.03,.01,6.41,.75,8.71-2.27,1.24-3.56,.44-7.25,.68-10.87,.03-.91-.11-1.79-.33-2.67-.27-4.4,.04-8.81-.18-13.22-.13-.89-.39-1.72-1.05-2.37-13.54-.02-27.08,.08-40.62-.12-3.3-.05-4.16,.97-4.09,4.16,.17,7.92-.03,15.84-.08,23.77-.79,2.39,.99,2.82,2.59,3.27,1.61,.45,3.29,.32,4.94,.39,5.53,.22,5.8,.46,5.87,6.09,.06,5.13-.06,10.27,.03,15.4,.07,3.6-1.49,5.07-5.04,5.03-5.46-.05-10.93-.06-16.4,.02-7.31,.11-8.17,.99-8.41,8.38-.21,6.29-.33,6.49-6.46,6.5-19.38,.04-38.75,.05-58.13,0-6.22-.02-6.48-.33-6.72-6.34-.3-7.48-1.04-8.24-8.33-8.55-1.32-.06-2.65-.06-3.96-.3-1.27-.24-1.94-.97-2.35-2.22-1.85-5.67,.26-8.85,6.14-9.1,7.47-.32,8.21-1.06,8.5-8.39,.03-.83,.07-1.66,.08-2.48,.03-2.64,1.36-3.89,3.99-3.97,1.98-.06,3.98-.01,5.95-.31,1.88-.29,3.82-.85,4.19-2.92,.82-4.51,1.87-9.13-1.05-13.38-.83-.01-1.66-.03-2.48-.04-3.81-.04-8.63,1.33-11.16-.49-3.04-2.18-.95-7.34-1.07-11.18-.08-2.66-.93-3.38-3.47-3.3-5.3,.16-10.6,.05-15.9,.05q-10.23,0-10.75,9.95c0,15.92,0,31.83,.01,47.75V209.45c-1.63,1.94-1.51,4.3-1.53,6.6-.07,7.75,.34,15.5,.25,23.26,.09,9.33-.11,18.66-.01,27.99-.41,16.54,.47,33.05,1.29,49.55v22.91c-1.02,1.45-1.02,2.88,.06,4.3,2.36,1.64,5.07,1.19,7.68,1.3,5.26,.22,5.52,.47,5.72,5.71,.34,8.74,.45,8.85,9.48,9.22,.33,.01,.66,.04,.99,.02,3.11-.15,4.44,1.31,4.48,4.43,.05,3.08-.61,6.31,1.35,9.12,2.48,1.76,5.37,1.4,8.09,1.27,3.97-.18,5.69,1.32,5.53,5.4-.1,2.68-.69,5.64,1.6,7.91,.83,.02,1.65,.04,2.48,.05,3.8,.04,8.56-1.31,11.15,.48,3.11,2.15,.97,7.28,1.14,11.1,.11,2.51,.69,3.51,3.36,3.4,4.62-.2,9.26-.07,13.88-.05,3.97,.02,8.94-1.36,11.62,.51,2.97,2.08,.91,7.37,.98,11.24,.05,2.79,1.13,3.28,3.54,3.2,3.8-.13,7.6,.02,11.4,.05,4.53,2.54,9.45,2.32,13.88,.57,3.98-1.57,2.67-6.01,2.74-9.32,.1-4.33,2.75-4.54,5.99-4.63,8.13-.25,8.6-.78,8.97-8.88,.25-5.57,.48-5.8,6.02-6.02,8.07-.32,8.54-.79,8.9-8.95,.02-.5,.06-.99,.05-1.49-.1-3.12,1.41-4.47,4.52-4.47h32.26c3.42,0,4.68,1.61,4.65,4.87-.06,5.62-.06,11.25,0,16.87,.04,3.32-1.33,4.77-4.71,4.8-3.07,.03-6.35-.66-9.04,1.62-1.86,4.93-1.72,9.87-.08,14.82,2.47,2.29,5.55,1.54,8.43,1.69,5.01,.25,5.46,.69,5.46,5.86s-.45,5.62-5.43,5.91c-3,.18-6.32-.78-8.69,2.08-1.33,2.99-1,6.17-.86,9.29,.23,5.3,1.55,6.73,7,6.77,13.06,.12,26.12,.34,39.18-.13,5.11,.26,10.23,.27,15.34-.01,7.85,.43,15.7,.21,23.55,.14,6.46-.06,7.36-1.1,7.74-7.88-.17-1.23-.19-2.47-.21-3.7-.04-1.47,0-2.95-.67-4.33-2.32-3.03-5.69-1.87-8.68-2.2-1.73-.19-4.02,.49-4.84-1.54-1.13-2.78-1.13-5.9-.04-8.68,.89-2.28,3.39-1.37,5.26-1.63,2.8-.39,6.03,1.12,8.25-1.82,1.15-2.3,.91-4.79,.91-7.24,0-7.9-.81-8.69-8.61-9.05-2.19-.1-4.74,.53-6.01-2.21-1.15-6.07-.11-12.19-.2-18.29-.08-5.57,.4-5.98,5.86-6.02,9.76-.08,19.53-.06,29.29-.01,5.82,.03,6.03,.31,6.26,6.22,.3,7.76,.97,8.43,8.64,8.68,5.93,.2,6.04,.31,6.28,6.23,.32,7.77,.96,8.41,8.66,8.69,5.87,.22,6.01,.35,6.26,6.28,.04,.99,.08,1.98,.13,2.97,.18,3.59,2.06,5.42,5.64,5.56,3.64,.14,7.28,.22,10.91-.05,4.98,.28,9.96,.26,14.94,0,4.98-.05,10.05,1.13,14.88-1.08,2-2.43,1.41-5.35,1.53-8.11,.22-5.24,.42-5.44,5.79-5.63,2.62-.09,5.34,.37,7.71-1.26,1.68-2.14,1.31-4.68,1.38-7.11,.18-6.43,.16-6.43,6.78-6.58,2.13-.05,4.29,.12,6.29-.89,.49-.31,.87-.73,1.13-1.25,.86-2.03,.67-4.18,.72-6.3,.15-6.2,.29-6.31,6.33-6.51,2.57-.08,5.29,.42,7.49-1.53,1.42-2.25,1.07-4.78,1.14-7.23,.16-5.85,.24-5.92,6.27-6.11,2.44-.08,5.02,.32,7.02-1.67,.07-7.6,.14-15.2,.2-22.8v-94.51c0-10.59,0-21.2,0-31.81Z" style="fill:#d2d4e0;"/><path d="M790.98,1164.44H401.99c-2.19-2.52-1.69-5.6-1.69-8.52-.05-29.73,.01-59.46-.05-89.19,.52-8.11-8.92-3.09-13.23-6.31-3.56-7.23-.93-16.39-1.59-24.32-.53-7.56,4.28-7.68,10.66-7.72,9.84-.87-2.64-16.69,13.37-14.85,9.94-.07,20.88,.05,30.82-.06,5.26-.05,5.53-.41,5.77-5.69,.39-8.52,.04-9.17,8.72-9.19,19.21-.04,38.43,.01,57.64-.03,7-.01,7.2-.26,7.25-7.29,.04-5.13-.12-10.27,.07-15.4,.2-5.49,1.42-6.88,6.77-7.03,7.96-.22,8.1,.36,8.1-9-.01-8.94-.03-17.89,.02-26.83-1.8-10.1,7.96-9.97,15.06-8.3,4.1,1.14,2.94,6.8,3.26,10.09,1.21,9.91,16.08-2.75,14.87,13.02,.24,5.63,.43,5.82,5.98,6.04,8.08,.32,8.6,.83,8.94,8.93,.23,5.29,5.3,8.09,9.95,5.53,2.57-1.88,1.42-5.62,1.76-8.36-.1-5.14,3.8-6.33,8.21-6.08,14.4,1.17-1.59-15.92,15.43-14.93,5.66-.22,5.87-.43,6.12-5.91,.37-8.27,1.04-8.92,9.37-9,12.12,.8,24.98-1.78,36.73,1.09,2.48,2.34,1.78,5.45,1.92,8.33,.25,5.18,.46,5.44,5.76,5.53,7.58,.78,15.41-1.66,22.69,1.3,3.69,4.58-1.87,14.29,7.09,13.59,13.9-.08,27.8-.04,41.71-.03,6.37-.22,13.22-.57,12.36,8.02-1.2,14.26,15.78-.58,14.93,14.93,.26,6.82,.27,6.84,7.11,6.89,7.86,1.33,24.5-4.73,22.8,8.3,.04,15.5,1.04,31,1,46.5-.01,2.3,.1,4.65-1.32,6.68-2.71,2.2-5.98,1.54-9.05,1.64-3.11,.1-4.52,1.45-4.49,4.53,.02,1.81-.05,3.63-.05,5.45,0,33.05,.01,66.09-.02,99.14-.06,2.91,.44,5.99-1.76,8.51Z" style="fill:#feb0a3;"/><path d="M805.85,1045.13c.02,39.77,.04,79.54,.06,119.31h-14.92c0-37.96,.07-75.92-.1-113.88-.02-4.33,1.04-6.08,5.52-5.56,3.11,.36,6.29,.11,9.44,.13Z" style="fill:#fb8975;"/><path d="M387.07,1164.44c.02-34.79,.04-69.59,.06-104.38,5.12,1.1,15.67-3.56,14.94,4.93-.18,33.15-.05,66.3-.07,99.45h-14.93Z" style="fill:#fb8975;"/><path d="M536.45,925.62v-14.84c7.12-3.72,16.52-.99,24.42-1.62,6.43-.33,7.05,3.87,6.96,9.43-.29,4.1,1.69,5.5,5.65,5.45,10.1-.14,20.2-.09,30.3-.02,3.63,.03,5.34-1.13,5.49-5.11,.36-9.55,.81-9.79,10.52-9.83,7.06,.81,14.34-1.62,21.08,1.51,2.29,5.03,2.46,10.06-.08,15.07-4.06,1.04-15.14-2.75-15.03,3.36,1.51,11.64,.05,13.02-11.63,11.55-2.3,.03-3.17,.84-3.28,3.19,3.93,22.97-14.2,4.54-14.88,15.26-.14,11.47,.33,12.91-11.85,11.49-6.96-.9,.22-11.29-4.12-14.29-2.47-2.17-7.01-.58-10.63-.64-7.14-.35-.06-11.19-4.18-14.17-2.37-2.33-6.96-.7-10.56-.73-11.5-3.11,9.69-18.17-18.18-15.06Z" style="fill:#fcfcf8;"/><path d="M164.23,866c-.55,4.96,1.19,10.08-.98,14.94-2.31,2.24-5.25,1.65-7.99,1.66-22.95,.06-45.89,.03-68.84,.03-1.65,0-3.31,.08-4.95,.02-3.51-.14-5.11,1.35-5.09,4.97,.02,2.91,.5,6-1.54,8.58-4.06,2.18-8.38,1.45-12.63,.97-2.23-.25-3.42-1.82-3.84-3.99-.41-2.13-.35-4.29-.35-6.44-.01-28.66-.02-57.32,0-85.97,.01-10.54,1.76-12.09,12.32-11.05,1.5,.15,2.97,.34,4.23,1.25,1.97,1.97,1.71,4.54,1.82,6.99,.29,6.39,.41,6.6,6.93,6.61,23,.05,45.99-.02,68.99,.06,3.91,.01,7.97-.79,11.7,1.19,3.05,4.79,2.02,9.86,1,14.93-.32,.58-.78,1.02-1.36,1.33-2.69,1.14-5.54,.83-8.33,.84-24.18,.03-48.36-.02-72.54,.04-5.81,.01-6.5,.79-6.34,6.14,.14,4.64,.77,5.3,6.24,5.31,24.35,.08,48.69,.01,73.04,.06,2.94,.01,6-.47,8.68,1.36,2.23,5.08,2.49,10.15-.17,15.18v.11c-2.54,2.16-5.63,1.64-8.56,1.65-24.32,.05-48.64-.02-72.95,.05-5.65,.02-6.29,.71-6.29,5.72s.65,5.7,6.3,5.71c24.32,.07,48.64,0,72.95,.05,2.94,0,6.03-.5,8.55,1.7Z" style="fill:#fee4ce;"/><path d="M164.23,866c-28.12,0-56.24-.08-84.36,.09-4.17,.03-5.35-1.24-5.26-5.32,.21-9.69,.01-9.69,9.73-9.69,26.63,.01,53.26,.03,79.9,.04-.01,4.95-.01,9.92-.01,14.88Z" style="fill:#f7c5a1;"/><path d="M74.69,895.83c0-3.14,.26-6.3-.06-9.4-.44-4.28,.94-5.65,5.43-5.62,27.73,.22,55.46,.12,83.19,.12,1.89,4.12,.9,8.46,.85,12.69-.04,3.08-2.8,2.17-4.58,2.18-13.37,.07-26.73,.05-40.1,.06-9.91,0-19.83,0-29.74,.01-5,2.48-10,2.57-14.99-.04Z" style="fill:#f7c5a0;"/><path d="M611.89,.66c0,3.77-.08,7.55,.04,11.31,.08,2.53-.93,3.55-3.46,3.47-3.77-.12-7.54-.04-11.31-.04q-.85-15.54,14.73-14.74Z" style="fill:#eaeaf4;"/><path d="M656.52,15.4c-3.77,.01-7.55-.07-11.32,.05-2.53,.08-3.56-.92-3.47-3.46,.12-3.77,.04-7.54,.05-11.32q15.52-.82,14.74,14.73Z" style="fill:#eaeaf4;"/><path d="M790.91,388.57l-14.94-.03,.13-.09c-2.65-4.95-2.5-9.93-.13-14.93,.57-4.85-2.08-11.37,1.12-14.13,2.78-2.4,9.1-.71,13.85-.83,.03,1.69,.06,3.37,.09,5.06-.04,8.31-.08,16.63-.12,24.95Z" style="fill:#5d3110;"/><path d="M805.83,418.43c-3.76-.04-7.52-.22-11.27-.07-2.82,.12-3.76-.98-3.61-3.7,.2-3.75,.13-7.51,.18-11.26,3.92-1.55,7.86-1.46,11.79-.05h.99c.68-.53,1.34-.57,1.95,.12-.01,4.99-.02,9.98-.03,14.96Z" style="fill:#5e3111;"/><path d="M802.92,403.35c-3.93,.02-7.86,.03-11.79,.05,0-.66,.01-1.33,.01-1.99,2.8,0,5.59,0,8.39,.01,1.49,0,3.08-.14,3.39,1.93Z" style="fill:#554142;"/><path d="M610.89,746.64c-9.93,.01-19.87,.02-29.8,.04-4.73-6.35,2.81-14.59-9.42-13.28-15.2-.07-30.41,.08-45.62-.07-4-.03-5.95-1.93-6.3-6-.77-8.87-.87-8.86-9.62-8.87-6.01-.69-13.15,1.75-18.42-1.7v-14.9c1.23-1.34,2.88-1.6,4.55-1.61,12.24-.1,24.49-.24,36.73,.07,5.43-.12,5.08,6.08,4.93,9.9,0,3.21,1.14,4.92,4.61,4.91,10.9-.02,21.81,.03,32.71-.02,7.66-.23,1.71-9.82,5.88-13.76,2.72-1.61,5.76-1.32,8.67-1.16,7,.37,14.11-1.23,21,1.11,4.36,4.37-1.85,14.85,7.34,13.85,10.89,1.67,1.74-13.59,10.53-14.62,8.4-.51,16.8-.64,25.2,.09,5.59,2.3,3.68,11.29,2.37,16.06-4.07,4.34-14.6-1.97-13.82,6.82-.03,7.35-.37,10.17-8.42,9.82-29.04,.42-17.1-2.65-23.1,13.32Z" style="fill:#b2a18f;"/><path d="M563.16,746.75c-23.83-.02-47.66-.05-71.49-.07,.01-9.97,.02-19.95,.03-29.92,8.29,0,16.58,.17,24.86-.06,12.35,.16-4.51,17.17,15.38,14.99,14.58,0,29.17,.19,43.75-.12,9.05-.82,4.11,9.95,5.43,15.04-6.11,3.9-11.69,.42-17.96,.14Z" style="fill:#f4ad76;"/><path d="M536.32,701.85c-14.87,0-29.74,.01-44.61,.01-.01-9.97-.02-19.95-.02-29.92,7.74-3.58,17.75-.95,26.24-1.44,3.34-.15,5.1,2.84,5.01,5.89-1.47,16.06,14.8,2.29,14.89,15.44,.05,3.38,1.02,6.99-1.51,10.02Z" style="fill:#f4ad76;"/><path d="M446.93,487.99c2.81,10.58,12.16,1.47,15.68,6.59,.75,4.52,1.74,9.05-.96,13.32l.09-.09c-20.47,2.96-14.75-4.03-14.81-19.82Z" style="fill:#fde2cf;"/><path d="M456.71,478.19c-2.97,1.82-5.94,.96-8.91,0h8.91Z" style="fill:#fde7d2;"/><path d="M460.69,478.19c0,2.17-2.97,2.15-2.98,0,.99,0,1.99,0,2.98,0Z" style="fill:#fde7d2;"/><path d="M164.18,806.28c-28.18,.01-56.36-.06-84.54,.11-3.97,.02-5.36-1.15-5-5.07,.3-3.29,.07-6.62,.08-9.94l-.02,.02c1.57-1.49,3.54-1.71,5.55-1.71,26.63-.05,53.26-.14,79.89,.04,.83,.01,1.65,.15,2.45,.34,.63,.17,1.21,.47,1.73,.86,2.41,4.81,1.87,9.73,.55,14.69-.24,.23-.46,.45-.69,.66Z" style="fill:#f7c5a0;"/><path d="M164.16,821.28c.01,4.94,.03,9.87,.04,14.81-28.35,.02-56.69-.01-85.03,.12-3.47,.02-4.54-1.04-4.54-4.53-.01-10.46-.16-10.47,10.47-10.46,26.35,.02,52.7,.04,79.06,.06Z" style="fill:#f7c5a0;"/><g><path d="M502.21,119.79c-19.72,.19-39.45,.09-59.17,.09-10.03,0-10.19,0-10.11-10.18,.03-3.68-1.03-4.89-4.78-4.82-11.76,.21-23.54,.2-35.3,.01-3.65-.06-4.85,.95-4.85,4.74,.1,66.46,.1,132.92,.01,199.38,0,3.52,.72,4.99,4.63,4.96,10.09-.07,10.19,.11,10.29,10.43,.03,3.03,.64,4.43,4.1,4.48,10.43,.18,10.54,.32,10.82,10.9,.08,3.04,1.08,4.06,4.07,3.99,6.46-.16,12.93-.05,19.39-.05s6.4,.01,6.46,6.46c.1,9.68-1.28,8.36,8.42,8.45,6.48,.06,6.43,.01,6.5,6.44,.1,9.69-1.29,8.4,8.4,8.48,6.5,.06,6.46,0,6.52-6.39,.1-9.76-1.26-8.42,8.36-8.51,6.54-.06,6.5-.02,6.56-6.38,.09-9.79-1.24-8.46,8.33-8.54,6.58-.06,6.58-.02,6.58-6.85v-104.91c0-35.63-.07-71.27,.09-106.9,.03-4.18-1.23-5.32-5.32-5.28Z" style="fill:#e9ebf8;"/><path d="M746.31,95.56c.01-4.29-.99-5.78-5.5-5.64-9.41,.3-9.57,.05-9.44,9.96,.05,3.77-.84,5.24-4.95,5.17-9.95-.18-10.18,.04-9.95,9.72,.1,4.31-1.47,5.23-5.44,5.18-16.07-.2-32.16,.16-48.23-.22-5.24-.12-6.25,1.56-6.23,6.44,.16,63.81,.11,127.61,.11,191.42,0,10.86,0,10.98,10.68,11.12,3.21,.04,4.4,.98,4.31,4.26-.19,7.12,.07,14.25-.11,21.38-.08,3.19,.92,4.3,4.22,4.35,10.47,.15,10.58,.28,10.69,10.54,.03,3.14,.86,4.33,4.2,4.38,10.52,.16,10.68,.29,10.7,10.5,.01,3.64,1.36,4.5,4.68,4.4,6.46-.2,12.95-.38,19.38,.04,4.94,.32,6.15-1.49,5.97-6.17-.34-8.84-.08-8.85,8.43-8.86q6.39-.01,6.39-6.53V231.76c0-45.38-.06-90.79,.09-136.2Z" style="fill:#e9ebf8;"/><path d="M621.62,119.79c-9.55,.22-9.71,.02-9.63,10.24,.03,3.64-.95,4.89-4.74,4.85-16.72-.18-33.45-.16-50.18-.01-3.53,.03-4.97-.75-4.95-4.64,.05-10.83-.12-10.72-10.91-10.42-3.07,.09-4.02,1.13-3.96,4.09,.15,8.28,.07,16.56,.08,24.84h0v60.67h0v103.47h0c-.01,13.56,.09,27.12-.1,40.68-.05,3.71,.75,5.21,4.9,5.18,26.62-.19,53.25-.18,79.87,0,4.14,.03,4.95-1.46,4.9-5.18-.19-13.56-.09-27.12-.09-40.68h0c.01-62.6-.02-125.19,.11-187.79,0-4.13-1.16-5.4-5.3-5.3Zm-56.15,180.4c0,12.88-.01,13.18-12.4,11.56,1.14-1.94,.86-4.22,.87-6.38,.05-29.63,.04-59.27,.01-88.9,0-2.47,.18-5-1.36-7.19-.06-.03-.13-.05-.19-.08,1.56-1.63,1.5-3.75,1.52-5.79,.08-10.9,.07-21.81,.01-32.71-.01-1.83-.07-3.66-1.08-5.23,1.41,.7,2.96,.76,4.5,.84q8.06,.43,8.09,8.51c.01,24.53-.01,49.05,.02,73.58,0,2.64-.27,5.32,.81,7.86,.22,.35,.51,.77,.84,.97-1.95,1.97-1.59,4.52-1.6,6.91-.07,12.02-.03,24.03-.04,36.05Zm17.74-46.61c.04-.12,.09-.24,.13-.37,.56-2.44,.4-4.93,.41-7.41,.02-14.55-.04-29.1,.06-43.65,.01-2.01-.61-4.46,2.02-5.61,5.29-2.3,9.43,.34,9.46,6.17,.07,14.05-.02,28.11,.05,42.16,.01,2.52-.44,5.23,1.57,7.33-4.51,.95-9.34-.58-13.7,1.38Z" style="fill:#e9ebf8;"/></g><path d="M626.82,418.29c1.26,5.26-3.39,1.91-4.88,3.46,2.07,1.51,4.86,.03,6.88,1.55-2.84,2.57-2.6,5.67-1.12,8.67,.7,1.42,.8,1.97-.81,2.26-3.56-2.07-7.43-.73-11.15-.91-2.65-.13-3.97-.78-3.87-3.69,.46-12.91-2.57-11.56,11.53-11.05,1.14,.05,2.28-.19,3.42-.29Z" style="fill:#fde3cf;"/><path d="M567.15,410.6c.1-8.35-.94-7.14,8.59-7.18,7.48-.04,6.29-.56,6.31,8.45,.01,7.62,.78,6.36-8.81,6.45-6.1,.05-6.1,0-6.09-7.72Z" style="fill:#fefbf7;"/><path d="M626.89,438.22h3.74c-1.35,1.01-2.74,1.73-3.76,2.96,.01-.98,.02-1.97,.02-2.96Z" style="fill:#fde3cf;"/><path d="M1044.65,865.99c.02-4.97,.05-9.95,.07-14.92,4.96-2.55,9.93-2.53,14.89,0h-.02c-.44,4.8,2.13,10.98-1.18,14.06-3.04,2.83-9.06,.6-13.76,.86Z" style="fill:#fcfbf9;"/><path d="M163.25,791.37c-29.52,.01-59.04,.02-88.55,.04-.01-4.98-.01-9.95-.02-14.93,4.78-2.6,9.78-1.83,14.79-.96,2.7,1.92,5.76,.82,8.63,.89,7.09,.17,14.2,.04,21.29,.03,1.04-.88,2.25-1.48,3.61-1.49,13.38-.02,26.77-.86,40.14,.45,.6,.24,1.12,.61,1.56,1.09,1.2,5.12,2.96,10.3-1.45,14.88Z" style="fill:#fee4cf;"/><path d="M1044.65,925.65c0-4.97,.01-9.93,.01-14.9,4.98,.02,9.96,.04,14.95,.06-.02,4.95-.03,9.89-.05,14.83-4.97,.01-9.94,.01-14.91,.01Z" style="fill:#f7e0db;"/><path d="M566.11,746.69c5.01-.02,10.01-.04,15.02-.06-.74,12.9,3.85,16.06-11.7,14.85-6.05,1.08-2.28-11.11-3.32-14.79Z" style="fill:#b3a18f;"/><path d="M625.86,746.68c-.04,4.94-.08,9.88-.12,14.82-17.35,.1-14.81,2.35-14.85-14.86,4.97-2.56,10.01-2.67,14.97,.04Z" style="fill:#b3a18f;"/><path d="M625.88,612.27c-.03,4.95-.06,9.9-.09,14.84-3.84,4.28-13.29-1.77-13.31,6.1-.04,2.7,.63,5.6-1.41,7.97-3.49,2.16-7.32,.75-10.96,.85-7.44-.52-2.92,10.26-4.2,14.91-7.91,3.52-20.74,2.05-29.51,.77-5.07-5.94,2.84-15.19-9.13-13.96-5.71,.6-8.24-2.24-7.64-7.84,.91-11.14-6.35-4.46-12.36-8.52-2.25-4.91-.3-10.1-1.03-15.12,4.76-3.01,9.98-1.25,15.01-1.46,24.97-.54,49.65,1.89,74.63,1.46Z" style="fill:#db280f;"/><path d="M592.01,582.51c6.98,4.86,.25,17.65,4.03,25.13,1.84,3.33-12.74,1.05-14.97,1.68-.46-.37-.8-.82-1.03-1.37-1.46-9-1.47-8.87-11.1-9.06-5.73-.4-12.57,1.63-17.72-1.51,.01-5,.02-10.01,.03-15.01,4.71-2.83,9.85-1.21,14.81-1.41,4.99-.25,9.98-.26,14.97,0,3.72,.1,7.62-1.14,10.98,1.55Z" style="fill:#fee4d1;"/><path d="M565.99,551.68c.05-8.26,.25-16.53,.08-24.79-.07-3.33,1.11-4.15,4.28-4.18,10.71-.08,10.67-.2,10.72,10.6,.05,11.4,.17,22.8,.26,34.2-4.22,2.73-10,1.72-14.75,.8-3.45-4.27-2.49-11.56-.59-16.63Z" style="fill:#b2a18f;"/><path d="M640.59,509.85c.07-.64,.14-1.27,.21-1.91,4.5-2.84,9.3-1.67,14.05-1.03,3.01,1.5,2.19,5.56,2.35,8.29-1.53,10.73,9.97,2.61,14.26,8.2,.85,4.91,1.85,9.82-.79,14.53-37.64-.97-28.94,8-30.08-28.08Z" style="fill:#6b5795;"/><path d="M521.54,507.81c-.06,4.96-.13,9.93-.19,14.89-4.51,2.84-9.3,1.67-14.06,1.03-2.41-1.05-2.3-4.12-2.34-6.33,1.48-14.28-8.19-3.77-14.31-10.22-.79-5-1.94-10.01,.98-14.76,8.3-2.65,17.45-.89,26.08-1.03,2.99,.26,5,1.34,4.32,5.07-.68,3.73,.29,7.59-.48,11.35Z" style="fill:#6b5795;"/><path d="M521.54,507.81c-1.21-4.2,2.82-15.47-3.78-14.93-8.71,.16-17.43,.08-26.15,.09-4.66,2.86-9.76,1.29-14.69,1.46-5.67-.26-12.03,1.41-17.24-1.5,.06-3.71,1.24-4.55,5.46-4.33,9.32,.48,18.66,1.77,28.09,.38,9.57-1.08,19.51,1.08,29.11-.62,3.25-.64,3.89,.81,3,3.58,.37,1.84-2.12,2.26-1.99,3.98-2.7,3.63,.68,8.36-1.81,11.89Z" style="fill:#fde7d2;"/><path d="M581.06,608.33v1c-6.88,4.35-23.04-1.31-29.85,2.82-4.99,.05-9.98,.09-14.97,.14l.1,.07c-2.46-4.35-2.65-8.67,.12-12.97,3.71-4.24,9.88-1.5,14.76-1.99,.92,1.02,1.55,2.25,1.47,3.59-.98,11.68,22.23,1.75,28.37,7.34Z" style="fill:#fee5d0;"/><path d="M521.4,525.76c.9,.35,1.79,.7,3.93,1.54-3.96-3.93-2.48-4.5,.95-4.57,10.53-.23,10.53-.31,10.01,9.65-.47,11.16-8.18,4.89-14.9,5.33-2.36-3.96-2.52-7.98,.01-11.95Z" style="fill:#fde2d1;"/><path d="M565.99,551.68c-.01,5.23-.01,10.46-.02,15.69-4.86,2.91-9.77,2.57-14.72,.27-1.46-22.58,2.25-12.22,14.74-15.96Z" style="fill:#fee5d1;"/><path d="M537.27,627.4c16.48-1.6,14.44-.28,14.06,14.72-5.28,2.79-12.36,2.37-16.03-.95,2.12-4.38-.21-9.4,1.97-13.77Z" style="fill:#fee5d0;"/><path d="M551.25,567.64c4.91-.09,9.82-.18,14.72-.27,2.77,4.68,2.55,10.09,.27,14.98l-15,.03c.01-4.91,.01-9.83,.01-14.74Z" style="fill:#b2a28f;"/><path d="M592.01,582.51c-3.68-.04-7.37-.09-11.05-.13-2.38-4.91-2.31-9.84-.06-14.77,1.93-.24,3.94-.12,5.88-.03,2.89,.25,6.98-1.48,8.43,.91,2.08,3.44,.77,8.01,.65,12.09-.07,2.45-2.36,1.68-3.85,1.93Z" style="fill:#edc4a8;"/><path d="M521.4,525.76c-.01,3.98-.02,7.96-.04,11.94l-15-.03c-2.33-4.95-2.62-9.88,.22-14.75,4.92-.07,9.84-.14,14.75-.21,.04,1.01,.06,2.03,.07,3.05Z" style="fill:#fafeef;"/><path d="M536.47,599.39c-.04,4.32-.08,8.65-.12,12.97-10.97,.06-18.6,.77-14.96-12.91,.14-.8,.08-1.91,1.06-1.91,3.59,.54,12.67-2.13,14.02,1.85Z" style="fill:#db280f;"/><path d="M640.63,612.26c-4.95,.03-9.89,.06-14.84,.09,.14-14.31-3.71-16.06,12.87-14.96,4.15-.38,1.24,11.83,1.97,14.87Z" style="fill:#db2811;"/><path d="M551.22,612.15c-.15-3.08,2.02-2.83,4.04-2.82,8.6,.01,17.21,.01,25.81,.01,.44,2.15-1.6,2.33-2.95,2.81-8.97,0-17.94,0-26.9,0Z" style="fill:#fee3c9;"/><path d="M654.73,537.87c5.26-.07,10.53-.14,15.79-.21,3.03-1.91,6.04-2.32,9.04,.07,.2,2.92-1.72,2.98-3.85,2.97-9.56-.73-19.16,1.42-28.42-.93h22.03c-4.76-1.97-9.88,.11-14.59-1.9Z" style="fill:#fee5d1;"/><path d="M578.12,612.15c.98-.61,1.97-1.21,2.95-1.82,2.22,.68,15.98-1.77,13.95,1.82h-16.9Z" style="fill:#fee4d1;"/><path d="M656.37,576.64c1.55-1.34,3.08-1.43,4.96-.31-1.77,1.81-3.39,1.07-4.96,.31Z" style="fill:#fee5d1;"/><path d="M641.8,448.29c14.87-.03,29.74-.05,44.61-.08-.06,4.75,.66,10.92-1.68,13.87-2.49,3.15-8.93,.87-13.64,.96-8.73,.17-17.47-.07-26.2,.1-3.06,.06-4.5-.55-4.2-3.99,.33-3.59,1.1-7.24,1.11-10.86Z" style="fill:#74443c;"/><path d="M522.33,448.29c-.3,4.85,1.18,11.32-2.04,14.09-2.8,2.4-9.09,.75-13.84,.88-4.35,.2-8.58,.45-12.93,0-3.92-1.03-17.66,2.43-16.98-3.2-.6-11.9,.32-11.91,12.12-11.89,11.23,.02,22.45,.08,33.67,.12Z" style="fill:#75443c;"/><path d="M685.6,507.85c-.03,4.95-.06,9.91-.1,14.86-4.88,2.67-9.8,2.48-14.76,.21-4.32-3.75,1.78-13.28-5.88-13.5-3.03-.12-6.27,.76-9.01-1.39-2.8-4.73-2.73-10.19-.11-15.07,9.95,.04,19.9,.07,29.85,.11,2.44,4.93,2.41,9.86,.01,14.78Z" style="fill:#6b5795;"/><path d="M655.74,492.97c-.07,4.92-.14,9.83-.21,14.75-4.91,.08-9.82,.15-14.74,.23-1.41-15.53-.81-16.62,14.95-14.98Z" style="fill:#fafeef;"/><path d="M700.4,493.06c.03,4.95,.06,9.9,.09,14.84-4.97-.02-9.93-.03-14.89-.05v-14.78c4.93,0,9.87-.01,14.8-.01Z" style="fill:#000202;"/><path d="M458.4,489.88c-.06,2.09-2.65,1.6-2.53-.23-.25-2.01,2.53-1.4,2.53,.23Z" style="fill:#fde7d2;"/><path d="M495.54,463.26h7.9c-2.64,1.3-5.27,1.3-7.9,0Z" style="fill:#fde2cf;"/><path d="M631.69,435.6c-.14,.23-.44,.91-.55,.88-.56-.15-1.06-.48-1.59-.75,.23-.35,.38-.85,.7-1.03,.69-.37,1.19-.02,1.44,.9Z" style="fill:#fde3cf;"/><path d="M629.82,423.3c.33-.99,.66-1.99,.99-2.98,1.54,1.61,.67,2.43-.99,2.98Z" style="fill:#fde3cf;"/><path d="M610.84,701.81c1.05-4.06-2.68-15.05,3.4-14.95,3.71-.12,8.41,1.77,10.88-.95,2.21-2.42,.7-6.96,.65-10.54-.04-3.12,1.59-3.42,4.04-3.4,8.57,.05,17.14-.01,25.71-.03v29.85c-8.29,.02-16.58,.2-24.86-.01-3.57-.09-4.95,.8-4.92,4.67,.07,10.81-.11,10.69-10.93,10.39-7.06,.03-2.76-10.49-3.97-15.03Z" style="fill:#f4ad76;"/><path d="M625.86,746.68c-4.98-.03-9.96-.05-14.94-.08-.82-21.66,.07-13.48,25.28-14.85,3.35,.09,4.64-.82,4.64-4.42-1.1-12.84,4.26-10.27,14.66-10.58,.01,9.98,.01,19.95,.02,29.93-9.88,0-19.77,0-29.66,0Z" style="fill:#f4ad76;"/><path d="M536.3,701.83c14.92,.05,29.84,.1,44.76,.16-1.21,4.91,3.48,15.24-4.56,14.88-11.93-.24-23.86-.22-35.79-.02-7.85,.3-3.18-10.2-4.41-15.02Z" style="fill:#f4ad76;"/><path d="M506.59,522.92c-.07,4.92-.15,9.84-.22,14.75-8.71,1.23-17.45-.39-26.2,.1-2.87,.11-3.67-.91-3.62-3.69,.15-8.77,.05-17.54,.05-26.31,26.49-7.8,10.08,13.45,20.67,13.45,3.11,.12,6.71-.84,9.32,1.7Z" style="fill:#6b5795;"/><path d="M523.36,821.23c-3.36-1.94-7.16-.38-10.6-1.63,3.43,1.39,7.65-3.62,10.6,1.63h0Z" style="fill:#fee4ce;"/><path d="M560.34,756.2c-.09-2.23-.54-3.49,.4-4.71,.6,1.44,.71,2.77-.4,4.71Z" style="fill:#fee4ce;"/><path d="M461.52,493.93c4.87-2.24,10-.43,14.98-.95,2.72,4.95,2.67,9.91,.02,14.88l.07-.1c-4.99,.05-9.97,.09-14.96,.14-.03-4.66-.07-9.31-.11-13.97Z" style="fill:#010207;"/><path d="M493.57,537.87h9.85c-3.28,1.33-6.57,1.33-9.85,0Z" style="fill:#fee5d1;"/><path d="M477.61,254.35c0-23.18,.09-46.36-.09-69.54-.03-4.09,1.09-5.43,5.27-5.34,9.73,.22,9.74,.01,9.74,9.72v133.11c0,6.48-.01,6.53-6.42,6.47-9.75-.09-8.46,1.22-8.48-8.37-.06-22.01-.02-44.03-.02-66.05Z" style="fill:#fcfcfe;"/><path d="M686.53,246.69c0,20.53-.11,41.05,.09,61.58,.04,4.17-.8,5.86-5.41,5.71-9.59-.31-9.6-.05-9.6-9.88,0-39.4,.08-78.79-.1-118.19-.02-4.78,.82-6.78,6.18-6.47,10.27,.59,8.78-1.27,8.83,9.14,.06,19.37,.01,38.74,.01,58.11Z" style="fill:#fcfcfe;"/><path d="M552.21,209.41c.01-14.92,.01-29.84,.02-44.76,3.32,0,6.65,.23,9.94-.07,3.96-.36,5.08,1.1,5.06,5.03-.16,25.53-.08,51.07-.08,76.6,0,3.65,.01,7.3,.01,10.94-.01,16.87-.24,33.74,.12,50.6,.11,5.26-1.6,6.88-6.44,6.11-2.86-.46-5.95,.99-8.63-1,0-34.47,0-68.96,0-103.45Z" style="fill:#fcfcfe;"/><path d="M597,252.19c-.36,2.35-2.19,1.97-3.76,1.98-3.72,.02-7.45,0-11.17,0,0-18.24,.11-36.48-.09-54.71-.04-3.96,1.14-5.11,5.07-5.05,9.94,.15,9.94-.03,9.94,10.04,0,15.91,.01,31.82,.01,47.74Z" style="fill:#fcfcfe;"/><path d="M701.28,432.29c0,5.3-.01,10.6-.01,15.9-3.07-8.04-3.29-16.34-1.9-24.78v16.38c2.04-2.73,.05-5.55,1.91-7.5Z" style="fill:#fee5d1;"/><path d="M1014.82,880.89c0-4.97-.01-9.94-.01-14.91,4.98,.02,9.96,.04,14.94,.07,0,4.96,.01,9.92,.01,14.88-4.98-.02-9.96-.03-14.94-.04Z" style="fill:#f8dfdc;"/><path d="M662.67,642c2.44-1.66,5.19-.48,7.77-.84-2.39,2.1-5.18,.59-7.77,.84Z" style="fill:#fee2cc;"/><path d="M1059.54,746.66c-3.81-.02-7.63-.14-11.44-.02-2.62,.08-3.54-1.03-3.45-3.55,.13-3.81,.07-7.62,.09-11.44,3.65,.01,7.3,.18,10.94-.01,3.1-.16,4.11,1.12,3.96,4.08-.2,3.65-.09,7.3-.1,10.94Z" style="fill:#f8dfdc;"/><path d="M282.51,716.68c.03,5.01,.05,10.03,.08,15.04-4.93,2.5-9.88,2.42-14.84,.09-.02-5.03-.04-10.05-.07-15.08,4.95-.01,9.89-.03,14.83-.05Z" style="fill:#fbc5bc;"/><g><path d="M402,1015.22c-4.31-2.99-10.24-1.15-15.15-1.49-7.58-.37-15.17-.16-22.76-.12-3.74,.02-5.21-1.35-5.29-5.21-.2-9.35,.65-9.35-8.39-9.76-.33-.02-.66-.04-.99-.03-3.11,.15-4.42-1.33-4.48-4.44-.06-3.07,.6-6.33-1.57-9.05-2.16-1.61-4.71-1.3-7.16-1.4-5.84-.22-5.95-.32-6.18-6.32-.03-.66-.01-1.32-.06-1.98-.36-5.16-2.49-6.38-7.65-6.56-5.95-.21-11.9-.15-17.85-.04-8.85,.61-2.85-9.36-6.88-13.74-6.11-2.6-12.53-.5-18.84-1.22-18.52,2.41-1.56-14.16-15.94-14.86-12.8,2.03-7.21-10.71-8.38-18.61q.02-7.61,7.57-8.02c8.6,1.27,8.56-9.71,6.49-15.37-3.46-7.13-15.22,2.6-14.07-9.08,1.06-16.55-15.85-1.27-14.92-14.99-.05-3.27-.12-8-4.35-8.26-7.88-1.26-15.75-.67-13.75,9.49,.17,4.31-1.99,5.33-5.79,5.21-5.32-.16-5.77-.46-6.04-5.4,.64-6.43-1.22-10.49-8.48-9.61-5.43-.06-9.87-.1-15.3,0-3.56,.07-5.08-1.36-5.02-4.95,.05-2.91,.53-5.97-1.36-8.6-4.83-2.22-9.75-1.61-14.69-.51-.56,.32-.99,.76-1.29,1.33-1.4,4.77-.62,9.64-.66,14.47-.29,5.07,.07,10.16-.44,15.22,0,1.82,.21,3.63,.24,5.45,.12,6.96-.23,7.38-7.07,7.42-9.76,.05-19.51-.04-29.27,.05-2.59,.02-5.37-.37-7.41,1.9-1.28,2.29-1.09,4.81-1.09,7.28-.02,44.73-.02,89.46,0,134.2,0,2.47-.19,4.99,1.14,7.28,1.96,2.08,4.55,1.71,6.99,1.8,6.69,.24,6.69,.22,6.91,7.1,.21,6.59,1.14,7.57,7.44,7.82q7.22,.3,7.49,7.47c.03,.83,.08,1.65,.14,2.48,.22,2.92,1.75,4.53,4.68,4.81,1.32,.13,2.65,.14,3.97,.19,5.72,.19,5.91,.37,6.11,5.86,.32,8.5,.53,8.7,9.21,9.07,5.23,.22,4.42,.49,4.73,5.79-1.12,15.39,10.73,4.91,14.63,10.58,.67,3.77,.13,7.6,.41,11.4-2.61,21.93,5.65,16.33,22.42,17.03q6.98,.06,7.28,7.23c-1.25,13.87,15.12,1.8,14.94,12.91-.09,2.75-.46,5.67,1.63,8.04h149.23c4.76-31.51,.26-65.52,1.72-97.83,0-2.3,.1-4.68-1.66-6.55-.02-6.09-.05-12.18-.06-18.27-.01-11.11-.01-11.22,11.08-11.57,6.98-.12,2.69-10.52,3.84-15.04Z" style="fill:#fbc5bb;"/><path d="M970.7,1003.2c.08-10.91,.25-21.82-.13-32.72-.13-5.13,1.36-10.4-1.36-15.3-28.19-7.7-8.49,14.87-22.4,13.64-5.37,.01-5.91-.55-5.98-6.51-.09-7.43,.1-14.86-.1-22.28-.45-9.65,2.11-20.6-1.37-29.62-2.68-1.81-5.74-1.36-8.68-1.32-12.91-1.28-6.71,15.75-8.14,23.7-.1,5.56-.49,5.96-5.93,6.07-7.26,1.44-24.37-4.49-23.82,6.98-.21,5.13-.04,10.26-.08,15.39-.05,7.26-.22,7.48-7.56,7.49-25.8,.32-51.68-.56-77.43,.34-6.14,.74-5.52,12.04-2.88,16.2,0,19.96,1,39.92,1,59.88-1.88,2.03-1.67,4.6-1.67,7.05-.04,35.07-.04,70.14,0,105.21,0,2.47-.14,5.01,1.73,7.04h134.3c1.61-1.72,1.68-3.89,1.68-6.04,.02-6.93,.14-13.85-.06-20.78,0-7.57,.12-15.15,.08-22.72-.05-9.11,.34-8.31,7.92-8.56,5.42-.17,6.79-1.51,6.9-6.83,.16-7.57,.32-15.15-.11-22.72,.19-4.3,.23-8.59,.22-12.9-.02-8.93,.06-17.87-.03-26.8-.04-3.8,1.46-5.53,5.27-5.25,.82,.06,1.65,0,2.48-.06,5.78-.36,6.79-1.41,6.92-7.26,.17-7.1-1.25-14.21-.77-21.32Z" style="fill:#fbc5bb;"/><path d="M63.79,895.88c-2.96,.15-4.07-.88-4.07-3.95,.08-32.22,.08-64.44,0-96.66-.01-3.1,1.16-4.06,4.09-3.92,3.63,.17,7.27,.04,10.9,.04,.22-.23,.44-.46,.66-.69,1.21-4.98,1.97-9.94-.74-14.72-9.73-2.13-19.5-1.54-29.26-.33-.56,.31-1,.74-1.31,1.3-.93,2.03-.8,4.19-.81,6.33-.04,5.11,.03,10.22-.03,15.32-.07,5.74-.37,6.02-6.28,6.07-2.47,.02-4.94-.03-7.4,.12-5.02,.17-10.22-1.45-14.97,1.49-.46,.69-.86,1.43-.92,2.25-.63,8.18-.46,16.36-.11,24.55,.05,1.18,.63,2.19,1.36,3.1,.08,14.89,.15,29.79,.23,44.68,3.79,.02,7.58,.15,11.37,0,2.46-.1,3.55,.53,3.49,3.25-.2,8.89-.17,17.79-.23,26.68l.34-.09c2.02,1.97,4.6,1.55,7.05,1.63,5.87,.2,5.95,.27,6.12,6.31,.07,2.46-.24,5.02,1.55,7.11-.04,8.26-.08,16.52-.12,24.78-.36,3.87,.98,5.82,5.24,5.03,1.76-.33,3.65,.13,5.44-.09,3.36-.41,4.64,.64,4.49,4.27-.29,7.27-1,14.55-1.12,21.83-.86,8.06,11.87,.35,14.22,4.69,2.06,3.3,.51,9.6,.57,14.01,.16,4.75-.48,11.04,1.94,13.85,2.78,3.23,9.28,.63,14.13,1.13,.02-39.8,.05-79.6,.07-119.41-4.99-.01-9.99-.02-14.98-.03-3.64,.02-7.28-.11-10.91,.07Z" style="fill:#fbc5bb;"/><path d="M208.06,851.14c-.03,4.96-.06,9.92-.08,14.88l15-.06c-.07-4.97-.15-9.95-.22-14.92-4.91,.04-9.8,.07-14.7,.1Z" style="fill:#fbc5bb;"/><path d="M1078.6,746.7c-3.35-.05-4.27-1.23-4.14-4.37,.2-4.95,.06-9.91,.06-14.86,0-10.44,0-10.59-10.57-10.61-3.58-.01-4.48-1.27-4.41-4.62,.17-8.42,.03-16.85,.01-25.27-3.81-.02-7.62-.14-11.43-.01-2.58,.08-3.56-.92-3.48-3.49,.12-3.81,.01-7.62-.01-11.43-3.81-.01-7.62-.13-11.43,0-2.57,.08-3.57-.9-3.49-3.48,.12-3.81,0-7.62-.02-11.43-26.03-.02-53.06-.03-79.09-.04-20.25-2.1-4.71,14.51-15.34,14.98-5.46-.19-10.94-.06-16.41-.06-18.74-2.32-1.7,15.77-14.82,14.99-3.1-.38-6.29-.1-9.44-.11-.03,9.95-.06,19.9-.1,29.85,4.59,2.79,9.43,1.74,14.26,.88,5.73-4.66-2.93-15.71,8.6-14.25,13.6,1.28,4.92-8.4,9.89-13.92,5.4-3.02,13.27-.02,19.48-.88,16.96,1.58,1.74-16.2,15.41-14.89,13.54-.06,28.08-.01,41.63-.02,9.85-.01,9.45,.1,9.53,8.58,.05,4.8,1.45,5.9,6.4,6.27,1.15,.09,2.32,.15,3.47,.09,3.62-.2,5.02,1.54,4.95,5.08-.05,2.76-.41,5.66,1.33,8.16,2.22,1.95,4.96,1.51,7.56,1.6,5.81,.21,6.01,.37,6.06,6.31,.02,2.47-.04,4.95,.11,7.41,.03,4.89-1.09,9.86,1.07,14.6,2.74,2.19,6.01,1.49,9.08,1.5,3.38,.01,4.79,1.41,4.68,4.77-.1,2.97-.11,5.94,.1,8.91-.29,4.92-.24,9.85-.01,14.78,.09,5.02-1.25,10.16,1.23,14.98,1.68,1.33,3.68,1.35,5.66,1.38,9.18,.14,11.62-.02,11.21-10.07-.15-3.7,1.73-4.89,5.17-4.84,2.75,.04,5.68,.49,8.01-1.67,.02-1.16,.07-2.31,.07-3.47,.05-11.05,.05-11.18-10.84-11.33Z" style="fill:#fbc5bb;"/><path d="M894.5,716.75s0-.01,0,0c-.02-.02-.04-.03-.06-.05l.06,.05Z" style="fill:#fbc5bb;"/><path d="M179.19,806.3s-.02-.02-.02-.03h-.01s.03,.03,.03,.03Z" style="fill:#fbc5bb;"/><path d="M164.24,686.92h-.02l.02,.02v-.02Z" style="fill:#fbc5bb;"/><path d="M218.43,686.91c2.47,0,4.58-.11,4.56,3.47-1.68,11.1,.29,12.95,11.34,11.41,6.4-.08,2.48,10.73,3.56,14.94,9.94,.01,19.89,.03,29.83,.04-1.25-4.86,3.38-15.29-4.47-15.01-10.29-.01-10.41-.16-10.41-10.26,0-3.29-.74-4.66-4.39-4.66-19.33,2.01-3.74-14.39-14.8-14.89-9.61,.17-19.22,.06-28.83,.06-11.26,0-10.34,0-10.69-11.07-.08-2.61-.62-3.96-3.59-3.9-7.62,.15-15.24,.12-22.86,.01-2.58-.04-3.55,.93-3.47,3.49,.12,3.81,.01,7.62-.01,11.43,.02,4.98,.03,9.96,.05,14.94,18.39,.01,35.78,.03,54.18,0Z" style="fill:#fbc5bb;"/><path d="M164.22,686.92v.02h.02l-.02-.02Z" style="fill:#fbc5bb;"/><path d="M149.32,698.64c-.17,2.3,.95,3.64,3.18,3.14,3.86-.86,8.49,2.39,11.61-2.07,.39-.56,.11-1.61,.11-2.43,0-3.45,0-6.9-.01-10.34-1.47,0-2.95-.01-4.42-.01q-11.12,0-10.49,11.22c.02,.16,.03,.33,.02,.49Z" style="fill:#fbc5bb;"/><path d="M179.13,746.64c.01,3.77,.09,7.54,0,11.3-.05,2.36,.58,3.53,3.29,3.68,3.8,.2,8.97-2.03,11.04,1.3,1.79,2.88,.53,7.66,.61,11.6,.01,.64-.01,1.28-.02,1.92l-29.82,.03c-.45,4.96,.99,10.05-.98,14.91,.32,.01,.64,.01,.96,.02,2.67,2.25,5.9,1.53,8.93,1.58,3.08,.05,4.38,1.34,4.43,4.42,.05,3.02-.69,6.25,1.59,8.88,9.93,.02,18.87,.04,28.81,.06-1.42,15.76-.63,16.14,14.94,14.91,.05,4.99,.09,9.99,.14,14.98,15.46,1.35,16.61,.38,14.65-15.04-4.91,0-9.83,.01-14.74,.01,1.42-15.84,.66-16.11-14.95-14.92-.98-4.13,2.7-14.87-3.27-14.97-3.8-.21-7.98,2.01-10.05-1.3-1.79-2.88-.53-7.66-.61-11.6-.01-.64,.01-1.28,.02-1.92,6.23-.01,11.48-.02,17.71-.03,11.36-.37,10.96,1.02,11.11,11.56-.48,6.2,10.93,2.32,14.87,3.37,.02-9.95,.04-19.91,.06-29.86-6.27,0-12.53,.01-18.8,.01-10.74,0-10.86,0-10.98-10.69-.04-3.17-.93-4.36-4.22-4.29-8.56,.18-16.12,.05-24.68,.04-.01-3.6-.19-7.21,.03-10.8,.21-3.35-1.22-4.18-4.33-4.15-13.48,.15-26.96,.11-40.45,.13,0,4.93,0,9.85,.01,14.78,14.91,.02,29.8,.05,44.7,.08Z" style="fill:#fbc5bb;"/></g><path d="M566.18,671.99c.01-5.02,.02-10.03,.03-15.05,9.9,0,19.8,.01,29.7,.01,1.92,5.18,2.99,9.96,.04,15.05-9.92-.01-19.84-.01-29.77-.01Z" style="fill:#ecc2a1;"/><path d="M626.83,630.22c1.33-3.17,6.02-4.89,10.58-3.88,4.02,.89,3.79,3.73,3.43,6.93-.34,3.11,.89,6.94-.54,9.21-1.32,2.1-5.44,.18-8.26,.81-2.08,.46-4.15,.93-6.19,1.54-.86,.26-1.65,1.56-2.55,.52-.92-1.07,.16-2.15,.54-3.19,.16-2.45-.31-12.33,2.99-11.94Z" style="fill:#fee2cc;"/><path d="M626.83,630.22c-2.63,3.64,.63,8.57-2.98,11.94-4.25-.37-8.64,.99-12.77-.97-1.61-16.5-.29-14.43,14.71-14.07,.35,1.03,.69,2.07,1.04,3.1Z" style="fill:#fbe7ce;"/><path d="M595.95,671.99c.04-4.64,.08-9.28,.12-13.93,4.73-.75,18.11-3.82,14.95,5.17-1.08,2.55,2.13,6.46-2.62,7.87-4.12,2.05-8.5-.4-12.45,.89Z" style="fill:#fde4c9;"/><path d="M631.99,614.52h6.22c-2.34,1.36-4.24,.42-6.22,0Z" style="fill:#fee2cc;"/><path d="M607.95,498.71c1.57-.26,.62,1.68,.39,2.43-1.13-.49-1.62-1.71-.39-2.43Z" style="fill:#fee2cc;"/><path d="M670.75,522.92c4.92-.07,9.84-.14,14.76-.21,.2,16.79,2.09,15.45-14.98,14.95,.07-4.91,.14-9.82,.22-14.74Z" style="fill:#fafef0;"/><path d="M581.06,608.33c-8.02,0-16.06-.22-24.07,.09-7.79,1.12-5.47-5.9-5.77-11.03,7.44,0,14.88-.01,22.32,0,9.25-1.07,7.32,3.82,7.52,10.94Z" style="fill:#fee3c9;"/><path d="M580.89,567.61c.02,4.92,.04,9.85,.06,14.77-4.9-.01-9.8-.02-14.71-.03,.02-4.88,.03-9.77,.05-14.65,4.87-.03,9.74-.06,14.6-.09Z" style="fill:#584f4a;"/><path d="M655.86,508.03c17.3-.28,14.83-2.69,14.57,14.57-17.32,.23-14.82,2.73-14.57-14.57Z" style="fill:#0b1e0b;"/><path d="M506.27,522.6c-17.29,.29-14.84,2.67-14.57-14.57,17.3-.28,14.85-2.67,14.57,14.57Z" style="fill:#0c1c0f;"/><path d="M540.44,599.16c-.1,2.35-.21,4.71-.31,7.06-1.01-2.44-1.03-4.84,.31-7.06Z" style="fill:#fee2cc;"/><g><path d="M164.33,821.16l-.17,.12c-2.41,4.94-2.45,9.88,.04,14.81,.01,4.97,.02,9.95,.03,14.92,4.96,.04,9.91,.08,14.87,.11,.02-4.99,.05-9.98,.07-14.97,2.63-5.02,2.32-10.09,.24-15.18-5.06-2.07-10.09-2.34-15.08,.19Z" style="fill:#f8dfdb;"/><path d="M1104.26,821.19c1.17-1.24,1.25-2.55,.28-3.94,0-.33-.01-.66-.01-1-.11-8.29-.21-16.58-.32-24.87-4.9-2.58-9.82-2.38-14.75-.2-.03-9.89-.06-19.79-.08-29.68-4.14,.03-8.64-.98-12.33,.33-5.52,1.94-1.59,7.41-2.38,11.22-.5,2.43-1.1,3.52-3.64,3.44-3.81-.11-7.62-.03-11.43-.03-1.88-1.72-4.23-1.57-6.52-1.6-5.74-.07-11.49-.01-17.24-.04-3.09-.02-4.43-1.4-4.46-4.48-.02-2.77,.32-5.6-.8-8.27-.29-.54-.7-.97-1.24-1.27-4.73-1.21-9.46-1.28-14.18,.08-.51,.33-.89,.75-1.16,1.29-1.09,2.86-.62,5.85-.73,8.78-.09,2.62-1.24,3.89-3.9,3.94-3.28,.06-6.56-.07-9.83,.1-4.77,.03-10.59-.85-15.27,.83-2.34,1.76-1.72,5.13-1.9,7.69,1.75,12.18-14.93,.64-14.85,12.24-.16,5.73,.07,11.45-.02,17.18,1.34,10.38-7.04,4.84-13.14,7.67-5,7.77,1.43,17.5-.28,26.23-.59,7.55,10.24,3.08,14.87,4.27,2.43-2.15,1.57-5.88,1.66-8.7,.1-10.42,16.77,1.77,14.93-12.29,.19-7.17,1.18-7.17,8.1-7.33,1.98-.05,3.99,.07,5.85-.81,.02-.01,.03-.03,.05-.04-2.24,4.55-1.55,9.24-.27,13.95,2.57,2.59,5.89,1.72,8.92,1.78,3.48,.08,5.16,1.41,5.11,5.02-.04,2.6-.4,5.3,.91,7.77,.2,.2,.4,.39,.6,.59,3.79,0,7.57-.06,11.36,.04,2.41,.07,3.46-.68,3.64-3.33,.77-11.32,.86-11.31-10.65-11.61-.16,0-.33-.02-.49,0-3.12,.39-4.02-1.17-3.88-4.05,.17-3.61,.05-7.24,.06-10.86,3.81-.01,7.63-.11,11.44,.01,2.57,.08,3.58-.93,3.5-3.5-.12-3.81-.01-7.63,0-11.44,2.15-2.56,1.59-5.68,1.49-8.58-.15-4.25,2.22-4.88,5.66-4.82,3.37,.05,6.37,.01,6.21,4.78-.1,2.89-.68,6.02,1.52,8.56h29.85c0-3.81,.09-7.62-.03-11.43-.08-2.59,1-3.55,3.53-3.47,3.72,.11,7.45,.03,11.17,.03-2.53,4.8-1.11,9.93-1.25,14.94,.22,4.98-1.45,10.13,1.45,14.85-.17-.19-.35-.38-.52-.56-2.44-1.36-5.13-1.03-7.74-1.01-6.88,.07-8.1,1.25-8.25,8.01-.13,5.76-.02,11.52-.06,17.28-.02,3.06-1.31,4.48-4.44,4.52-2.92,.04-5.97-.46-8.67,1.25-.04,.05-.08,.1-.12,.15,0-6.52,.09-13.04-.03-19.55-.22-11.64,2.25-9.76-10.25-10.08-3.86-.1-4.77,1.69-4.7,5.13,.16,8.25,.08,16.51,.09,24.77h14.68c-2.07,2.76-1.23,6.05-1.37,9.12-.13,2.89-1.32,4.17-4.23,4.22-2.95,.05-5.99-.41-8.82,.89-.49,.31-.88,.73-1.14,1.25-1.01,2.53-.78,5.19-.71,7.79,.11,3.53-1.32,5.06-4.92,5.04-3.03-.01-6.31-.73-8.91,1.7-1.71,2.87-1.05,6.07-1.19,9.13-.12,2.62-1.27,3.89-3.91,3.93-1.97,.03-3.94-.04-5.9,.07-6.02,.35-12.12-.91-18.06,.9h-.01c2.28-4.83,2.01-9.7-.21-14.58-.54-.38-1.12-.79-1.77-.86-8.54-.87-18.1-.66-26.65-.14-1,.06-1.84,.69-2.62,1.32-4.95,.03-9.9,.06-14.84,.08-.04,4.93-.07,9.86-.11,14.79-15.98-1.24-16.05-.77-14.89,14.92,.04,10,.09,20,.13,30,5.98,4.29,14.35-2.75,13.28,8.5,.08,2.24-.32,4.63,1.63,6.42,4.96-.01,9.92-.02,14.88-.04,1.28,1.21,2.88,1.59,4.56,1.63,6.93,.16,14.87,.15,21.8,.01,1.69-.03,3.27-.46,4.61-1.55l-.11-.03c2.22-2.69,1.52-5.92,1.56-8.96,.04-3.08,1.33-4.47,4.43-4.42,3.1,.05,6.21,.1,9.31-.1,4.91-.14,9.99,1.34,14.66-1.41l-.11-.03c2.67-4.91,2.14-9.91,.47-14.96-2.71-2.3-6-1.63-9.06-1.6-4.25,.05-4.82-2.39-4.76-5.78,.06-3.25,.29-5.98,4.64-5.94,5.63,.05,11.26,.06,16.89-.03,2.45-.04,5.02,.25,7.06-1.64,1.34-1.87,1.21-4.05,1.29-6.19,.25-6.98,.25-7,7.41-7.04,4.95-.03,9.89,.02,14.84-.02,2.15-.02,4.31-.06,6.1-1.54l-.11-.03c1.55-1.75,1.58-3.92,1.6-6.07,.05-5.28-.03-10.56,.04-15.83,.07-5.89,.35-6.13,6.09-6.37,2.44-.1,5.01,.29,7-1.68l.36,.09c-.04-14.92-.09-29.84-.13-44.75h0c4.94-.03,9.86-.06,14.78-.09Z" style="fill:#f8dfdb;"/><path d="M33.07,910.76c-.99,0-1.99-.03-2.98-.04,.03,4.76-1.67,10.76,.59,13.94,2.22,3.12,8.6,.62,13.13,1.04,.33,.03,.66,.05,.99,.08,.02-.99,.04-1.98,.05-2.98q.05-11.99-11.78-12.04Z" style="fill:#f8dfdb;"/><path d="M74.69,746.61c-2.24,2.66-1.52,5.88-1.57,8.9-.05,3.07-1.32,4.39-4.41,4.44-3.03,.05-6.26-.67-8.93,1.56-4.69,.31-10.73-1.95-13.74,.88-3.29,3.09-.74,9.26-1.17,14.07H15.18c-.11,.66-.22,1.32-.33,1.98,.02,4.29,.03,8.57,.05,12.86l.36,.23c1.75,1.64,3.96,1.35,6.06,1.41,6.83,.21,6.82,.19,7.04,7.25,.07,2.12-.08,4.31,1.52,6.05,3.61,.02,7.23-.12,10.83,.11,3.28,.21,4.26-1.11,4.2-4.28-.16-8.53-.05-17.07-.05-25.61,9.94,0,19.88,0,29.82,.01,4.92-.46,9.96,.96,14.79-.96v-28.95c-4.94-2.46-9.87-2.47-14.78,.05Z" style="fill:#f8dfdb;"/><path d="M74.68,746.62h0l.02-.02-.02,.02Z" style="fill:#f8dfdb;"/><path d="M164.29,766.01c.24-3.47-1.02-4.58-4.51-4.54-13.39,.15-26.77,.03-40.16,.01-.08,4.98-.15,9.96-.23,14.95,14.96,0,29.92-.01,44.88-.01-.01-3.47-.22-6.96,.02-10.41Z" style="fill:#f8dfdb;"/><path d="M134.43,731.78c-4.95-.03-9.9-.07-14.84-.1,.01,5,.02,9.99,.03,14.99,4.94-.04,9.88-.07,14.82-.11,2.45-4.93,2.46-9.86-.01-14.78Z" style="fill:#f8dfdb;"/><path d="M267.69,716.74s.01,.01,.01,.02t.02,.01l-.03-.03Z" style="fill:#f8dfdb;"/><path d="M269.19,746.67c.26-5.02,.26-10.04,0-15.07-.2-4.98,1.46-10.14-1.49-14.84-7.61-3.71-17.4-.98-25.75-1.58-5.52-.18-6.23,5.97-5.67,10.06,.38,7.85-8.15,3.08-12.57,5.84,2.39-4.26-2.2-12.89,5.15-12.78,6.46,.63,11.67-.23,10.67-8.14,.11-8.76-.63-9.54-9.37-10.02-11.91,.72,1.43-16.3-14.09-14.88-15.39-.09-29.78-.05-45.17-.01-2.13,.01-4.34-.16-6.21,1.26-2.38,1.99-1.92,4.75-2.01,7.34-.2,6.11-.6,6.32-6.47,6.5-4.13,.12-5.52-1.52-5.4-5.52,.17-5.51,.45-6.04,5.1-6.34,3.03-.19,6.36,.75,8.77-2.07,1.66-4.87,2.22-9.71-.5-14.44-6.45,.01-12.9,.03-19.36,.03-10.24,0-10.36,0-10.38,10.37-.01,3.33-.83,4.88-4.44,4.61-3.45-.26-6.94-.05-10.42-.05,0,9.95,.01,19.9,.01,29.85,2.34,2.17,5.27,1.65,8.03,1.66,18.37,.05,36.73,.02,55.1,.03,8.77,0,8.81,0,9.73,8.87,.32,3.12,1.34,5.67,4.86,5.78,8.58,.26,16.17,.94,24.73-.44,.34-.18,.63-.39,.89-.62,.14,10.31-2.1,15.43,10.64,14.48,7.6-.26,3.06,10.26,4.25,15,9.95,.05,19.9,.06,29.84,.04,3.09-4.71,1.31-9.92,1.53-14.92Z" style="fill:#f8dfdb;"/><path d="M999.9,851.12v14.83l14.94,.06-.03-14.94c-4.98-2.53-9.95-2.62-14.91,.05Z" style="fill:#f8dfdb;"/><path d="M1014.81,851.06v.02s.02,.01,.03,.01l-.03-.03Z" style="fill:#f8dfdb;"/><path d="M924.27,701.86s.02-.01,.02-.02h0s-.02,.02-.02,.02Z" style="fill:#f8dfdb;"/><path d="M925.94,739.87c.07-6.14,.3-6.34,6.47-6.54,16.16,1.12,1.08-16.13,14.92-14.92,16.28,1.06,1.02-16.18,14.86-14.92,15.47,1.43,2.3-14.68,13.35-14.93,5.63,.08,12.26,.11,17.88-.01,3.73-.08,4.9,1.7,4.88,5.15-.01,2.91-.56,6.02,1.68,8.52,9.69,2.27,19.41,1.79,29.13,.27,.22-.23,.45-.46,.68-.68l-.08,.08c-2.54,4.63-1.85,9.41-.62,14.21,.22,.22,.43,.44,.64,.66,4.96,.02,9.92,.04,14.88,.06,.02-3.75-.06-7.5,.09-11.25,.11-2.7-.87-3.86-3.66-3.75-3.74,.14-7.5,.01-11.25-.01h0c-.01-3.3-.27-6.63,.02-9.91,.34-3.92-1.05-5.13-5-5.06-9.87,.16-10.09-.03-9.88-9.74,.09-4.3-1.46-5.22-5.43-5.17-14.54,.2-30.08,.08-44.62,.08-10.72-.19-10.55,.54-10.75,11.07,.68,6.98-10.7,2.73-14.97,3.91-2.13,2.51-1.57,5.57-1.51,8.43,.38,8.33-9.25,2.42-13.36,6.43-4.68,7.34,3.46,14.55-9.63,13.39-1.8,0-3.66,.02-5.06,1.5-1.08,14.14,.04,30.09-.31,44.82,4.97,.02,9.93,.05,14.9,.07,3.81-6.11,.8-14.76,1.75-21.76Z" style="fill:#f8dfdb;"/><path d="M1000.32,715.27c-4.92,.04-10.86-.72-15.72,.64-3.44,3.62-2.87,11.59-.61,15.8,13.33,0,27.65-.11,40.97,.06,3.55,.05,5.18-.81,4.84-4.65-.3-3.43-.07-6.9-.08-10.35-1.4-1.29-3.14-1.62-4.96-1.63-8.13-.04-16.29-.29-24.44,.13Z" style="fill:#f8dfdb;"/><path d="M1029.76,716.79l-.03-.03h0s.02,.02,.03,.03Z" style="fill:#f8dfdb;"/><path d="M954.19,772.25c-.17-8.55-.07-17.1-.07-25.64-.83-1.04-2.19-1.39-3.46-1.46-11.91-.62-13.88,.15-13.14,10.48,.25,7.77-9.65,1.78-13.33,6.01,.02,4.96,.04,9.91,.05,14.87,4.96,.01,9.92,.02,14.87,.03,4.73-1.28,15.38,3.26,15.08-4.29Z" style="fill:#f8dfdb;"/><path d="M954.15,746.63s-.01-.02-.02-.03h-.01l.03,.03Z" style="fill:#f8dfdb;"/><path d="M968.81,730.17c-3.59-.36-7.2-.29-10.79-.05-7.42-.14-6.68,11.77-3.88,16.47,8.53,0,17.06-.09,25.58,.07,7.6,.43,3.07-10.27,4.28-14.96-4.8-3.03-10.11-1.29-15.19-1.53Z" style="fill:#f8dfdb;"/></g><g><path d="M969.06,955.53c.03,4.98,.07,9.97,.1,14.95,8.71-.01,18.42-.12,27.13,.01,2.72,.04,3.82-.65,3.66-3.55-.21-3.76,.03-7.55,.08-11.33-9.99-.02-20.98-.05-30.97-.08Z" style="fill:#c7e2f5;"/><path d="M1014.78,955.36c1.67,.11,3.35,.22,5.02,.33q9.93-.53,9.95-10.58c0-1.48,.08-2.95,.12-4.43-5.01-.02-10.02-.04-15.03-.05-2.55,4.91-2.52,9.82-.06,14.73Z" style="fill:#c7e2f5;"/><path d="M59.61,710.84c-.53,5.28-.52,10.57,0,15.85v1.03c.63,2.82-.01,4.39-3.4,4.04-2.62-.27-5.3,.08-7.94-.1-2.49-.16-3.51,.54-3.49,3.27,.03,3.75,1.69,8.62-.75,10.96-2.41,2.3-7.25,.67-11.01,.68-2.34,.01-3.16,.71-3.15,3.11,.01,3.77,1.62,8.59-.66,11.02-2.33,2.48-7.23,.94-10.95,.72-3.19-.18-4.11,2-3.7,3.74,.88,3.8-.06,7.58,.62,11.31,1.08,1.18,2.52,1.53,4.01,1.57,7.21,.22,14.43,.23,21.64,0,1.51-.05,2.9-.52,4.04-1.57,2.15-2.51,1.62-5.57,1.56-8.45-.07-3.58,1.44-4.97,4.97-4.91,2.89,.05,5.92,.53,8.57-1.24,1.86-2.46,1.26-5.34,1.38-8.08,.22-5.16,.46-5.43,5.75-5.6,2.45-.08,4.94,.23,7.26-.86,.49-.3,.88-.7,1.15-1.22,1.04-2.52,.82-5.18,.71-7.77-.16-3.84,1.55-5.25,5.28-5.15,2.71,.07,5.63,.63,7.99-1.46,.03-9.97,.07-19.94,.1-29.9-6.77,.01-13.54,.02-20.31,.02q-9.2,0-9.67,8.99Z" style="fill:#c7e2f5;"/><path d="M14.89,791.31c-3.63,.03-7.26,.22-10.87,.02-2.88-.16-4.07,.53-4.02,3.74,.21,13.68,.15,27.36,.19,41.04,4.9,.03,9.8,.06,14.71,.09,.06-9.95,.11-19.91,.17-29.86,2.5-4.72,1.94-9.54,.52-14.4-.24-.22-.47-.43-.7-.63Z" style="fill:#c7e2f5;"/><path d="M1104.36,743.24q-.03-11.23-10.96-11.58c-.33-.01-.65-.09-.98-.13-3.18,.82-3-1.27-2.99-3.36,.03-7.57-.03-15.13,.03-22.7,.02-2.17,0-3.7-3-3.71-3.87-.02-9.28,1.92-11.23-.85-1.96-2.78-.62-7.89-.73-11.97-.02-.66-.07-1.31-.11-1.97-4.92-.04-9.83-.07-14.75-.11-.06-4.94-.12-9.88-.18-14.81-4.91-.04-9.83-.07-14.74-.11-.12-4.74,1.55-11.01-.84-13.8-2.76-3.23-9.25-.6-14.08-1.12-.02-3.31-.36-6.65,.02-9.92,.51-4.35-1.29-5.06-5.25-5.03-29.45,.17-59.9,.09-89.36,.09-10.82,0-10.97,0-10.85,10.57,.04,3.44-.83,4.5-4.36,4.44-12.07-.22-24.16,.05-36.23-.18-7.66-.6-3.02,10.19-4.24,14.87,2.39,2.52,5.54,1.74,8.39,1.71,12.41,.97-5.16,18.19,17.93,14.85,9.63-.12,.46-15.82,10.58-14.73,5.46,.1,10.93,.1,16.39-.02,15.58,1.08,.55-16.86,15.53-14.88,23.84-.03,48.69,.01,72.53-.03,2.79,0,5.66,.39,8.27-1.06,.18-.19,.36-.38,.54-.57-2.73,4.06-1.68,8.5-1.18,12.85,.2,1.78,1.48,3.05,3.26,3.25,4.34,.5,8.79,1.55,12.85-1.19-.2,.19-.4,.37-.59,.56-1.65,3.77-1.04,7.7-.73,11.58,.19,2.42,1.69,3.92,4.11,4.11,3.88,.31,7.81,.92,11.57-.74,.18-.19,.37-.38,.55-.57-.54,.63-1.1,1.31-1.18,2.13-.79,8.27-.62,16.55-.11,24.82,.15,2.45,1.77,3.81,4.19,4.21,1.81,.3,3.64,.38,5.45,.31,3.64-.14,5.02,1.62,4.95,5.13-.09,4.31-.05,8.62-.01,12.93,.08,8.31-1.2,12.41,10.65,11.86,2.88-.13,4.19,1.35,4.23,4.23,.04,2.98-.11,5.97,.21,8.94-.36,5.45-.22,10.92-.12,16.38,.08,4.26-.81,8.62,.96,12.75,.22,.23,.44,.46,.66,.69,4.92,0,9.84,.01,14.77,.01,.11-5.31,.22-10.61,.33-15.92-.04-10.73-.12-21.47-.15-32.21Z" style="fill:#c7e2f5;"/><path d="M1048.98,895.77c-3.62-.11-4.57,1.34-4.37,4.64,.22,3.44,.06,6.91,.06,10.36,.22,.22,.44,.44,.66,.65,4.82,1.25,9.61,1.9,14.27-.61,4.92-.01,9.83-.02,14.75-.02,.1-4.95,.19-9.91,.29-14.86-8.55-.03-17.11,.09-25.66-.16Z" style="fill:#c7e2f5;"/><path d="M214.36,819.73c-9.16,.63-1.23-11.66-7.47-14.5-8.54-1.17-16.1-.54-24.66-.36-1.15,.02-2.24,.45-3.04,1.38-.33-4.69,1.94-10.69-.9-13.69-3.1-3.28-9.27-.75-14.08-1.17,.02,4.97,.05,9.94,.07,14.91,4.96,0,9.92,.01,14.88,.01-.02,4.97-.04,9.95-.07,14.92,.03,4.97,.05,9.95,.08,14.92,8.54,0,16.08,.12,24.62-.05,7.55-.29,3.02,10.35,4.27,15.05,4.91,2.38,9.81,2.5,14.69-.1,.1-4.94,.2-9.88,.3-14.82,2.47-4.69,1.66-9.55,.71-14.41-1.96-3-6.39-2.03-9.4-2.09Z" style="fill:#c7e2f5;"/><path d="M253.22,761.53c-4.89-2.29-12.47-3.11-16.31,.82-.65,8.89-2.38,20.94,.9,29.04l.09,.02c4.96-.03,9.92-.07,14.87-.1,2.85-2.73,2.42-26.48,.45-29.78Z" style="fill:#c7e2f5;"/><path d="M252.77,791.31h0s-.05,.06-.07,.08l.07-.08Z" style="fill:#c7e2f5;"/><path d="M1074.38,804.79c-9.89-.33-19.78-.31-29.67,0-5.02,.05-10.13-1.13-15.01,1.07-1.81,2.06-1.48,4.6-1.55,7.02-.19,6.57-.17,6.55-6.55,6.75-2.43,.07-4.96-.24-7.02,1.53-1.1,1.37-1.25,3.02-1.3,4.67-.33,10.8,.35,12.43,10.17,11.97,4.69-.22,4.6,2.97,4.71,6.28,.12,3.62-1.06,5.55-5.04,5.42-2.8-.09-5.77-.52-8.27,1.32-.01-3.69-.05-7.37-.02-11.06,.02-2.46-1.16-3.61-3.6-3.6-3.78,.01-7.55-.04-11.33-.06-4.97-2.47-10.94-2.46-15.91,0-15.53-1.35-16.52-.65-14.79,14.99,9.9,.01,20.81,.03,30.71,.04l14.64-.03c-2.17,4.76-1.62,9.61-.47,14.48,0,.01,.01,.01,.01,.01-4.57-2.41-9.53-.92-14.32-1.1-8.18-.41-17.37-.16-25.56-.12-1.81,.01-3.62,.18-4.99,1.63-.08,4.96-.16,9.92-.23,14.88,9.97,.03,20.94,.07,30.91,.1,4.98-.03,9.95-.05,14.93-.08,2.45-4.76,2.54-9.51,.3-14.27,.11,.07,.2,.16,.31,.22,4.83,1.37,9.76,.59,14.65,.65,4.89-.21,9.97,1.45,14.58-1.51,2.97-4.62,1.32-9.73,1.51-14.65,.28-7.41-.01-14.82,.14-22.23,.12-5.63,.85-6.3,6.31-6.25,4.79,.04,5.26,.55,5.35,6.02,.05,2.8-.11,5.6,.04,8.4,.23,4.4-.83,8.9,.96,13.18,.21,.2,.42,.41,.62,.61,3.65,0,7.3-.14,10.94,.05,3.02,.16,4.1-.95,4.04-4-.16-7.29,.05-14.59-.1-21.88-.06-2.99,.91-4.21,3.99-4.05,3.64,.19,7.29,.02,10.94,.01,0-4.95,.01-9.91,.01-14.86-4.77-3.04-10-1.34-15.04-1.55Z" style="fill:#c7e2f5;"/><path d="M1044.67,865.97s-.01,0-.01,.01-.01,.01-.01,.02l.02-.03Z" style="fill:#c7e2f5;"/><path d="M1044.66,910.75s.01,.01,.01,.02h.01s-.02-.02-.02-.02Z" style="fill:#c7e2f5;"/><path d="M1019,910.79c-1.38,.01-3.63-.58-3.81,1.23-.39,4.06-.32,8.2-.06,12.28,.11,1.69,2.01,1.34,3.26,1.36,3.79,.06,7.57,.05,11.36,.07,4.97-.03,9.93-.05,14.9-.08,2.58-4.96,2.55-9.92,.02-14.88-8.56,0-17.11-.03-25.67,.02Z" style="fill:#c7e2f5;"/><path d="M284.27,677.02c.67-4.96-3.75-7.27-8.1-6.68-4.97-.08-9.93,.01-14.9-.04-6.44-.07-6.52-.16-6.82-6.71-.32-6.97-1.36-8.05-8.23-8.18-5.9-1.49-22.45,4.03-21.6-5.42,.99-8.58-3.92-10.12-11.44-9.53-23.34-.01-45.69,0-69.03,0-1.66,0-3.31-.05-4.96,.08-4.79,.38-5.99,1.59-6.42,6.42-.1,1.15-.17,2.32-.11,3.47,.18,3.63-1.6,5.01-5.11,4.97-2.76-.03-5.69-.44-8.05,1.66,.03,9.96,.07,19.92,.1,29.87,4.46,2.71,9.35,2.43,13.73,.63,3.89-1.6,2.36-6,2.78-9.3,.02-.13,.03-.19,.03-.23-.01-.02-.01-.08-.01-.26-.03-2.96,1.56-4.03,4.34-4.06,5.27-.04,10.53,.04,15.8-.05,2.76-.05,5.63,.39,8.14-1.33,2.06-2.79,1.39-6.05,1.46-9.12,.07-3.11,1.37-4.49,4.49-4.48,4.79,.01,9.59-.01,14.39-.01q7.39,.01,7.71,7.27c.28,6.35,.36,7.52,6.68,7.61,9.26,.13,18.52,.05,27.78,.03,19.48-2.22-.54,16.29,18.88,14.93,12.21,.4-2.5,16.31,14.88,14.94,8.24-.96,3.82,8.4,6.3,12.93,4.57,3.42,18.25,3.98,17.31-4.69,.08-11.58,.11-23.15-.02-34.72Z" style="fill:#c7e2f5;"/><path d="M136.15,678.04s.02-.1,0,0h0Z" style="fill:#c7e2f5;"/><path d="M237.86,761.52s-.01,0-.01,.01-.01,.01-.01,.02l.02-.03Z" style="fill:#c7e2f5;"/><path d="M239.35,750.57c.41-10.24-15.79-.73-14.81-10.9,.06-2.71,.61-5.65-1.58-7.96,17.12,0,14.98,2.37,14.85-14.9-17.22-.12-14.92-2.29-14.9,14.87-6.62,0-13.24,.01-19.86,.01-9.87,0-9.1,0-8.87-9.88,.1-4.38-1.57-5.15-5.48-5.12-23.03,.16-46.06,.09-69.09,.09-.01,4.96-.01,9.93-.02,14.89,4.66,3.03,9.81,1.29,14.76,1.52,1.97,.17,3.94,.16,5.91,.16,9.86-.01,19.72-.02,29.59,0,7.43,.02,7.43,.04,7.68,7.25,.07,1.97,0,3.96,1,5.76,.36,.52,.83,.92,1.4,1.19,2.05,.83,4.21,.71,6.34,.73,4.61,.04,8.22-.01,12.84,.02,13.92-2.17,.89,15.27,13.95,14.82,8.05-.59,17.48,2.05,24.8-1.59,2.54-3.37,1.52-7.25,1.49-10.96Z" style="fill:#c7e2f5;"/><path d="M1014.82,761.52h0l-.02,.02,.02-.02Z" style="fill:#c7e2f5;"/><path d="M980.23,791.47c6.83-.05,2.64-10.52,3.75-15,4.98-.01,10.94-.02,15.92-.03,2.27-2.65,1.53-5.89,1.58-8.91,.05-3.09,1.38-4.35,4.44-4.4,3.02-.05,6.25,.68,8.9-1.6,2.22-2.54,1.63-5.66,1.53-8.56-.14-4.27,2.26-4.85,5.69-4.82,3.42,.03,6.35,.09,6.18,4.82-.1,2.9-.68,6.02,1.53,8.56,1,.92,2.2,1.48,3.54,1.53,7.56,.33,15.12,.31,22.68,.01,1.34-.05,2.57-.54,3.55-1.52,.01-4.96,.01-9.93,.02-14.89-2.62-2.34-5.87-1.57-8.88-1.63-3.09-.06-4.35-1.37-4.4-4.44-.05-3.03,.65-6.25-1.51-8.94-.04-4.95-.09-9.9-.13-14.84-4.91-2.69-9.87-2.41-14.85-.28-.02-4.88-.04-9.77-.05-14.65-9.94-.01-19.87-.02-29.81-.03-2.54,4.96-2.55,9.93,.01,14.89,9.86,.01,19.71,.03,29.57,.04-1.66,2.25-1.29,4.91-1.41,7.45-.25,5.25-.57,5.68-5.77,5.74-9.94,.12-19.89,0-29.83,.06-2.62,.02-6.35-.31-8.64,1.48-3.86,5.05,2.21,14.77-7.59,13.42-7.83,1.47-25.41-4.93-23.74,8.25-.47,29.19,2.73,17.47-13.72,23.19-1.8,5.01-2.14,9.99,.27,14.93,.06,9.98,.13,19.96,.19,29.95,4.92,2.44,10.37,2.67,15.07-.28,4.04-6.45-2.7-14.01,8.68-13.1,2.13-.07,4.31,.04,6.03-1.59,.21-11.07-3.4-17.26,11.2-14.81Z" style="fill:#c7e2f5;"/><polygon points="1029.76 761.54 1029.75 761.53 1029.74 761.52 1029.76 761.54" style="fill:#c7e2f5;"/><path d="M924.3,701.86c17.11-.02,15.03,2.43,14.87-14.88-15.87-1.65-16.08-.61-14.9,14.85q-15.84,.08-14.66,14.9c16.94,.28,14.7,1.78,14.69-14.87Z" style="fill:#c7e2f5;"/><polygon points="983.98 716.76 983.97 716.77 983.97 716.78 983.98 716.76" style="fill:#c7e2f5;"/><path d="M939.14,750.53c-.06-7.09,10.47-2.75,15.01-3.9-1.57-15.84-.64-16.16,14.89-14.97,2.28-2.65,1.54-5.88,1.59-8.91,.02-7.8,9.38-1.98,13.33-5.99,1.87-2.04,1.48-4.59,1.55-7.03,.17-6.11,1.24-6.18,7.53-6.35,2.12-.06,4.3,.18,6.27-.94,.19-.2,.39-.4,.58-.6,0-3.64-.13-7.28,.05-10.91,.14-2.95-.84-4.15-3.94-4.07-7.27,.17-15.55,.19-22.82-.01-10.92,.52,4.63,16.75-14.8,14.91-11.24,.78,4.66,16.39-15.3,14.92-3.1,.09-3.87,1.22-3.94,4.12,1.57,19.34-14.29,4.33-14.92,14.81,.19,8.59,.13,17.19,.17,25.78,11.07,.27,15.49,1.76,14.75-10.86Z" style="fill:#c7e2f5;"/><path d="M999.9,701.85h0s.01-.01,.01-.01h-.01Z" style="fill:#c7e2f5;"/></g><g><path d="M119.41,895.86c.02,49.75,.04,99.49,.07,149.24,2.22,2.51,1.7,5.6,1.7,8.52,0,26.27-.81,52.55-1.27,78.82-.85,10.41,2.68,22.34-1.45,32h-29.85c-3.75-8.01-1.05-20.81-1.49-29.88,.12-20.5,1.04-41.01,1.03-61.51-.5-11.94,.24-23.88,.01-35.82-.13-7.4-.54-14.8-.07-22.2-.5-7.44-1.2-14.88-1.21-22.32-.04-29.44,.97-58.87,1-88.31,0-2.94-.44-5.99,1.35-8.68,1.29-1.19,2.92-1.47,4.56-1.52,7.04-.19,14.09-.18,21.13,0,1.66,.05,3.3,.29,4.49,1.66Z" style="fill:#b1a091;"/><path d="M89.45,344.74c.06-4.28,.22-8.56,.12-12.84-.05-2.25,.51-3.06,2.97-3.19,11.96-.6,11.96-.69,12,10.93,0,1.32,.04,2.64,.05,3.95,2.25,5.34,2.91,10.59-.86,15.6-4.8,1.54-9.58,1.88-14.32-.26-2.28-4.72,.44-9.45,.04-14.19Z" style="fill:#e8ecf6;"/><path d="M103.53,358.5c2.08-4.84,.49-9.95,1.07-14.9,4.92,.05,9.84,.1,14.76,.15,.07,4.94,.15,9.89,.22,14.83-4.49,2.92-9.52,1.15-14.3,1.65-.96-.19-1.54-.78-1.75-1.73Z" style="fill:#f0dcdf;"/><path d="M59.79,341.72c-.21,1.06-.7,1.99-1.89,1.9-4.36-.32-8.85,1.22-13.08-.9,.01-1.15-.01-2.29,.03-3.44,.36-12.26-2.64-10.21,11.14-10.53,3.16-.07,3.96,1.31,3.82,4.13-.15,2.94-.02,5.89-.02,8.84Z" style="fill:#fa8774;"/><path d="M89.46,519.85v-11.99c.04-9.91,.08-19.82,.12-29.73-1.3-2.35-3.42-2.66-5.88-2.68-3.05-.03-6.28,.79-9.09-1.25-.24-.52-.19-1.01,.15-1.47,1.87-1.42,4.08-1.14,6.21-1.19,8.66-.17,8.8-.32,7.45-8.73-.38-4.71-.94-9.42,.38-14.09,.29-.56,.71-.99,1.26-1.31,4.5-1.18,8.98-1.45,13.43,.24,2.1,2.21,1.54,5.28,2.5,7.88,.95,2.61,2,4.87,5.24,5.1,3.55,.25,4.19,2.54,3.83,4.56,.23-2.97-1.68-6.71-1.14-10.69,.18-1.3,.03-2.64,.35-3.93,.24-.96,.51-2.22,1.59-2.26,1.44-.06,1.66,1.4,1.86,2.48,.46,2.44,.35,4.94,.19,7.39-.17,2.49,.53,4.48,2.31,6.16,1.21,4.5,1.5,8.97-.25,13.41-2.21,2.3-5.12,1.71-7.84,1.82-5.71,.22-5.96,.45-6.02,6.27-.03,2.45,.19,4.89,.32,7.34-.48,7.27-.31,14.54-.26,21.81,.04,5.66,.48,5.98,6.36,6.2,2.45,.09,5-.28,7.18,1.33,2.21,3.95,1.28,8.18,1.08,12.34-.1,.53-.29,1.05-.53,1.53-2.32,3.09-5.78,2.76-8.99,2.67-4.13-.11-5.45,1.84-5.36,5.7,.11,5.15,.71,6.05,5.15,6.49,2.99,.3,6.06-.39,8.97,.81,.5,.73,.72,1.54,.86,2.4,.45,9.74-.62,19.47-.94,29.2-.21,22.27,1.08,44.54,1.26,66.81,.02,2.14,.07,4.29-.21,6.42,.29,9.98,.34,19.96-.01,29.93,.3,9.9,.33,19.8,0,29.69,.24,5.02,.28,10.05-.01,15.07,.25,4.99,.27,9.98,0,14.97,.27,5.01,.26,10.02,0,15.04-.11,5.09,1.34,10.32-1.33,15.19-1.7,1.27-3.7,1.33-5.68,1.35-6.27,.07-12.55,.11-18.82-.02-2.29-.05-4.69-.05-6.24-2.27-1.88-5.46-.76-11.11-.95-16.67-.14-4.11-.25-8.24,.15-12.35-.26-5.09-.27-10.19,0-15.28-.42-8.22-.17-16.45-.14-24.67,.01-1.84,.3-3.62,1.61-5.05-.04-8.95-.08-17.89-.12-26.84,0-30.51-.99-61.02-.99-91.52,0-5.33,1-10.65,1-15.98-.81-14.59-1-29.18-.8-43.79,.02-1.31,.37-2.59,.79-3.84Z" style="fill:#b1a090;"/><path d="M74.85,473.04v1c1.02,1.37,.89,2.71-.1,4.02l-.07-.07c-4.61,2.96-9.69,1.29-14.58,1.51-4.85-.11-9.76,.85-14.53-.8-.22-.21-.45-.42-.67-.64,0-4.95-.01-9.91-.01-14.86,4.85-.61,11.36,2.08,14.13-1.15,2.4-2.8,.73-9.1,.86-13.85,.31-.01,.6-.08,.88-.21,4.45-2.6,9.28-1.21,13.96-1.34,5,.22,10.2-1.52,14.92,1.47-.04,4.96-.08,9.93-.13,14.89-2.09,2.18-4.84,1.67-7.35,1.57-3.9-.16-6.32,.91-6.08,5.33,.07,1.17-.49,2.22-1.23,3.13Z" style="fill:#e9ebf5;"/><path d="M14.84,479.04c.97-1.71,2.63-.98,3.98-.99,8.69-.05,17.38,0,26.08,.02l-.07-.07c2.52,4.95,2.65,9.89-.06,14.82l.1,.19c-9.92,1.39-19.84,1.72-29.75-.12-.09-.66-.19-1.31-.28-1.97-.53-3.96-.53-7.92,0-11.88Z" style="fill:#e8eaf6;"/><path d="M59.75,478.15c4.98-.05,9.95-.1,14.93-.15,.01,1.48,.01,2.96,.01,4.44q0,10.14-9.95,10.66c-.33,.38-.67,.36-1,0-1.31-.11-2.61-.21-3.92-.32-2.62-4.86-2.53-9.74-.07-14.63Z" style="fill:#f5afa3;"/><path d="M59.75,478.15c.03,4.88,.05,9.76,.08,14.64-5.02,.01-10.04,.02-15.06,.03,.02-4.94,.04-9.88,.06-14.82,4.97,.04,9.95,.09,14.92,.15Z" style="fill:#b39f8f;"/><path d="M74.75,478.06c.03-1.34,.07-2.68,.1-4.02,3.77,0,7.56,.27,11.29-.08,3.63-.34,4.1,1.29,3.44,4.17-4.95-.03-9.89-.05-14.83-.07Z" style="fill:#b0a08c;"/><path d="M89.65,448.14c-5.02-.03-10.03-.06-15.05-.09-2.23-3.6-2.08-7.2-.07-10.83v-1.98c-.27-.22-.36-.44-.27-.67,.09-.22,.17-.34,.26-.34,.1-.29,.13-.6,.09-.9,.14-.18,.28-.37,.42-.55,2.63-1.26,5.57-1.36,8.19-.86,4.16,.8,4.97-1.32,5.03-4.5,.06-3.28-.15-6.56,.85-9.76,.28-.43,.66-.71,1.16-.85,2.64-.29,5.28-.02,7.92,.06,4.12,.13,4.99-2.15,4.92-5.64-.07-3.32,.03-6.42-4.69-6.38-2.77,.03-5.64,.5-8.28-.88-.17-.19-.34-.38-.51-.57-.05-3.65-.1-7.3-.16-10.95v-31.83c.1-.7,.2-1.39,.29-2.09,4.59-.01,9.19-.03,13.78-.04,.38,.37,.75,.74,1.13,1.12,1.81,1.88,1.45,4.28,1.49,6.54,.09,4.61,0,9.22,.04,13.83,.06,6.54,.18,6.64,6.57,6.86,2.29,.08,4.64-.14,6.67,1.3,1.28,1.26,1.42,2.92,1.57,4.58q.76,8.45,8.87,9.11c1.68,.13,3.28,.4,4.6,1.55l-.07-.07c2.7,4.33,1.55,8.99,1.17,13.58-.16,.56-.43,1.08-.79,1.54-2.77,2.08-6.03,1.44-9.09,1.37-4.27-.09-4.79,2.32-4.74,5.72,.05,3.38,.07,6.37,4.78,6.21,2.77-.09,5.63-.4,8.31,.81,.52,.32,.91,.75,1.18,1.3,1.02,4.86,1.58,9.71-.48,14.47-1.64,1.42-3.66,1.43-5.64,1.43-8.43,.01-8,.08-8.07,8.4-.02,2.1,.24,4.38-1.75,5.94-2.61,.16-2.89-1.49-2.82-3.53,.07-1.97,.01-3.95,.01-5.93,0-1.77,0-3.54-.86-5.32v20.63c-1.66-.64-1.16-1.75-1.08-2.45,.45-3.85-.63-5.65-5.03-5.51-5.94,.19-4.01-5.75-5.8-8.78-.72-1.23-.14-3.22-.15-4.87-.76-2.25-.54-4.58-.56-6.89-.05-6.2-.4-6.6-5.77-6.64-5.56-.03-5.9,.34-6.07,6.34-.07,2.44,.37,5.03-1.57,7.07l.07-.06Z" style="fill:#b2a190;"/><path d="M15.05,403.28c-.07-.62-.14-1.25-.22-1.87,.05-2.63,.8-5.49,.02-7.84-1.79-5.36,1.2-5.18,4.83-5.12,7.08,.11,14.16,.23,21.23-.05,3.39-.13,4.2,1.08,3.99,4.18-.25,3.6-.09,7.24-.1,10.86-.22,.21-.45,.42-.67,.64-4.82,1.26-9.62,1.83-14.31-.55l-.46-.09-.45,.13c-4.63,.35-9.26,.87-13.86-.29Z" style="fill:#e8ebf6;"/><path d="M44.8,403.44c4.98,.04,9.96,.08,14.95,.13,2.68,4.96,2.32,9.98,.27,15.03-5.1,2.05-10.17,2.38-15.18-.27h.01c-2.54-4.98-2.56-9.96,.03-14.94l-.08,.05Z" style="fill:#ebeffb;"/><path d="M59.74,418.18c0-4.87,.01-9.74,.01-14.62h14.96c2.58,4.97,2.37,9.95,.1,14.96-5.08,2.22-10.1,2.06-15.07-.34Z" style="fill:#e0dfe5;"/><path d="M74.75,418.19c-.01-4.88-.02-9.75-.04-14.63,4.97-.05,9.94-.11,14.9-.16l-.14,.14c2.75,4.55,2.56,9.16,.26,13.81-.1,.27-.16,.54-.18,.82-4.6,2.92-9.4,1.7-14.2,.72-.2-.23-.4-.46-.6-.7Z" style="fill:#eaeaf4;"/><path d="M59.74,418.18c5,0,10.01,.01,15.01,.01l-.05,.26c2.5,.93,5.21-.13,7.8,.7-1.91,2.62-4.24,3.5-9.78,3.62-3.64,.08-7.29,.01-10.93,.03,3.75,.04,7.5-.01,11.25,.04,2.17,.03,2.75,1.58,2.98,3.29,.34,2.46,.55,4.95-1.25,7.06l-.15,.15c-8.71-.03-17.42-.16-26.12-.05-2.76,.04-3.83-.8-3.69-3.62,.19-3.77,.04-7.56,.04-11.33,4.95-.06,9.92-.11,14.89-.16Z" style="fill:#b3a190;"/><path d="M44.88,403.39c-.01,4.98-.02,9.97-.03,14.95-4.94-.02-9.88-.03-14.82-.05-.07-4.92-.13-9.84-.2-14.77,5.01-.04,10.03-.09,15.05-.13Z" style="fill:#b2a290;"/><path d="M193.19,388.52c-.66,4.38,1.43,10.81-.79,13.95-2.09,2.73-6.38,.76-10.25,.85-2.41,.06-3.16,.83-3.03,3.14,.19,3.28,.14,6.58,.2,9.87,.71,3.11-1.72,3.23-3.57,3.39-3.61,.31-7.27,.64-10.83-.51-.58-.28-1.04-.69-1.39-1.24-1.65-4.84-.74-9.82-.8-14.74,.24-4.91-1.54-10.03,1.57-14.63,3.62-.04,7.25-.33,10.84-.06,3.22,.24,4.48-.9,4.16-4.01,3.36,1.98,5.84,3.32,9.89,2.75,1.41-.2,2.97-.11,4,1.24Z" style="fill:#e7ecf4;"/><path d="M119.47,388.48c-4.73-.27-10.87,2-13.83-.85-3.21-3.1-.85-9.34-1.05-14.21-.18-4.59,.03-9.21,.07-13.81,4.86-2,9.96-.47,14.92-1.03,.33,.01,.66,.01,.99,.04,4.52,.4,10.89-2.07,13.09,1.02,2.25,3.16,.55,9.14,.57,13.88-2.17,2.06-4.91,1.47-7.47,1.57-5.29,.21-5.55,.44-5.74,5.59-.09,2.43,.31,4.94-.94,7.22-.21,.2-.41,.39-.61,.58Z" style="fill:#eaebf6;"/><path d="M134.52,417.35c-.04-4.68-.08-9.35-.12-14.03,4.97-.03,8.95-.05,13.92-.08,3.2,3.93-1.57,13.39,5.78,13.6,3.05,.18,7.32-.78,10.07,1.42l.13,.13c2.55,4.9,2.11,9.87,.37,14.88-4.65,2.8-10.66,1.42-15.56,1.24-4.23-1.34-1.85-7.1-2.22-10.28-.15-3.05-.26-4.3-3.38-4.53-3.07-.22-6.69,1-8.99-2.35Z" style="fill:#e9eaf4;"/><path d="M193.19,388.52c-3.23-.05-5.46-.19-8.69-.1-2.86,.08-4.41-1.32-5.19-3.89-.59-10.98-1.59-10.98,9.29-10.98,4.8,0,10.63,.38,15.37-.12,4.33-.45,5.54,1.27,5.18,5.09-.54,9.94-1.54,9.94-11.54,9.95-1.46,0-2.94,.04-4.42,.05Z" style="fill:#e8edf8;"/><path d="M134.47,403.39c-4.84-.37-11.08,2.12-14.16-1.11-2.83-2.96-.61-9.08-.85-13.8h-.01c4.92-2.51,9.85-2.56,14.77,.02,.09,4.96,.17,9.92,.25,14.89Z" style="fill:#eaedf4;"/><path d="M164.31,388.61c-.05,4.88-.1,9.76-.15,14.65-4.89,2.92-10.89,2.41-15.93,.44-.14-.18-.11-.33,.08-.46,1.11-4.18-3.06-15.48,3.71-14.82,3.75,.28,8.53,.15,12.29,.19Z" style="fill:#b3a290;"/><path d="M134.22,388.5c-4.92,0-9.84-.01-14.77-.01,0-3.63,.14-7.27-.04-10.89-.14-2.93,.8-4.24,3.91-4.08,3.62,.19,7.26,.02,10.89,.01,.02,4.98,.01,9.97,.01,14.97Z" style="fill:#fac6bc;"/><path d="M119.29,464.09c.06-4.26,.2-8.51,.13-12.76-.04-2.3,.8-3.23,3.13-3.18,3.93,.08,7.86-.06,11.79-.1,4.68-2.44,8.51-1.62,13.36-.71,3.63,3.84,2.67,10.97,.9,15.78-2.23,1.94-3.97,1.49-6.58,1.58-5.7,.2-5.85,.34-6.04,5.89-.09,2.62,.37,5.34-1.34,7.69-4.78,2.16-9.62,1.78-14.5,.42-.22-.22-.45-.44-.67-.66-.06-4.67-.12-9.31-.18-13.95Z" style="fill:#e8eaf6;"/><path d="M119.6,503.82c-.1,6.32-.19,12.65-.29,18.97-14.77-.07-14.88-.07-14.71-15.14,.05-4.85-1.11-9.83,.94-14.57,4.55-2.79,9.14-2.58,13.75-.17l.42,.04c.3,3.63,.54,7.25-.11,10.87Z" style="fill:#ad9a86;"/><path d="M119.29,492.91c-4.58,.06-9.17,.11-13.75,.17-2.02-4.35-.76-8.93-.85-13.41-.04-1.81,1.71-1.64,2.99-1.65,3.93-.03,7.86-.01,11.78-.01l-.04-.04c2.58,4.62,2.46,9.28,.21,13.97-.11,.33-.22,.65-.34,.97Z" style="fill:#eaeaf4;"/><path d="M89.58,448.2c.01-3.8-.02-7.6,.06-11.39,.03-1.22-.48-3.18,1.24-3.3,4.1-.28,8.23-.12,12.35-.08,.73,.01,1.19,.66,1.16,1.35-.2,4.52,1.14,9.13-.85,13.53-4.64-.03-9.3-.07-13.96-.11Z" style="fill:#ececf8;"/><path d="M119.3,551.59c-3.88,2.07-7.99,1.06-11.99,.72-1.75-.15-2.87-1.49-2.76-3.49,.05-.98,0-1.97,0-2.96-.02-8.11-.02-8.17,8-8.11,2.35,.02,4.56-.39,6.77-1.04,1.24,4.96,.64,9.95,.31,14.94l-.33-.06Z" style="fill:#ae9e8a;"/><path d="M74.85,473.04q-.48-9.94,9.3-9.95c1.79,0,3.58-.04,5.37-.05,2.08,2.46,.92,5.34,.95,8.03,.02,2.08-1.82,1.96-3.3,1.97-4.11,.01-8.22,0-12.32,0Z" style="fill:#b0a08c;"/><path d="M74.76,433.18q-.2-9.88-9.9-9.88c-1.61,0-3.22,0-4.87-.48,7.36,.12,14.52-1,21.41-3.11-1.92-1.26-4.71,.63-6.7-1.25,4.95-.09,9.91-.18,14.86-.28-.79,4.97,2.17,10.48-2.2,14.98-.39,.4,.05,1.94-1.18,1.03-3.65-2.7-7.68-.04-11.42-1.01Z" style="fill:#b2a396;"/><path d="M134.52,417.35c3.62,1.15,6.37,1.08,10.09,.94,2.75-.1,3.98,.95,3.71,3.72-.37,3.71,.86,7.55-.97,11.13-4.63,2.86-8.29,2.44-12.98,.17l.02-.08c-2.58-4.99-2.47-10-.08-15.02,.02-.3,.09-.59,.21-.86Z" style="fill:#ebe0e8;"/><path d="M134.36,433.3c4.66-.05,8.32-.11,12.98-.16,.34,.07,.69,.14,1.03,.21,2.42,4.96,2.57,9.91-.13,14.83-4.97-.04-8.93-.09-13.9-.13,.01-4.92,.02-9.83,.02-14.75Z" style="fill:#fdb3a6;"/><path d="M134.3,418.2c.03,5.01,.05,10.01,.08,15.02-1.48,.01-2.95,.02-4.43,.03-11.5,.02-11.9-.5-10.53-12.11,.25-2.11,1.09-2.83,3.08-2.83,3.93,.02,7.87-.06,11.8-.11Z" style="fill:#d8cece;"/><path d="M89.74,417.35c-.09-4.6-.17-9.21-.26-13.81,3.6-.04,7.21-.04,10.81-.15,2.81-.09,4.1,1,4.3,3.98,.75,11.09-3.22,13.82-14.85,9.98Z" style="fill:#b09f87;"/><path d="M66.3,420.66c-2.48,.98-4.35,.69-6.24,0h6.24Z" style="fill:#b2a396;"/><path d="M148.24,403.7c4.98-.15,10.95-.29,15.93-.44,0,5,.01,10.01,.01,15.01-.5,.02-.99,.05-1.49,.04-15.78-.32-14.09,3.11-14.45-14.61Z" style="fill:#e4e3ea;"/><path d="M164.09,433.19c.08,4.99,.15,9.97,.23,14.96-4.98,2.64-10.97,2.53-15.97,.07l-.1-.04c.04-4.94,.08-9.89,.13-14.83,4.89-.06,10.8-.11,15.71-.16Z" style="fill:#fb8875;"/><path d="M148.34,448.22c4.99-.02,10.98-.05,15.97-.07l-.07-.05c2.65,4.89,2.13,9.89,.49,14.92-4.77,2.74-10.72,1.96-15.7,.77-.23-.22-.46-.44-.69-.66,0-4.98,0-9.95,0-14.91Z" style="fill:#aba08f;"/><path d="M148.4,477.87h-14.1c.03-3.59,.26-7.19,.03-10.76-.22-3.32,1.13-4.27,4.25-4.08,3.58,.23,6.18,.07,9.77,.09l-.06-.06c2.58,4.92,2.5,9.86,.11,14.81Z" style="fill:#b2a18f;"/><path d="M179.33,457.12c-.05,2-.09,3.99-.14,5.99-5,2.49-9.97,2.68-14.91-.16-.01-4.95-.02-9.9-.03-14.86,1.8,.03,3.61,.07,5.41,.07q9.19,0,9.67,8.96Z" style="fill:#fa8774;"/><path d="M164.27,462.95c4.97,.05,9.94,.11,14.91,.16l-.05-.06c2.19,2.49,1.64,5.55,1.59,8.42-.06,3.51,1.3,5.04,4.89,4.97,2.87-.06,4.92-.58,7.49,1.41,4.93,.07,10.85,.13,15.78,.2,.03,4.92,.05,9.84,.08,14.76-1.01,1.01-2.24,1.19-3.64,1.18-11.08-.13-22.16-.04-33.25-.08-1.35,0-2.63-.22-3.84-.82h-1.04c-1.79,.39-3.7,.95-3.12-2.13,.64-12.83-.36-12.82-13.21-12.96-.82-.01-1.64-.09-2.46-.14-.04-4.94-.08-9.88-.12-14.82,5-.02,11-.05,15.99-.09Z" style="fill:#e8eaf6;"/><path d="M193.1,477.86c-4.85-.07-10.1,2.23-13.15-.97-2.78-2.93-.56-9.1-.83-13.83,.16,.01,.33,.01,.49,.02,4.67,.44,9.8-2.08,12.64,1.01,2.78,3.02,.54,9.06,.85,13.77Z" style="fill:#fb8876;"/></g><g><path d="M208.02,865.97c-8.2,.01-15.4-.17-23.59,.1-3.95,.13-5.76-.86-5.34-5.12,.32-3.25,.03-6.55,.01-9.83-2.54-5.07-2.34-10.16-.16-15.27,1.68-1.31,3.68-1.37,5.66-1.39,6.61-.06,12.21-.1,18.82,.03,8.53-.18,6.12,10.29,6.1,15.96-.41,5.02,1.52,11.07-1.5,15.52Z" style="fill:#fbfbf9;"/><path d="M222.95,865.95c-.7,12.86,3.85,16.2-11.68,14.9-6.04,.97-2.24-11.17-3.25-14.88l-.05,.05c4.99-2.61,9.99-2.54,15-.06h-.02Z" style="fill:#fbfbf9;"/><path d="M939.28,940.66c21.94-.98,13.14,.25,14.88,26.35,.08,2.59-.97,3.35-3.5,3.49-11.45,.63-11.45,.71-11.44-10.45,0-6.46,.03-12.93,.06-19.39Z" style="fill:#fbfbf9;"/><path d="M1014.84,940.64c-.02,4.91-.04,9.82-.06,14.73-4.95,.08-9.9,.15-14.85,.23,.39-4.82-2.14-11,1.15-14.11,3.01-2.85,9.06-.65,13.76-.85Z" style="fill:#fbfbf9;"/><path d="M1029.77,940.66c0-4.98-.01-9.95-.01-14.93,4.61-3.1,9.73-1.29,14.63-1.54,4.89,.11,9.85-.92,14.63,.88,.21,.22,.43,.45,.64,.68-.13,4.75,1.55,11.14-.87,13.83-2.79,3.11-9.29,.82-14.18,.99-4.94,.17-9.9,.07-14.84,.09Z" style="fill:#fbfbf9;"/><path d="M1074.36,910.79c.11,1.98,.22,3.96,.32,5.94q-.48,8.95-9.6,8.96c-1.81,0-3.62,.04-5.43,.06l-.1-.1c-2.58-4.98-2.25-10.02-.27-15.09,5.06-2.14,10.09-2.47,15.08,.23Z" style="fill:#fbfbf9;"/><path d="M1074.54,895.9c-.01-8.27,.21-16.55-.11-24.81-.17-4.3,1.43-5.51,5.42-5.16,3.12,.28,6.28,.03,9.42,.01,.02,9.95,.03,19.9,.05,29.84-4.93,.05-9.86,.08-14.78,.12Z" style="fill:#fbfbf9;"/><path d="M179.09,821.22c-4.92-.02-9.84-.04-14.76-.06-.05-4.96-.1-9.92-.15-14.88h.1c4.63-2.65,9.46-1.69,14.3-.81,.57,.29,1.02,.72,1.34,1.28,.95,4.89,2.07,9.8-.83,14.47Z" style="fill:#fbfbf9;"/><path d="M237.89,791.41c-.06,9.93-.13,19.85-.19,29.78-4.93,2.62-9.86,2.58-14.79,.01l.04,.04c-2.31-2.65-1.57-5.89-1.62-8.92-.01-7.83-9.41-1.97-13.36-6.04l.05,.05c-4.07-3.95,1.78-13.7-6.33-13.3-10.22,.43-9.36-1.76-9.21-11.57,.02-1.49,.11-2.98,.73-4.38,.28-.56,.69-1,1.22-1.33,8.82-1.81,16.71-.84,25.58-.62,9.76,1.83-1.45,16.35,11.96,14.63,2.02,.11,4.49-.09,5.92,1.65Z" style="fill:#fbfbf9;"/><path d="M954.34,896.05c14.86-.07,30.71-.15,45.57-.22-.01,3.8-.09,7.61,.01,11.41,.07,2.51-.85,3.57-3.45,3.55-12.57-.08-26.14-.09-38.72,.01-6.73,.03-2.39-10.44-3.41-14.75Z" style="fill:#fbfbf9;"/><path d="M999.89,895.85v-14.88c4.6-3.11,9.71-1.29,14.61-1.55,4.87,.11,9.8-.88,14.58,.83,.22,.21,.44,.43,.66,.65,0,3.61-.17,7.23,.06,10.82,.21,3.32-1.19,4.22-4.31,4.16-8.53-.14-17.07-.04-25.6-.03Z" style="fill:#fbfbf9;"/><path d="M1029.75,866.04c4.97-.02,9.95-.05,14.92-.07-.45,4.81,2.12,10.98-1.18,14.08-3.03,2.83-9.05,.61-13.75,.86l.02,.02c-2.55-4.96-2.57-9.92-.01-14.89Z" style="fill:#fbfbf9;"/><path d="M15.25,791.53c3.61-.05,7.23,.03,10.83-.19,3.11-.19,4.03,1.18,3.89,4.07-.18,3.6-.07,7.22-.09,10.83-4.94,.03-9.88,.06-14.82,.09,.06-4.93,.13-9.86,.19-14.8Z" style="fill:#fbfbf9;"/><path d="M119.62,761.48v-14.82c4.73-3.13,9.98-1.27,15.01-1.56,13.17-.44,26.35-.18,39.53-.14,1.84,0,3.61,.35,5.03,1.68l-.05-.05c2.2,2.51,1.67,5.6,1.67,8.51-.01,3.33,1.39,4.89,4.73,4.74,9.58-.42,10.55,1.1,10.14,12.09-.06,1.68-.43,3.27-1.61,4.55l.05-.05c-1.01,.92-2.21,1.5-3.56,1.56-7.58,.33-15.16,.32-22.74,.01-1.35-.06-2.56-.6-3.57-1.53l.04-.05c-2.14-2.33-1.76-5.26-1.68-8,.11-3.84-1.6-5.25-5.33-5.22-10.22,.06-20.44,.06-30.66-.01-2.45-.02-5.02,.27-7-1.71Z" style="fill:#fbfbf9;"/><path d="M89.46,746.57c-4.93,.02-9.86,.03-14.79,.05,.01-3.63,.15-7.28-.02-10.9-.14-2.93,.81-4.25,3.92-4.07,3.62,.21,7.27,.07,10.9,.08,0,4.95,0,9.89-.01,14.84Z" style="fill:#fbfbf9;"/><path d="M74.7,746.6c-.45,4.81,2.12,10.98-1.18,14.07-3.02,2.83-9.05,.62-13.75,.85,.45-4.8-2.12-10.97,1.19-14.05,3.02-2.82,9.05-.56,13.74-.87Z" style="fill:#fbfbf9;"/><path d="M1089.41,806.32c-4.96-.02-9.93-.04-14.89-.06-2.78-4.24-1.82-8.81-1.07-13.33,.23-1.38,1.28-2.41,2.66-2.63,4.52-.73,9.1-1.67,13.34,1.09l-.02-.02c-.01,4.98-.01,9.97-.02,14.95Z" style="fill:#fbfbf9;"/><path d="M999.9,865.95c-9.89,.01-20.79,.03-30.68,.04-.09-4.96-.18-9.93-.28-14.89h.25c.38-.32,.68-.82,1.17-.88,9.58-1.13,20.15-1.94,29.67,.49,2.3,5.1,2.51,10.18-.13,15.24Z" style="fill:#fbfbf9;"/><path d="M1029.78,806.32c-.01-3.81,.07-7.63-.05-11.44-.08-2.54,.91-3.4,3.47-3.55,11.48-.7,11.47-.78,11.48,10.45v4.48c-4.98,.02-9.94,.04-14.9,.06Z" style="fill:#fbfbf9;"/><path d="M1029.74,761.52c9.93,.01,19.85,.02,29.78,.03,.02,4.97,.05,9.94,.07,14.91-8.53,0-17.06-.1-25.59,.06-3.14,.06-4.5-.86-4.3-4.17,.22-3.6,.04-7.22,.04-10.83Z" style="fill:#fbfbf9;"/><path d="M1014.8,761.54c.01-3.28,.01-6.56,.02-9.85,0-.98-.34-2.22,.13-2.91,3.06-4.54,7.7-1.21,11.54-2.1,2.16-.5,3.32,.68,3.27,3.04-.08,3.94-.01,7.88,0,11.82h-14.96Z" style="fill:#fbfbf9;"/><path d="M999.9,776.43c0-3.81,.1-7.63-.03-11.44-.09-2.59,.96-3.56,3.51-3.48,3.81,.12,7.62,.01,11.44,0-.44,4.8,2.12,10.98-1.18,14.07-3.02,2.84-9.05,.62-13.74,.85Z" style="fill:#fbfbf9;"/><path d="M954.32,820.98c-.55-17.04-1.92-14.7,14.71-14.69,.11,16.73,2.32,15.32-14.71,14.69Z" style="fill:#fbfbf9;"/><path d="M1014.81,821.21c-4.97,.01-9.95,.02-14.92,.03,0-3.44,0-6.89,.01-10.33,0-.82-.28-1.85,.11-2.42,3.07-4.56,7.7-1.22,11.53-2.11,2.15-.5,3.34,.66,3.29,3.03-.08,3.93-.02,7.87-.02,11.8Z" style="fill:#fbfbf9;"/><path d="M999.89,836.1h-15.91c1.05-4.11-2.9-15.23,3.5-14.9,3.81,.11,8.62,.02,12.43,.02-.01,4.96-.01,9.92-.02,14.88Z" style="fill:#fbfbf9;"/><path d="M983.99,776.44c-12.82-.57-16.17,3.76-14.86-11.71-.5-2.24,.82-3.36,3.13-3.18,16.81-.91,10.62,1.57,11.7,14.92l.03-.03Z" style="fill:#fbfbf9;"/><path d="M999.91,701.84v14.9c-4.98,.01-10.96,.02-15.94,.03,.48-4.8-2.11-10.98,1.19-14.07,3.03-2.82,10.05-.57,14.75-.86Z" style="fill:#fbfbf9;"/><path d="M969.04,731.66c-.05-17.27-2.25-14.91,14.94-14.91-.01,4.97-.01,9.95-.02,14.92-4.97,0-9.94,0-14.92-.01Z" style="fill:#fbfbf9;"/></g><g><path d="M357.38,969.64c-.08,4.78,.76,9.55,.75,14.33,.37,0,.74,0,1.1-.02,4.5,.23,9.17-1.22,13.48,.81-.11-4.8-2.06-9.68,.09-14.32,.07-.06,.14-.1,.21-.15-.06-.08-.11-.15-.16-.25-.45-9.79-1.26-19.58-.89-29.38-4.43,.03-8.87,.05-13.3,.08,.26,9.8,1.76,20.08-1.28,28.9Z" style="fill:none;"/><path d="M657.15,827.36c-1.5,10.47,7.67,4.26,12.88,7.7,.04-4.76,.05-9.53,.03-14.29-4.86,3.35-13.59-3.04-12.91,6.59Z" style="fill:none;"/><path d="M386.66,836.06c.46,.04,.94,.08,1.43,.12,0-.71,.01-1.42,.01-2.13-.02,.16-.04,.32-.06,.47-.35,.69-.82,1.18-1.38,1.54Z" style="fill:none;"/><path d="M806.06,597.27c.61-.28,1.21-.52,1.82-.73-.59,0-1.18,.01-1.76,.01-.03,.24-.05,.48-.06,.72Z" style="fill:none;"/><path d="M387.17,882.49c.19-.58,.4-1.15,.68-1.71,.13-.09,.27-.17,.4-.25-.01-.95-.02-1.9-.03-2.84-.27,.85-.6,1.7-1.04,2.55,0,.75-.01,1.5-.01,2.25Z" style="fill:none;"/><path d="M370.63,887.88c-.05-2.95,.46-6.14-4.12-6.22-3.27-.23-8.31,1.14-10.28-2.39-.55-8.65-2.02-18.44,.18-26.82-2.13,.66-4.46,.31-6.67,.32-3.35,.02-4.74,1.38-4.73,4.73,.01,7.42,.1,14.85-.03,22.27-2.47,21.19,7.45,12.42,12.39,15.26,4.25-3.9,14.75,2.13,13.26-7.15Z" style="fill:none;"/><path d="M657.04,904.93c.14,1.98-.4,3.24-1.36,4.03,6.26-.03,12.78,.44,15.37,1.22-1.23-2.12-.89-4.54-.97-6.87,1.17-9.35-9.33-3.79-13.39-7.21,.65,2.79,.18,5.99,.35,8.83Z" style="fill:none;"/><path d="M655.7,852.78c.39-1.09,.98-1.81,1.7-2.29-1,.25-1.66,.81-1.7,2.29Z" style="fill:none;"/><path d="M819.76,596.48c-.36,0-.73,0-1.09,.01,.72,.24,1.44,.51,2.16,.85h.47c-.57-.3-1.09-.65-1.54-1.06v.2Z" style="fill:none;"/><path d="M730.58,506.41c-.05-.11-.08-.22-.12-.32-1.7,.03-3.73,.11-6.16,.17,2.08,.01,4.18,.05,6.28,.15Z" style="fill:none;"/><path d="M356.33,822.5c-5.35,1.27-12.74-1.82-11.39,6.43,.03,5.24,.42,5.55,6.08,5.77,2.65-.56,4.62-.24,6.04,.68-1.95-4.32-2.34-8.61-.73-12.88Z" style="fill:none;"/><path d="M389.66,402.74s.09-.03,.13-.06h-.11s-.01,.04-.02,.06Z" style="fill:none;"/><path d="M371.53,925.7v-.49c-.27,.19-.56,.34-.84,.48,.28,.01,.55,.01,.84,.01Z" style="fill:none;"/><path d="M328.36,612.3h.05s-.07-.02-.1-.03c.02,.01,.04,.02,.05,.03Z" style="fill:none;"/><path d="M340.53,612.37c.82,.01,1.64,.02,2.46,.02-.07-.05-.14-.1-.2-.15-.18-1.76-.34-3.52-.48-5.28,0,1.52,.01,3.04,.01,4.56-.59,.33-1.19,.61-1.79,.85Z" style="fill:none;"/><path d="M388.17,821.31s-.04,.02-.06,.03l.06-.06v.03c4.6-2.42,10.36-2.43,14.78-.18,.25-.22,.51-.4,.79-.56-.54-.06-1.09-.13-1.67-.2l-.02,.05c-2.49-4.61-2.49-10.48-.08-14.85h.51c-.17-.32-.31-.65-.42-1-.03,.32-.05,.63-.08,.97,.02-.01,.04-.02,.06-.03l-.07,.07v-.04c-3.98,2.06-7.96,2.44-11.95,1.21,.13,5.07-.1,10.05-1.85,14.54h-.59c.23,.45,.42,.9,.58,1.35,0-.45,.01-.89,.01-1.33Z" style="fill:none;"/><path d="M315.03,941.36c.02,4.63,1.04,9.34-.92,13.82,4.29-2.16,8.88-1.11,13.38-1.07-.1-4.22-.17-8.44-.19-12.66-4.1,1.45-8.19,1.58-12.27-.09Z" style="fill:none;"/><path d="M283.6,850.95v-2.12c-.23,.49-.55,.94-.98,1.33,.38,.23,.71,.49,.98,.79Z" style="fill:none;"/><path d="M267.61,852.62c.38-.83,1.01-1.54,2.05-2.01,.73-.2,1.42-.37,2.08-.52-2.09,.16-3.71,.79-4.13,2.53Z" style="fill:none;"/><path d="M387.61,865.31c.19,.58,.36,1.17,.51,1.75,0-.34-.01-.68-.01-1.02-2.79-4.5-1.4-9.41-1.45-14.18-4.31,1.69-8.62,1.55-12.93-.46-.11,17.84-.28,8.44,13.88,13.91Z" style="fill:none;"/><path d="M539.06,902.74c1.13-16.23-16.33-.98-14.91-15.48-.45-19.31-.19-38.63-.28-57.94,.93-7.7-1.95-10.63-9.39-9.36-8.74,.42-3.13-9.27-6.73-13.86-4.35-3.49-14.22,2.08-13.56-6.33,.01-17.68,.39-35.36-.08-53.05,.29-24.92,.28-49.83,0-74.75-.36-9.79,1.92-20.63-1.19-29.9-4.58-3.73-14.3,1.9-13.6-7.08-.73-12.51,2.06-25.87-1.53-37.89-5.08-2.11-13.59-2.47-16.09,2.25-.04,7.5-.16,14.99,.06,22.48,.11,3.8-1.21,4.75-4.84,4.72-10.16-.08-10.16,.07-10.16-10.23,1.64-17.79-6.79-20.73,14.96-19.74v-.05l.05,.05h-.05c0,.54-.01,1.09-.01,1.63,.41-.24,.82-.53,1.2-.9,3.41-25.89,.5-53.78,1.56-80.32,.75-7.5-1.32-11.85-9.52-10.61-3.88,.1-5.82-1.22-5.54-5.36,.8-6.87-1.73-14.32,.96-20.82,4.71-2.32,14.27,2.3,13.99-6.11,.19-17.04,1.13-34.08,1.03-51.12-.01-1.66-.21-3.31-1.28-4.71-2.6-2.03-5.7-1.53-8.62-1.5-3.6,.03-5.18-1.5-4.99-5.06,.06-1.15,0-2.32-.1-3.47-.4-4.87-1.54-6.08-6.42-6.33-4.63-.24-9.27-.07-13.9-.08-9.63-.02-9.56,.31-9.56-8.52,0-2.76-.6-5.54-3.97-5.98-4.24-.55-8.55-1.19-12.64,.86-.44,.48-.72,1.01-.92,1.57-.06,2.61-.17,5.23,.03,7.83,.29,3.76-.76,5.54-4.9,5.12-2.76-.28-5.56-.1-8.35-.02-.04,.02-.09,.03-.13,.06,.01-.02,.01-.04,.02-.05-.49,.01-.97,.02-1.46,.03-.06-4.99-.11-9.99-.17-14.98-2.48-5.02-2.66-10.03,.11-15.01,.34,.04,.7,.05,1.06,.06-.04-3.54-.16-7.08-.04-10.62,.08-2.39-.36-3.59-3.18-3.52-3.75,.09-8.6,1.64-10.99-.67-2.41-2.33-.76-7.21-.72-10.95,.03-2.71-.94-3.39-3.46-3.27-3.8,.17-7.61,.02-11.42,.01-.08,19.25-.15,38.49-.23,57.74-.41,.61-.41,1.17-.04,1.68-.08,.06-.17,.12-.25,.18-2.29,4.27-.62,8.86-1.08,13.27,.04,8.25-.47,16.5-.24,24.76,.06,2.09-.12,4.25,.85,6.16-.99-.59-2.11-.81-3.28-.86-11.61-.5-13.95,.53-13.5,10.23,.4,7.96-9.02,3.08-13.49,5.6-.73,.5-1.14,1.19-1.15,2.07,.75,9.93-1.88,21.14,1.27,30.45,.1,4.01,.19,8.01,.29,12.02,4.52,.03,9.05,.06,13.57,.09v14.8c0,9.99,0,19.98-.01,29.97,.05,18.34,.1,36.69,.16,55.03,.14,1.76,.3,3.52,.48,5.28,.07,.05,.13,.1,.2,.15-.82-.01-1.64-.01-2.46-.02-4,1.6-8.04,1.28-12.11-.07h-.05s-.04-.02-.06-.03c-.37-.13-.74-.26-1.12-.4-.05-.09-.09-.19-.13-.29-3.72-1.73-7.68-.87-11.57-.39-5.36,1.32-4.32,11.94-2.24,16.09-41.82,.37-26.97-8.3-29.46,44.55,.03,0,.06,0,.1,.01-.12,.11-.25,.22-.36,.35,.02,14.87,.04,29.73,.06,44.6-2.78,4.73-1.24,9.86-1.4,14.83,.48,4.63-1.71,11.3,1.46,15.14,.06,4.94,.11,9.89,.17,14.83,17.16,.03,14.82-2.11,14.77,14.72-4.86-2.22-9.78-1.83-14.73-.33-2.58,2.79-1.59,6.26-1.71,9.46,.06,7.9-9.57,2.08-13.35,6.01,.01,.44,.01,.86,.01,1.28,1.29,4.51-1.2,11.22,5.1,11.09,11.09-.41,10.36,2.92,10.37,11.6,.02,9.12,.03,18.23-.01,27.35-.06,1.95,.21,4.26-.67,6.07v2.12c-.27-.3-.6-.56-.98-.79-.02,.02-.03,.03-.05,.05-2.69,.61-7.39-.39-10.83-.12-.66,.16-1.35,.32-2.08,.52-1.04,.47-1.67,1.18-2.05,2.01-.16,.66-.14,1.47,.08,2.48-.1,10.78-1.46,11.81-12.58,10.16-2.07-.31-2.36-1.29-2.35-2.95,.02-7.95,.07-15.91-.03-23.86-.03-2.41,.92-3.33,3.22-3.08,11.22-.15,12.65,.28,11.79-11.43,.19-3.45-1.91-3.75-4.82-3.49q-10.16-.1-10.16-10.04v-19.5c-3.71-2.26-10.21-1.53-14.11,.5-3.57,12.17-.41,26.05-1.35,38.79,.11,7.99-9.82,1.88-13.81,6.05-1.66,4.52-2.28,26.33,.52,29.78,3.89,1.06,15.41-2.71,14.97,3.21-.07,3.75-1.65,8.61,.67,10.98,2.34,2.38,7.21,.68,10.96,.73,6.85-.31,.47,11.39,3.89,14.02,2.27,2.75,7.43,.7,11.33,.9,2.02,.11,2.8,.57,2.98,2.78,1.21,12.28,.52,12.06-11.4,12.2-6.65-1.9-2.46,14.79-3.59,18.9-.37,11.36,1.04,10.89,11.55,10.93,7.43-.64,.09,11.72,4.2,14.2,3.25,2.5,9.55,.28,13.99,.63h0c5.03,.04,10.05,.08,15.08,.12h0c-.68,21.91-1.02,13.28,26.23,14.88,2.21-.02,4.63,.1,4.65,3.05,.03,3.87-1.93,9.28,.89,11.22s7.92,.59,12.02,.67c.66,.01,1.32-.03,1.98-.04,.23-.24,.45-.48,.67-.72,0-.02,.01-.05,.01-.07-.61,.01-1.23,.01-1.84,.02,.01-8.38-1.21-16.76-.87-25.13,.62-8.29-9.92-3.51-14.89-4.82,0-.19-.01-.39-.01-.58-4.5-.04-9.09-1.09-13.38,1.07,1.96-4.48,.94-9.19,.92-13.82,4.08,1.67,8.17,1.54,12.27,.09-.03-5.5,0-11.01,.1-16.51,11.64-.05,17.3,3.59,14.83-11.57,.22-7.63,11.86,.28,14.45-4.7,2.02-3.3,.03-9.26,.6-13.56,.03-.03,.05-.04,.08-.07-4.94-2.84-14.85,5.93-12.39-15.26,.13-7.42,.04-14.85,.03-22.27-.01-3.35,1.38-4.71,4.73-4.73,2.21-.01,4.54,.34,6.67-.32,.2-.75,.41-1.5,.67-2.23v-14.78s-.02-.05-.03-.07c-1.42-.91-3.38-1.24-6.04-.68-5.66-.22-6.05-.54-6.08-5.77-1.35-8.24,6.04-5.16,11.39-6.43,.26-.68,.56-1.35,.92-2.03t-.02,.01l.02-.02h0c8.95-3.19,20-2.13,29.54-.53,.31,.45,.57,.9,.8,1.36h.59c1.75-4.5,1.98-9.47,1.85-14.54-.97-.3-1.95-.69-2.92-1.18v-14.99c15.64-1.33,16.19-.79,14.95,14,.11,.35,.25,.69,.42,1,4.8,0,9.6-.01,14.4-.01,1.52,14.58,.72,16.59-13.13,15.02-.28,.16-.55,.34-.79,.56-4.42-2.25-10.18-2.24-14.78,.18,0,.44,0,.88-.01,1.32,1.28,3.69,.45,7.57-.06,11.42,0,.71-.01,1.42-.01,2.13-.49-.04-.97-.08-1.43-.12-4.1,2.62-12.97-2.09-12.94,5.09,.04,4.16,.02,7.52,0,10.25,4.31,2.01,8.62,2.15,12.93,.46,.05,4.77-1.34,9.68,1.45,14.18,0,.34,.01,.68,.01,1.02,.94,3.57,1.2,7.12,.1,10.63,.01,.95,.02,1.9,.03,2.84-.14,.08-.27,.16-.4,.25-.27,.56-.49,1.13-.68,1.71-.05,7.67-.18,15.34-.02,23,.07,3.28-.64,4.61-4.29,4.59-13.02-1.17-10.25,4.22-10.84,14.78-.15,.13-.31,.24-.47,.35v.49c-.29,0-.56-.01-.84-.01-5.39,2.59-13.18-2.5-11.86,7.3-.22,2.52-.24,5.12-.17,7.76,4.43-.03,8.87-.05,13.3-.08-.37,9.79,.43,19.58,.89,29.38,.05,.1,.11,.17,.16,.25-.07,.05-.14,.1-.21,.15-2.14,4.64-.2,9.51-.09,14.32-4.31-2.03-8.98-.58-13.48-.81-.37,.02-.73,.02-1.1,.02,0,.18,.01,.35,0,.53-4.03,.04-8.06,.07-12.09,.11-.55,.23-1.09,.49-1.62,.83-.02,3.8,.13,7.6-.11,11.39-.18,2.86,.83,3.69,3.64,3.63,3.59-.07,8.2-1.58,10.53,.66,2.36,2.26-.15,6.91-.28,10.48-.12,3.24,1.1,3.84,4.01,3.77,8.6-.2,17.21-.13,25.82-.16h0c5.04,.01,10.07,.02,15.11,.04l-.07,.07h36.31c9.43,0,8.71-.01,8.33-9.65-.18-4.57,1.3-5.41,5.54-5.37,21.55,.22,43.1,0,64.65,.19,3.8,.03,4.87-1.04,4.63-4.73-.32-4.95-.08-9.94-.08-14.91,0-10.21,0-10.38,10.31-10.21,3.68,.06,4.77-.86,4.71-4.65-.2-13.42,0-26.85,.05-40.27,3.33-7.35,.81-15.35,1.6-23.02Zm-100.94-321.05c-6.28,.07-6.28,.01-6.28-7.52,.09-8.44-.93-7.36,7.91-7.37,8.13-.01,6.97-.86,7,8.25,.02,7.98,.58,6.53-8.63,6.64Zm-6.38-89.62c.07,10.01,.15,20.01,.22,30.02,4.23,1.02,14.89-3.02,14.86,3.41,1.91,13.52-3.28,11.39-14.25,11.35-.69,3.71-1.39,7.48-.69,11.34,.42,6.7-10.86,2.51-15.09,3.56,.04-18.21,.19-36.42,.05-54.63-.74-8.42,9.79-3.79,14.9-5.05Zm-29.8,108.53c-.48-7.14,10.41-2.84,14.87-4.08,0,10.02,0,20.04-.01,30.06-22.22,.67-12.81-.68-14.86-25.98Zm15.06-138.17c-.07,17.19,2.25,14.82-14.9,14.86q-.54-15.43,14.9-14.86Zm-38.87-44.93c3.26,.24,6.55-.03,9.83-.07v30.07c-4.95-.02-9.9-.04-14.85-.07,.01-8.36,.25-16.74-.07-25.09-.14-4.1,1.38-5.12,5.09-4.84Zm-6.01,89.5c1.48,8.32-4.88,30.86,7.66,29.94q6.25,.33,6.3-5.84c-.93-3.82,3.92-6.93-2.47-8.08h18.26c3.81,26.91-13.33,5.74-14.87,17.69,1.54,10.64-.17,12.87-11.05,11.08-6.83-.35-2.73,10.72-3.93,15.07h0c.05,8.75,.04,17.51,.17,26.26,.04,2.41-.55,3.44-3.27,3.58-11.7,.6-11.71,.7-11.68-11.01,.01-6.28,.09-12.55,.14-18.83-.04-18.64-.03-37.28-.19-55.92-.19-7.01,10.47-2.72,14.93-3.94Zm-74.61,343.28c.04-9.97,.09-19.93,.13-29.9,4.94,.02,9.89,.04,14.83,.06,.01,9.95,.02,19.89,.03,29.84h-14.99Zm44.76-164.16s.04,.03,.05,.04c-3.01-4.7-1.33-9.88-1.52-14.87-9.4,0-18.8,0-28.2,.01-.53-11.66-3.07-17.38,11.5-14.9,7.42-.66-.24-11.64,4.51-14.39,3.3-1.99,9.33-.15,13.6-.68,.06,5.02,.09,10.03,.09,15.05l.03-.06c9.9-.17,19.8-.13,29.69,.12,.01,4.89,.02,9.79,.02,14.68-3.78,4.31-13.57-1.66-13.12,6.51,.4,9.54-1.06,10.52-12.1,10.11-1.66-.06-3.22-.43-4.49-1.57,0,.01,.01,.02,.01,.02l-.07-.07Zm74.69,89.54c-15.65,1.36-16.36,1.02-15.02-14.79,15.6-1.63,16.43-.85,15.02,14.79Zm29.74-48c.99,6-11.14,2.24-14.83,3.28-15.59,1.22-16.44,.9-14.95-14.93-42.04,.71-27.27-8.7-29.78,44.75-4.96-.04-9.92-.09-14.88-.13v-.17c-.08,.14-.15,.29-.23,.43-9.86-.02-19.71-.05-29.57-.08,0-5.02,0-10.03-.01-15.05h0c0-4.92,.01-9.84,.01-14.77h14.7c2.42,4.44,2.59,8.89,.72,13.34,4.68,0,9.44-1.07,13.96,.97-3.23-8.86-.73-19.57-1.2-28.99,.32-5.84-2.87-17.39,6.2-16.75,8.81-.11,8.41,.06,8.64-9.47,.44-6.08-1.78-13.33,1.64-18.77,4.97-.04,9.95-.09,14.92-.13,0,.02,0,.04-.01,.06,4.94-.01,9.89-.01,14.83-.02-.01,4.95-.01,9.89-.02,14.84l-.03,.03s.05-.01,.08-.01h0l-.05-.02c5.02,.03,10.03,.07,15.05,.1-.06,4.99-.12,9.98-.19,14.96,.05,4.94,.11,9.89,.16,14.83,4.17,.16,8.73-.25,12.78,.12,4.45,3.13,1.16,7.74,2.06,11.58Zm59.76,197.32c-.02,9.95-.03,19.9-.05,29.85-4.75,2.87-9.92,1.21-14.93,1.43-5.08-.1-10.29,1.3-15.17-1.27-3.17-9.1-.85-19.84-1.23-29.48-.03-.17-.06-.34-.08-.52-4.45-.02-8.89-.04-13.34-.06,.05-5,.1-10,.15-15h0c-.04-8.71,0-17.42-.18-26.12-.51-6.69,10.74-2.54,14.96-3.66v-.02c2.25,2.67,1.54,5.9,1.59,8.94,.01,7.8,9.35,2.01,13.33,5.99h0c4.19,1.07,14.83-2.84,15,3.36,.16,3.71-1.8,8.41,1.01,10.88,2.91,3.62,13.69-2.99,13.84,3.84,1.45,14.26-3.03,11.43-14.9,11.84Z" style="fill:#d36f17;"/><path d="M344.34,985.49s.06-.03,.08-.05v-.03s-.08,.08-.08,.08Z" style="fill:#d36f17;"/><path d="M268.79,791.43h-.04s-.02,.05-.03,.07c.01,0,.07-.07,.07-.07Z" style="fill:#d36f17;"/><path d="M268.28,791.43h.47c3.77-7.31,.92-16.75,1.68-24.82,.76-8.47-11.13-8-16.51-4.93-.05,9.52-.1,19.04-.15,28.56,9.45-2.69,13.08-1.43,14.51,1.19Z" style="fill:#d36f17;"/><path d="M720.06,454.15c.01-1.99,.03-3.98,.04-5.97-.72-.01-1.44-.02-2.16-.03,.19-.24,.35-.49,.47-.78,1.37-8.56,.6-17.16,.45-25.74-.02-1.18-.57-2.24-1.45-3.07-4.93-.03-9.87-.06-14.8-.09-.08,4.63-.17,9.27-.25,13.9-.54,5.3-.58,10.6-.01,15.9l.35-.06c4.6,2.66,9.34,1.97,14.11,.75-1.12,1.31-2,2.88-2.01,4.45v.89c2.06,.13,3.94,.17,5.26-.15Z" style="fill:#d36f17;"/><path d="M971.63,866.07c-.09-4.99,1.2-10.09-1.19-14.9-4.11-4.06-13.79,1.89-13.66-6.24,.75-5.27-.09-7.84-1.69-9.09,0-4.82,.01-9.64,.01-14.46l-13.17-.03c.06-6.9,.11-13.79,.03-20.7,.86-7.73-1.12-12.12-9.62-10.74-8.86,.71-3.08-9.07-6.83-13.52,.17-.18,.35-.35,.52-.53,1.22-4.97,2.01-9.91-.81-14.66-4.93-1.74-9.82-2.22-14.62,.31-.08-.09-.16-.19-.25-.28-.3-.21-.63-.39-.97-.54-.02,.01-.03,.03-.04,.04-5.57-1.09-16.19,3.54-14.99-5.71,.26-13.03,.09-26.07,.09-39.11,.58,0,1.16,.01,1.74,.01,1.94-5.66,1.87-25.72-.51-28.97,1.16-16.3,.72-15.9-15.06-15.03-17.46,.19-14.87,2.72-15.09-14.76h0c.03-9.92,.07-19.83,.1-29.75-4.93-.07-9.86-.14-14.78-.21h0c-.03-8.59-.16-17.18-.04-25.76,.5-7.2-10.33-2.8-14.79-3.93l-.33-.08h0c-.82-.01-1.64-.01-2.46-.02-3.7,1.35-8.67,1.59-11.93-.1h-.47c-.72-.34-1.44-.61-2.16-.85-3.6,.02-7.2,.04-10.8,.06-.61,.21-1.21,.45-1.82,.73,.02-.25,.04-.48,.06-.72-.4,0-.8,0-1.2,.01-2.34-2.43-1.35-6.22-1.5-9.22-.02-7.61-9.75-1.64-13.39-5.6-.14-11.7-3.54-17.41,11.59-14.88,6.04,.23,2.35-10.85,3.43-14.9-2.51-2.78-2.21-8.36-1.5-12.44,1.36-6.52,10.54-3.96,15.61-4.1-1.81-4.49-1.77-8.95,.84-13.39h1.07c.06-14.65-.09-29.29-.34-43.94-1.87-1.83-4.28-1.51-6.56-1.58-10.56,1.28-4.01-7.67-8.16-13.34h.02c.04-12.93,1.08-25.87,1.12-38.8-.08-1.95-.16-3.91-.24-5.86-2.47-2.39-5.61-1.63-8.49-1.64-3.3-.02-4.87-1.25-4.79-4.68,.06-2.8,.23-5.62-.27-8.41-.15-.88-.6-1.6-1.13-2.3,0-.33-.01-.66-.01-.99-.07-3.95-.14-7.9-.21-11.85-4.84-2.61-9.68-2.69-14.53-.23-.23-.25-.49-.47-.8-.64-.18-.04-.36-.07-.55-.11h0c-4.04,.02-8.08,.02-12.12,.03-.6,.22-1.19,.49-1.79,.82v-.02c-4.74,.12-11.02-1.55-13.82,.84-3.22,2.75-.66,9.24-1.13,14.08h0c-4.74,.11-11.03-1.58-13.82,.81-3.2,2.75-.62,9.24-1.15,14.08-.19,.41-.37,.83-.53,1.24,2.71,.19,5.28,.37,6.9-.06h0c5.19-4.41,17.32,2.14,16.47-7.68-.16-5.89,.17-11.79,8.01-11.28,4.17-.12,8.6-1.1,12.36,1.71,0,5.8,0,11.59,.01,17.39-5.89,4.69-17.36-3.48-16.49,8.01-1.91,12.51,10.17,4.51,16.5,9.31,.63,13.86,3.79,19.77-14.32,17.26-2.28,.2-4,.43-3.99,3.1,.09,15.87,.13,31.74,.23,47.61,2.2,3.68,1.16,8.55,1.44,12.73,.72,9.8-13.67,4.58-20.14,5.84,.11-16.03,1.48-17.58-8.28-17.41,.04,.11,.08,.22,.12,.32-2.1-.1-4.19-.14-6.29-.15-1.27,.03-2.63,.06-4.12,.08h0c-6.86,.22-11.5,.61-14.5,.01-1.52,.24-3.02,.72-4.48,1.63-3.13,8.93-.71,19.33-1.28,28.77,.16,17.7-.29,35.43-.05,53.15,.77,9.02-7.79,3.76-12.3,7.41-1.72,1.22-.91,3.04-.92,4.56-.09,7.43-.1,14.87,0,22.31,.13,7.19-12.11-.3-14.27,4.06-2,2.78-.71,7.91-.86,12.02-5.6,3.37-17.74-3.29-16.39,7.62-.12,8.1-.28,16.2,.12,24.29-.42,8.2-.14,16.42-.14,24.62,0,1.82,.18,3.62,1.5,5.08,0,4.99-.01,9.98-.01,14.96-3.46,9.06-.89,20-1.34,29.7-.39,12.51,0,25.03-.19,37.53,1.27,9.36-8.65,3.21-13.18,7.5-.05,9.37-.1,18.73-.15,28.1,4.57-2.37,12.94,1.91,12.3-5.94-.13-5.08,.13-10.17,6.47-9.72,3.37-.1,6.95-.95,9.98,1.47,0,4.99,0,9.99,.01,14.98-.13,.11-.27,.21-.41,.31,.01,4.77,.01,9.53-.03,14.29,.15,.1,.3,.21,.45,.32,.51,11.95,3.06,17.04-11.56,14.88-.56,.05-1.06,.11-1.51,.23-.72,.48-1.31,1.21-1.7,2.29,0,.05-.01,.09-.01,.15,.07,13.68,.1,27.35,.19,41.03,.38,.67,.63,1.39,.81,2.14,4.05,3.42,14.56-2.14,13.39,7.21,.08,2.33-.25,4.75,.97,6.87-2.59-.78-9.11-1.25-15.37-1.22-2.35,1.94-7.25,1.09-11.25,.87-1.29,.28-2.23,.63-2.64,1.06,.03,4.95,.06,9.9,.09,14.85,9.92-.01,19.83-.02,29.75-.04v.06c4.95,0,9.9-.01,14.85-.01v-.23c1.51,1.76,4.24,2.49,9.06,1.8,7.84,0,2.05,9.47,5.93,13.49,1.36,4.78-3.46,15.26,4.33,14.88,14.56-.2,29.12-.14,43.67-.04,11.11-1.49,13.54-.3,11.66,11.3-.05,2.82,.86,3.7,3.67,3.66,22.31-4.18,4.14,14.05,14.82,14.9,8.76-.21,17.53-.14,26.3-.18,1.32-5.37-3.66-15.73,5.34-14.92,26.35,.24,52.7-.02,79.04,.25,4.62,.05,5.49-1.38,5.29-5.55-.33-6.94,.04-13.92-.15-20.87-.08-2.87,.88-3.68,3.67-3.61,7.29,.17,14.59-.11,21.87,.14,3.38,.11,4.61-.72,4.46-4.32,1.26-26.46-6.7-26.09,14.77-25.71,2.08-1.93,1.57-4.52,1.65-6.91-1.83-15.08,21.15,5.51,13.7-22.62,4.9,2.4,9.85,2.08,14.82,.06,2.51-4.85,1.12-10.06,1.23-15.15Zm-226.86-299.48c-2.44-6.08-.98-12.44-1.19-18.67-.12-3.69-.98-7.63,1.6-10.98h-.02l.06-.06s-.03,.04-.04,.06c5.01,.05,10.02,.1,15.03,.15,8.78-.05,17.56-.03,26.33-.18,2.51-.04,3.8,.69,3.44,3.36,.33,10.88,.67,11.76-10.57,11.52-7.78-.34-3.13,10.12-4.49,14.93-3.99,2.29-11.49,3.08-14.81-.13v.18h.04c-.01,9.96-.03,19.92-.04,29.89-.22,.21-.44,.42-.66,.64-4.77,1.17-9.53,2.02-14.1-.73-.08-4.92-.16-9.84-.25-14.77-2.36-5-2.48-9.99,.06-14.97-.12-.09-.26-.16-.39-.24Zm-44.31,224.04c.01,4.97,.03,9.94,.04,14.91-4.95-.02-9.89-.05-14.84-.07-1.94-15.44-.53-16.22,14.73-14.91,.04-9.92,.08-19.83,.12-29.75-.02,.01-.04,.02-.07,.03l.07-.06v.03c4.93-2.61,9.87-2.56,14.82-.03,.02,9.96,.05,19.91,.07,29.87-4.98-.01-9.96-.02-14.94-.02Zm44.65-89.65c-4.87,.04-10.07,.04-14.78,.1-2.59-4.97-2.61-9.94-.06-14.91-4.93-.03-9.85-.05-14.78-.08-.05-11.55-2.46-16.83,11.6-14.91,5.93,.03,2.24,10.82,3.25,14.93,15.48-1.01,16.58-1.28,14.77,14.87Zm.02-44.59c-15.43,.94-16.58,1.23-14.71-14.93,17.13-.34,14.83-1.85,14.78,14.86,15.44-1.26,16.51-1.01,14.89,14.86-15.43,1.66-16.22,.62-14.96-14.79Zm14.99,241.57c.09-5.38,7.89-1.82,11.32-2.93,2.82-.19,3.71,.89,3.67,3.68-.15,8.72-.08,17.44-.09,26.17,.02,0,.04-.01,.06-.01l-.06,.06v-.06c-23.4,3.37-12.94-6.88-14.9-26.91Zm15.05,42.82c4.83-1.92,9.85-.61,14.78-.91,.01,4.94,.03,9.88,.04,14.81-13.75,.34-15.89,1.04-14.82-13.9Zm14.87-150.21c-.02-4.98-.05-9.96-.07-14.93,15.53-1.04,16.59-1.23,14.88,14.86-4.92,2.73-9.86,2.66-14.81,.07Zm29.94,104.52c-.04,9.95-.08,19.91-.11,29.86-4.96-.06-9.93-.11-14.89-.17-2.71-4.93-2.47-9.89-.19-14.89l.06-29.61c-2.47-4.73-1.9-9.59-.56-14.47,.22-.22,.45-.43,.68-.65,15.67-1.18,16.09-.95,15,14.95,2.33,4.99,2.33,9.98,0,14.98Zm14.74-208.97h.07c.03-4.94,.06-9.87,.09-14.81,17.06-.32,14.88-1.98,14.79,14.84h.02v.02c8.53,0,17.07,.1,25.6-.06,7.59-.38,3.01,10.3,4.22,15-9.93-.02-19.86-.03-29.79-.05v.07c-15.75,1.24-16.19,.92-15-15.01Zm18.83,268.68c-3.1,.17-3.97-1.11-3.93-4.05,.12-8.57,0-17.14-.02-25.71,5.01-.05,10.01-.11,15.02-.16l.02,.02c4.93-2.5,9.86-2.62,14.77,.11v14.71c3.82,23.8-8.27,12.92-25.86,15.08Zm11.07-59.72l-.04-.04s.03,.01,.04,.02c-.04-17.12-2.49-14.93,14.75-15,.08,4.97,.17,9.93,.26,14.9-4.78,2.7-10.11,2.64-15.01,.1v.02Zm29.96-29.78c-.04-8.58-.21-17.17-.07-25.75,.06-3.25-1.03-4.21-4.25-4.24-13.01,.97-10.5-4.26-10.76-14.81-15.71,1.27-16.15,.94-14.94-14.99,15.74-1.26,16.2-.96,14.99,14.94,9.93,.02,19.85,.03,29.78,.05v-.06l.06,.06h-.06c.04,14.88,.09,29.75,.13,44.63-4.96,.05-9.92,.11-14.88,.17Zm14.76-59.79s.04,0,.06-.01l-.06,.06v-.05c-15.77,1.66-16.24,.57-14.87-14.87h-.05l.06-.06v.05c15.47-1.36,16.5-.88,14.86,14.88Z" style="fill:#d36f17;"/><path d="M388.11,821.34s.04-.02,.06-.03v-.03s-.06,.06-.06,.06Z" style="fill:#d36f17;"/><path d="M776.1,387.67c-.05-4.97-.09-9.95-.13-14.92-4.74,.12-10.88-1.51-13.83,.85-3.13,2.51-.55,8.93-1.04,13.61-.02,.16-.03,.33-.04,.49h2.93c4.04-.01,8.08-.01,12.12-.02-.01,0-.01,0-.01,0Z" style="fill:#9d3f01;"/><path d="M730.34,686.09c-1.01-4.11,2.68-14.89-3.25-14.93-14.06-1.92-11.65,3.36-11.6,14.91,4.93,.03,9.85,.05,14.78,.08-2.55,4.98-2.53,9.95,.06,14.91,4.72-.05,9.91-.06,14.78-.1,1.81-16.13,.71-15.86-14.77-14.87Z" style="fill:#9d3f01;"/><path d="M789.97,775.63c.02,4.98,.05,9.96,.07,14.93,4.95,2.59,9.88,2.66,14.81-.07,1.71-16.09,.65-15.9-14.88-14.86Z" style="fill:#9d3f01;"/><path d="M745.2,656.32c.05-16.71,2.35-15.2-14.78-14.86-1.88,16.16-.72,15.87,14.71,14.93-1.26,15.4-.47,16.45,14.96,14.78,1.63-15.86,.55-16.11-14.89-14.85Z" style="fill:#9d3f01;"/><path d="M402.04,820.42l.02-.05c.58,.07,1.13,.14,1.67,.2,13.85,1.57,14.65-.44,13.13-15.02-4.8,0-9.6,.01-14.4,.01h-.51c-2.4,4.38-2.4,10.25,.09,14.86Z" style="fill:#9d3f01;"/><path d="M401.96,805.53c.03-.33,.05-.65,.08-.97,1.24-14.79,.69-15.33-14.95-14v14.99c.97,.49,1.95,.88,2.92,1.18,4,1.24,7.98,.86,11.95-1.2Z" style="fill:#9d3f01;"/><path d="M402.03,805.5s-.04,.02-.06,.03v.04s.06-.07,.06-.07Z" style="fill:#9d3f01;"/><path d="M819.15,535.42c-5.07,.14-14.25-2.42-15.61,4.1-.71,4.08-1.01,9.65,1.5,12.44-1.08,4.05,2.61,15.13-3.43,14.9-15.13-2.53-11.73,3.18-11.59,14.88,3.64,3.96,13.37-2,13.39,5.6,.15,3-.84,6.79,1.5,9.22,.4,0,.8,0,1.2-.01,.59,0,1.18-.01,1.76-.01,3.6-.02,7.2-.04,10.8-.06,.36,0,.73,0,1.09-.01v-.2c.45,.42,.97,.77,1.54,1.06,3.26,1.69,8.23,1.46,11.93,.1,.61-.22,1.19-.48,1.72-.76-.01-6.98-.02-13.96-.03-20.94-.11-12.92-.21-25.84-.32-38.76,.05-4.98,.1-9.96,.15-14.94-4.56,0-9.12-.01-13.68-.01h-1.07c-2.61,4.45-2.66,8.91-.85,13.4Z" style="fill:#9d3f01;"/><path d="M416.84,497.13c.14,18.21-.01,36.42-.05,54.63,4.23-1.05,15.51,3.14,15.09-3.56-.7-3.86,0-7.63,.69-11.34,10.96,.03,16.16,2.17,14.25-11.35,.03-6.43-10.63-2.39-14.86-3.41-.07-10.01-.15-20.02-.22-30.02-5.11,1.25-15.64-3.38-14.9,5.05Z" style="fill:#9d3f01;"/><path d="M507.53,909.29c-2.81-2.47-.85-7.17-1.01-10.88-.18-6.2-10.81-2.3-15-3.37h0c-3.97-3.96-13.31,1.82-13.33-5.98-.05-3.03,.67-6.27-1.58-8.94v.02c-4.23,1.12-15.49-3.03-14.97,3.66,.17,8.71,.13,17.42,.18,26.12h0c-.05,5-.1,10-.15,15,4.45,.02,8.89,.04,13.34,.06,.02,.18,.05,.35,.08,.52,.38,9.64-1.94,20.37,1.23,29.48,4.88,2.57,10.09,1.17,15.17,1.27,5-.21,10.18,1.44,14.93-1.43,.02-9.95,.03-19.9,.05-29.85,11.87-.42,16.35,2.42,14.91-11.85-.16-6.82-10.94-.21-13.85-3.83Z" style="fill:#9d3f01;"/><path d="M446.76,616.32c0,10.3,0,10.14,10.16,10.23,3.63,.03,4.95-.92,4.84-4.72-.22-7.49-.1-14.99-.06-22.48,0-.38,0-.76,.01-1.13,0-.54,.01-1.09,.01-1.63-21.74-1-13.31,1.94-14.96,19.73Z" style="fill:#9d3f01;"/><path d="M461.72,596.53v.05h.05s-.05-.05-.05-.05Z" style="fill:#9d3f01;"/><path d="M416.81,626.58c0-10.02,0-20.04,.01-30.06-4.46,1.24-15.35-3.06-14.87,4.08,2.04,25.3-7.37,26.65,14.86,25.98Z" style="fill:#9d3f01;"/><path d="M388.05,387.74c.06,4.99,.11,9.99,.17,14.98,.49,0,.97-.02,1.46-.03h.11c2.79-.08,5.6-.26,8.35,.02,4.15,.42,5.19-1.36,4.9-5.12-.2-2.59-.1-5.21-.03-7.83,.02-.7,.03-1.4,.04-2.1-.13-4.73,1.54-10.97-.85-13.78-2.55-3.01-8.31-.99-12.98-1.09-.36-.01-.71-.02-1.06-.06-2.77,4.98-2.59,9.98-.11,15.01Z" style="fill:#9d3f01;"/><path d="M373.12,447.43c4.95,.02,9.9,.04,14.85,.07v-30.07c-3.28,.04-6.57,.31-9.83,.07-3.72-.27-5.24,.75-5.08,4.85,.31,8.35,.07,16.72,.06,25.08Z" style="fill:#9d3f01;"/><path d="M417,462.43q-15.44-.57-14.9,14.86c17.15-.04,14.83,2.34,14.9-14.86Z" style="fill:#9d3f01;"/><path d="M439.75,566.8c-8.84,.01-7.81-1.07-7.91,7.37,0,7.53,0,7.59,6.28,7.52,9.22-.1,8.65,1.34,8.62-6.63-.03-9.12,1.13-8.27-6.99-8.26Z" style="fill:#9d3f01;"/><path d="M909.33,820.43v.06h.06l-.06-.06Z" style="fill:#9d3f01;"/><path d="M879.56,820.44c1.21-15.9,.75-16.2-14.99-14.94-1.21,15.94-.77,16.26,14.94,14.99,.27,10.55-2.24,15.78,10.76,14.81,3.22,.03,4.31,.99,4.25,4.24-.15,8.58,.02,17.17,.07,25.75,4.96-.06,9.92-.12,14.88-.18-.04-14.88-.09-29.75-.13-44.63-9.93-.01-19.86-.03-29.78-.04Z" style="fill:#9d3f01;"/><path d="M879.41,925.01c-4.91-2.73-9.83-2.61-14.77-.11l-.02-.02c-5.01,.05-10.01,.11-15.02,.16,.02,8.57,.14,17.14,.02,25.71-.04,2.93,.83,4.21,3.93,4.05,17.58-2.17,29.68,8.71,25.85-15.08,.01-4.9,.01-9.8,.01-14.71Z" style="fill:#9d3f01;"/><path d="M775.17,940.78c-1.07,14.94,1.08,14.24,14.82,13.9-.01-4.94-.03-9.88-.04-14.81-4.93,.3-9.96-1.01-14.78,.91Z" style="fill:#9d3f01;"/><path d="M655.68,908.96c.96-.8,1.5-2.06,1.36-4.03-.18-2.84,.3-6.04-.36-8.83-.18-.75-.43-1.47-.81-2.14-.09-13.68-.12-27.35-.19-41.03,0-.06,.01-.1,.01-.15,.04-1.48,.7-2.04,1.7-2.29,.45-.11,.95-.17,1.51-.23,14.62,2.16,12.07-2.93,11.56-14.88-.14-.12-.29-.22-.45-.32-5.21-3.44-14.37,2.77-12.88-7.7-.68-9.62,8.05-3.24,12.91-6.59,.14-.1,.28-.2,.41-.31,0-4.99,0-9.99-.01-14.98-3.03-2.42-6.61-1.57-9.98-1.47-6.33-.44-6.59,4.65-6.47,9.72,.64,7.85-7.74,3.57-12.3,5.94-.36,.19-.69,.41-1,.68h0c-4.13,1.16-15.68-2.81-14.95,3.69,.12,8.72-.02,17.44-.06,26.17-4.18,1.1-15.58-2.78-14.85,3.67,.15,9.08-.06,18.16,.1,27.24-1.98,16.12,.15,14.56,14.84,14.07h0c16.85-.2,15.09-2.68,14.98,14.79,1.02-.21,2.28-.21,3.64-.14,4.04,.21,8.94,1.07,11.29-.88Z" style="fill:#9d3f01;"/><path d="M262.92,820.46c2.92-.27,5.01,.03,4.82,3.49,.86,11.71-.57,11.29-11.79,11.43-2.3-.24-3.25,.68-3.22,3.08,.1,7.95,.05,15.91,.03,23.86-.01,1.66,.28,2.64,2.35,2.95,11.12,1.65,12.48,.62,12.58-10.16-.23-1.01-.24-1.83-.08-2.48,.42-1.75,2.04-2.38,4.14-2.54,3.44-.26,8.14,.74,10.83,.12,.02-.02,.03-.03,.05-.05,.43-.4,.74-.85,.98-1.33,.88-1.81,.61-4.12,.67-6.07,.04-9.12,.03-18.23,.01-27.35-.02-8.69,.72-12.01-10.37-11.6-6.3,.13-3.82-6.58-5.1-11.09-.13-.45-.3-.88-.52-1.28-1.44-2.62-5.07-3.89-14.51-1.19-.33,.09-.66,.19-1.01,.29v19.88q-.01,9.94,10.14,10.04Z" style="fill:#9d3f01;"/><path d="M357.23,820.48s.01,0,.02-.01h0s-.02,.01-.02,.01Z" style="fill:#9d3f01;"/><path d="M358.13,983.97c.01-4.78-.83-9.55-.75-14.33,3.05-8.82,1.55-19.1,1.29-28.89-.07-2.63-.05-5.23,.17-7.76-1.32-9.79,6.47-4.71,11.86-7.3,.29-.14,.57-.29,.84-.48,.16-.11,.32-.23,.47-.35,.59-10.55-2.18-15.95,10.84-14.78,3.65,.02,4.36-1.31,4.29-4.59-.15-7.66-.03-15.33,.02-23,.01-.75,.01-1.51,.02-2.26,.43-.85,.77-1.7,1.04-2.55,1.09-3.51,.84-7.06-.1-10.63-.15-.58-.32-1.17-.51-1.75-14.16-5.47-13.99,3.93-13.88-13.91,.02-2.73,.03-6.09,0-10.25-.03-7.18,8.84-2.47,12.94-5.09,.56-.36,1.03-.85,1.38-1.53,.02-.16,.04-.32,.06-.47,.51-3.85,1.34-7.72,.06-11.42-.16-.45-.35-.9-.58-1.35-.23-.46-.49-.91-.8-1.36-9.53-1.59-20.58-2.65-29.54,.54-.36,.68-.66,1.35-.92,2.03-1.62,4.27-1.22,8.56,.72,12.88,.01,.02,.02,.05,.03,.07v14.78c-.26,.73-.48,1.47-.67,2.23-2.2,8.38-.73,18.18-.18,26.82,1.97,3.52,7.01,2.15,10.28,2.39,4.58,.08,4.07,3.27,4.12,6.22,1.49,9.28-9.02,3.25-13.26,7.15-.03,.02-.06,.04-.08,.07-.57,4.3,1.42,10.26-.6,13.56-2.59,4.98-14.23-2.92-14.45,4.7,2.47,15.16-3.19,11.52-14.83,11.57-.1,5.5-.13,11.01-.1,16.51,.02,4.22,.08,8.44,.19,12.66,0,.19,.01,.39,.01,.58,4.98,1.31,15.51-3.47,14.89,4.82-.34,8.36,.88,16.75,.87,25.13,.61-.01,1.23-.01,1.84-.02,.31,0,.62-.01,.94-.01,4.03-.04,8.06-.07,12.09-.11-.01-.17-.01-.34-.01-.52Z" style="fill:#9d3f01;"/><path d="M745.16,536.93h.02s.03-.04,.04-.06c0,0-.06,.06-.06,.06Z" style="fill:#9d3f01;"/><path d="M328.31,612.26s.07,.02,.1,.03c4.07,1.35,8.11,1.67,12.11,.07,.6-.24,1.2-.52,1.8-.85,0-1.52-.01-3.04-.01-4.56-.05-18.34-.1-36.69-.16-55.03,0-9.99,0-19.98,.01-29.97v-14.8c-4.52-.03-9.05-.06-13.57-.09-.35,0-.7,0-1.05-.01,0,4.99-.01,9.99-.01,14.98h0c.01,9.93,.01,19.86,.02,29.79h0c-.73,14.26-.1,28.58-.31,42.87-1.33,5.63-2.93,11.25-.18,16.88,.05,.1,.08,.19,.13,.29,.37,.15,.75,.28,1.12,.4Z" style="fill:#9d3f01;"/><path d="M357.23,585.68c-.02,11.71-.01,11.61,11.68,11.01,2.72-.14,3.31-1.17,3.27-3.58-.13-8.75-.13-17.51-.17-26.26h0c1.2-4.35-2.9-15.42,3.93-15.07,10.88,1.79,12.59-.45,11.05-11.08,1.54-11.95,18.68,9.23,14.87-17.69h-18.26c6.4,1.15,1.54,4.26,2.47,8.08q-.05,6.17-6.3,5.84c-12.54,.92-6.19-21.61-7.66-29.94-4.46,1.22-15.12-3.06-14.94,3.93,.16,18.64,.15,37.28,.19,55.92-.04,6.28-.12,12.56-.13,18.84Z" style="fill:#9d3f01;"/><path d="M444.64,716.1c-4.05-.37-8.61,.05-12.78-.12-.05-4.94-.11-9.89-.16-14.83,.06-4.99,.12-9.98,.19-14.96-5.02-.03-10.03-.07-15.05-.1l.05,.02h0s-.05,.01-.08,.01l.03-.03c.01-4.95,.01-9.89,.02-14.84-4.94,.01-9.89,.01-14.83,.02,0-.02,0-.04,.01-.06-4.97,.04-9.95,.09-14.92,.13-3.42,5.45-1.2,12.69-1.64,18.77-.23,9.52,.16,9.36-8.64,9.47-9.07-.64-5.88,10.91-6.2,16.75,.47,9.43-2.03,20.13,1.2,28.99-4.52-2.03-9.28-.96-13.96-.97,1.87-4.45,1.7-8.9-.72-13.34h-14.7c0,4.92-.01,9.84-.01,14.77h0c0,5.02,0,10.03,.01,15.05,9.86,.03,19.71,.05,29.57,.08,.08-.14,.15-.29,.23-.43v.17c4.96,.04,9.92,.09,14.88,.13,2.51-53.45-12.25-44.05,29.78-44.75-1.5,15.83-.64,16.14,14.95,14.93,3.69-1.04,15.82,2.72,14.83-3.28-.9-3.86,2.39-8.47-2.06-11.58Z" style="fill:#9d3f01;"/><path d="M804.96,865.17c-.23,.21-.46,.43-.68,.65-1.34,4.88-1.91,9.74,.56,14.47l-.06,29.61c-2.29,4.99-2.53,9.96,.19,14.89,4.96,.06,9.93,.11,14.89,.17,.04-9.95,.08-19.91,.11-29.86,2.33-4.99,2.33-9.99-.01-14.98,1.09-15.9,.68-16.14-15-14.95Z" style="fill:#9d3f01;"/><path d="M775.08,924.87s-.04,.01-.06,.01v.06s.06-.07,.06-.07Z" style="fill:#9d3f01;"/><path d="M775.11,898.71c.05-2.79-.85-3.87-3.67-3.68-3.42,1.11-11.23-2.45-11.32,2.93,1.95,20.04-8.5,30.28,14.89,26.92,.02-8.73-.05-17.45,.1-26.17Z" style="fill:#9d3f01;"/><path d="M894.35,755.04c-1.2,9.25,9.42,4.62,14.99,5.71,.02-.01,.03-.03,.04-.04,1.16-.97,1.52-2.53,1.57-3.97,.23-12.08,.18-24.16,.02-36.23-.02-1.65-.24-3.33-1.73-4.46-4.35-.03-8.7-.07-13.05-.1-.58,0-1.16-.01-1.74-.01-.01,13.03,.15,26.07-.1,39.1Z" style="fill:#9d3f01;"/><path d="M894.41,790.64h.05v-.05s-.05,.05-.05,.05Z" style="fill:#9d3f01;"/><path d="M909.4,805.5s-.04,0-.06,.01c0,.02,0,.04-.01,.06l.07-.07Z" style="fill:#9d3f01;"/><path d="M894.47,790.64c-1.36,15.45-.9,16.53,14.87,14.87,1.64-15.76,.61-16.24-14.87-14.87Z" style="fill:#9d3f01;"/><path d="M700.51,760.8c-.04,9.92-.08,19.83-.12,29.75-15.26-1.31-16.67-.53-14.73,14.91,4.95,.02,9.89,.05,14.84,.07-.01-4.97-.03-9.94-.04-14.91,4.98,0,9.96,.01,14.94,.01-.02-9.96-.05-19.91-.07-29.87-4.95-2.52-9.89-2.57-14.82,.04Z" style="fill:#9d3f01;"/><path d="M700.45,760.83s.04-.02,.07-.03v-.03s-.07,.06-.07,.06Z" style="fill:#9d3f01;"/><path d="M864.62,895.08v-.02s-.03-.01-.04-.02l.04,.04Z" style="fill:#9d3f01;"/><path d="M879.63,894.96c-.09-4.97-.17-9.93-.26-14.9-17.24,.06-14.79-2.12-14.75,15,4.9,2.54,10.23,2.6,15.01-.1Z" style="fill:#9d3f01;"/><path d="M297.64,820.38c-.04,9.97-.09,19.93-.13,29.9,5,0,10,0,14.99-.01-.01-9.95-.02-19.89-.03-29.84-4.94-.01-9.88-.03-14.83-.05Z" style="fill:#9d3f01;"/><path d="M745.11,581.78c.08,4.92,.16,9.84,.25,14.77,4.57,2.75,9.33,1.9,14.1,.73,.22-.21,.44-.43,.66-.64,.01-9.96,.03-19.93,.04-29.89h-.04v-.18c3.32,3.21,10.82,2.42,14.81,.13,1.36-4.82-3.28-15.27,4.49-14.93,11.24,.25,10.9-.64,10.57-11.52,.36-2.67-.93-3.4-3.44-3.36-8.78,.15-17.56,.13-26.33,.18-5.01-.05-10.02-.1-15.03-.15-2.57,3.35-1.72,7.3-1.6,10.98,.21,6.23-1.25,12.58,1.19,18.67,.14,.08,.27,.15,.41,.23-2.55,4.99-2.43,9.98-.08,14.98Z" style="fill:#9d3f01;"/><path d="M849.71,701.04c9.93,.02,19.86,.03,29.79,.05-1.21-4.7,3.37-15.38-4.22-15-8.53,.17-17.07,.06-25.6,.06v-.02h-.02c.1-16.81,2.27-15.16-14.79-14.84-.03,4.94-.06,9.87-.09,14.81h-.07c-1.19,15.93-.75,16.25,14.99,14.99,0,0,0-.02,0-.05Z" style="fill:#9d3f01;"/><path d="M358.92,677.63c-.45-8.17,9.34-2.2,13.12-6.51-.01-4.89-.02-9.79-.02-14.68-9.9-.25-19.79-.29-29.69-.12l-.03,.06c.01-5.02-.02-10.03-.09-15.05-4.26,.54-10.3-1.31-13.6,.68-4.74,2.74,2.91,13.73-4.51,14.39-14.57-2.47-12.03,3.24-11.5,14.9,9.4,0,18.8,0,28.2-.01,.2,4.99-1.48,10.17,1.52,14.87,1.28,1.15,2.83,1.51,4.49,1.57,11.05,.42,12.51-.56,12.11-10.1Z" style="fill:#9d3f01;"/><path d="M342.27,686.12l.07,.07s-.01-.02-.01-.02c-.02-.02-.04-.03-.06-.05Z" style="fill:#9d3f01;"/><path d="M401.94,760.87c-1.34,15.81-.63,16.15,15.02,14.79,1.41-15.64,.58-16.42-15.02-14.79Z" style="fill:#9d3f01;"/><path d="M720.17,506.34h0c1.49-.02,2.85-.05,4.12-.08,2.43-.07,4.47-.14,6.16-.17,9.75-.17,8.38,1.38,8.28,17.41,6.47-1.26,20.86,3.95,20.14-5.84-.28-4.18,.76-9.05-1.44-12.73-.11-15.87-.15-31.74-.23-47.61-.01-2.67,1.7-2.9,3.99-3.1,18.11,2.51,14.95-3.4,14.32-17.26-6.32-4.8-18.41,3.19-16.5-9.31-.87-11.49,10.6-3.32,16.49-8.01,0-5.8,0-11.59-.01-17.39-3.76-2.81-8.19-1.83-12.36-1.71-7.84-.51-8.16,5.39-8.01,11.28,.85,9.82-11.28,3.27-16.47,7.69h0c-1.63,.42-4.2,.25-6.9,.05-5.79-.41-12.23-.91-11.61,4.22,.12,8.13,.03,16.26-.03,24.39-.02,1.99-.03,3.98-.04,5.97-1.31,.32-3.2,.28-5.27,.15-6.1-.38-13.8-1.48-13.12,4.11,.19,10.53-.07,21.07,.13,31.61-1.53,11.66-1.08,15.35,3.88,16.33,2.98,.61,7.62,.22,14.48,0Z" style="fill:#9d3f01;"/></g></svg>