<?xml version="1.0" encoding="UTF-8"?><svg id="a" xmlns="http://www.w3.org/2000/svg" width="1338.33" height="1370.77" viewBox="0 0 1338.33 1370.77"><path d="M740.8,1370.72H178.5c-1.8-1.47-2.46-3.41-2.52-5.67-.05-1.75-.13-3.51-.13-5.27-.02-86.63-.03-173.26,.03-259.88,0-3.65-.52-7.48,1.95-10.72,.29-.25,.56-.66,.9-.72,11.8-2.19,23.58-3,35.31,.43,1.71,1.82,2.14,4.08,2.15,6.45,.07,21.32,.48,42.63-.22,63.94,.49,7.56,.29,15.15,.33,22.72,.05,9.89,.45,10.3,10.08,10.35,4.66,.03,9.33-.04,13.99,.04,9.54,.17,10.85,1.44,11.03,10.78,.1,5.25-.02,10.5,.06,15.74,.12,7.57,.96,8.44,8.37,8.56,5.44,.09,10.88-.02,16.33,.06,2.52,.04,5.07,.01,7.4,1.24,.66,.35,1.18,.83,1.59,1.45,1.67,2.85,1.4,6.02,1.42,9.12,.08,16.56-.04,33.13,.06,49.69,.05,7.73,1.02,8.62,8.87,8.72,4.09,.05,8.19,.06,12.28,0,7.5-.12,8.49-1.08,8.64-8.41,.12-6.04-.14-12.09,.16-18.12,.32-6.39,2.14-8.33,8.61-8.46,17.15-.34,34.3-.06,51.44-.15,9.44-.05,10.02-.63,10.09-9.87,.04-5.26-.04-10.52,.07-15.78,.06-2.74,.16-5.48,2.13-7.71,1.72-1.61,3.92-1.65,6.04-1.66,21.41-.07,42.81-.49,64.21,.22,19.42-.72,38.85-.15,58.28-.34,9.23-.09,9.61-.65,9.91-10.07,.23-7.33-1.19-14.76,1.21-21.98,.34-.67,.83-1.21,1.45-1.63,2.83-1.69,6-1.42,9.09-1.44,14.18-.07,28.37-.02,42.55-.03,17.03-.02,15.93,1.18,15.94-15.65,0-3.5-.03-6.99,.07-10.49,.07-2.55,.3-5.06,2.05-7.13,1.84-1.81,4.23-1.74,6.52-1.77,9.63-.1,19.27-.39,28.89,.23,9.34-.57,18.69-.41,28.04-.25,8.19,.13,9.72,1.78,9.96,10.15,.17,6.04,.06,12.08,.1,18.12,.03,4.6,2.17,6.75,6.79,6.76,6.04,.01,12.08-.05,18.12,.08,2.73,.06,5.48,.03,7.83,1.78,2.35,2.28,2.24,5.27,2.3,8.19,.14,6.24,.04,12.48,.09,18.72,.04,4.39,2.11,6.37,6.47,6.38,17.36,.04,34.71,.06,52.07-.01,4.41-.02,6.34-2.14,6.38-6.47,.05-6.24-.04-12.48,.09-18.72,.06-2.74,.08-5.49,1.97-7.77,2.39-2.16,5.36-2.03,8.28-2.09,6.23-.14,12.46,0,18.69-.11,4.09-.07,6.02-2.05,6.11-6.12,.14-6.81-.14-13.63,.18-20.44,.3-6.47,2.01-8.14,8.58-8.43,5.83-.25,11.68-.05,17.52-.12,7.91-.11,8.78-.95,8.9-8.67,.09-5.64-.05-11.29,.09-16.93,.07-2.73,.09-5.49,2.23-7.63,1.63-1.21,3.49-1.69,5.47-1.75,8.37-.24,16.73-.26,25.1,.01,1.79,.06,3.46,.5,4.96,1.48,2.3,1.99,2.45,4.72,2.53,7.46,.16,6.02-.02,12.05,.11,18.07,.14,6.79,1.12,7.8,7.77,7.94,8.35,.18,16.71-.21,25.07,.37,9.73-.63,19.47-.36,29.2-.23,2.13,.03,4.32,.06,6.04,1.67,1.94,2.23,2.06,4.96,2.12,7.71,.14,6.05-.07,12.1,.12,18.15,.19,5.98,1.39,7.21,7.29,7.42,6.05,.21,12.1-.06,18.15,.15,7.66,.27,9.29,1.86,9.57,9.37,.19,5.27,.04,10.54,.09,15.81,.08,8.95,.88,9.82,9.64,9.87,14.64,.07,29.28,.01,43.91,.02,2.54,0,5.08-.03,7.61,.09,7.12,.36,8.89,2.01,9.01,9.32,.28,16.98,.04,33.96,.12,50.94,.04,9.14,.8,9.88,10.14,9.92,16.59,.07,33.18-.12,49.77,.09,8.63,.11,10.11,1.7,10.32,10.4,.14,5.85-.1,11.71,.12,17.56,.21,5.54,1.49,6.81,7.09,7.03,6.43,.25,12.88-.12,19.32,.21s8.28,2.13,8.53,8.59c.29,7.61,.19,15.22,.04,22.83-.05,2.43-.52,4.65-2.56,6.25h-386.58c-2.5-1.9-2.54-4.65-2.59-7.41-.11-6.24-.05-12.48-.07-18.72-.01-4.41-2.03-6.39-6.43-6.36-5.65,.04-11.31,.04-16.97,0-4.39-.03-6.41,1.94-6.43,6.36-.02,6.24,.04,12.48-.07,18.72-.09,2.8-.13,5.55-2.63,7.45Z" style="fill:#080607;"/><path d="M951.63,1159.86c-11.72-.05-23.44-.1-35.15-.14-2.31-1.71-2.51-4.22-2.52-6.77-.05-9.28-.38-18.56,.26-27.83-.59-8.52-.17-17.06-.39-25.59-.15-6.01-1.24-7.09-7.22-7.26-6.01-.17-12.02,.02-18.04-.1-2.91-.06-5.86-.03-8.19-2.27-1.88-2.34-1.57-5.16-1.59-7.84-.12-18.28-.17-36.56,0-54.84,.09-8.99,1.58-10.57,10.68-10.49,8.7,.08,17.48-1.18,26.11,.95,.72,.28,1.34,.71,1.86,1.28,2.2,3.32,1.61,7.1,1.69,10.75,.11,4.86-.07,9.72,.07,14.57,.18,6.32,1.19,7.3,7.68,7.46,6.22,.15,12.44,.06,18.65,.09,4.43,.03,7.53,1.57,8.62,6.13,.3,4.28,.16,8.57,.16,12.86,0,16.97-.97,16.1,16.38,16.08,12.67-.01,25.34,0,38.01,0,47.57,0,95.13-.03,142.7,.05,3.82,.01,7.84-.78,11.38,1.56,2.27,2.28,2.27,5.23,2.33,8.15,.14,6.21,.08,12.42,.07,18.63-.01,4.59,2,6.76,6.66,6.76,6.6,0,13.2-.11,19.8,.11,2.31,.08,4.71-.04,6.58,1.76,2.66,3.35,1.96,7.34,2.06,11.16,.13,5.22,.05,10.45,.07,15.68,.02,4.32,2,6.37,6.35,6.41,6.39,.06,12.77-.08,19.16,.11,2.67,.08,5.49-.24,7.65,1.95,1.76,2.33,1.86,5.06,1.91,7.8,.1,5.66-.03,11.32,.08,16.97,.13,7.13,1.13,8.23,8.17,8.29,15.61,.13,31.22,.03,46.83,.05,2.73,0,5.46,.01,8.19,.19,2.46,.16,4.6,.87,5.88,3.18,2.43,10.15,1.38,20.47,.91,30.66-.42,9.31-.45,18.6-.62,27.89,.09,12.2,1.23,24.37,1.01,36.59-.1,5.62,1.24,6.68,6.98,6.86,6.01,.2,12.02,0,18.03,.11,2.75,.05,5.48,.12,7.37,2.59,0,22.26-.06,44.52,.08,66.77,.02,2.93-.66,3.6-3.59,3.59-33.97-.12-67.94-.08-101.92-.08-2.27-1.74-2.52-4.24-2.58-6.83-.14-5.85,.03-11.7-.11-17.55-.16-6.68-1.31-7.85-7.87-8.06-4.29-.13-8.58-.03-12.87-.05-13.77-.07-14.31-.58-14.35-14.1-.04-15.41,.03-30.82-.03-46.22-.03-9.14-.82-9.86-10.13-9.96-5.66-.06-11.32,.19-16.96-.18-5.74-.37-7.54-2.18-7.88-7.98-.37-6.43-.01-12.87-.21-19.3-.19-6.2-1.44-7.43-7.72-7.63-6.24-.19-12.49,.13-18.72-.18-6.48-.32-8.37-2.07-8.51-8.57-.36-16.97-.07-33.94-.15-50.9-.05-9.99-.68-10.67-10.61-10.68-50.51-.04-101.03,.02-151.54-.07-3.79,.02-7.95,.97-10.95-2.57Z" style="fill:#230946;"/><path d="M951.63,1159.86h168.06c7.67,0,7.69,.02,7.7,7.82,.01,18.74,.14,37.48-.09,56.21-.06,4.89,1.6,6.52,6.41,6.33,7.8-.31,15.62,.07,23.42-.14,4.06-.11,5.56,1.41,5.46,5.47-.2,8.19,.06,16.4-.1,24.59-.07,3.75,1.32,5.27,5.13,5.18,7.8-.17,15.63,.21,23.42-.14,5.08-.23,6.82,1.39,6.74,6.61-.27,19.12,.01,38.26-.19,57.38-.05,4.72,1.28,6.71,6.27,6.47,7.21-.34,14.47,.31,21.65-.2,6.19-.44,7.68,2.02,7.42,7.75-.42,9.15-.11,18.34-.11,27.52h-70.29c0-9.94-.14-19.89,.07-29.83,.09-4.08-1.33-5.49-5.41-5.37-8.18,.25-16.38-.1-24.56,.14-4.12,.12-5.43-1.4-5.32-5.43,.24-8.18-.11-16.38,.14-24.56,.13-4.18-1.48-5.33-5.46-5.3-19.5,.15-39-.12-58.49,.19-5.25,.08-6.59-1.58-6.52-6.64,.27-19.3-.02-38.6,.2-57.9,.05-4.64-1.41-6.01-5.99-5.96-19.49,.22-38.99-.03-58.49,.18-4.56,.05-6.19-1.27-6-5.94,.33-8.18-.02-16.38,.14-24.56,.07-3.52-1.17-4.84-4.75-4.77-8.57,.18-17.16-.06-25.73,.1-3.55,.07-4.81-1.27-4.77-4.79,.15-10.14,.05-20.28,.04-30.41Z" style="fill:#360e6f;"/><path d="M73.07,1370.72H2.78c-2.45-1.88-2.54-4.6-2.59-7.33-.14-7.71-.22-15.41,.74-23.09,.29-2.29,.06-4.62-.34-6.92-.94-12.57-.59-25.13,.42-37.68,.66-21.85-1.97-43.67-.56-65.52-1.14-15.99,.45-31.94,.56-47.91,.06-7.79,.14-15.59-.53-23.37-.58-12.15-.75-24.3,.5-36.43-.72-10.92-1.59-21.84-.25-32.77,.61-9.31,.14-18.63,.29-27.95-.04-3.36,.29-6.76-1.02-10,2.17-21.49,.44-43.05,1.11-64.57,.05-.77,.21-1.52,.46-2.25,1.11-2.58,3.8-2.33,5.82-3.29,7.96-.28,15.93-.11,23.9-.07,2.15,.01,4.28,.18,6.23,1.23,.69,.37,1.23,.89,1.65,1.55,1.94,3.59,1.36,7.51,1.38,11.32,.04,7.89,.27,15.78-.29,23.66,.51,11.65,.55,23.3-.01,34.94,.59,8.16,.21,16.33,.37,24.5,.14,6.97,1.19,8.06,8.29,8.12,16.92,.13,33.85-.04,50.77,.11,3.22,.03,6.71-.61,9.37,2.15,1.28,1.83,1.66,3.92,1.71,6.09,.18,8.17,.22,16.35-.04,24.52-.06,1.95-.2,3.91-1.67,5.45-2.4,2.08-5.36,2.07-8.28,2.14-6.23,.14-12.47-.04-18.7,.14-4.02,.12-6.08,2.11-6.23,6.14-.1,2.73-.1,5.45-.1,8.18-.01,72.28,.03,144.57-.06,216.85-.02,4.1,1.22,8.68-2.61,12.06Z" style="fill:#230946;"/><path d="M108.05,1124.72c.05-11.65,.09-23.31,.14-34.96,.86-1.77,2.42-2.46,4.25-2.56,9.29-.47,18.58-.49,27.86,.03,1.4,.08,2.62,.64,3.64,1.62,2.57,3.4,2.06,7.41,2.06,11.26,.05,86.56,.04,173.12,.02,259.68,0,1.75-.08,3.51-.13,5.26-.06,2.26-.73,4.2-2.52,5.67h-35.14c-2.26-1.75-2.51-4.25-2.58-6.84-.15-5.85-.08-11.7-.08-17.55,0-70-.03-140.01,.05-210.01-.02-3.97-1.06-8.3,2.43-11.6Z" style="fill:#582f11;"/><path d="M143.35,1370.72c0-93.65,.01-187.31,.01-280.96,.6-1.35,1.67-2.3,3.09-2.36,10.23-.41,20.47-1.51,30.64,.67,.65,.44,1.11,1.02,1.39,1.75,0,93.63,0,187.26,.01,280.89-11.71,0-23.42,0-35.14,0Z" style="fill:#4b270f;"/><path d="M108.05,1124.72c.05,22.84,.14,45.68,.15,68.53,.02,59.16,.01,118.32,.01,177.48h-35.14v-238.07q0-7.92,8.07-7.93c8.97-.02,17.94-.01,26.91-.01Z" style="fill:#080607;"/><path d="M740.8,1370.72c0-9.76,.14-19.52-.06-29.27-.08-4.16,1.16-6.08,5.63-5.94,7.99,.25,16.01,.25,24,0,4.48-.14,5.71,1.78,5.63,5.94-.2,9.75-.06,19.51-.06,29.27h-35.14Z" style="fill:#141011;"/><path d="M37.7,984.32c.01-11.77,.01-23.54,.02-35.31l.41,.02c2.73-3.58,6.72-2.62,10.28-2.63,33.14-.11,66.28-.05,99.42-.06,6.63,0,13.26,.1,19.88-.04,6.68-.14,7.91-1.35,8.07-7.84,.12-4.87,.16-9.75-.02-14.62-.21-5.81-1.49-7-7.45-7.27-2.34-.1-4.68-.05-7.02-.05-37.63-.01-75.25,.04-112.88-.06-3.57-.01-7.55,.93-10.31-2.59-.13-10.55-.26-21.09-.39-31.64-.1-3.3,1.97-3.58,4.59-3.55,7.97,.09,15.98-.37,23.91,.16,5.87,.39,7.2-1.75,6.96-7.22-.41-9.31-.03-18.66,.01-28,11.61-.01,23.22-.03,34.83-.04,2.85,1.36,2.63,4.06,2.72,6.53,.23,6.2-.02,12.41,.15,18.61,.17,6.08,1.18,7.13,7.17,7.3,8.52,.23,17.06-.22,25.58,.39,11.65-.58,23.3-.52,34.95-.02,9.51-.59,19.03-.33,28.54-.24,2.49,.03,5.11-.14,7.12,1.87,1.49,1.94,1.94,4.21,1.94,6.58,.04,21.39,.47,42.77-.23,64.15,.5,11.77,.55,23.55,0,35.32,.51,11.74,.53,23.47,0,35.21,.68,21.18,.27,42.35,.23,63.53,0,2.12,.02,4.32-1.64,6.03-.33,.21-.66,.41-.98,.62-11.69,.13-23.39,.25-35.08,.38l.04-.52c-2.47-1.64-2.53-4.21-2.61-6.77-.17-5.85,.03-11.7-.13-17.54-.18-6.55-1.36-7.8-8.06-7.86-17.15-.15-34.31-.04-51.46-.06-23-.02-46,.05-69.01-.05-3.23-.02-6.75,.59-9.18-2.54,.01-11.73,.01-23.47,.02-35.2,2.75-3.54,6.74-2.6,10.31-2.61,37.83-.1,75.66-.05,113.5-.06,2.34,0,4.68-.06,7.02-.04,4.55,.02,6.86-2.06,6.86-6.72,0-5.46,.03-10.92-.01-16.38-.03-4.28-1.99-6.53-6.36-6.6-2.34-.04-4.68-.07-7.02-.07-38.03-.01-76.05,.04-114.08-.06-3.58-.01-7.56,.89-10.28-2.68l-.33,.24Z" style="fill:#c9882f;"/><path d="M705.52,1195.13c-10.31-.04-20.62-.22-30.93-.05-3.38,.06-4.23-1.04-4.15-4.27,.2-8.95-.07-17.9,.15-26.85,.08-3.34-.98-4.23-4.25-4.18-10.31,.15-20.62-.03-30.93-.09-2.39-1.67-2.59-4.19-2.61-6.76-.07-9.33-.36-18.65,.25-27.97-.61-8.56-.14-17.14-.41-25.7-.18-5.63-1.35-6.76-7.03-6.98-5.45-.21-10.91-.01-16.36-.1-10.29-.16-11.56-1.33-11.64-11.45-.12-16.36,.01-32.73-.06-49.09-.04-8.96-.74-9.63-9.67-9.71-5.45-.05-10.91,.06-16.36-.09-2.56-.07-5.08-.25-7.1-2.13-2.22-2.86-1.86-6.25-1.97-9.54-.31-9.73,.42-19.47-.21-29.19,.27-6.99,.24-13.99,.15-20.99-.09-7.08-1.17-8.17-8.09-8.33-5.64-.13-11.28,.07-16.92-.1-8.09-.24-9.06-1.3-9.22-9.2-.19-9.52,.52-19.06-.46-28.57-.6-11.7-.94-23.39,.32-35.07-1.22-10.97-.48-22-.95-33,.55-13.41-.01-26.81,.18-40.22,.15-10.69-.34-21.4,.34-32.08-.51-11.79-.53-23.58-.01-35.37-.58-9.53-.33-19.07-.23-28.6,.03-2.5-.13-5.13,1.91-7.13,1.61-1.15,3.41-1.77,5.38-1.83,8.85-.28,17.7-.34,26.56,.05,1.56,.07,3.05,.42,4.26,1.51,3.05,3.69,2.21,8.15,2.21,12.36,.07,60.87,.04,121.74,.04,182.61,0,2.54,.03,5.07,.07,7.61,.08,4.31,2.19,6.4,6.52,6.49,6.63,.13,13.27-.14,19.9,.19,6.5,.32,8.35,2.03,8.5,8.57,.38,17.17,.06,34.34,.17,51.5,.06,9.24,.83,9.99,10.04,10.08,5.27,.05,10.54-.11,15.8,.1,7.24,.29,9.01,1.92,9.17,9.1,.3,13.85,.07,27.7,.12,41.55,.01,3.71-.06,7.41,.03,11.12,.17,7.03,1.29,8.19,8.17,8.38,3.9,.11,7.8,.03,11.71,.04,14.99,.05,15.21,.24,15.23,14.97,.03,15.02-.03,30.05,.02,45.07,.03,9.46,.79,10.16,10.47,10.25,5.85,.06,11.71-.17,17.55,.23,4.09,.28,6.72,2.36,6.81,6.55,.47,20.87,.55,41.74-.04,62.61-.02,.79-.36,1.51-.78,2.18-.38,.67-.94,1.18-1.65,1.52Z" style="fill:#c3c2c0;"/><path d="M916.72,984.13c-.1,11.71-.19,23.41-.29,35.12-10.32,.01-20.64,.09-30.96-.01-2.78-.03-4.19,.38-4.16,3.73,.2,22.19,.2,44.39,.26,66.58,.71,.92,1.84,1.69,1.92,2.87,.69,10.08,1.16,20.18-.29,30.24-.08,.58-.62,.98-.96,1.45-.33,.2-.66,.4-.99,.6-11.63,.05-23.25,.09-34.88,.14-.33-.2-.65-.41-.98-.61-2.06-2.26-1.75-5.1-1.76-7.79-.09-41.36-.13-82.72,.01-124.08,.03-9.27,1.61-10.65,11.1-10.85,4.29-.09,8.58-.02,12.88-.05,10.43-.06,11.06-.65,11.09-10.84,.04-13.85,.01-27.7,.01-41.55,0-2.34-.02-4.68,.04-7.02,.22-9.36,1.51-10.63,11.09-10.83,4.68-.1,9.36,0,14.05-.05,9.07-.09,9.93-.92,9.95-10.19,.05-26.73,.02-53.45,.02-80.18,.01-35.7-.03-71.4,.03-107.1,.01-3.85-.54-7.86,1.96-11.32,.69-.37-.31-.21,.44-.37,11.92-2.57,23.83-2.93,35.72,.25,2.07,2.11,2.21,4.82,2.23,7.52,.06,9.42,.34,18.84-.25,28.24,.57,9.25,.31,18.51,.27,27.76-.01,2.71-.04,5.46-2.41,7.42,0,24.23,.01,48.46,.01,72.69v32.81c-.11,23.41-.22,46.83-.32,70.24-10.08,.02-20.17,.13-30.25-.01-3.26-.04-4.95,.52-4.84,4.38,.28,10.26,.19,20.54,.26,30.81Z" style="fill:#c3c2c0;"/><path d="M459.53,1230.08c-23.38,.08-46.76,.16-70.15,.23-2.01,2.32-4.77,2.41-7.51,2.42-30.18,.1-60.36,.12-90.54-.01-2.75-.01-5.51-.11-7.37-2.65l.02,.02c-2.32-1.7-2.61-4.2-2.63-6.79-.15-19.09-.15-38.19,0-57.28,.01-1.96,.23-3.89,1.17-5.67,.38-.7,.91-1.27,1.58-1.71,2.66-1.58,5.62-1.42,8.53-1.42,76.18-.06,152.35-.06,228.53,0,2.71,0,5.48-.18,8.03,1.12,.73,.33,1.34,.82,1.84,1.44,3,8.13,1.09,16.58,1.46,24.87,.16,3.57,.86,7.54-2.62,10.29l.02-.02c-2.18,2.98-5.44,2.64-8.52,2.67-16.54,.12-33.08-.01-49.61,.07-8.58,.04-9.35,.86-9.45,9.33-.06,5.45,.05,10.9-.09,16.34-.06,2.61-.32,5.09-2.69,6.75Z" style="fill:#360e6f;"/><path d="M213.71,1159.73c-.05-23.43-.09-46.85-.14-70.28v.08c1.79-2.18,4.27-2.52,6.86-2.54,19.08-.15,38.15-.24,57.23,.05,6.89,.11,8.7,1.91,8.8,8.77,.3,19.07,.21,38.15,.05,57.23-.02,2.59-.34,5.07-2.58,6.82l.03-.03c-1.9,2.47-4.65,2.59-7.41,2.61-18.5,.12-37,.13-55.5-.01-2.76,0-5.52-.12-7.34-2.7Z" style="fill:#360e6f;"/><path d="M283.97,1230.08c35.14,.08,70.28,.16,105.42,.24-.01,9.75-.17,19.51,.04,29.26,.09,4.33-1.5,5.81-5.8,5.77-19.31-.15-38.63,.08-57.94-.16-5.11-.06-6.95,1.51-6.71,6.68,.36,7.79-.02,15.6,.13,23.4,.07,3.75-1.36,5.27-5.15,5.2-7.8-.15-15.62-.3-23.4,.05-5.11,.23-6.79-1.48-6.73-6.66,.25-21.25,.13-42.52,.14-63.78Z" style="fill:#141011;"/><path d="M213.71,1159.73c23.41,.04,46.83,.07,70.24,.11,.02,23.42,.03,46.84,.05,70.27-9.94,.01-19.89-.1-29.83,.1-4.09,.08-5.52-1.54-5.43-5.53,.18-8.19-.06-16.38,.09-24.57,.07-3.79-1.47-5.21-5.2-5.14-8.19,.15-16.38-.1-24.57,.09-4.06,.09-5.54-1.46-5.46-5.49,.18-9.95,.09-19.9,.11-29.84Z" style="fill:#141011;"/><path d="M846.36,1124.84c-.05,10.3-.23,20.61-.06,30.91,.06,3.35-1,4.25-4.25,4.17-8.94-.21-17.89,.07-26.83-.14-3.3-.08-4.29,.89-4.21,4.2,.22,8.94-.07,17.89,.14,26.83,.08,3.26-.84,4.31-4.17,4.26-10.3-.16-20.61,.01-30.91,.05-.33-.21-.66-.43-1-.64-1.89-2.09-1.71-4.71-1.73-7.22-.12-18.35-.18-36.7,.01-55.04,.09-8.42,1.63-9.99,9.98-10.08,18.35-.21,36.7-.13,55.04-.02,2.71,.02,5.55-.14,7.55,2.3,.16,.14,.3,.28,.44,.42Z" style="fill:#c3c2c0;"/><path d="M635.17,1124.68c.08,11.67,.16,23.34,.24,35.01-11.72,.11-23.44,.22-35.17,.33-2.01,2.32-4.76,2.41-7.5,2.42-18.48,.1-36.96,.12-55.44-.01-2.75-.02-5.5-.14-7.39-2.61l.03,.03c-2.47-1.91-2.56-4.67-2.6-7.43-.12-6.83-.18-13.66,.01-20.48,.22-7.97,1.8-9.69,9.69-9.8,18.53-.27,37.07-.08,55.6-.1,11.51-.01,23.02-.09,34.53,.06,2.9,.05,5.96-.2,8,2.58Z" style="fill:#360e6f;"/><path d="M529.91,1159.83c23.45,.07,46.89,.13,70.34,.2-.01,9.33-.26,18.68,.07,28,.19,5.23-1.34,7.17-6.87,7.09-21.19-.3-42.39-.14-63.58-.16,.02-11.71,.03-23.42,.04-35.13Z" style="fill:#141011;"/><path d="M459.53,1230.08c.05-9.74,.33-19.49,.04-29.22-.14-4.72,1.48-5.98,6.04-5.94,21.43,.18,42.86,.03,64.29,.01,.01,9.75-.16,19.5,.12,29.25,.13,4.65-1.61,6.08-6.13,6.04-21.46-.19-42.91-.12-64.36-.14Z" style="fill:#141011;"/><path d="M776.08,1195.13c-.04,10.12-.19,20.24-.07,30.35,.04,3.22-.29,4.81-4.27,4.77-20.63-.22-41.26-.22-61.88,0-3.99,.04-4.3-1.56-4.26-4.77,.12-10.12-.03-20.23-.07-30.35l.42-.42c1.82-2.23,4.39-2.27,6.92-2.29,18.62-.13,37.25-.13,55.87,0,2.53,.02,5.1,.06,6.92,2.29,.13,.14,.28,.28,.42,.42Z" style="fill:#c3c2c0;"/><path d="M916.49,1124.67c0,11.68,0,23.36-.01,35.04-9.93,.05-19.86-.04-29.78,.2-4.07,.1-5.46-1.4-5.4-5.44,.17-9.92-.02-19.85-.06-29.78l.04-.18c5.64-3.63,29.99-3.53,35.21,.16Z" style="fill:#280758;"/><path d="M881.23,350.42c.09,.31,.14,.62,.17,.94,2.33,1.98,2.56,4.69,2.57,7.47,.11,18.73,.2,37.45-.05,56.18-.1,7.4-1.81,9.3-8.9,9.33-32.96,.14-65.93,.53-98.88-.18-23.5,.53-47.01,.55-70.51,.01-33.09,.68-66.18,.25-99.27,.22-2.31,0-4.72,.05-6.62-1.72-1.89-2.2-2.1-4.89-2.11-7.6-.04-9.42-.34-18.83,.26-28.24-.56-9.46-.33-18.92-.25-28.38,.02-2.11-.03-4.27,1.13-6.2,1.67-3.07,4.64-3.21,7.57-3.24,9.5-.11,18.99-.4,28.48,.23,7.56-.51,15.13-.29,22.7-.33,9.87-.06,10.28-.45,10.33-10.07,.03-5.24-.05-10.48,.06-15.73,.05-2.54,.21-5.06,1.9-7.17,2.74-2.5,6.17-2.07,9.45-2.14,5.66-.12,11.32-.09,16.98-.05,4.64,.03,6.77-2.03,6.75-6.71-.02-6.24-.25-12.5,.14-18.73,.49-7.93,2.12-9.42,10.03-9.63,6.05-.16,12.1-.08,18.15-.07,4.59,.01,6.86-1.94,6.82-6.67-.05-5.46-.06-10.93,.01-16.39,.06-4.66-2.04-6.77-6.71-6.76-6.24,.01-12.49,.05-18.74-.06-2.74-.05-5.49-.12-7.77-2-2.38-2.6-1.83-5.87-1.86-8.92-.14-16.39-.01-32.78-.08-49.16-.04-9.31-.81-10.06-9.95-10.15-5.27-.05-10.53,.05-15.8-.08-2.55-.06-5.08-.23-7.2-1.94-2.47-2.75-2.11-6.18-2.14-9.46-.1-16.4,.01-32.8-.06-49.2-.04-8.83-.81-9.54-9.83-9.61-5.27-.05-10.54,.05-15.81-.07-2.55-.06-5.09-.22-7.23-1.87-2.09-2.16-2.12-4.92-2.18-7.66-.13-5.65,0-11.31-.09-16.96-.12-7.47-1.07-8.5-8.45-8.55-16.57-.11-33.15,.03-49.72-.09-3.05-.02-6.31,.57-8.95-1.75-.19-.31-.38-.63-.58-.94,.03-9.95,.16-19.89,.03-29.83-.05-3.6,.89-5.3,4.89-5.28,33.54,.17,67.08,.18,100.62,.24,2.39,1.68,2.49,4.22,2.55,6.77,.14,5.83-.02,11.65,.1,17.48,.14,7.03,1.05,7.92,8.25,8.04,5.83,.1,11.65-.02,17.48,.08,2.6,.04,5.04,.39,6.83,2.55l-.05-.05c2.16,1.79,2.51,4.23,2.55,6.83,.11,6.02-.05,12.05,.1,18.07,.15,6.45,1.15,7.47,7.47,7.64,6.02,.16,12.05-.03,18.07,.11,2.56,.06,5.1,.19,6.73,2.62l.38-.1c-.05,11.7-.09,23.39-.14,35.09,2.76,2.3,2.55,5.52,2.56,8.62,.1,16.55-.02,33.11,.06,49.66,.04,8.58,.86,9.36,9.35,9.45,5.45,.06,10.9-.03,16.36,.08,2.6,.05,5.06,.39,6.85,2.56l-.06-.06c2.8,2.29,2.56,5.52,2.58,8.63,.1,16.4-.01,32.8,.06,49.2,.04,9.25,.67,9.82,10.11,9.9,5.66,.04,11.33-.18,16.98,.16,5.76,.34,7.55,2.14,7.88,7.97,.38,6.63-.01,13.28,.23,19.91,.2,5.65,1.4,6.85,6.99,7.05,6.44,.22,12.89-.1,19.32,.17,6.56,.28,8.32,2,8.64,8.45,.3,6.24,.01,12.49,.17,18.74,.17,6.66,1.22,7.68,8.02,7.82,5.66,.11,11.32-.03,16.98,.06,2.51,0,5.11-.21,7.3,1.47Z" style="fill:#130327;"/><path d="M319.01,70.52c.08,11.67,.17,23.34,.25,35,1.67,1.55,2.2,3.47,2.16,5.72-.17,9.8,.22,19.61-.03,29.42,.57,9.32,.3,18.64,.26,27.96-.01,2.73-.12,5.46-2.04,7.71-1.22,.98-2.58,1.73-4.16,1.82-9.41,.5-18.83,.56-28.24-.05-1.36-.09-2.56-.78-3.66-1.58-2.08-2.16-2.2-4.92-2.21-7.66-.05-9.36-.34-18.73,.25-28.09-.68-21.07-.24-42.15-.25-63.23,0-2.32-.07-4.73,1.7-6.64,.33-.21,.65-.42,.98-.62,11.67,.07,23.33,.16,34.99,.24Z" style="fill:#f95f26;"/><path d="M494.59,105.58c.07-9.75,.35-19.51,.11-29.26-.11-4.59,1.36-6.06,5.99-6.03,19.9,.16,39.8-.02,59.7-.08,1.53,.03,3.06,.05,4.59,.08l.18,.18c1.11,1.1,2.15,2.25,2.24,3.94,.5,9.29,.56,18.59-.06,27.87-.09,1.37-.8,2.57-1.63,3.67-2.37,2.17-5.34,2.15-8.26,2.17-18.3,.11-36.61,.1-54.91,0-2.51-.01-5.11,.14-7.26-1.6-.22-.32-.45-.63-.69-.94Z" style="fill:#130327;"/><path d="M740.61,105.57c-9.12-.02-18.26-.34-27.36,.06-5.7,.25-8.05-1.25-7.72-7.39,.5-9.29,.15-18.63,.16-27.94,11.67,.04,23.34,.08,35.01,.12-.04,11.72-.07,23.43-.09,35.15Z" style="fill:#0a080b;"/><path d="M705.74,70.35c-9.12,.01-18.24,.03-27.36,.03-7.83,0-7.85-.02-7.86-7.6-.01-9.12,.01-18.24,.02-27.36,10.13-.06,20.27-.02,30.39-.22,3.53-.07,4.82,1.21,4.78,4.76-.13,10.12,0,20.25,.03,30.39Z" style="fill:#0a0809;"/><path d="M248.86,35.41c10.3-.06,20.59,0,30.89-.25,3.29-.08,4.32,.87,4.26,4.22-.17,10.29-.01,20.6,.03,30.89l-.37,.17c-1.02,1.22-2.2,2.18-3.86,2.26-9.42,.48-18.85,.62-28.27-.12-1.13-.09-2.19-.7-3.15-1.38-.28-.27-.73-.52-.79-.84-2.13-11.46-2.71-22.91,.27-34.33,.33-.2,.66-.41,.99-.62Z" style="fill:#f4ebb0;"/><path d="M213.58,35.42c.02-10.1,.17-20.2-.01-30.29-.06-3.66,.89-5.22,4.86-5.11,10.09,.27,20.19,.17,30.29,.22,.05,11.72,.09,23.45,.14,35.17v-.16c-1.37,1.5-3,2.39-5.09,2.45-8.56,.25-17.11,.31-25.67-.04-1.4-.06-2.66-.5-3.78-1.35-.25-.3-.49-.59-.74-.89Z" style="fill:#fa5f26;"/><path d="M143.41,.2c10.07-.04,20.14,.06,30.21-.18,3.83-.09,5.01,1.26,4.95,5.01-.16,10.07,.03,20.14,.07,30.2,2.35,1.96,2.43,4.7,2.44,7.42,.04,9.26,.31,18.53-.26,27.78,.68,21.17,.25,42.35,.24,63.52,0,2.55-.25,5.06-1.96,7.16-1.21,1.01-2.56,1.78-4.14,1.87-9.43,.53-18.86,.56-28.29-.03-1.37-.09-2.57-.78-3.67-1.58-1.93-1.98-2.18-4.5-2.2-7.06-.09-9.55-.36-19.1,.24-28.65-.51-11.8-.53-23.6,0-35.41-.69-20.63-.23-41.26-.27-61.89-.02-3.01,.96-5.69,2.64-8.16Z" style="fill:#f95f26;"/><path d="M178.68,70.34c-.01-11.7-.03-23.4-.04-35.1,11.65,.06,23.29,.12,34.94,.18l-.02-.17c1.55,1.29,2.45,2.9,2.52,4.97,.32,8.84,.36,17.68-.05,26.51-.07,1.58-.53,3.02-1.66,4.19-1.9,1.51-4.14,1.95-6.49,2-7.7,.17-15.4,.18-23.09-.01-2.36-.06-4.6-.44-6.11-2.57Z" style="fill:#f4ecae;"/><path d="M108.39,30.55c-.07,1.53-.14,3.07-.21,4.6-1.18,1.36-2.53,2.41-4.44,2.48-9.13,.34-18.27,.55-27.4-.15-1.01-.08-1.8-.67-2.59-1.26-.22-.32-.44-.63-.66-.95,.03-11.71,.06-23.42,.09-35.13,9.95-.02,19.89,.13,29.83-.13,4.15-.11,5.35,1.37,5.25,5.39-.19,8.38,.07,16.76,.13,25.15Z" style="fill:#fa5f26;"/><path d="M916.49,1124.67c-11.74-.05-23.47-.1-35.2-.15,.1-11.66,.19-23.32,.29-34.98,9.69,.01,19.39,.21,29.07-.06,4.66-.13,6.07,1.65,5.95,6.12-.26,9.68-.1,19.38-.11,29.07Z" style="fill:#360e6f;"/><path d="M881.23,350.42c-10.6,2.39-21.33,.71-32,.93-3.01,.06-2.97-2.56-2.98-4.74-.03-8.19-.19-16.39,.05-24.57,.13-4.39-1.6-5.83-5.85-5.72-7.99,.22-15.99-.09-23.99,.12-4.11,.1-5.51-1.54-5.42-5.53,.18-8.19-.06-16.38,.09-24.57,.07-3.79-1.46-5.21-5.2-5.14-7.99,.15-16-.16-23.99,.12-4.61,.16-6.11-1.51-6.07-6.08,.19-21.45,.1-42.91,.1-64.36,9.93,.03,19.85,.2,29.78,.01,4.02-.08,5.53,1.25,5.41,5.35-.24,8.17,.09,16.35-.14,24.52-.12,4.02,1.19,5.5,5.32,5.41,9.92-.22,19.85-.04,29.78-.02,.04,9.94,.24,19.88,.04,29.81-.08,4.11,1.36,5.48,5.4,5.36,9.15-.27,18.31-.18,27.47-.24,3.24,.93,2.28,3.65,2.31,5.79,.14,9.84,.16,19.69,.22,29.53-.11,11.33-.22,22.68-.33,34.02Z" style="fill:#080607;"/><path d="M776.03,210.92c-9.75,.01-19.51-.16-29.25,.1-4.63,.13-6.09-1.57-6.05-6.11,.19-21.45,.11-42.9,.12-64.35,11.68,.08,23.36,.15,35.05,.23,.08,2.3,.15,4.6,.23,6.9v28.11c-.03,11.71-.07,23.42-.1,35.12Z" style="fill:#080607;"/><path d="M951.84,773.2c0-11.69,.01-23.39,.01-35.08,1.68-2.39,4.23-2.55,6.79-2.57,18.88-.15,37.76-.16,56.64,.01,2.13,.02,4.32,.03,6.05,1.63,.22,.32,.43,.65,.65,.97-.06,11.68-.12,23.37-.18,35.05-23.31,0-46.63-.01-69.96-.01Z" style="fill:#080607;"/><path d="M38.04,984.06c44.46,.02,88.91,.14,133.37-.05,5.59-.02,7.57,1.45,7.2,7.15-.47,7.18-.42,14.44-.01,21.63,.3,5.15-1.34,6.62-6.53,6.6-44.65-.2-89.3-.11-133.96-.11-.02-11.74-.04-23.48-.07-35.22Z" style="fill:#eac694;"/><path d="M38.09,1054.48c44.78-.02,89.57,.03,134.35-.16,4.98-.02,6.29,1.62,6.14,6.36-.31,9.53-.07,19.08-.05,28.62-11.72,.15-23.44,.3-35.17,.45h-35.18c-21.62-.06-43.24-.25-64.86-.09-4.27,.03-5.7-.89-5.51-5.39,.42-9.91,.23-19.85,.28-29.79Z" style="fill:#eac694;"/><path d="M2.63,1052c-.99-1.34-1.02-2.89-1.02-4.45v-56.53c0-1.56,.02-3.12,1.01-4.46,0,21.82,0,43.63,0,65.44Z" style="fill:#33616e;"/><path d="M2.61,1089.57c-.33,0-.67-.01-1-.01,.62-9.33-1.26-18.75,1.02-28.02-.01,9.35-.02,18.69-.02,28.03Z" style="fill:#2f6572;"/><path d="M2.57,985.25c-.32-.37-.64-.74-.96-1.11,1.84-2.75,3.77-2.91,5.79-.19-1.65,.31-3.49-.13-4.83,1.3Z" style="fill:#33616e;"/><path d="M775.84,421.9c32.79-.03,65.59-.18,98.38,.03,5.67,.04,7.35-1.72,7.27-7.33-.28-21.08-.1-42.16-.1-63.25,11.66,.07,23.33,.15,34.99,.22,.04,9.92,.24,19.84,.06,29.76-.07,4.02,1.19,5.5,5.32,5.41,9.92-.22,19.84-.04,29.76-.02,.04,9.75,.29,19.5,.02,29.23-.13,4.65,1.45,5.98,6.02,5.95,21.44-.16,42.88,0,64.32,.04,.02,9.73,.25,19.47-.05,29.19-.15,4.69,1.51,5.95,6.03,5.92,21.79-.13,43.59,.04,65.38,.11,1.98,2.31,1.54,5.14,1.59,7.83,.11,6.04,.06,12.09,.05,18.13,0,4.42,2.02,6.38,6.41,6.34,5.65-.05,11.31-.09,16.96,.01,4.85,.09,6.53-2.33,6.49-6.86-.05-6.24-.08-12.47,.06-18.71,.06-2.57,.16-5.12,2.61-6.76,23.37-.04,46.74-.09,70.12-.13,.04,9.74,.3,19.49,.03,29.22-.13,4.61,1.36,6.01,5.97,5.97,21.43-.2,42.86-.06,64.3-.05,.04,9.94,.24,19.89,.04,29.83-.08,4.11,1.33,5.46,5.39,5.34,8.38-.24,16.77,.05,25.15-.12,3.58-.07,4.77,1.28,4.73,4.79-.1,10.14,.08,20.27,.14,30.41-.06,9.74-.09,19.48-.22,29.21-.03,2.08,.58,4.33-1.14,6.12-9.75-.06-19.5-.02-29.24-.23-3.52-.08-4.85,1.14-4.78,4.72,.18,8.58-.06,17.16,.1,25.74,.07,3.52-1.15,4.85-4.73,4.77-8.58-.18-17.16,.06-25.74-.1-3.52-.07-4.82,1.17-4.78,4.73,.12,10.14-.03,20.28-.08,30.42-9.93,.02-19.86,.2-29.78-.02-4.12-.09-5.38,1.36-5.31,5.39,.19,9.92-.01,19.85-.06,29.78-9.93,.02-19.86,.21-29.78-.01-4.14-.1-5.38,1.37-5.31,5.39,.18,9.92-.01,19.85-.05,29.78-46.8,.03-93.61,.06-140.41,.09l-.06-.06c-1.31-1.21-2.29-2.58-2.37-4.46-.39-9.06-.46-18.12,.05-27.18,.08-1.38,.7-2.59,1.4-3.76,2.56-2.91,6.08-2.28,9.31-2.31,16.59-.15,33.19-.01,49.78-.09,8.61-.04,9.39-.86,9.47-9.37,.05-5.08-.06-10.15,.06-15.23,.21-8.74,1.68-10.33,10.29-10.45,14.64-.2,29.28-.05,43.92-.07,2.15,0,4.29,.02,6.44-.01,8.61-.1,9.48-.94,9.57-9.32,.06-4.88-.04-9.76,.05-14.64,.18-9.49,1.57-10.92,10.85-11.12,5.07-.11,10.15,.01,15.23-.06,8.02-.12,8.92-1.06,9.02-9.28,.06-5.27-.08-10.54,.08-15.81,.24-8.21,1.8-9.73,10.19-9.97,5.85-.16,11.72,.08,17.57-.13,5.91-.21,7.08-1.42,7.27-7.43,.26-8.19-.29-16.4,.41-24.58-.61-8.56-.17-17.15-.39-25.72-.16-6.09-1.12-7.03-7.32-7.16-5.46-.12-10.92-.04-16.38,0-4.13,.03-6.03,2-6.08,6.1-.08,6.43,.04,12.87-.1,19.3-.06,2.93-.06,5.89-2.4,8.18-1.99,1.57-4.38,1.41-6.68,1.46-7.54,.16-15.09,.18-22.63-.02-2.3-.06-4.69,.02-6.55-1.77-2.02-2.43-2.03-5.39-2.09-8.32-.11-5.65,.07-11.31-.1-16.97-.19-6.49-1.47-7.7-8.08-7.93-2.73-.1-5.46-.04-8.19-.04-118.18,0-236.35,.02-354.53-.06-4.56,0-9.41,1.17-13.62-1.85-1.08-1.43-1.78-3.02-1.86-4.83-.41-8.96-.38-17.92-.01-26.88,.06-1.6,.66-3.03,1.53-4.36,2.23-2.42,5.21-2.35,8.13-2.41,9.16-.22,18.32,.15,27.47-.28,8.73,.25,17.47,.2,26.21,.23,4.6,.01,6.82-1.87,6.74-6.6-.1-5.63-.07-11.27-.01-16.9,.04-4.41-1.96-6.33-6.34-6.36-8.93-.07-17.87,.25-26.81-.35-9.5,.65-19.01,.33-28.51,.25-2.36-.02-4.64-.4-6.53-2.02-1.45-1.73-1.92-3.78-1.98-5.97-.21-7.97-.22-15.95,0-23.92,.09-2.28,.67-4.27,2.45-5.75Z" style="fill:#080607;"/><path d="M178.52,878.49c-11.71,.01-23.43,.01-35.14,.01-2.63-1.83-2.56-4.65-2.61-7.38-.16-8.78-.07-17.56-.07-26.34-.01-53.45,0-106.91-.01-160.36,0-2.15,.05-4.29-.06-6.44-.29-5.91-1.51-7.22-7.34-7.43-5.85-.22-11.7,.02-17.56-.13-2.74-.07-5.54-.02-7.4-2.6-.09-12.1-.19-24.19-.28-36.29v-38.67c0-21.86,.01-43.73,.01-65.59,.01-11.72,.02-23.44,.02-35.16,.05-11.62,.11-23.23,.17-34.85,.16-.32,.31-.64,.47-.96,2.33-2.45,5.41-1.83,8.26-1.92,5.65-.18,11.3-.11,16.95-.06,4.63,.04,6.78-1.98,6.77-6.66-.02-6.23-.08-12.47,.07-18.7,.07-2.92,.02-5.9,2.49-8.11,3.94-2.4,8.33-1.56,12.56-1.65,5.64-.12,11.3-.21,16.94,.1,6.2,.34,8.03,2.02,8.22,8.16,.31,9.73,.43,19.47-.16,29.19,.31,11.81,.95,23.62-.42,35.41-.32,11.75-.06,23.51-.14,35.26-.4,21.85,.83,43.66,1.32,65.49-1.18,12.94-.37,25.88,.02,38.82-3.29,18.84-.04,37.73-.41,56.59-.1,4.88-.04,9.75-.8,14.58,.23,12.11-1.16,24.26,.8,36.34-.39,11.4,.71,22.82-.74,34.2-1.09,19.69,1.05,39.34,.72,59.02-.06,3.7,0,7.41-.57,11.09,.71,9.23,.64,18.48,.48,27.72-.05,2.7,.02,5.49-2.56,7.32Z" style="fill:#4b270f;"/><path d="M108.35,667.82c9.17,0,18.37,.35,27.52-.11,5.95-.3,7.63,1.65,7.61,7.59-.19,66.37-.12,132.73-.12,199.1,0,1.37,.01,2.73,.02,4.1-10.07,.06-20.15,0-30.22,.26-3.78,.1-5.07-1.16-5.01-4.97,.15-10.07-.05-20.15-.12-30.22,.01-11.72,.03-23.43,.04-35.14,.01-13.28,.01-26.56,.02-39.83v-64.43c.08-12.13,.17-24.24,.26-36.35Z" style="fill:#582f11;"/><path d="M1127.43,457.15c-.02,9.74-.18,19.47,.02,29.21,.09,4.27-1.38,5.94-5.73,5.82-8.17-.23-16.35-.05-24.53-.08-2.17-.01-4.8,.04-4.77-2.95,.14-10.66-1.34-21.37,.83-31.98,11.4-.01,22.79-.02,34.18-.02Z" style="fill:#130327;"/><path d="M1025.71,772.62v-27.77c.66,8.71,1.59,17.41,0,27.77Z" style="fill:#3e555d;"/><path d="M37.72,105.54c0-12.5,0-25,.01-37.5v-28.18c-.44-1.52-.87-3.05,.25-4.48,11.71-.03,23.42-.07,35.12-.1l-.08-.08c2.47,1.89,2.62,4.63,2.63,7.38,.12,18.66,.13,37.33,0,55.99-.02,2.54-.14,5.08-1.78,7.23-.43,.38-.78,.95-1.36,1.04-11.38,1.92-22.76,2.58-34.1-.35-.23-.32-.46-.64-.69-.95Z" style="fill:#fa5f26;"/><path d="M38.12,913.86c44.45,0,88.9,.09,133.35-.13,5.65-.03,7.5,1.55,7.14,7.19-.46,7.18-.43,14.44,0,21.63,.31,5.18-1.38,6.59-6.54,6.57-43.28-.2-86.56-.11-129.84-.11-1.36,0-2.73,.02-4.09,.03-.01-11.74-.02-23.46-.02-35.18Z" style="fill:#eac694;"/><path d="M73.13,456.93c-.02-11.61-.04-23.23-.06-34.84,.19-.34,.37-.69,.56-1.03,1.31-1.38,3.02-1.67,4.8-1.73,8.35-.25,16.69-.27,25.04,.02,2,.07,3.8,.68,5.34,2,1.25,1.58,1.82,3.4,1.89,5.39,.28,8.15,.24,16.29,.03,24.44-.06,2.23-.63,4.21-2.44,5.67l-.03,.4c-11.71-.1-23.42-.21-35.13-.32Z" style="fill:#783f14;"/><path d="M39.09,422c-2.25-3.19-1.04-6.81-1.11-10.21-.18-8.38-.03-16.77-.01-25.16,.22-.32,.45-.63,.67-.95,1.55-1.42,3.51-1.5,5.44-1.54,7.72-.18,15.44-.17,23.15-.01,2.36,.05,4.61,.43,6.46,2.09,1.4,1.75,1.85,3.79,1.91,5.97,.21,7.74,.19,15.48,.02,23.22-.05,2.38-.37,4.66-2.53,6.17v.51c-11.35-.03-22.67-.06-34-.09Z" style="fill:#ce5117;"/><path d="M2.58,179.32c.13-1.17,.26-2.34,.39-3.51,1.15-1.43,2.57-2.32,4.46-2.4,8.92-.39,17.85-.45,26.77,.05,1.59,.09,2.97,.82,4.22,1.79,.99,1.23,1.75,2.59,1.83,4.18,.5,9.65,.59,19.31-.08,28.96-.08,1.19-.68,2.2-1.49,3.08-2.06,1.68-4.52,2-7.06,2.05-7.32,.14-14.64,.15-21.96-.01-2.54-.05-5.05-.24-6.71-2.58-.12-10.53-.24-21.07-.37-31.61Z" style="fill:#c9df0f;"/><path d="M2.96,210.93c11.64,0,23.28-.01,34.91-.01,1.7,.93,2.34,2.49,2.43,4.3,.44,9.03,.46,18.06-.02,27.09-.08,1.58-.78,2.96-1.72,4.21-1.69,1.51-3.74,2.02-5.94,2.09-8,.23-16,.23-24.01,0-2.24-.06-4.25-.6-5.64-2.53l-.41,.04c.14-11.73,.27-23.46,.4-35.19Z" style="fill:#db1b1c;"/><path d="M37.97,386.64c-11.68-.01-23.37-.01-35.05-.02,.02-11.7,.04-23.4,.06-35.1,1.15-1.43,2.57-2.31,4.46-2.4,8.92-.39,17.85-.45,26.76,.05,1.59,.09,2.97,.82,4.22,1.79,1.44,1.7,1.95,3.71,2.02,5.88,.24,7.89,.2,15.78,.03,23.68-.05,2.4-.58,4.58-2.58,6.15l.08-.03Z" style="fill:#e4500e;"/><path d="M38.01,351.58c-11.68-.02-23.36-.04-35.04-.06-.13-11.72-.27-23.44-.4-35.17l.41,.07c1-1.23,2.16-2.28,3.83-2.35,9.64-.43,19.28-.84,28.91,.26,.95,.11,1.8,.67,2.61,1.21,.4,.42,1.01,.77,1.09,1.34,1.56,11.35,2.39,22.69-.47,33.98-.31,.25-.63,.49-.94,.72Z" style="fill:#e52110;"/><path d="M2.98,140.68c-.02-11.7-.04-23.4-.06-35.1,11.6-.01,23.21-.03,34.81-.04l.15,.07c1.38,1.18,2.35,2.56,2.44,4.45,.41,8.93,.44,17.87-.03,26.8-.08,1.59-.79,2.99-1.75,4.25-1.7,1.5-3.74,2.01-5.94,2.07-7.99,.23-15.98,.23-23.97,0-2.24-.07-4.25-.58-5.65-2.5Z" style="fill:#e6f381;"/><path d="M37.88,316.45c-11.63-.01-23.26-.01-34.89-.02,0-11.73-.01-23.45-.01-35.18,1.14-1.44,2.57-2.33,4.45-2.41,8.93-.39,17.86-.45,26.78,.06,1.59,.09,2.97,.83,4.22,1.8,1.6,1.87,1.98,4.13,2.04,6.49,.17,7.73,.21,15.46-.03,23.19-.07,2.31-.13,4.71-2.56,6.07Z" style="fill:#f56a0b;"/><path d="M37.88,281.28c-11.64-.01-23.27-.02-34.91-.03-.13-.39-.26-.79-.39-1.18,.13-11.33,.26-22.66,.39-34,11.6-.04,23.19-.08,34.79-.12,.32,.2,.65,.39,.97,.58,1.13,1.19,1.58,2.64,1.63,4.24,.3,8.53,.28,17.07,.01,25.6-.05,1.59-.43,3.07-1.55,4.28-.31,.22-.62,.43-.94,.63Z" style="fill:#fa5f26;"/><path d="M2.98,140.68H37.94c.31,.21,.62,.42,.93,.63,1.27,1.36,1.5,3.07,1.55,4.82,.22,8.07,.21,16.14,0,24.21-.05,1.75-.28,3.46-1.53,4.83-.31,.21-.62,.42-.93,.63H2.97c-.13-11.33-.26-22.65-.39-33.98,.13-.37,.27-.76,.4-1.14Z" style="fill:#f64b27;"/><path d="M635.17,1124.68c-32.69,.01-65.37,.13-98.06-.09-5.59-.04-7.55,1.59-7.29,7.26,.41,9.32,.12,18.67,.13,28.01h-246.03c0-21.25-.14-42.51,.12-63.76,.06-5.18-1.62-6.69-6.71-6.64-21.25,.23-42.51,.08-63.76,.06,.09-23.41,.18-46.82,.27-70.24,1.53-2.18,3.82-2.54,6.22-2.56,19.5-.19,38.99-.2,58.49,.02,1.94,.02,3.93,.09,5.56,1.4,2.34,2.26,2.34,5.22,2.41,8.15,.14,6.24,.08,12.47,.08,18.71-.01,4.64,2.06,6.75,6.72,6.75,6.63,0,13.25-.11,19.88,.11,2.32,.08,4.73,.01,6.53,1.93,2.68,6.31,1.84,12.99,1.99,19.57,.07,2.73-.04,5.46,.15,8.19,.23,3.24,1.96,4.94,5.19,5.2,1.95,.15,3.9,.15,5.85,.15,37.64,.01,75.28,.01,112.92,0,1.56,0,3.12-.06,4.68-.06,4.36,.01,6.39-2.14,6.44-6.48,.07-6.05-.04-12.09,.09-18.14,.06-2.91-.09-5.89,1.87-8.4,2.92-2.72,6.6-2,10.02-2.01,26.88-.11,53.77-.05,80.65-.06,2.14,0,4.29-.05,6.43-.06,4.36-.04,6.33-2.24,6.38-6.54,.07-6.04-.06-12.08,.11-18.12,.07-2.5-.21-5.12,1.7-7.21,.31-.2,.63-.4,.95-.6,9.37,.01,18.78,.51,28.1-.13,6.28-.43,7.21,1.84,7.12,7.42-.34,19.32,0,38.66-.23,57.98-.05,4.15,1.09,5.3,5.19,5.15,8.58-.32,17.18,.03,25.77-.16,3.18-.07,4.45,.69,4.36,4.15-.29,10.36-.22,20.71-.29,31.05Z" style="fill:#230946;"/><path d="M775.65,1194.71c-23.24,.48-46.47,.48-69.71,0-.1-20.87-.42-41.75-.15-62.61,.08-5.95-1.58-7.93-7.55-7.5-6.99,.51-14.06-.24-21.06,.23-5.65,.38-6.85-1.88-6.78-7.05,.26-18.92-.06-37.85,.2-56.78,.07-5.06-1.3-6.97-6.57-6.69-7.59,.41-15.22-.15-22.82,.19-4.74,.21-5.99-1.58-5.94-6.08,.19-19.12-.07-38.24,.18-57.36,.07-5.19-1.19-7.38-6.8-7.04-7.58,.46-15.22-.08-22.82,.18-4.35,.15-5.75-1.39-5.71-5.72,.18-19.12-.18-38.25,.22-57.36,.13-6.14-1.88-7.76-7.66-7.39-7.19,.46-14.44-.12-21.65,.19-4.55,.19-6.15-1.27-6.07-5.96,.25-15.02,.09-30.05,.09-45.07,.02-53.27,.04-106.53,.06-159.8,1.46-2.78,4.16-2.6,6.65-2.67,7.22-.21,14.44-.24,21.66-.01,7.44,.23,9.25,1.96,9.33,9.6,.27,26.73,.11,53.46,.1,80.19-.01,16.54-.45,15.54,15.77,15.54,14.44,0,28.88-.07,43.32,.05,2.87,.02,5.95-.37,8.16,2.21,2.4,1.84,2.95,4.4,2.99,7.25,.08,5.65-.01,11.31,.07,16.96,.12,7.79,.91,8.56,8.9,8.66,5.85,.07,11.7-.09,17.55,.11,2.32,.08,4.73-.04,6.6,1.77,2.03,2.44,1.99,5.4,2.04,8.33,.11,6.24,0,12.48,.09,18.72,.06,4.05,1.91,6.14,6.05,6.16,17.55,.11,35.1,.09,52.65,.01,4.52-.02,6.18-2.42,6.2-6.65,.03-6.05-.04-12.09,.07-18.14,.05-2.92-.02-5.89,1.98-8.36,2.4-2.29,5.46-1.8,8.33-1.89,5.85-.18,11.71,.07,17.57-.13,5.69-.19,6.93-1.38,7.14-6.91,.2-5.27,.21-10.54,0-15.81-.22-5.53-1.5-6.82-7.13-6.97-8.98-.23-17.96-.07-26.94-.08-31.23-.02-62.47,.03-93.7-.04-3.63-.01-7.55,.66-10.28-2.82-1.81-1.49-2.26-3.52-2.32-5.73-.22-7.94-.33-15.89,.04-23.83,.27-5.81,2.04-7.64,7.83-7.85,9.87-.35,19.76-.43,29.63,.14,35.11-.52,70.23-.57,105.34,.01,9.55-.57,19.12-.43,28.68-.22,7.26,.16,8.97,1.92,9.26,9.06,.25,6.05-.02,12.1,.15,18.15,.18,6.38,1.35,7.58,7.55,7.77,4.88,.15,9.76,.16,14.64-.01,6.26-.21,7.51-1.52,7.55-8.4,.12-21.28,.02-42.55,.05-63.83,.01-8-.18-16.01,.11-24.01,.25-6.89,2.03-8.75,8.72-9,7.61-.29,15.22-.23,22.83,0,2.33,.07,4.78,.1,6.06,2.65,.02,68.28,.01,136.56,.16,204.84,.01,4.64-1.45,6.18-6.03,5.98-7.4-.31-14.85,.29-22.23-.2-5.87-.38-7.17,1.92-7.08,7.37,.29,18.92-.02,37.85,.21,56.77,.06,4.79-1.32,6.6-6.26,6.37-7.59-.35-15.22,.17-22.82-.18-4.96-.23-6.26,1.61-6.24,6.37,.15,41.94,.09,83.89,.07,125.83,0,2.73-.18,5.45-.28,8.18-20.87,.1-41.74,.42-62.6,.15-5.94-.08-7.61,1.59-7.53,7.53,.3,20.89-.02,41.76-.12,62.63Z" style="fill:#faf5f1;"/><path d="M670.55,808.37c-21.06,.01-42.12-.15-63.18,.16-5.53,.08-7.33-1.36-7.28-7.1,.27-30.61,.02-61.23,.23-91.85,.03-5.02-1.22-6.94-6.52-6.7-9.54,.43-19.1,.19-28.66,.22-11.67-.02-23.34-.04-35-.06-2.59-1.24-2.69-3.67-2.71-6-.24-19.48-.3-38.96,.03-58.44,.11-6.4,2.08-8.12,8.63-8.44,6.23-.3,12.47,.02,18.7-.19,6.21-.21,7.52-1.44,7.59-7.73,.18-16.75,0-33.51,.1-50.26,.02-3.48-.32-7.06,1.92-10.15,1.95-2.11,4.58-1.96,7.08-1.99,9.54-.1,19.08-.37,28.61,.23,11.84-.51,23.67-.52,35.51,0,3.31-.23,6.62-.35,9.94-.35,85.84,.01,171.67,0,257.51,.01q16.14,0,16.15,16.37c0,7.02,.25,14.05-.33,21.05,.58,8.56,.14,17.13,.4,25.69,.17,5.6,1.44,6.87,6.96,7.1,6.42,.26,12.86-.1,19.28,.2,6.53,.3,8.56,2.06,8.67,8.39,.33,19.47,.25,38.95,.04,58.42-.02,1.95-.17,3.92-1.71,5.42-.33,.19-.65,.38-.98,.56-11.69,.05-23.37,.1-35.06,.15-9.75-.04-19.5,.16-29.23-.21-4.76-.18-5.95,1.59-5.93,6.06,.15,30.8-.06,61.6,.2,92.4,.05,5.66-1.54,7.52-7.2,7.17-7.57-.46-15.2-.3-22.8-.04-4.16,.14-5.44-1.44-5.32-5.44,.23-7.79-.26-15.61,.17-23.38,.3-5.34-1.72-6.65-6.71-6.5-9.54,.3-19.1-.01-28.65-.06-2.34-1.74-2.42-4.3-2.48-6.86-.16-6.04,.07-12.09-.13-18.14-.2-5.9-1.4-7.18-7.41-7.25-15.8-.19-31.59-.04-47.39-.07-2.34,0-4.68,.03-7.02-.11-6.18-.38-7.99-2.05-8.26-8.17-.37-8.57-.11-17.16-.15-25.74-.04-9.36,.09-18.72-.05-28.08-.1-6.96-1.24-8-8.33-8.15-7.99-.17-15.99,.26-23.98-.37-19.26,.76-38.53,.16-57.8,.35-9.33,.09-9.91,.65-9.96,9.97-.02,4.09-.09,8.18,.03,12.26,.19,6.28,1.3,7.49,7.67,7.55,16.55,.16,33.09-.01,49.64,.1,3.83,.03,7.87-.64,11.19,2.18,1.6,1.73,1.61,3.92,1.64,6.04,.22,19.22,.17,38.45,.03,57.67-.02,2.55-.17,5.09-2.48,6.84-10.07,.06-20.14,.22-30.21,.11-3.73-.04-5.15,1.21-5.08,5.03,.18,10.07,.03,20.14,.01,30.21-.01,0,.07-.08,.07-.08Z" style="fill:#eac694;"/><path d="M565.21,562.48c-.04,21.62-.22,43.23-.02,64.85,.04,4.4-1.13,5.64-5.49,5.46-8.55-.35-17.14-.01-25.7-.15-2.86-.05-4.16,.56-4.13,3.81,.19,22.2,.2,44.39,.27,66.59-.13,11.71-.26,23.43-.39,35.14-1.72,2.36-4.28,2.49-6.84,2.51-18.91,.14-37.82,.23-56.73-.04-7.12-.1-8.8-1.98-9.09-9.21-.24-5.84,.01-11.7-.14-17.54-.18-6.88-1.38-8.17-8.35-8.2-23.78-.13-47.57-.03-71.35-.06-16.77-.02-33.53,.13-50.3-.07-8.76-.11-10.33-1.66-10.45-10.24-.13-9.16-.33-18.32,.25-27.48-.67-21.21-.24-42.43-.25-63.64,0-2.55,.29-5.06,1.87-7.22,1.77-1.95,4.18-1.97,6.5-1.98,33.14-.05,66.29-.49,99.43,.22,19.26-.73,38.53-.15,57.8-.34,9.16-.09,9.93-.86,10.03-10.05,.06-5.84-.11-11.68,.18-17.52,.23-4.66,2.57-7.27,7.27-7.36,20.05-.39,40.09-.3,60.14-.04,2.17,0,4.33,.29,5.49,2.56Z" style="fill:#3d2e31;"/><path d="M424.47,597.42c-35.1,.07-70.21,.13-105.31,.2-1.97,2.36-4.69,2.48-7.45,2.53-6.23,.11-12.46,.04-18.69,.08-4.37,.03-6.39,2.04-6.4,6.41-.05,17.33-.03,34.65-.01,51.98,.01,4.77,2.37,6.56,6.89,6.56,6.23-.01,12.46-.07,18.69,.08,2.57,.06,5.1,.22,6.76,2.62,.04,9.56,.37,19.13,.01,28.67-.2,5.31,1.77,6.55,6.76,6.53,42.14-.17,84.28,.01,126.41-.21,5.76-.03,8.08,1.29,7.64,7.43-.53,7.38,.07,14.82-.2,22.23-.16,4.41,1.55,5.7,5.8,5.67,21.46-.14,42.92-.03,64.38-.01,.01,11.67,.02,23.33,.03,35-2.52,3.41-6.28,2.68-9.68,2.69-24.53,.12-49.06,.05-73.6,.06-16.16,0-32.32,.07-48.48-.06-3.06-.02-6.29,.47-9.01-1.61-2.11-2.13-2.17-4.89-2.24-7.62-.15-5.84,.02-11.69-.1-17.53-.15-7.05-1.22-8.23-8.19-8.28-18.11-.14-36.22-.03-54.33-.05-10.91-.01-21.81,.09-32.72-.07-2.68-.04-5.51,.29-7.84-1.6-2.36-2.5-2.2-5.67-2.26-8.76-.12-6.01-.07-12.02-.06-18.03,.01-4.63-2.1-6.69-6.71-6.69-6.59,0-13.18,.11-19.77-.11-2.31-.08-4.7,.03-6.56-1.78-1.73-2.08-1.96-4.58-2.01-7.14-.11-4.67-.05-9.33-.06-14q-.02-12.12-12.43-12.14c-4.86-.01-9.72,.09-14.58-.11-2.34-.1-4.71-.16-6.4-2.2-1.39-2.03-1.64-4.35-1.66-6.7-.15-19.09-.13-38.18-.01-57.28,.01-2.35,.21-4.68,1.52-6.75,1.89-2.54,4.71-2.37,7.4-2.46,6.59-.21,13.18-.06,19.76-.13,4.35-.05,6.34-2.09,6.37-6.42,.04-6.2-.04-12.4,.08-18.6,.06-2.9-.03-5.86,2.07-8.26,3.04-2.47,6.71-1.76,10.14-1.77,26.74-.11,53.47-.05,80.21-.06,2.15,0,4.29-.05,6.44-.07,4.36-.04,6.35-2.27,6.45-6.55,.15-6.63-.14-13.27,.2-19.9,.34-6.42,2.13-8.36,8.62-8.47,19.32-.32,38.64-.19,57.96-.06,1.96,.01,3.9,.2,5.69,1.15,.71,.36,1.28,.88,1.72,1.54,1.5,2.45,1.42,5.21,1.43,7.92,.08,17.87,.09,35.74-.01,53.61-.04,3.06,.32,6.33-2.66,8.52Z" style="fill:#080607;"/><path d="M1022,703.11c-.03,11.66-.05,23.32-.08,34.98-23.36,.01-46.71,.02-70.07,.03-.12-11.73-.23-23.45-.35-35.18l.33,.06c1.68-2.39,4.23-2.57,6.8-2.59,18.91-.16,37.81-.18,56.72,.02,2.5,.03,5.2-.08,6.65,2.68Z" style="fill:#130327;"/><path d="M600.11,421.72c35.21,.06,70.43,.12,105.64,.18,1.33,1.23,2.24,2.64,2.32,4.53,.36,8.94,.42,17.88-.05,26.82-.07,1.4-.69,2.62-1.4,3.79-2.18,2.47-5.15,2.43-8.07,2.5-6.23,.15-12.45,.09-18.68,.08-4.65-.01-6.69,2.08-6.71,6.73-.05,8.75,.25,17.51-.34,26.26,.62,9.51,.45,19.02,.2,28.53-.18,6.77-1.96,8.48-8.9,8.64-9.51,.22-19.02,.39-28.52-.21-11.85,.51-23.7,.53-35.55,0-8.97,.62-17.96,.32-26.93,.33-45.88,.03-91.76,.05-137.64-.04-3.78-.01-7.94,.95-10.95-2.59l-.05-.05c-1.1-1.1-2.2-2.21-2.28-3.89-.48-9.44-.72-18.88,.17-28.3,.1-1.1,.6-2.23,1.25-3.21,2.55-2.94,6.07-2.28,9.29-2.31,16.58-.15,33.16-.01,49.75-.09,8.58-.04,9.37-.88,9.47-9.38,.06-5.27-.03-10.53,.06-15.8,.05-2.74,.14-5.48,1.86-7.83,2.7-2.67,6.2-2.02,9.43-2.05,16.59-.14,33.18,0,49.76-.09,8.2-.04,9.07-.96,9.17-9.08,.07-5.46-.04-10.93,.08-16.39,.06-2.74,.12-5.49,2.12-7.72,1.79-1.33,3.85-1.75,6.02-1.81,7.75-.2,15.49-.18,23.24-.02,2.38,.07,4.63,.44,6.24,2.47Z" style="fill:#080607;"/><path d="M670.53,175.8c9.56,.01,19.12,.17,28.68-.05,4.81-.11,6.55,1.74,6.52,6.53-.15,21.26-.06,42.53-.05,63.79,2.24,1.76,2.54,4.23,2.57,6.84,.08,7.03-.17,14.06,.1,21.08,.14,3.73-2.2,6.07-3.5,9-.45,1.02-1.42,1.32-2.43,1.2-9.31-1.13-18.72,.61-28.29-1,.25,7.66,.43,15.36,.02,23.04-.14,2.51,.16,5.87-4.18,5.34-2.41-2.08-1.91-4.95-2.03-7.61-.36-7.94,.3-15.89-.09-23.84-.57-17.54,1.03-35.03,.93-52.56-.02-3.12,.1-6.24-.77-9.29-.25-11.75-.12-23.51-.04-35.27,.02-2.29-.09-4.68,1.63-6.57,.29-.21,.61-.42,.93-.63Z" style="fill:#080607;"/><path d="M705.73,457.03c.01-11.71,.01-23.42,.02-35.13,23.36,0,46.73,0,70.09-.01,.01,11.71,.02,23.42,.02,35.14-.22,.31-.44,.62-.66,.94-1.94,1.71-4.35,1.55-6.66,1.57-18.49,.13-36.99,.13-55.48,0-2.31-.02-4.72,.14-6.66-1.57-.23-.31-.45-.62-.67-.94Z" style="fill:#c9df0f;"/><path d="M635.38,105.51c9.73,.01,19.47,.2,29.19-.06,4.65-.13,6.04,1.61,6.01,6.12-.17,21.41-.06,42.82-.06,64.23l-.05,.05c-1.22,1.32-2.61,2.29-4.51,2.36-9.33,.36-18.66,.51-27.99-.13-1.19-.08-2.22-.67-3.11-1.48-2.03-2.43-2.08-5.37-2.1-8.3-.09-18.3-.1-36.6,.01-54.9,.02-2.5-.21-5.12,1.63-7.23,.33-.22,.66-.44,.98-.66Z" style="fill:#080607;"/><path d="M565.06,105.5c.04-11.68,.07-23.36,.11-35.03,21.39-.03,42.79,.04,64.18-.16,4.54-.04,6.22,1.41,6.09,6.03-.26,9.72-.07,19.45-.06,29.17l-.06,.06c-1.76,2.26-4.27,2.51-6.85,2.52-18.9,.14-37.79,.15-56.69-.01-2.13-.02-4.32-.02-6.07-1.61-.21-.32-.43-.65-.65-.97Z" style="fill:#080607;"/><path d="M670.7,311.7c2.08-7.26,.55-14.69,.94-22.03,.2-3.68,.03-7.37,.35-11.38,1.22,2.63,3.31,3.02,5.68,2.96,7.39-.18,14.78-.16,22.16-.48,5.78-.25,5.79-.43,5.81-7.22,.02-9.16,.01-18.32,.02-27.48,9.76,.01,19.52,.15,29.27-.04,4.15-.08,6.08,1.13,5.93,5.62-.25,7.99-.26,16-.01,24,.14,4.47-1.74,5.77-5.92,5.64-7.41-.22-14.85,.28-22.24-.16-5.83-.35-7.48,1.95-7.15,7.43,.39,6.61,.1,13.26,.09,19.9q-.01,7.91-8.19,7.92c-8.98,.01-17.95,.01-26.93,.02-.23-.21-.47-.42-.7-.62-.75-1.59-.75-3.01,.89-4.08Z" style="fill:#0a0809;"/><path d="M635.3,351.49c.06-11.69,.13-23.37,.19-35.06,1.2-2.22,3.34-2.46,5.5-2.54,7.94-.27,15.88-.24,23.83-.02,2.24,.06,4.19,.69,5.65,2.47l.06,.06c-.01,9.92-.14,19.84,.03,29.76,.07,4.07-1.51,5.5-5.51,5.42-9.91-.18-19.83-.08-29.75-.09Z" style="fill:#0a0809;"/><path d="M248.98,70.4c11.56,.01,23.12,.03,34.68,.04,.02,23.42,.05,46.83,.07,70.24-1.16,1.42-2.59,2.3-4.47,2.38-8.93,.38-17.86,.45-26.79-.06-1.59-.09-2.97-.83-4.22-1.81-1.61-1.89-2-4.16-2.02-6.53-.19-19.23-.19-38.45,.01-57.68,.03-2.48-.05-5.17,2.74-6.58Z" style="fill:#f8df38;"/><path d="M248.68,140.61c11.68,.02,23.37,.05,35.05,.07,.03,11.67,.06,23.34,.09,35.01-.2,.33-.41,.66-.61,.99-1.16,1.17-2.65,1.51-4.21,1.57-8.45,.32-16.9,.28-25.36,.03-1.97-.06-3.77-.64-5.34-1.88-1.14-1.37-1.86-2.93-1.93-4.73-.36-9.07-.44-18.13,.05-27.2,.07-1.21,.62-2.21,1.32-3.16,.32-.23,.63-.46,.94-.7Z" style="fill:#c9df0f;"/><path d="M319.15,140.49c11.65,.08,23.3,.15,34.95,.23,1.2,.75,2.24,1.75,2.3,3.19,.39,10.43,1.51,20.88-.7,31.25-.33,.71-.82,1.3-1.44,1.77-7.44,2.92-15.2,1.13-22.81,1.42-3.93,.15-8.11,.97-11.76-1.55-.22-.31-.44-.62-.66-.93,.03-11.79,.08-23.58,.12-35.38Z" style="fill:#f74a27;"/><path d="M283.82,175.7c11.73,.06,23.47,.11,35.2,.17l-.02-.02c1.6,1.3,2.45,2.96,2.52,5.04,.3,8.56,.34,17.13-.03,25.69-.08,1.81-.73,3.41-1.83,4.83-1.37,1.14-2.93,1.86-4.73,1.94-8.88,.42-17.76,.38-26.64,.02-1.79-.07-3.38-.72-4.8-1.8-1.65-1.84-2.05-4.08-2.11-6.44-.18-7.71-.18-15.43,0-23.14,.05-2.4,.55-4.59,2.53-6.19l-.09-.1Z" style="fill:#b2b618;"/><path d="M494.61,140.67c.12-11.73,.25-23.46,.37-35.19,23.36,.01,46.72,.02,70.08,.03l.06,.06c2.05,1.59,2.48,3.82,2.52,6.24,.14,7.77,.29,15.55-.07,23.32-.27,5.95-2.2,7.75-8.36,8.07-6.6,.34-13.22,.11-19.82,.17-4.59,.05-6.73,2.15-6.76,6.76-.05,7.19,.05,14.38,.01,21.57-1.18,4.87-4.29,6.82-9.26,6.75-7.51-.1-15.03,.11-22.54-.08-2.29-.06-4.67,.01-6.53-1.76-1.7-2.06-2.03-4.52-2.07-7.07-.14-7.34-.13-14.67-.01-22.01,.02-2.55,.29-5.03,2.38-6.86Z" style="fill:#080607;"/><path d="M248.98,70.4c-.1,23.4-.2,46.81-.3,70.21l.08-.06c-1.3,1.6-2.94,2.49-5.03,2.56-8.58,.31-17.15,.34-25.73-.03-1.81-.08-3.41-.74-4.83-1.85-2.13-2.4-2.11-5.37-2.13-8.3-.1-18.15-.1-36.3,0-54.45,.01-2.92-.09-5.92,2.41-8.12,.04-11.7,.08-23.41,.12-35.11h35.29c.04,11.72,.08,23.44,.12,35.15Z" style="fill:#b73217;"/><path d="M213.45,70.37c.06,23.43,.13,46.87,.19,70.3-.21,.31-.42,.62-.62,.94-1.36,1.28-3.08,1.52-4.83,1.56-8.09,.21-16.18,.23-24.26-.01-1.76-.05-3.47-.29-4.79-1.64-.19-.32-.38-.65-.57-.97,.04-23.4,.08-46.8,.12-70.21,11.58,.01,23.17,.02,34.76,.03Z" style="fill:#f9e039;"/><path d="M143.17,105.5c.05,11.73,.11,23.46,.16,35.19-.22,.32-.44,.63-.66,.95-1.23,1.12-2.74,1.44-4.33,1.5-8.39,.28-16.77,.26-25.16,.02-2-.06-3.84-.62-5.44-1.86-.83-.85-1.58-1.94-1.64-3.01-.51-10.74-1.61-21.51,.66-32.2,.37-.7,.88-1.28,1.53-1.73,8.46-2.94,17.2-.97,25.8-1.39,3.2-.16,6.71-.61,9.08,2.53Z" style="fill:#f8df38;"/><path d="M143.33,140.68c11.74-.05,23.49-.09,35.23-.14l-.06,.15c1.57,1.33,2.4,2.99,2.47,5.07,.28,8.56,.34,17.12-.04,25.67-.08,1.81-.74,3.4-1.84,4.83-1.37,1.14-2.94,1.86-4.73,1.94-8.88,.42-17.76,.38-26.64,.02-1.79-.07-3.38-.72-4.8-1.81-1.31-1.52-1.95-3.31-2.02-5.3-.32-8.3-.27-16.6-.04-24.9,.06-2.25,.79-4.14,2.56-5.58l-.09,.05Z" style="fill:#c9df0f;"/><path d="M143.17,105.5c-11.64-.06-23.28-.12-34.92-.18-2.24-1.19-2.46-3.34-2.53-5.5-.27-7.94-.27-15.89,0-23.83,.07-2.16,.33-4.3,2.56-5.48,11.63-.04,23.27-.08,34.9-.11,0,11.69-.01,23.39-.01,35.1Z" style="fill:#f4ebb0;"/><path d="M108.29,70.5c-.01,11.61-.02,23.21-.04,34.82l-.31,.25c-1.12,1.47-2.57,2.3-4.45,2.37-8.9,.33-17.8,.45-26.69-.09-1.2-.07-2.21-.65-3.09-1.46-.2-.33-.4-.66-.59-.99-.03-23.4-.06-46.81-.1-70.21,11.72-.01,23.44-.03,35.16-.04,.03,11.78,.07,23.57,.11,35.35Z" style="fill:#4b270f;"/><path d="M1022,703.11c-23.39-.04-46.78-.07-70.16-.11-.06-21.62-.22-43.24-.08-64.85,.03-4.19-.79-5.79-5.38-5.58-8.55,.41-17.14-.03-25.7,.18-3.37,.09-4.31-1.03-4.23-4.3,.24-10.32,.19-20.64,.25-30.96,1.71-2.37,4.27-2.46,6.83-2.53,5.45-.16,10.91-.01,16.37-.1,7.91-.13,8.95-1.2,9.08-9.3,.09-5.46-.1-10.91,.11-16.37,.3-7.46,1.97-9.06,9.57-9.38,1.56-.07,3.12-.07,4.68-.07,62.55-.01,125.1-.03,187.65,.05,3.96,0,8.3-1.04,11.57,2.49,11.69,0,23.38-.01,35.06-.01,5.62-3.77,30.02-3.63,35.13,.21,.02,9.56-.24,19.13,.17,28.67,.23,5.37-1.86,6.7-6.8,6.49-7.79-.33-15.6,.05-23.4-.14-3.81-.09-5.19,1.36-5.1,5.13,.18,7.8-.21,15.62,.14,23.4,.23,5.01-1.19,7.04-6.52,6.75-7.78-.41-15.6,.06-23.4-.17-4.12-.12-5.49,1.46-5.38,5.47,.21,7.6-.22,15.23,.16,22.82,.26,5.25-1.28,7.14-6.83,7.05-18.92-.32-37.84,.07-56.76-.23-5.47-.09-7.16,1.68-6.87,7,.39,7.2-.17,14.44,.19,21.64,.25,5.05-1.31,6.79-6.56,6.74-21.26-.23-42.53-.03-63.79,.01Z" style="fill:#3d2e31;"/><path d="M1162.56,562.28c-66.95,.04-133.91,.08-200.86,.12-1.76,0-3.52,.11-5.27-.01-3.55-.24-4.85,1.39-4.8,4.86,.12,8.39-.09,16.79,.07,25.18,.07,3.77-1.33,5.22-5.13,5.16-9.95-.17-19.91-.08-29.87-.09-.06-9.95-.41-19.91-.07-29.84,.16-4.55-1.31-5.36-5.54-5.35-78.06,.13-156.13,.11-234.19,.09-13.85,0-27.7-.12-41.56-.19-1.9-1.39-2.43-3.37-2.5-5.59-.22-7.92-.22-15.83,0-23.75,.06-2.24,.75-4.16,2.54-5.59,9.73-.01,19.48-.2,29.2,.07,4.68,.13,6.09-1.66,5.98-6.15-.23-9.73-.04-19.47-.02-29.2,1.24-1.27,2.63-2.2,4.51-2.28,9.04-.36,18.09-.46,27.13,.08,1.38,.08,2.57,.75,3.71,1.49,2.2,2.07,2.26,4.82,2.34,7.56,.15,5.83-.01,11.67,.1,17.5,.14,7.05,1.17,8.17,8.17,8.23,16.92,.14,33.83-.03,50.75,.09,3.06,.02,6.33-.38,8.58,2.53,125.06,.02,250.12,.04,375.19,.09,13.01,.01,11.4-1.44,11.5,11.6,.06,7.78,.03,15.59,.04,23.39Z" style="fill:#130327;"/><path d="M775.84,527.18c-21.83,.02-43.66-.05-65.48,.17-3.92,.04-4.88-1.17-4.78-4.91,.26-10.13,.13-20.27,.16-30.4,.22-.31,.44-.62,.66-.94,1.94-1.71,4.35-1.55,6.66-1.57,18.49-.13,36.99-.13,55.48,0,2.31,.02,4.72-.14,6.66,1.57,.22,.31,.44,.62,.66,.94,0,11.71-.01,23.43-.02,35.14Z" style="fill:#c9df0f;"/><path d="M1232.76,562.48c-11.71-.07-23.42-.14-35.13-.21,.01-9.76,.18-19.52-.02-29.27-.09-4.29,1.39-5.94,5.74-5.81,7.99,.24,16,.2,24,.01,4-.09,5.6,1.32,5.52,5.42-.2,9.95-.09,19.91-.11,29.86Z" style="fill:#130327;"/><path d="M775.87,457.03h35.12c1.62,1.28,2.48,2.92,2.56,5,.3,8.16,.33,16.31-.02,24.47-.08,1.86-.76,3.39-2.24,4.53-2.93,2.15-6.28,.93-9.41,.99-8.67,.18-17.34,.03-26.01,0l.15,.14c-1.77-1.47-2.52-3.37-2.58-5.65-.23-8-.23-15.99,0-23.99,.06-2.28,.81-4.18,2.58-5.65l-.15,.16Z" style="fill:#c9df0f;"/><path d="M811.28,491.05c-.1-11.34-.2-22.67-.3-34.01,9.71-.02,19.42,.11,29.13-.14,4.41-.11,6.37,1.2,6.2,5.93-.29,7.95-.22,15.93-.02,23.88,.1,4.03-1.44,5.68-5.46,5.42-9.84-.63-19.77,1.22-29.55-1.08Z" style="fill:#130327;"/><path d="M319.16,316.58c-.06,11.64-.11,23.28-.17,34.91-9.92,.02-19.85,.18-29.77-.03-4.09-.09-5.44,1.35-5.37,5.4,.18,9.92-.02,19.84-.06,29.76-1.49,2.77-4.19,2.52-6.69,2.6-6.05,.21-12.11-.02-18.16,.13-6.34,.17-7.34,1.19-7.49,7.68-.15,6.25,.04,12.5-.11,18.74-.06,2.37-.29,4.68-1.83,6.65-2.16,2.2-4.99,1.88-7.67,1.96-5.82,.17-11.66-.01-17.48,.1-7.01,.14-7.93,1.08-8.05,8.27-.1,5.83,.04,11.66-.09,17.48-.06,2.73-.17,5.46-2.19,7.65-1.92,1.7-4.32,1.57-6.62,1.63-7.17,.18-14.33,.15-21.5,.02-2.73-.05-5.49-.1-7.32-2.66-.03-9.92-.22-19.84-.03-29.75,.08-4.02-1.23-5.49-5.33-5.39-9.91,.24-19.83,.1-29.75,.11-.32-.2-.65-.4-.97-.59-1.82-1.88-1.71-4.29-1.72-6.61-.06-9.36-.33-18.71,.25-28.07-.54-11.7-.53-23.4-.01-35.11-.58-9.43-.31-18.87-.25-28.31,.02-2.52,.18-5.03,1.83-7.14,.8-.89,1.88-1.66,2.96-1.72,10.78-.59,21.58-1.6,32.32,.6,.71,.34,1.29,.84,1.75,1.48,1.81,3.01,1.48,6.38,1.47,9.65-.02,8.34,.34,16.69-.31,25.02,.6,8.57,.18,17.16,.39,25.74,.15,6.15,1.08,7.05,7.3,7.18,5.46,.12,10.93,.03,16.39,.01,4.13-.02,6.04-1.98,6.09-6.08,.08-6.44-.04-12.88,.1-19.32,.06-2.74,.04-5.5,2.08-7.72,3.41-2.62,7.44-1.86,11.27-1.96,4.87-.14,9.75,.08,14.62-.09,5.75-.2,6.85-1.26,7.05-6.91,.21-6.23-.05-12.47,.14-18.71,.08-2.69-.2-5.54,2.11-7.64,2-1.4,4.3-1.73,6.65-1.75,9.51-.05,19.03-.38,28.53,.26,9.33-.56,18.66-.31,28-.27,2.12,.01,4.31-.15,6.24,1.07,.62,.45,1.1,1.02,1.4,1.73Z" style="fill:#b73217;"/><path d="M108.29,456.86c-.05-11.66-.09-23.31-.14-34.97,.21-.32,.42-.64,.63-.96,1.71-1.61,3.89-1.61,6.01-1.65,7.17-.15,14.35-.15,21.52,0,2.53,.05,5.11,.09,6.7,2.62l.48-.02c-.05,10.08-.24,20.16-.06,30.23,.07,3.76-1.09,5.04-4.91,4.95-10.08-.28-20.16-.17-30.23-.2Z" style="fill:#fd5a13;"/><path d="M178.64,702.98c4.04-.94,3.35,1.97,3.36,4.2,.03,9.92,.01,19.84,.01,29.77-1.12,.77-2.25,1.54-3.37,2.3v-36.27Z" style="fill:#435257;"/><path d="M37.94,140.68c-.02-11.69-.04-23.38-.06-35.07,11.75-.07,23.49-.14,35.24-.21l.14,.09c.5,.6,1.35,1.16,1.42,1.82,1.2,11.32,2.77,22.66-1.03,33.83-1.69,1.46-3.71,1.97-5.88,2.04-7.9,.24-15.8,.2-23.7,.03-2.41-.05-4.58-.59-6.17-2.57l.04,.04Z" style="fill:#f64b27;"/><path d="M73.07,421.59c-.03-11.66-.07-23.31-.1-34.97,.22-.3,.44-.61,.65-.92,.79-.56,1.57-1.23,2.57-1.25,10.57-.17,21.18-1.68,31.67,.92,.68,.39,1.22,.92,1.63,1.59,2.64,10.43,1.19,20.99,.91,31.5-.04,1.45-1.24,2.33-2.15,3.31l-.11,.11c-11.68-.09-23.37-.19-35.07-.29Z" style="fill:#fd5a13;"/><path d="M37.88,386.68c.04-11.7,.09-23.4,.13-35.09l-.08,.02c1.3-1.55,2.91-2.45,4.97-2.52,8.85-.32,17.69-.36,26.54,.05,1.58,.07,3.02,.54,4.19,1.67,1.5,1.91,1.93,4.15,1.99,6.51,.17,7.71,.18,15.43,0,23.14-.06,2.4-.52,4.6-2.53,6.19l-.11-.02c-11.71,.01-23.4,.03-35.1,.05Z" style="fill:#833413;"/><path d="M37.77,245.96c.03-11.68,.07-23.36,.1-35.04,.03-11.7,.06-23.41,.09-35.11l-.09,.03c1.23-1.3,2.58-2.34,4.48-2.42,9.13-.39,18.27-.51,27.39,.1,1.38,.09,2.59,.79,3.7,1.6,2.06,2.17,2.18,4.92,2.19,7.67,.05,9.36,.33,18.73-.25,28.09,.57,9.32,.31,18.65,.26,27.98-.01,2.73-.12,5.47-2.02,7.73-1.87,1.64-4.15,2.01-6.52,2.06-7.58,.17-15.17,.17-22.75,.01-2.39-.05-4.67-.37-6.3-2.41l-.28-.29Z" style="fill:#f95f26;"/><path d="M72.96,351.63c-11.68-.01-23.36-.02-35.04-.03-.01-11.72-.03-23.44-.05-35.16v-35.17l.07-.07c1.22-1.33,2.61-2.3,4.52-2.38,9.16-.36,18.32-.5,27.47,.12,1.18,.08,2.21,.72,3.22,1.32,2.46,2.18,2.42,5.16,2.49,8.07,.16,6.42,.01,12.84,.12,19.25,.07,4.08,2.02,6.02,6.11,6.08,6.22,.09,12.45-.03,18.67,.1,2.91,.06,5.88-.05,8.28,2.11,.66,.75,1.28,1.64,1.35,2.56,.81,10.86,1.7,21.73-.55,32.55-.38,.7-.9,1.27-1.55,1.71-8.5,2.92-17.28,.94-25.92,1.39-3.24,.19-6.69,.44-9.19-2.45Z" style="fill:#fa5f26;"/><path d="M72.97,281.34c-11.67-.04-23.34-.08-35.02-.12,.04-11.66,.08-23.31,.12-34.97,11.62-.07,23.25-.13,34.87-.2,.32,.2,.64,.39,.97,.59,1.14,1.19,1.56,2.66,1.61,4.25,.29,8.53,.29,17.06,0,25.59-.05,1.59-.47,3.06-1.59,4.26-.32,.2-.64,.4-.96,.6Z" style="fill:#b4b618;"/><path d="M72.77,175.91c-11.63-.02-23.26-.05-34.9-.07,.01-11.73,.01-23.47,.02-35.2,11.72,.01,23.45,.02,35.17,.03,.31,.2,.61,.4,.92,.6,.61,.76,1.28,1.56,1.3,2.56,.21,10.26,1.57,20.56-.79,30.76-.43,.62-1.01,1.06-1.72,1.32Z" style="fill:#c8e00f;"/><path d="M705.75,773.09c-.05-23.4-.11-46.8-.16-70.2-1.79-1.45-2.39-3.4-2.45-5.62-.22-7.9-.21-15.8,0-23.69,.06-2.21,.62-4.18,2.41-5.64,9.75-.04,19.52,.11,29.26-.19,4.57-.14,6.13,1.36,6.08,6.01-.21,18.73-.09,37.46-.09,56.19q0,8.15,8.45,8.16c18.54,.01,37.07,.14,55.61-.09,4.87-.06,6.49,1.54,6.32,6.38-.33,9.55-.16,19.12-.19,28.68-35.08,0-70.16,0-105.24,0Z" style="fill:#d8a45c;"/><path d="M670.47,808.45c44.67-.01,89.34,.04,134.01-.13,4.95-.02,7.05,1.07,6.73,6.45-.44,7.58-.31,15.22-.03,22.81,.17,4.49-1.19,6.24-5.93,6.08-9.74-.32-19.5-.1-29.26-.11-1.93,2.44-4.67,2.57-7.43,2.59-18.51,.12-37.01,.12-55.52,0-2.75-.02-5.5-.14-7.42-2.59-9.94,0-19.88-.15-29.82,.07-4.11,.09-5.44-1.4-5.35-5.44,.22-9.94,.08-19.88,.09-29.82,.01,0-.07,.09-.07,.09Z" style="fill:#eac694;"/><path d="M705.63,843.56h70.37c-.02,9.94-.19,19.88,.02,29.81,.08,3.89-.82,5.47-5.11,5.42-20.07-.21-40.14-.21-60.21-.01-4.28,.04-5.21-1.51-5.12-5.42,.22-9.92,.06-19.86,.05-29.8Z" style="fill:#d8a45b;"/><path d="M424.53,527.28c58.56,0,117.12-.01,175.67-.01,1.78,1.44,2.47,3.35,2.53,5.6,.23,7.92,.23,15.84,0,23.76-.06,2.22-.61,4.2-2.5,5.59-11.67,.09-23.35,.18-35.02,.28-21.44-.03-42.88,.07-64.32-.18-5.04-.06-6.35,1.86-6.18,6.51,.29,7.79-.08,15.59,.14,23.39,.11,4.1-1.48,5.43-5.48,5.4-21.63-.17-43.27-.14-64.9-.18,.02-23.4,.04-46.78,.06-70.16Z" style="fill:#130327;"/><path d="M811.07,667.83c10.14,0,20.28,.18,30.41-.09,3.91-.1,4.94,1.16,4.83,4.92-.26,8.77-.19,17.55-.03,26.32,.05,2.96-.7,4.07-3.89,4.05-20.86-.13-41.72-.13-62.58,0-3.14,.02-3.97-1.02-3.92-4.02,.16-8.97,.27-17.94-.04-26.9-.13-3.95,1.55-4.39,4.81-4.34,10.13,.16,20.27,.06,30.41,.06Z" style="fill:#3e3526;"/><path d="M811.07,597.55c9.94,0,19.88,.14,29.81-.07,4.03-.09,5.54,1.23,5.42,5.35-.24,8.37-.18,16.76-.03,25.13,.06,3.51-1.23,4.8-4.77,4.78-20.26-.11-40.53-.11-60.8-.01-3.49,.02-4.88-1.16-4.81-4.74,.17-8.57,.16-17.15,0-25.72-.07-3.54,1.26-4.82,4.78-4.77,10.14,.15,20.27,.05,30.4,.05Z" style="fill:#faf5f1;"/><path d="M705.55,667.95c.01,11.65,.03,23.3,.04,34.95-21.87,.03-43.73-.01-65.59,.15-3.4,.02-4.85-.61-4.72-4.44,.29-8.78,.28-17.57,0-26.35-.12-3.77,1.22-4.52,4.68-4.49,21.86,.17,43.72,.14,65.59,.18Z" style="fill:#3e3526;"/><path d="M670.48,597.55c10.13,0,20.27,.09,30.4-.05,3.48-.05,4.89,1.14,4.82,4.72-.17,8.57-.16,17.15-.01,25.72,.06,3.5-1.2,4.81-4.76,4.79-20.27-.11-40.53-.11-60.8-.01-3.47,.02-4.89-1.13-4.82-4.72,.17-8.57,.16-17.15,0-25.72-.07-3.53,1.22-4.83,4.76-4.78,10.15,.15,20.28,.05,30.41,.05Z" style="fill:#faf5f1;"/><path d="M600.23,562.21c-.01-11.65-.02-23.3-.03-34.94h35.2c-.01,11.64-.03,23.29-.04,34.93-11.71,0-23.42,.01-35.13,.01Z" style="fill:#0a0909;"/><path d="M318.94,667.88c-9.76-.02-19.52-.19-29.27,.02-4.29,.09-5.85-1.39-5.81-5.74,.16-19.51,.17-39.03-.01-58.54-.04-4.52,1.37-6.28,6.03-6.15,9.75,.28,19.51,.13,29.27,.15-.07,23.42-.14,46.84-.21,70.26Z" style="fill:#130327;"/><path d="M705.73,492.04c-11.72-.02-23.45-.04-35.17-.06-.02-10.12,.17-20.25-.14-30.37-.12-4.01,1.3-4.81,4.95-4.73,10.12,.24,20.24,.13,30.37,.15l-.15-.14c1.77,1.47,2.52,3.37,2.58,5.65,.23,8,.23,15.99,0,23.99-.06,2.28-.81,4.18-2.58,5.65,0,0,.14-.14,.14-.14Z" style="fill:#c9df0f;"/><path d="M354.4,281.25c-.09,11.69-.19,23.38-.28,35.07h.09c-10.14,1.24-20.29,.79-30.45,.26h-4.61l-.16-.44c-2.37-1.7-2.47-4.26-2.49-6.8-.14-19.19-.19-38.37,.03-57.56,.02-2.12,.05-4.3,1.59-6.05,.82-.9,1.93-1.6,3.01-1.66,10.84-.65,21.7-1.64,32.49,.59,.71,.37,1.29,.88,1.75,1.53,2.95,8.48,.96,17.24,1.41,25.87,.17,3.21,.48,6.67-2.38,9.19Z" style="fill:#ce3010;"/><path d="M323.77,316.58c10.15-.09,20.3-.18,30.45-.27-3.99,2.45-8.39,.78-12.58,1.24-5.16,.57-10.51-1.19-15.54,1.18,.79,.39,.78,.78-.01,1.17-1.34-.7-2.14-1.8-2.32-3.32Z" style="fill:#593d3a;"/><path d="M326.1,319.9c0-.39,0-.78,.01-1.17h23.63c.01,.39,.01,.78,.02,1.17h-23.66Z" style="fill:#5c3935;"/><path d="M705.58,492.18v-35.29h70.43v35.29h-70.43Z" style="fill:#130327;"/><path d="M213.64,140.66c11.71-.04,23.41-.07,35.12-.11,.01,11.75,.01,23.49,.02,35.24-.22,.32-.44,.64-.66,.96-1.55,1.44-3.51,1.53-5.44,1.58-7.74,.18-15.48,.17-23.22,0-2.36-.05-4.63-.43-6.47-2.11-1.55-1.93-1.86-4.22-1.91-6.59-.16-7.39-.14-14.77-.01-22.16,.05-2.56,.32-5.05,2.57-6.81h0Z" style="fill:#f8df38;"/><path d="M283.91,175.8c0,11.72,0,23.44,.01,35.17-.22,.32-.44,.64-.66,.96-1.55,1.43-3.51,1.52-5.45,1.56-7.74,.18-15.47,.17-23.21,0-2.36-.05-4.63-.43-6.46-2.11-1.7-2.1-1.89-4.63-1.93-7.17-.13-7-.13-14,0-21,.05-2.75,.13-5.5,2.67-7.35l-.1-.06c11.71,0,23.42,0,35.13,0Z" style="fill:#895f3f;"/><path d="M354.02,175.75c0,11.73,0,23.46,.01,35.19-1.14,1.45-2.57,2.35-4.46,2.42-8.96,.35-17.91,.45-26.86-.08-1.21-.07-2.21-.69-3.12-1.46-.21-.33-.41-.65-.62-.98,.02-11.66,.03-23.33,.05-34.99,11.66-.03,23.33-.07,35-.1Z" style="fill:#fa5f26;"/><path d="M319.12,246.18c-.04,23.32-.08,46.64-.13,69.96-11.71,.03-23.42,.07-35.13,.1-2.33-1.74-2.48-4.29-2.5-6.85-.07-9.36-.34-18.71,.25-28.06-.51-11.76-.53-23.52,0-35.28-.58-9.26-.31-18.53-.26-27.8,.01-2.74,.17-5.45,2.65-7.31l-.08,.04c11.68-.04,23.36-.08,35.05-.12l.22,.21c3.7,5.36,3.66,29.75-.07,35.11Z" style="fill:#f95f26;"/><path d="M213.63,140.67c0,11.72,0,23.43,.01,35.15-.21,.31-.42,.62-.63,.93-1.36,1.27-3.07,1.51-4.82,1.56-8.08,.22-16.15,.21-24.23,.01-1.75-.04-3.46-.29-4.86-1.49-.22-.3-.44-.6-.66-.9,.02-11.74,.04-23.48,.06-35.22,11.71-.02,23.42-.03,35.13-.04Z" style="fill:#b2b618;"/><path d="M73.06,140.66c.06-11.72,.13-23.45,.19-35.17,11.56,.02,23.12,.05,34.69,.07,.14,11.63,.27,23.25,.41,34.88-.2,.33-.39,.67-.59,1.01-1.66,1.66-3.82,1.71-5.94,1.76-7.33,.17-14.66,.14-21.99,.02-2.57-.04-5.03-.33-6.76-2.56h-.01Z" style="fill:#c9df0f;"/><path d="M143.41,140.65c-.03,11.73-.05,23.46-.08,35.19-.21,.31-.42,.62-.63,.93-.77,.59-1.55,1.25-2.55,1.27-10.54,.17-21.12,1.67-31.59-.91-.68-.38-1.22-.91-1.63-1.58-2.63-10.56-1.27-21.24-.83-31.88,.05-1.18,1.17-1.98,2.01-2.78l.22-.43c11.71,.05,23.4,.12,35.08,.19Z" style="fill:#b73217;"/><path d="M143.34,175.84c11.7,.03,23.4,.05,35.1,.08l-.04-.08c1.6,1.29,2.48,2.93,2.56,5.03,.31,8.57,.34,17.14-.03,25.7-.08,1.81-.73,3.41-1.83,4.84-1.37,1.15-2.93,1.86-4.73,1.95-8.88,.42-17.77,.38-26.65,.02-1.79-.07-3.38-.72-4.8-1.81-1.48-1.68-2-3.7-2.07-5.88-.23-8.11-.24-16.22,0-24.33,.07-2.25,.79-4.14,2.53-5.61l-.04,.09Z" style="fill:#fa5f26;"/><path d="M248.89,316.35c-.04,9.73-.25,19.46-.02,29.18,.11,4.48-1.21,6.23-5.94,6.11-9.72-.25-19.45,.06-29.17,.13-.31-.18-.61-.36-.92-.53-2-2.03-1.72-4.66-1.78-7.15-.15-6.03,.08-12.07-.12-18.1-.19-5.68-1.24-6.72-7.01-6.89-6.03-.19-12.06,0-18.1-.1-2.77-.04-5.48-.17-7.39-2.61l.08,.08c-1.29-1.23-2.33-2.58-2.41-4.49-.39-9.13-.5-18.26,.1-27.38,.09-1.38,.78-2.59,1.59-3.71,1.97-1.91,4.48-2.17,7.03-2.19,9.5-.08,19.01-.37,28.51,.25,9.41-.56,18.82-.3,28.24-.28,2.31,.01,4.62,.07,6.74,1.21,.7,.37,1.26,.89,1.68,1.55,2.7,10.64,1.35,21.41,.87,32.14-.06,1.15-1.22,1.91-1.98,2.78Z" style="fill:#fa5f26;"/><path d="M108.25,421.78c-.02-11.71-.04-23.41-.07-35.12,1.26-2.15,3.4-2.41,5.56-2.48,7.95-.26,15.89-.24,23.84-.02,2.23,.06,4.21,.63,5.63,2.48-.07,11.75-.14,23.49-.21,35.24-11.58-.03-23.16-.06-34.75-.1Z" style="fill:#f63132;"/><path d="M213.76,351.76c-.04,9.76-.25,19.52-.04,29.28,.09,4.38-1.5,5.84-5.79,5.71-8-.25-16.01-.22-24.01-.01-4.02,.1-5.58-1.29-5.48-5.4,.23-9.95,.13-19.91,.16-29.86,1.44-1.8,3.39-2.39,5.61-2.45,7.89-.22,15.78-.21,23.68,0,2.21,.06,4.18,.61,5.64,2.4l.23,.33Z" style="fill:#783f14;"/><path d="M143.22,386.65c-11.68,0-23.35,.01-35.03,.01l.04,.04c-1.76-1.45-2.47-3.35-2.53-5.6-.21-8.1-.25-16.2,.02-24.3,.07-2.04,.75-3.76,2.31-5.1l.29-.29c5.32-3.68,29.66-3.65,34.88,.04,0,11.73,0,23.47,.02,35.2Z" style="fill:#fa5f26;"/><path d="M213.52,351.42c-11.64,.02-23.28,.03-34.93,.05-.05-11.7-.1-23.4-.16-35.1,9.95,.01,19.91,.17,29.86-.05,3.98-.09,5.54,1.04,5.42,5.24-.28,9.94-.15,19.9-.19,29.86Z" style="fill:#c9df0f;"/><path d="M143.2,351.45c-11.63-.01-23.25-.03-34.88-.04-.07-11.64-.14-23.28-.22-34.92,.19-.31,.38-.63,.57-.94,.6-.51,1.22-1.16,1.97-1.21,10.47-.62,20.96-1.56,31.38,.54,.64,.41,1.11,.96,1.42,1.66-.07,11.64-.15,23.27-.24,34.91Z" style="fill:#b4b618;"/><path d="M248.89,316.35c-.05-11.7-.1-23.4-.16-35.1,1.26-2.16,3.4-2.43,5.56-2.5,7.97-.26,15.93-.24,23.9-.01,2.24,.07,4.21,.67,5.61,2.55,.02,11.65,.04,23.3,.06,34.95-11.65,.03-23.31,.07-34.97,.11Z" style="fill:#c9df0f;"/><path d="M178.58,281.34c-.02,11.7-.04,23.4-.06,35.1-11.69,.03-23.38,.06-35.06,.09l-.11-.44c-1.48-1.1-2.31-2.54-2.39-4.4-.4-8.86-.41-17.71,.02-26.57,.08-1.58,.75-2.97,1.66-4.25,.29-.26,.55-.67,.89-.74,11.48-2.31,22.96-2.79,34.41,.21,.21,.34,.42,.67,.64,1Z" style="fill:#c9df0f;"/><path d="M108.04,351.7c.06,11.67,.13,23.33,.19,35-11.71-.02-23.43-.04-35.14-.06-.04-11.67-.08-23.34-.12-35.01,11.69,.03,23.38,.05,35.07,.07Z" style="fill:#f63132;"/><path d="M72.94,246.05c.08-11.69,.16-23.37,.24-35.06,.94-.98,1.83-2.17,3.3-2.22,10.43-.34,20.88-1.6,31.24,.8,.71,.37,1.27,.9,1.7,1.57,2.82,8.75,.94,17.76,1.37,26.64,.15,3.08,.18,6.28-2.07,8.88-1.57,1.27-3.39,1.85-5.38,1.92-8.15,.29-16.31,.25-24.46,.03-2.23-.06-4.22-.61-5.63-2.5,0,0-.31-.06-.31-.06Z" style="fill:#c9df0f;"/><path d="M108.1,210.85c-11.64,.04-23.28,.09-34.92,.13-.14-11.69-.27-23.39-.41-35.08l.38-.33c5.53-3.55,29.68-3.48,34.93,.1l.25,.25c3.81,5.54,3.65,30.18-.23,34.93Z" style="fill:#b73217;"/><path d="M108.11,316.49c-9.92-.04-19.85-.23-29.76-.03-4.08,.08-5.44-1.29-5.36-5.36,.2-9.92,.01-19.84-.03-29.76l.2-.19c1.22-1.33,2.63-2.24,4.52-2.31,8.92-.37,17.84-.43,26.76,.06,1.59,.09,2.98,.8,4.23,1.76,1.66,1.87,2.03,4.15,2.08,6.53,.17,7.61,.17,15.21,.01,22.82-.05,2.4-.43,4.67-2.46,6.29l-.19,.19Z" style="fill:#b4b618;"/><path d="M108.25,281.2c-11.7-.02-23.39-.04-35.09-.05,.03-11.68,.05-23.35,.08-35.03,11.67,.01,23.34,.02,35.01,.02,.31,.21,.62,.42,.93,.63,1.45,1.56,1.52,3.54,1.57,5.49,.17,7.61,.17,15.21,0,22.82-.04,1.95-.11,3.93-1.56,5.49-.32,.21-.63,.42-.94,.63Z" style="fill:#e6f382;"/><path d="M108.07,175.67c-11.64-.03-23.29-.07-34.93-.1-.03-11.63-.05-23.27-.08-34.9,11.69,.07,23.37,.13,35.06,.2-.01,11.6-.03,23.2-.05,34.8Z" style="fill:#4b270f;"/><path d="M319.12,246.18c.02-11.71,.04-23.42,.05-35.13,11.62-.04,23.23-.08,34.85-.12-.01,11.73-.01,23.47-.02,35.2-11.62,.02-23.25,.04-34.88,.05Z" style="fill:#f64b27;"/><path d="M248.87,175.86c-.02,11.63-.03,23.27-.05,34.9-.2,.33-.4,.67-.6,1.01-1.34,1.34-3.05,1.62-4.83,1.67-8.35,.24-16.7,.27-25.04-.03-2-.07-3.8-.69-5.34-2.02-1.57-1.92-1.88-4.22-1.94-6.58-.16-7.39-.14-14.79-.01-22.18,.05-2.58,.33-5.07,2.57-6.83h0c11.75,.03,23.5,.05,35.24,.06Z" style="fill:#b4b618;"/><path d="M283.99,210.93c-.06,11.72-.13,23.43-.19,35.15-.93,.99-1.83,2.17-3.29,2.21-10.41,.35-20.85,1.57-31.2-.77-.7-.36-1.27-.88-1.71-1.54-2.88-8.83-.96-17.92-1.37-26.88-.13-2.83-.3-5.88,2.56-7.83l.03-.49c11.73,.04,23.45,.09,35.17,.15Z" style="fill:#c9df0f;"/><path d="M248.82,246.26c11.66-.06,23.32-.13,34.98-.19v35.22c-11.69-.02-23.38-.03-35.07-.04h.1c-1.79-1.44-2.49-3.35-2.56-5.61-.23-7.96-.25-15.91,.02-23.86,.08-2.16,.29-4.33,2.53-5.52Z" style="fill:#b73217;"/><path d="M213.64,175.81c.01,11.72,.02,23.44,.03,35.16-.21,.31-.42,.62-.63,.93-1.37,1.26-3.07,1.51-4.83,1.56-8.07,.22-16.15,.21-24.23,0-1.75-.05-3.46-.27-4.84-1.53-.21-.31-.42-.62-.63-.93-.04-11.72-.09-23.43-.13-35.15,11.76-.02,23.51-.03,35.26-.04Z" style="fill:#c9df11;"/><path d="M108.1,210.85c.07-11.64,.15-23.28,.22-34.93,11.68-.06,23.37-.12,35.05-.17,.05,11.77,.1,23.54,.15,35.31-.23,.3-.47,.61-.7,.91-1.78,1.47-3.95,1.51-6.08,1.55-7.18,.13-14.37,.12-21.55,.01-2.56-.04-5.09-.19-6.86-2.45l-.23-.23Z" style="fill:#c9df0f;"/><path d="M143.53,211.06c11.67-.02,23.33-.05,35-.07l-.08-.06c.93,.98,2.17,1.85,2.23,3.32,.38,10.46,1.6,20.94-.77,31.34-.38,.7-.9,1.27-1.57,1.71-8.37,2.86-17,.98-25.5,1.38-3.45,.16-7.09,.45-10.05-2.09-1.42-1.74-1.88-3.8-1.94-5.98-.22-7.78-.18-15.56-.03-23.35,.05-2.41,.49-4.65,2.51-6.26l.2,.06Z" style="fill:#4b2711;"/><path d="M248.82,246.26c0,11.66,.01,23.33,.01,34.99-11.74-.07-23.48-.14-35.22-.2-1.42-1.16-2.29-2.59-2.37-4.47-.38-8.91-.44-17.83,.06-26.74,.09-1.59,.81-2.97,1.78-4.23,1.87-1.65,4.16-2.01,6.53-2.07,7.6-.17,15.19-.15,22.79-.02,2.41,.04,4.64,.49,6.41,2.28v.46Z" style="fill:#b4b618;"/><path d="M213.67,246.1c-.02,11.65-.04,23.3-.06,34.95-11.68,.1-23.36,.19-35.03,.29l-.17-.19c-3.72-5.35-3.69-29.73,.05-35.01l-.03-.22c1.07-.81,1.98-1.98,3.45-2.05,9.89-.47,19.79-1.06,29.66,.36,.57,.08,1,.58,1.48,.91,.21,.32,.43,.64,.65,.96Z" style="fill:#c9df11;"/><path d="M108.3,316.3c-.02-11.7-.03-23.4-.05-35.1l-.07,.07c1.22-1.32,2.57-2.36,4.48-2.43,9.14-.32,18.28-.54,27.41,.15,1.01,.08,1.81,.67,2.59,1.26,.22,.32,.44,.63,.66,.95,.01,11.63,.02,23.26,.03,34.89-11.69,.07-23.37,.14-35.05,.21Z" style="fill:#e6f381;"/><path d="M178.45,246.14c-.02,11.67-.03,23.34-.05,35.01-11.7,.02-23.39,.04-35.09,.05l.08,.08c-1.32-1.22-2.36-2.58-2.44-4.49-.37-8.97-.45-17.95,.06-26.92,.07-1.22,.64-2.23,1.4-3.16,.32-.22,.64-.43,.96-.64,11.7,.02,23.39,.05,35.08,.07Z" style="fill:#e6f381;"/><path d="M143.32,210.99c.02,11.69,.04,23.38,.06,35.08l-.05,.05c-1.47,1.78-3.41,2.43-5.66,2.49-7.96,.22-15.92,.22-23.87-.01-2.26-.06-4.17-.78-5.63-2.55l.08,.08c.03-11.69,.06-23.37,.09-35.06,11.66-.02,23.32-.05,34.98-.08Z" style="fill:#e6f381;"/><path d="M108.17,246.06c11.72,.02,23.44,.04,35.16,.06,.02,11.72,.04,23.44,.06,35.16-11.74,0-23.48-.01-35.21-.01,0-11.73-.01-23.47-.01-35.21Z" style="fill:#c9df0f;"/><path d="M248.8,245.81c-11.71,.1-23.42,.19-35.13,.29l.03-.12c-1.87-1.39-2.49-3.33-2.56-5.57-.23-7.92-.23-15.84,0-23.76,.07-2.23,.69-4.18,2.56-5.57l-.02-.12c11.71,.1,23.41,.19,35.12,.29-.01,11.52,0,23.04,0,34.56Z" style="fill:#f8df38;"/><path d="M213.69,211.08v34.89c-11.76-.02-23.51-.04-35.27-.06,.01-11.66,.01-23.32,.01-34.98,11.76,.05,23.51,.1,35.26,.15Z" style="fill:#f95f26;"/></svg>