<?xml version="1.0" encoding="UTF-8"?><svg id="a" xmlns="http://www.w3.org/2000/svg" width="1072.4" height="1098.09" viewBox="0 0 1072.4 1098.09"><path d="M411.8,1098H137.32c-2.31-2.16-1.87-5.02-1.87-7.73-.03-27.73-.02-55.47-.02-83.2,0-49.22-.01-98.44,.02-147.66,0-2.85-.53-5.84,1.35-8.41,1.61-1.71,3.73-1.85,5.88-1.88,4.56-.06,9.11,0,13.67-.03,6.17-.04,6.5-.34,6.52-6.39,.04-13.37-.01-26.73,.03-40.1,.01-2.42-.2-4.91,1.59-6.93,.99-.86,2.2-.97,3.44-.96,16.31,.02,32.61-.08,48.92,.06,.61,.01,1.21,.14,1.79,.31,2.65,1.29,2.78,3.77,2.84,6.22,.11,5.16,.12,10.32,.02,15.47-.07,3.45,1.28,4.99,4.82,4.91,5.15-.11,10.31-.09,15.47,.02,2.8,.06,5.55,.33,6.66,3.59,1.11,5.58,.38,11.23,.51,16.84,.16,6.59,.39,6.95,7.04,6.96,47.98,.02,95.96-.02,143.94,.06,4.02,.01,8.27-1.1,12.01,1.47,1.49,1.56,1.67,3.52,1.69,5.53,.05,5.64,.12,11.28-.02,16.92-.14,5.36-1.83,7.1-7.25,7.17-13.11,.16-26.22,.04-39.33,.06q-8.25,.02-8.26,8.47c-.01,4.12,.12,8.24-.07,12.35-.21,4.62-1.87,6.24-6.45,6.56-1.67,.12-3.35,.06-5.03,.06H201.78c-1.07,0-2.13,.01-3.2-.01-6.6-.12-8.12-1.59-8.23-8.07-.08-4.88-.06-9.76-.02-14.64,.02-3.24-1.34-4.76-4.64-4.73-4.88,.05-9.76,.01-14.64,.02-3.08,.01-4.38,1.52-4.39,4.52-.03,14.03-.01,28.05-.01,42.08,0,3.38,1.67,4.54,4.83,4.52,5.18-.04,10.37-.11,15.55,.04,5.21,.16,6.84,1.76,7,6.9,.16,5.18,.11,10.37,.04,15.55-.05,3.47,1.42,5,4.91,4.96,5.03-.06,10.06-.1,15.09,.04,5.66,.15,7.35,1.79,7.41,7.47,.13,13.57,.01,27.14,.06,40.71,.02,6.29,.38,6.63,6.83,6.67,3.96,.03,7.93-.07,11.89,.02,3.45,.07,5.02-1.37,4.97-4.89-.07-5.03-.1-10.06,.03-15.09,.14-5.67,1.77-7.37,7.46-7.42,13.57-.13,27.14-.01,40.71-.06,6.31-.02,6.65-.38,6.69-6.8,.03-4.12-.03-8.23,.03-12.35,.1-6.74,1.59-8.23,8.49-8.27,13.72-.07,27.44-.02,41.16-.02,17.84-.01,35.68,.02,53.51-.01,6.15-.01,6.54-.42,6.6-6.44,.04-4.42-.06-8.84,.04-13.26,.13-5.96,1.73-7.64,7.66-7.69,13.42-.12,26.83-.01,40.25-.05,6.64-.02,6.94-.31,6.94-7.01,.03-21.95-.01-43.91,.02-65.86,.01-8.25,1.23-9.43,9.61-9.45,13.57-.03,27.14-.06,40.71,.02,6.79,.04,8.23,1.55,8.31,8.43,.05,4.27-.02,8.54,.03,12.81,.06,5.69,.5,6.12,6.38,6.17,4.27,.04,8.54-.03,12.81,.03,6.62,.1,8.13,1.57,8.23,8.05,.08,4.73,.12,9.46,0,14.18-.09,3.67,1.39,5.31,5.12,5.22,4.72-.11,9.45-.07,14.18,0,6.53,.11,8.12,1.63,8.14,8.15,.08,22.41,.03,44.82,.03,67.23,.01,27.44-.01,54.89,.01,82.33,.01,6.64,.3,6.91,7,6.94,3.96,.02,7.93-.04,11.89,0,3.2,.03,4.86-1.27,4.77-4.6-.05-1.83,.01-3.66,.01-5.49,0-57.02,0-114.04,.01-171.06,0-10.24,.72-10.95,10.82-10.98,3.96-.01,7.93-.05,11.89,0,3.25,.04,4.74-1.37,4.72-4.65-.02-5.03-.07-10.06,.04-15.09,.13-5.94,1.73-7.61,7.7-7.66,13.57-.12,27.14,0,40.71-.05,6.01-.02,6.41-.45,6.45-6.58,.03-4.27,.03-8.54-.03-12.81-.04-2.8-1.33-4.22-4.17-4.25-1.83-.01-3.66-.04-5.49-.04-75.62,0-151.24,.01-226.86-.03-2.99,0-6.15,.6-8.8-1.55-1.21-1.29-1.58-2.88-1.61-4.57-.11-6.32-.12-12.64,.01-18.96,.04-1.85,.48-3.58,2.03-4.82,2.56-1.28,5.32-.68,7.99-.75,6.45-.17,12.95,.51,19.3-1.21,11.53,1.46,23.12,.57,34.69,.62,5.71,.02,12.86,2.51,16.81-1.24,4.02-3.82,.97-11.02,1.46-16.72,.23-2.7-.37-5.54,1.55-7.9,1.63-1.4,3.61-1.48,5.61-1.49,5.33-.04,10.67-.08,16.01,.01,6.29,.09,7.88,1.66,8,7.83,.1,4.88,.1,9.76,.02,14.63-.06,3.44,1.31,4.99,4.86,4.97,13.87-.06,27.74-.04,41.61-.01,3.25,.01,4.75-1.28,4.71-4.61-.07-4.88-.04-9.76,.01-14.63,.02-1.97-.12-3.98,.9-5.81,.27-.53,.66-.96,1.14-1.31,5.13-2.11,10.51-.93,15.78-1.04,10.2-.2,9.61,.56,9.62-9.77,0-3.65-.11-7.3,.06-10.95,.22-4.9,1.84-6.56,6.69-6.73,5.01-.18,10.03-.01,15.05-.07,5.01-.07,5.54-.58,5.63-5.46,.08-4.86-.07-9.73,.06-14.59,.15-5.48,1.76-7.18,7.06-7.32,5.77-.15,11.55-.08,17.33-.02,1.69,.02,3.34,.23,4.78,1.25,1.2,1.04,1.64,2.4,1.7,3.93-.27,2.81-.44,5.63,.15,8.44,.18,1.15,.08,2.3-.13,3.44,.54,13.18,.15,26.36,.25,39.53-1.31,7.6-.08,15.19,.16,22.78,.08,2.72,2.27,2.88,4.33,2.91,5.03,.07,10.06-.04,15.09,.05,6.3,.11,7.75,1.58,7.84,7.92,.08,5.03,.06,10.06,.02,15.09-.02,3.08,1.34,4.43,4.41,4.41,4.73-.03,9.45-.03,14.18,.01,2.59,.02,5.19,.03,7.44,1.65,1.86,5.29,.53,10.85,1.4,16.23,.26,1.64,.09,3.35,.06,5.02-.05,3.03,1.37,4.5,4.42,4.48,1.68-.01,3.35,.03,5.03,.03,48.48,0,96.97-.01,145.45,.03,2.98,0,6.2-.61,8.54,2.12,1.86,3.42,.89,7.15,1.22,10.75,.43,4.61-2.09,10.41,1.42,13.55,3.2,2.88,8.79,.66,13.31,1.02,3.72,.3,7.65-.92,11.11,1.46,1.78,2.02,1.55,4.52,1.58,6.94,.05,4.72,.11,9.44-.01,14.15-.09,3.47,1.25,5.01,4.81,4.92,5.02-.12,10.04-.05,15.06-.01,2.13,.02,4.29,0,6.06,1.5,1.51,1.76,1.5,3.9,1.52,6.03,.05,5.16,.05,10.33,.02,15.49-.02,3.07,1.34,4.41,4.39,4.4,4.86-.02,9.72-.04,14.58,.02,7.02,.09,8.39,1.51,8.47,8.68,.02,2.28,.06,4.56-.28,6.82,.34,2.58,.32,5.17,.31,7.76-.02,2.87,1.39,4.13,4.2,4.16,5.18,.05,10.36-.06,15.54,.06,5.95,.14,7.62,1.73,7.63,7.7,.01,7.16,.39,14.32-.24,21.47,.59,6.85,.28,13.71,.24,20.56-.02,3.69,1.28,5.29,5.07,5.17,5.02-.15,10.06-.07,15.09-.01,2.14,.02,4.3,.06,5.99,1.7,1.29,1.69,1.34,3.67,1.35,5.67,.03,14.33,.03,28.66,0,43,0,1.83,.01,3.67-.93,5.34-1.62,2.49-4.18,2.81-6.82,2.85-5.02,.09-10.05,.09-15.07,.02-3.28-.04-4.7,1.31-4.65,4.63,.08,5.02,.03,10.04,.01,15.07-.01,2.17-.14,4.28-1.85,5.91H439.27c-1.71-1.63-1.83-3.74-1.84-5.9-.03-5.01-.08-10.03,.01-15.04,.05-3.23-1.16-4.76-4.53-4.68-4.86,.12-9.72,.08-14.58,.01-3.29-.05-4.67,1.41-4.64,4.66,.04,5.01,.02,10.02-.01,15.04-.05,2.15-.17,4.26-1.88,5.89Z" style="fill:#080607;"/><path d="M82.43,1098c-26.23,0-52.46-.07-78.68,.09-3.14,.02-3.75-.62-3.75-3.75,.1-108.57,.09-217.14,.09-325.71,.78-.72,1.61-1.51,2.69-1.54,8.08-.23,16.17-1.18,24.2,.58,.55,.28,.99,.68,1.34,1.18,1.45,2.49,1.07,5.25,1.05,7.92-.06,6.45,.33,12.91-.25,19.35,.44,9.1,.48,18.21,0,27.31,.57,6.68,.14,13.38,.29,20.07,.11,4.97,.6,5.55,5.52,5.57,13.69,.08,27.38,0,41.07,.04,2.42,.01,4.92-.18,6.91,1.68,1.44,1.81,1.39,3.97,1.39,6.1,.03,78.25,.03,156.5,0,234.75,.01,2.31,.02,4.61-1.87,6.36Z" style="fill:#080607;"/><path d="M82.43,1098c-.01-82.3-.02-164.6-.04-246.9,.94-1.42,2.4-1.86,3.95-1.9,6.7-.17,13.39-.18,20.09,0,1.4,.04,2.69,.5,3.77,1.43,2.17,2.63,1.53,5.8,1.53,8.79,.04,57.14,.03,114.29,.03,171.43,0,19.96,.02,39.92-.01,59.89,0,2.57,.31,5.25-1.88,7.27-9.14-.01-18.29-.01-27.44-.01Z" style="fill:#582f11;"/><path d="M109.88,1098c0-82.3,.01-164.6,.01-246.9,.68-1.14,1.81-1.72,3.01-1.73,7.77-.12,15.57-1,23.31,.51,.53,.29,.94,.7,1.24,1.23-.04,5.03-.11,10.06-.11,15.09-.01,77.27-.01,154.54-.01,231.82-9.15-.02-18.3-.02-27.45-.02Z" style="fill:#4b270f;"/><path d="M.09,192.23C.09,129.41,.12,66.58,0,3.76,0,.63,.6-.11,3.75,.01c7.92,.29,15.86,.09,23.78,.09,1.85,1.73,1.86,4,1.86,6.28,.01,7.53,.02,15.06,.01,22.59-.47,2.55-.75,5.11-.11,7.68-.03,2.57-.69,5.16,.11,7.72-.02,14.53,.03,29.07,.01,43.6-.71,3.78-.25,7.55-.18,11.35,.25,12.63,.48,25.26-.11,37.89,.42,9.19,.47,18.38,0,27.57,.54,7.69,.21,15.38,.21,23.07,0,1.69-.37,3.3-1.54,4.62-1.31,1.2-2.91,1.55-4.61,1.58-6.2,.1-12.41,.09-18.61,.01-1.73-.03-3.25-.57-4.48-1.83Z" style="fill:#4b270f;"/><path d="M82.43,.1c.01,9.46,.02,18.91,.03,28.37,1.34,1.83,1.36,3.93,1.35,6.08-.04,15.31-.02,30.62-.02,45.92-.52,9.8,1.15,19.59,.23,29.4,.54,7.8,.2,15.6,.22,23.4,0,1.54-.41,2.97-1.33,4.22-.64,.67-1.44,1.25-2.32,1.3-8.37,.42-16.75,1.26-25.08-.51-.55-.28-1-.68-1.36-1.18-.63-1.07-.98-2.23-.98-3.47,.03-12.75-.43-25.5,.23-38.24,.44-5,.09-10,.2-15.01,0-14.76,.25-29.53-.09-44.28-.23-9.88-.44-19.76-.42-29.64,0-2.3-.01-4.61,1.87-6.35,9.17-.01,18.32-.01,27.47-.01Z" style="fill:#4b270f;"/><path d="M.09,384.36v-54.89c.45-.41,.9-1.02,1.44-1.08,8.71-.99,17.42-1.86,26.06,.51,1.69,1.64,1.76,3.78,1.79,5.92,.05,4.56,0,9.12,.03,13.68,.04,6.38,.19,6.52,6.77,6.55,4.41,.02,8.82-.02,13.22,.02,2.14,.02,4.28,.03,6.02,1.6,1,1.22,1.39,2.66,1.38,4.19-.01,7.8,.37,15.6-.21,23.4,.42,9.19,.46,18.38,0,27.57,.55,7.71,.2,15.42,.22,23.13,0,1.7-.33,3.31-1.5,4.65-1.48,1.28-3.28,1.49-5.13,1.5-5.78,.05-11.57,.12-17.35-.02-5.43-.12-6.59-1.35-6.64-6.9-.07-7.3-.02-14.61-.02-21.91-.07-3.17,.26-6.35-.44-9.49-.12-4.07-.09-8.15-.04-12.23,.04-3.06-1.26-4.39-4.33-4.36-5.14,.05-10.27,.03-15.41-.01-2.15,0-4.25-.13-5.86-1.83Z" style="fill:#582f11;"/><path d="M219.65,40.35c.01-13.42,.01-26.84,.02-40.26h27.45c.01,9.16,.02,18.31,.02,27.47,1.74,1.62,1.84,3.73,1.85,5.9,.02,14.45,.03,28.9-.01,43.36-.01,1.99-.03,3.97-1.33,5.67-1.49,1.49-3.43,1.22-5.27,1.31-6.21,0-12.43,.09-18.64-.04-4.37-.09-5.77-1.33-5.86-5.72-.22-11.06-.13-22.12-.04-33.18,.01-1.74,.56-3.26,1.81-4.51Z" style="fill:#783f14;"/><path d="M1042.93,1069.67c3.42,1.83,7.09,.66,10.63,.83,4.53,.22,9.08,.03,13.62,.07,1.44,.01,3.18-.4,3.51,1.82,2.17,6.6,1.33,13.44,1.69,20.19,.11,2.03-.27,3.94-1.84,5.43h-54.9c0-7.76,.11-15.53-.05-23.28-.07-3.18,1.03-4.32,4.22-4.22,5.93,.19,11.87,.05,17.8,.05,1.83,0,3.67,.14,5.32-.89Z" style="fill:#0d0e0a;"/><path d="M.09,314.83v-7.32c1.39-1.58,3.26-1.36,5.08-1.38,5.46-.05,10.93,.16,14.1-.04-3.17,.14-8.64,.01-14.1,.04-1.82,.01-3.69,.2-5.08-1.37v-43.92c1.49-1.55,3.42-1.69,5.41-1.85,6.36-.52,12.88,1.3,19.09-2.03,2.45-1.31,3.26,1.31,3.32,3.41,.1,3.47-.06,6.95,1.05,10.32,.38,1.43,.06,2.87,.12,4.3,.51,10.8,.53,21.59,.01,32.39-.33,1.94-1.04,3.79-1.36,5.75-.21,1.3-1.01,2.25-2.46,2.21-1.63-.05-1.85-1.23-1.85-2.55,0-3.42-.01-6.83,.01-10.25-.04,3.29-.04,6.59-.01,9.88,.02,1.66-.27,3.38-2.07,3.55-7.12,.66-14.34,2.37-21.26-1.14Z" style="fill:#5a3b38;"/><path d="M27.51,238.89c-1.81-3.3-.7-6.86-.83-10.29-.2-5.3-.05-10.62-.05-16.63-1.56,2.44-.42,4.51-1.17,6.4-1.5-.98,.04-2.77-1.4-4.13,.68,5.19-2.18,5.7-6.14,5.51-5.93-.28-11.88-.07-17.82-.07v-27.45c9.12-.02,18.24-.05,27.36-.07,.23,.18,.47,.37,.7,.55,.88,1.13,1.19,2.46,1.19,3.84-.02,7.73,.36,15.47-.21,23.2,.52,4.77,.24,9.55,.24,14.32-.02,1.82-.25,3.61-1.87,4.82Z" style="fill:#5f3630;"/><path d="M411.8,1098c0-7.62,.09-15.24-.04-22.86-.06-3.3,1.16-4.71,4.54-4.63,6.24,.15,12.5,.16,18.74-.01,3.14-.09,4.34,.95,4.26,4.18-.18,7.77-.06,15.54-.06,23.32h-27.44Z" style="fill:#040404;"/><path d="M.09,314.83c6.25,0,12.5-.14,18.75,.05,3.24,.1,4.37-1.13,4.17-4.27-.19-3.01-.04-6.04,.88-9.07,0,3.04-.09,6.08,.04,9.12,.06,1.34-.82,3.62,1.41,3.65,1.85,.02,1.14-2.11,1.27-3.36,.12-1.2-.09-2.46,.86-3.44,1.09,.73,1.66,1.84,1.74,3.06,.35,5.29,.36,10.58,0,15.87-.08,1.22-.65,2.33-1.75,3.05-9.12-.01-18.25-.02-27.37-.03v-14.63Z" style="fill:#573d3c;"/><path d="M.09,304.76H21.15c.01,.65,.02,1.31,.03,1.96-6.92,1.65-14.07,.38-21.09,.79v-2.75Z" style="fill:#573d3c;"/><path d="M603.95,768.59c-.01,7.77-.13,15.54,.04,23.31,.07,3.04-.63,4.29-3.99,4.25-15.69-.16-31.39-.13-47.08-.02-2.92,.02-4.03-.77-3.94-3.84,.2-6.7-.06-13.41,.11-20.11,.07-2.85-.96-3.65-3.7-3.61-7.92,.11-15.84-.02-23.77-.05-1.97-1.51-1.85-3.72-1.88-5.84-.07-4.88-.15-9.76,.01-14.63,.13-3.81-1.51-5.16-5.18-5.04-4.87,.15-9.76,.06-14.63,.02-2.14-.02-4.29,.01-6.09-1.46-1.64-1.87-1.55-4.18-1.56-6.44-.04-4.99-.08-9.98,0-14.96,.05-3.29-1.37-4.63-4.62-4.58-4.99,.08-9.98,.05-14.96,0-2.27-.02-4.57,0-6.4-1.72-.9-1.1-1.36-2.38-1.39-3.77-.17-6.82-.17-13.63,0-20.45,.03-1.23,.44-2.38,1.17-3.39,1.77-1.82,4.08-1.79,6.36-1.81,5.16-.06,10.33-.05,15.49-.02,3.09,.02,4.37-1.36,4.34-4.42-.05-5.01-.03-10.02,.01-15.03,.02-2.13-.04-4.29,1.67-5.95,1.69-1.94,3.97-2.02,6.29-2.03,5.03-.03,10.05-.05,15.08,0,3.05,.03,4.47-1.22,4.42-4.35-.07-5.03-.08-10.05,0-15.08,.05-3.14-1.33-4.38-4.4-4.33-4.87,.08-9.75,.13-14.62-.01-3.64-.11-4.83,1.59-4.75,4.99,.11,4.87,.04,9.75,.01,14.62-.01,2.33-.16,4.59-2.11,6.27-.23,.2-.44,.53-.7,.57-8.94,1.45-17.87,2.21-26.75-.43-1.92-2.16-1.59-4.83-1.59-7.39-.04-22.08-.01-44.16-.03-66.25-.01-7.01-.2-7.18-7.15-7.22-4.57-.03-9.14,.14-13.7-.08-4.6-.22-6.44-1.91-6.49-6.47-.19-15.23-.19-30.46,0-45.68,.06-4.56,1.86-6.17,6.56-6.36,4.72-.19,9.44-.04,14.16-.07,6.29-.05,6.62-.36,6.63-6.82,.02-20.86,.01-41.73,.01-62.59,0-1.68-.02-3.35,.02-5.03,.15-6.22,1.69-7.78,7.94-7.87,5.33-.08,10.66-.04,15.99,0,1.86,.01,3.67,.14,5.08,1.56,1.79,1.51,2.14,3.55,2.15,5.74,.02,3.94,.01,7.87,.02,11.81q.01,8.33,8.12,8.34c3.94,.01,7.87-.01,11.81,.02,1.99,.01,3.96,.1,5.48,1.66,1.93,1.68,2.02,3.96,2.03,6.27,.02,4.86,.1,9.72-.02,14.58-.08,3.4,1.12,5.07,4.74,4.96,4.85-.15,9.72-.09,14.58-.02,3,.05,4.51-1.07,4.46-4.25-.08-5.01-.1-10.02,.01-15.03,.07-3.41-1.56-4.54-4.74-4.49-5.01,.08-10.02,.03-15.03,0-2.16-.01-4.27-.16-5.88-1.89-1.69-1.63-1.8-3.73-1.81-5.89-.02-4.69,.03-9.38-.02-14.07-.06-5.05-.48-5.5-5.39-5.57-4.84-.07-9.68-.01-14.52-.03-2.18-.01-4.24-.28-5.81-2.01-.2-.23-.52-.43-.57-.69-1.67-8.99-2.36-17.97,.49-26.88,1.74-1.56,3.89-1.58,6.03-1.59,50.92-.04,101.84-.05,152.76,.01,6.35,.01,7.88,1.58,7.98,7.79,.09,5.18,.04,10.37,.01,15.55-.01,1.99,.02,4-1.51,5.57-1.6,2-3.83,2.23-6.16,2.24-5.01,.02-10.01,.1-15.02-.01-3.54-.08-4.89,1.45-4.8,4.91,.12,4.85,.05,9.71,.02,14.56-.01,2.13,.04,4.28-1.66,5.94-1.68,1.93-3.96,2.02-6.27,2.03-4.86,.02-9.72,.1-14.58-.02-3.4-.08-5.07,1.11-4.96,4.74,.15,4.85,.09,9.72,.02,14.58-.05,3.01,1.07,4.51,4.25,4.46,5.01-.08,10.03-.1,15.03,.01,3.41,.07,4.53-1.57,4.49-4.75-.08-5.01-.03-10.02,0-15.04,.01-2.16,.16-4.27,1.89-5.88,1.63-1.69,3.74-1.8,5.89-1.81,4.69-.02,9.38,.03,14.07-.03,5.04-.06,5.49-.49,5.56-5.4,.07-4.69,.01-9.38,.02-14.07,.01-2.31,.14-4.56,2.02-6.26,1.27-1.29,2.86-1.66,4.59-1.68,6.09-.06,12.18-.19,18.27,.05,4.32,.17,5.98,1.9,6.22,6.26,.24,4.41,.08,8.83,.09,13.24,.01,18.73-.02,37.46,.02,56.18,.01,6.13,.41,6.5,6.44,6.55,4.72,.04,9.44-.1,14.16,.07,4.94,.18,6.71,1.79,6.76,6.63,.16,15.07,.17,30.15-.01,45.22-.06,4.81-1.88,6.49-6.76,6.68-4.87,.19-9.74,.02-14.62,.08-5.47,.07-5.96,.53-5.97,6.09-.04,22.38,0,44.76-.04,67.15,0,2.56,.35,5.23-1.45,7.46-1.04,.98-2.33,1.47-3.72,1.51-6.83,.21-13.67,.19-20.5,.01-1.25-.03-2.35-.55-3.27-1.41-2-1.61-2.21-3.86-2.22-6.2-.03-5.03-.07-10.06,.01-15.08,.05-3.24-1.2-4.76-4.57-4.69-4.87,.11-9.75,.11-14.62,0-3.37-.08-4.62,1.43-4.57,4.68,.08,5.03,.03,10.05,.01,15.08-.01,2.17-.14,4.29-1.89,5.89-4.22,3.18-8.97,1.51-13.54,1.53-4.59,.39-9.18,.48-13.77-.01-4.47,.39-8.95,.52-13.42-.01-2.69,.28-5.39,.4-8.09,.27-3.13-.15-4.37,1.29-4.21,4.32,.14,2.7-.04,5.4-.25,8.1,.47,8.9,.49,17.79,0,26.68,.27,2.41,.41,4.84,.27,7.26-.21,3.5,1.32,4.91,4.82,4.88,9.4-.08,18.81-.04,28.21-.02,1.97,0,3.95-.09,5.89,.3,2.56-.25,5.14-.42,7.71-.26,3.27,.21,4.76-1.08,4.62-4.47-.11-2.54-.32-5.19,1.23-7.5,1.93-1.9,4.43-1.61,6.81-1.73,5.06-.25,5.6-.68,5.63-4.89,.04-4.31-.57-5.13-5.3-5.19-4.4-.06-7.2-1.74-8.1-6.17-.67-6.22-.26-12.44-.29-18.66-.01-1.75,.59-3.27,1.85-4.51,.52-.32-.19,0,.34-.3,4-2.26,22.7-2.19,26.81,.09,1.93,1.66,2.1,3.91,2.1,6.23,.02,5.01,.07,10.01-.01,15.02-.05,3.3,1.38,4.65,4.64,4.6,5.16-.08,10.31-.05,15.47,.01,2.13,.02,4.27,.06,5.98,1.67,.98,1.24,1.31,2.69,1.34,4.23,.1,6.17,.07,12.34,.02,18.51-.02,1.88-.49,3.57-1.89,4.91l.07-.04c-7.75,.01-15.51,.19-23.26-.06-3.52-.11-4.42,1.09-4.29,4.42,.24,6.07-.22,12.18,.17,18.23,.27,4.23-1.29,5.15-5.16,4.95-5.91-.31-11.86,.09-17.78-.15-3.45-.14-4.88,.71-4.69,4.49,.32,6.37-.04,12.77,.14,19.15,.08,2.93-.78,4-3.83,3.93-7.9-.18-15.81-.05-23.72-.04-1.68-1.65-1.79-3.77-1.8-5.93-.03-5.17-.02-10.34-.02-15.51,0-2.83-1.2-4.19-4.1-4.17-5.32,.04-10.65-.02-15.97,.03-2.45,.02-3.61,1.18-3.63,3.63-.05,5.32,.01,10.65-.03,15.97-.02,2.9,1.34,4.1,4.17,4.1,5.17,0,10.34-.01,15.51,.02,2.14,.05,4.26,.15,5.9,1.84Z" style="fill:#528b13;"/><path d="M439.17,823.46l237.39,.06c1.37,0,2.77,.16,4.11-.03,4.33-.6,5.99,.98,5.7,5.51-.38,5.92-.23,11.89-.04,17.83,.11,3.23-1.11,4.21-4.26,4.19-15.09-.12-30.19,.07-45.28-.13-4.05-.05-5.77,.89-5.5,5.3,.37,6.08-.02,12.19,.14,18.29,.08,2.98-1.01,4.06-3.98,3.98-6.09-.15-12.21,.23-18.29-.14-4.4-.27-5.31,1.45-5.3,5.5,.12,46.2,.08,92.39,.08,138.59,0,14.48-.09,28.97,.07,43.45,.04,3.52-.92,4.92-4.64,4.76-6.09-.27-12.2-.27-18.29,0-3.7,.16-4.67-1.2-4.65-4.74,.13-22.41,.07-44.82,.07-67.24,0-28.97-.09-57.94,.1-86.9,.03-4.48-.93-6.33-5.77-5.98-5.91,.43-11.89-.01-17.83,.15-2.97,.08-4.07-1-3.99-3.98,.15-6.09-.23-12.21,.14-18.29,.26-4.4-1.42-5.5-5.5-5.3-5.93,.29-11.89-.05-17.83,.13-3.15,.1-4.36-.95-4.26-4.18,.19-6.25-.14-12.51,.13-18.75,.16-3.73-1.25-4.67-4.76-4.63-14.94,.15-29.88,.19-44.82-.02-4.1-.06-5.52,.98-5.48,5.32,.2,23.78-.03,47.57,.21,71.35,.05,4.68-1.27,5.96-5.9,5.86-14.02-.3-28.05-.11-42.08-.11q-7.03,0-7.03,7.25c0,5.03-.24,10.08,.08,15.09,.25,4.03-1.09,5.21-5.15,5.19-32.47-.15-64.95-.09-97.42-.09-1.22,0-2.45,.09-3.66-.01-2.84-.24-3.72,1.11-3.67,3.8,.11,6.25-.15,12.51,.1,18.75,.15,3.73-.99,5.04-4.87,4.99-15.09-.19-30.19,.03-45.28-.16-3.85-.05-5.05,1.21-4.89,4.97,.26,5.93-.09,11.89,.13,17.83,.13,3.47-.82,4.97-4.6,4.8-6.09-.28-12.2-.26-18.29-.01-3.63,.15-4.73-1.1-4.69-4.7,.17-14.79,.07-29.58,.07-44.37q0-5.89-6.1-5.9c-5.79,0-11.59-.11-17.38,.04-2.95,.08-4.08-.95-4.01-3.96,.15-6.4-.12-12.81,.11-19.21,.12-3.49-1.22-4.49-4.53-4.39-6.4,.2-12.81-.02-19.21,.09-2.7,.05-3.82-.86-3.81-3.69,.08-15.86,.08-31.71,0-47.57-.01-2.8,1.06-3.76,3.78-3.71,6.71,.12,13.42,.13,20.12,0,2.9-.06,3.65,1.26,3.61,3.88-.11,6.1,.22,12.21-.12,18.29-.23,4.24,1.19,5.41,5.4,5.4,42.54-.14,85.07-.09,127.61-.09,9,0,18-.17,26.98,.08,3.92,.11,5-1.32,4.84-5.02-.25-5.94,.1-11.9-.13-17.83-.14-3.55,.95-4.79,4.64-4.75,15.09,.18,30.19-.06,45.28,.17,4.1,.06,5.28-1.25,5.12-5.22-.3-7.46-.14-14.94-.16-22.41,.18-.2,.37-.41,.55-.62,4.81-2.17,9.89-.98,14.85-1.09,11.42-.26,10.08,1.08,10.34-10.33,.11-4.95-1.09-10.04,1.09-14.85,.19-.13,.4-.31,.61-.49Z" style="fill:#141011;"/><path d="M27.48,768.71c.07-9.18,.13-18.36,.2-27.54,2.14-2.39,5.02-1.85,7.71-1.85,30.3-.04,60.61-.02,90.91-.02,1.67,0,3.35-.01,5.02-.04,2.54-.04,4.02-1.14,4.07-3.82,.09-5.33,.1-10.66-.01-15.99-.05-2.38-1.22-3.64-3.64-3.76-1.67-.08-3.35-.07-5.02-.07-30.46-.01-60.91,.01-91.37-.02-2.69,0-5.56,.5-7.71-1.86-.07-3.96-.14-7.92-.21-11.89,.04-3.96,.21-7.93,.07-11.88-.09-2.78,.94-3.78,3.71-3.72,6.7,.13,13.41-.06,20.11,.08,2.79,.06,3.86-.93,3.69-3.71-.19-3.04-.11-6.09-.15-9.14,.04-3.5,.26-7.01,.07-10.5-.17-3.16,.91-4.28,4.14-4.21,7.76,.18,15.53,.04,23.29,.03,1.98,1.49,1.87,3.68,1.9,5.79,.08,5.15,.06,10.31,.02,15.47-.02,3.08,1.31,4.33,4.38,4.37,7.12,.08,14.25-.35,21.37,.27,9.11-.48,18.21-.46,27.32-.02,7.68-.55,15.36-.25,23.04-.19,2.32,.02,4.54,.52,5.48,3.12,.64,4.62-.01,9.31,.64,13.94,.38,3.95-.05,7.88-.37,11.81v11.76c.62,9.31,.62,18.64,.43,27.96-.77,6.16-.47,12.3-.02,18.46,.27,3.74,.34,7.53-.16,11.28-.48,2.81-.16,5.65-.26,8.47-.03,1.69,.1,3.43-1.32,4.74-.01,16.44-.16,32.88,.06,49.32,.06,4.27-.94,5.94-5.51,5.72-7.29-.34-14.6-.02-21.91,.02l-.28-.21c-1.7-1.67-1.7-3.81-1.71-5.96-.03-4.88-.08-9.76,0-14.63,.06-3.52-1.52-4.96-4.96-4.89-3.66,.08-7.32,0-10.97,0-28.2-.01-56.39,.01-84.59-.02-2.56,0-5.25,.39-7.31-1.76v-27.65c2.06-2.15,4.75-1.76,7.31-1.76,30.47-.03,60.93-.01,91.4-.02,1.68,0,3.35-.01,5.03-.04,2.56-.05,4-1.19,4.03-3.86,.08-5.33,.11-10.66-.02-15.99-.06-2.4-1.3-3.61-3.69-3.71-1.68-.07-3.35-.07-5.03-.07-30.47-.01-60.93,.01-91.4-.02-2.71,0-5.56,.42-7.74-1.85l-.04,.06Z" style="fill:#1f3707;"/><path d="M466.83,794.29c-.1-12.8-.19-25.6-.29-38.41-2.27-4.15-1.13-8.52-.82-12.84,1.15-1.96,2.87-3.24,5.11-3.42,6.53-.53,13.06-.4,19.6-.07,1.43,.07,2.52,1.01,3.76,1.53,7.92,.03,15.85,.16,23.77,.04,2.75-.04,3.74,.78,3.68,3.62-.15,7.92-.03,15.85-.02,23.77-.01,7.6-.14,15.2,.01,22.8,.07,3.55-1.27,4.83-4.82,4.8-15.2-.12-30.4-.07-45.59-.02-1.78,.02-3.28-.32-4.39-1.8Z" style="fill:#050505;"/><path d="M164.91,791.49h53.4c0,.25,0,.5,.01,.75h-51.78c1.55,1.62,2.88,1.04,3.98,1.05,14.02,.05,28.04,.01,42.06,.06,2.36,.01,5.05-.52,6.16,2.58-17.98,.03-35.96,.07-53.94,.1,.04-1.51,.08-3.02,.11-4.54Z" style="fill:#365e6a;"/><path d="M795.99,329.49c.06,9.12,.12,18.24,.18,27.36-1.1,1.52-2.73,1.88-4.44,1.87-25.99-.03-51.97,.39-77.96-.2-15.18,.58-30.38,.16-45.56,.25-10.18,.07-20.36,.04-30.53,0-2.27-.01-4.59,.15-6.53-1.44-.77-.78-1.32-1.74-1.37-2.8-.4-7.7-.57-15.41,.09-23.11,.06-.75,.54-1.4,.95-2.04,1.93-1.94,4.43-1.77,6.86-1.78,13.41-.04,26.82,.01,40.22-.03,6.15-.02,6.46-.35,6.49-6.47,.02-4.27-.04-8.53,.01-12.8,.03-3.08-1.36-4.42-4.41-4.42-5.33,0-10.67,.11-16-.06-5.18-.17-6.82-1.8-6.98-6.93-.16-5.18-.13-10.36-.03-15.54,.07-3.48-1.34-5-4.86-4.94-5.03,.09-10.06,.1-15.08-.02-5.76-.14-7.35-1.71-7.49-7.37-.12-4.57-.01-9.14-.04-13.71-.05-5.89-.4-6.29-6.17-6.31-12.95-.04-25.9,0-38.85-.02-8.9-.02-9.84-.98-9.86-10.06-.02-12.8,.02-25.6-.02-38.4-.02-6.01-.43-6.41-6.57-6.42-12.8-.03-25.6-.04-38.4,.01-5.78,.02-6.07,.41-6.18,6.33-.11,6.39,.33,12.8-.28,19.18,.57,7.6,.32,15.21,.19,22.81-.08,4.6-1.86,6.28-6.47,6.49-5.32,.23-10.65,.13-15.97,.06-3.45-.05-5,1.35-4.94,4.87,.09,5.17,.13,10.35-.03,15.52-.16,5.15-1.81,6.83-6.9,7.02-5.02,.18-10.04-.01-15.06,.08-4.74,.08-5.38,.64-5.41,5.22-.07,13.54-.07,27.08,0,40.62,.03,4.67,.6,5.18,5.34,5.27,4.87,.09,9.74,0,14.6,.04,2.14,.02,4.29,.05,6.02,1.61,.99,1.23,1.38,2.67,1.4,4.22,.1,6.49,.1,12.97,0,19.46-.02,1.55-.42,2.98-1.38,4.23-1.29,1.22-2.89,1.61-4.59,1.61-7.71-.02-15.42,.37-23.11-.22-14.75,.6-29.52,.12-44.28,.27-1.52,.02-3.05,.06-4.57,.02-3.1-.09-4.37,1.42-4.36,4.45,.02,5.17,.03,10.35-.02,15.53-.02,2.14-.03,4.29-1.62,6.02-1.79,1.48-3.95,1.42-6.08,1.43-14.3,.03-28.6,.03-42.9,0-2.13,0-4.29,.04-6.11-1.35-1.38-1.37-1.81-3.14-1.84-4.98-.11-6.21-.23-12.43,.04-18.64,.18-4.27,1.93-5.91,6.31-6.13,4.84-.25,9.7-.05,14.55-.09,6.14-.06,6.93-.88,6.99-7.2,.01-1.21,.01-2.42-.07-3.63-.69-3.45-.53-6.94-.34-10.41,.24-4.27,1.91-5.91,6.31-6.11,5.29-.25,10.6-.16,15.9-.06,3.62,.07,5.35-1.27,5.16-5.04-.27-5.29,.88-10.56,.43-15.86,.12-5.01,.93-5.93,5.68-6.04,4.85-.11,9.7-.05,14.54-.02,2.18,.01,4.23-.26,5.92-1.79,1.59-3.04,.7-6.3,.83-9.45,.22-5.32-.24-10.66,.31-15.99-.49-9.7-.47-19.39-.02-29.08-.54-6.77-.2-13.55-.23-20.32-.01-1.69,.32-3.3,1.44-4.65,1.74-1.56,3.89-1.57,6.03-1.57,15.07-.01,30.15-.09,45.21,.03,2.57,.04,2.88-1.58,2.57-3.59-.5-3.26-.45-6.52,.07-9.78,.22-4.76-.07-9.5-.41-14.24,.98-6.97,.25-13.98,.45-20.97,.13-4.56,1.35-6.05,5.89-6.26,5.32-.26,10.66-.17,15.98-.06,3.73,.08,5.18-1.48,5.11-5.17-.12-6.24-.09-12.48-.03-18.72,1.29-6.21-.44-12.42-.05-18.64,.37-5.91-.33-11.85,.35-17.77,.08-4.8-.54-9.58-.31-14.38,.1-2.14,.21-4.22,1.96-5.78,7.77-.01,15.54-.16,23.3,.03,3.26,.08,4.21-1.12,4.12-4.24-.18-6.54,.05-13.1-.09-19.64-.06-2.82,1.01-3.72,3.74-3.67,6.7,.13,13.4,.14,20.1,0,2.8-.06,3.72,.99,3.68,3.73-.1,7.31,.03,14.62,.07,21.92-.03,8.54,.01,17.07-.15,25.61-.05,2.77,.92,3.78,3.7,3.72,6.55-.14,13.11,.1,19.66-.1,3.21-.1,4.2,1,4.18,4.19-.1,15.7,.01,31.4,.04,47.1-.53,2.9,.66,4.08,3.55,3.55,6.55,.04,13.11,.21,19.66,.05,3.2-.08,4.22,.99,4.18,4.19-.12,12.04,.01,24.08,.05,36.12-.03,3.35,.13,6.72-.15,10.04-.31,3.59,.97,4.71,4.61,4.68,16.75-.17,33.51-.06,50.26-.05,.06,9.75,.12,19.5,.18,29.25-.03,7.31,.02,14.63-.14,21.94-.06,2.77,.93,3.79,3.71,3.72,6.7-.17,13.41-.12,20.11-.15,2.64-.16,3.79,.87,3.72,3.72-.18,6.55,.07,13.11-.11,19.65-.09,3.13,.87,4.34,4.13,4.24,6.39-.2,12.8,.08,19.2-.11,3.14-.09,4.34,.88,4.23,4.14-.21,6.24,.12,12.5-.13,18.74-.14,3.55,.91,4.74,4.6,4.7,16.8-.21,33.56-.1,50.32-.09Z" style="fill:#141011;"/><path d="M247.07,82.42c.02-18.29,.04-36.57,.07-54.86,9.14,0,18.27-.01,27.41-.01,.01,16.75,.1,33.5-.05,50.24-.03,3.57,1.01,4.83,4.66,4.72,7.61-.24,15.22-.06,22.84-.05,3.02,3.97,1.47,8.58,1.85,12.92-1.31,7.79,.21,15.58,.04,23.37-.03,1.65,.11,3.3-.02,4.96-.32,1.49-.57,2.98-.48,4.52,.85,15.49,.62,30.97-.01,46.46-.06,1.54,.22,3.03,.48,4.53-.4,4.47,1.22,9.18-1.54,13.38-1.08,.9-2.35,1.37-3.74,1.41-6.78,.16-13.57,.17-20.35,0-1.39-.04-2.66-.5-3.76-1.38-2.13-2.24-1.75-5.08-1.75-7.79-.04-21.95,0-43.89-.03-65.84-.01-7.02-.21-7.2-7.15-7.23-4.27-.02-8.53,.01-12.8-.02-2-.02-3.98-.1-5.66-1.4-1.3-1.24-1.73-2.85-1.74-4.54-.02-6.5-.4-13,.2-19.49,.12-.56,.23-1.12,.32-1.68,.15-.88,.65-1.57,1.21-2.22Z" style="fill:#4b270f;"/><path d="M27.52,768.64c34.91,0,69.82,.06,104.73-.09,3.96-.02,5.4,.94,5.17,5.07-.35,6.23-.19,12.5-.05,18.74,.06,2.72-.81,3.77-3.65,3.76-35.37-.1-70.73-.11-106.1-.15-.03-9.11-.07-18.22-.1-27.33Z" style="fill:#528b13;"/><path d="M27.62,823.62c35.33-.03,70.67-.05,106-.14,2.72-.01,3.81,.82,3.75,3.65-.18,7.91-.15,15.83-.2,23.75-9.09,.07-18.19,.14-27.28,.21h-27.49c-16.77-.04-33.54-.18-50.3-.04-3.54,.03-4.79-.87-4.64-4.56,.3-7.62,.13-15.25,.16-22.87Z" style="fill:#528b13;"/><path d="M742.76,300.46c.37,.34,.78,.71,1.2,1.09-.25,.11-.59,.39-.74,.31-.48-.25-.89-.64-1.32-.97,.24-.11,.48-.23,.86-.43Z" style="fill:#5b3b36;"/><path d="M686.23,713.75c-.01-9.12-.02-18.24-.04-27.37-2.6-4.39-2.6-23.26,0-27.65,.03-25.73,.14-51.46,0-77.19-.02-3.91,.82-5.39,5-5.14,6.37,.37,12.79,0,19.18,.14,2.6,.06,3.41-.87,3.4-3.43-.08-15.99-.1-31.97,.01-47.96,.02-2.85-.96-3.68-3.7-3.6-5.93,.16-11.87,.05-17.81,.05s-5.99,0-5.99-5.79c0-23.75-.09-47.51,.08-71.26,.03-4-.78-5.63-5.19-5.4-7.44,.38-14.92,.09-22.38,.08l.06,.06c-.01-7.61-.25-15.23,.06-22.83,.16-3.95-1.25-4.74-4.92-4.73-53.28,.12-106.56,.09-159.84,.09-.23-.2-.46-.4-.7-.6-.86-1.15-1.12-2.48-1.14-3.87-.09-6.1-.17-12.19,.02-18.28,.15-4.61,1.86-6.23,6.46-6.53,1.67-.11,3.35-.06,5.03-.06h172.81c1.37,0,2.74-.02,4.11,.03,5.59,.21,7.23,1.85,7.38,7.54,.13,4.87,.11,9.75,.03,14.63-.06,3.61,1.36,5.45,5.12,5.24,1.67-.09,3.35,0,5.03,0,75.43,0,150.87-.01,226.3,.03,2.99,0,6.14-.63,8.86,1.36,1.38,1.41,1.67,3.2,1.68,5.06,.07,15.37,.08,30.74,0,46.11-.01,1.23-.2,2.43-.79,3.53-.26,.55-.63,1-1.11,1.38-2.04,1.33-4.36,1.17-6.64,1.17-13.42,.03-26.83-.02-40.25,.03-5.64,.02-6.01,.42-6.07,5.93-.05,4.73,.07,9.45-.05,14.18-.14,5.48-1.72,7.1-7.12,7.27-4.72,.15-9.45,.01-14.18,.06-5.62,.06-6.03,.47-6.1,5.93-.04,2.9-.01,5.79-.01,8.69q0,12.82-13.05,12.82c-2.9,0-5.79-.04-8.69,.01-5.19,.09-5.63,.54-5.69,5.86-.05,4.57,.01,9.15-.03,13.72-.01,1.83,.06,3.67-.85,5.36-.26,.52-.62,.96-1.08,1.31-4.97,2.2-10.22,1-15.34,1.11-11.1,.24-10.12-.91-10.17,10.08-.02,3.5,.13,7.02-.07,10.51-.28,4.75-2.07,6.59-6.82,6.83-5.02,.25-10.06,.02-15.08,.1-5,.08-5.39,.48-5.46,5.6-.06,4.57,0,9.14-.03,13.72-.01,1.98,.08,3.98-.92,5.81-.28,.51-.67,.92-1.14,1.25-2.08,1.23-4.4,1.05-6.67,1.05-13.39,.03-26.78-.02-40.17,.03-5.56,.02-5.92,.42-5.97,6.01-.04,3.96-.04,7.91,0,11.87,.06,5.35,.44,5.79,5.69,5.81,13.39,.06,26.78,0,40.17,.03,2.12,0,4.27-.2,6.3,.71,.54,.25,1,.6,1.4,1.04,1.46,2.55,1.54,5.04-.39,7.41v3.66c-.08,5.48-.16,10.95-.24,16.43-16.77,.01-33.54,.14-50.3-.05-3.7-.04-4.65,1.15-4.57,4.68,.24,10.97,.17,21.95,.22,32.92-.05,4.54-.27,9.08-.09,13.61,.12,3.05-1.05,3.88-3.95,3.82-7.86-.14-15.73-.03-23.6-.02Z" style="fill:#080607;"/><path d="M905.76,549.01c-7.77,.01-15.54,.17-23.31-.03-3.27-.08-4.22,1.07-4.1,4.21,.24,5.93,.15,11.88,.19,17.82,.69,4.72-1.53,5.88-5.94,5.58-5.58-.38-11.22,.11-16.81-.17-3.69-.18-5.06,.85-4.93,4.75,.27,7.57,.02,15.15-.01,22.73-7.92,.01-15.83,.13-23.75-.01-2.82-.05-3.69,.95-3.65,3.7,.11,7.91,0,15.83-.03,23.74-2.01,1.64-4.37,1.94-6.86,1.94-13.85-.01-27.71,.01-41.56-.02-2.3,0-4.61,.06-6.36-1.84l-.06-.06c-2.69-4.31-2.67-23.14,.03-27.43h0c1.62-1.71,3.74-1.85,5.91-1.86,5.03-.03,10.05-.07,15.08,0,3.32,.05,4.66-1.4,4.61-4.67-.07-5.18-.1-10.36,.02-15.53,.13-5.29,1.93-7.09,7.22-7.22,5.18-.13,10.36-.1,15.53-.02,3.27,.04,4.72-1.29,4.67-4.61-.08-5.02-.03-10.05,0-15.08,.01-2.17,.15-4.28,1.86-5.91h0c1.62-1.72,3.72-1.85,5.89-1.87,5.01-.03,10.02-.06,15.04,0,3.28,.04,4.68-1.4,4.66-4.66-.03-5.01-.12-10.03,.05-15.03,.18-5.2,2.45-7.63,7.57-7.69,14.58-.17,29.16-.12,43.74-.01,2.16,.02,4.31,.3,5.29,2.72,0,8.86,0,17.69,.01,26.53Z" style="fill:#080607;"/><path d="M905.75,522.51c-1.5-.92-3.17-.91-4.85-.91-14.88,.01-29.77,.1-44.65-.06-3.88-.04-5.52,1.13-5.35,5.2,.25,6.06-.08,12.15,.12,18.22,.1,3.25-1.17,4.21-4.27,4.14-7.74-.16-15.49-.05-23.23-.05,0-7.77,.12-15.55-.05-23.32-.07-3.24,1.13-4.27,4.27-4.18,6.09,.18,12.2-.13,18.29,.12,3.69,.15,5.21-.9,5.02-4.83-.29-6.24,.03-12.5-.12-18.75-.07-2.98,1.01-4.06,3.99-3.98,6.09,.15,12.21-.23,18.29,.14,4.41,.27,5.5-1.44,5.29-5.51-.29-5.78,.1-11.59-.14-17.37-.15-3.57,.98-4.77,4.65-4.74,16.77,.17,33.54,.07,50.31,.07,1.48,1.12,1.79,2.74,1.82,4.44,.11,6.19,.09,12.38,.01,18.57-.02,1.74-.6,3.24-1.8,4.51l.04-.04c-1.78,1.78-4.05,1.81-6.34,1.81-4.99,.02-9.98,.05-14.97,0-3.06-.03-4.39,1.29-4.36,4.36,.05,5.29,.02,10.58,0,15.87-.01,1.81,.18,3.65-.95,5.26-.35,.35-.69,.69-1.02,1.03Z" style="fill:#141011;"/><path d="M906.76,521.49c-1.98-8.36-.57-16.83-.77-25.25-.06-2.41,2.18-2.07,3.78-2.08,7.87-.02,15.73,.01,23.6,.02-.02,7.86-.16,15.73-.01,23.59,.06,2.99-.97,3.95-3.92,3.87-7.55-.19-15.12-.12-22.68-.15Z" style="fill:#080607;"/><path d="M933.34,494.22c-.01-9.17-.02-18.35-.03-27.52h0c.67-.61,1.36-1.34,2.26-1.43,7.35-.76,14.72-.64,22.07-.07,1.4,.11,2.52,.97,3.01,2.41,0,8.83,.01,17.67,.01,26.5-9.11,.04-18.22,.07-27.32,.11Z" style="fill:#080607;"/><path d="M713.7,356.92c27.49-.02,54.98-.04,82.47-.06,61.43,.02,122.86,.04,184.29,.06q7.64,0,7.75,7.78c.01,.76,.08,1.52,.13,2.28-.02,5.78-.05,11.56-.07,17.33-1.22,1.68-3.04,1.88-4.88,1.88-7.58-.03-15.16,.33-22.73-.21-2.12,.27-4.25,.28-6.39,.28-76.93,0-153.87,0-230.8-.01-11.13,0-11.62-.49-11.62-11.54,0-4.11-.01-8.23,.02-12.34,0-2.04,.26-3.96,1.83-5.45Z" style="fill:#080607;"/><path d="M960.71,384.39c9.18-.03,18.37-.05,27.55-.08l-.04-.02c1.67,1.64,1.84,3.73,1.84,5.9,.02,14.41,.02,28.83,0,43.24,0,2.17-.18,4.26-1.84,5.89l.04-.03c-1.78,1.78-4.05,1.81-6.34,1.82-4.99,.02-9.98,.05-14.96,0-3.06-.03-4.39,1.29-4.36,4.36,.05,5.29,.02,10.58,0,15.87-.01,1.8,.18,3.65-.95,5.26-.34,.34-.67,.68-1.01,1.02-4.05-1.8-8.31-.7-12.46-.86-4.95-.19-9.92-.04-14.88-.04-.01-18.28-.01-36.56-.02-54.85,1.51-1.98,3.71-1.86,5.83-1.89,4.72-.07,9.45,.02,14.17-.04,5.13-.07,5.52-.44,5.59-5.44,.07-4.72,.01-9.45,.03-14.17,0-2.18,.1-4.3,1.81-5.94Z" style="fill:#141011;"/><path d="M961.66,466.59c-1.97-8.36-.57-16.83-.77-25.24-.06-2.42,2.18-2.07,3.78-2.07,7.86-.02,15.73,0,23.59,.01,.02,4.26,.04,8.52,.07,12.78-.04,3.62-.27,7.25-.08,10.86,.16,3.05-1.07,3.89-3.95,3.82-7.55-.18-15.1-.12-22.64-.16Z" style="fill:#090607;"/><path d="M27.6,137.4c9.12-.02,18.25-.04,27.37-.06h-.01c.61,.66,1.14,1.37,1.25,2.3,.27,7.08,.09,14.17,.1,21.25,0,1.5,.03,3.04-1.08,4.28-1.48,1.25-3.26,1.44-5.1,1.46-5.73,.04-11.45,.04-17.18,0-2.01-.01-3.92-.29-5.34-1.92,0-9.09,0-18.2,0-27.31Z" style="fill:#895f3f;"/><path d="M27.62,164.72c9.11,.01,18.23,.02,27.34,.03,1.35,.98,1.78,2.43,1.82,3.97,.17,6.49,.14,12.99,.01,19.49-.03,1.54-.5,2.97-1.47,4.2-1.15,1.11-2.59,1.56-4.13,1.6-6.5,.17-13,.14-19.5,.02-1.58-.03-2.95-.6-4.06-1.74l-.17-.13c.04-9.14,.1-18.29,.16-27.44Z" style="fill:#783f14;"/><path d="M27.56,29.39c1.38,2.43,1.37,4.86,0,7.29v-7.29Z" style="fill:#692d23;"/><path d="M136.4,27.53c1.96,5.4,.42,11.01,.95,16.5,2.75,14.25,1.69,28.67,1.85,43.03,.03,2.73,.06,5.47,.02,8.21-1.1,9.57-.7,19.19-.36,28.76,.48,13.56,.44,27.1,.08,40.66,.53,7.72,.2,15.45,.22,23.18,0,1.7-.33,3.32-1.46,4.67-1.06,.96-2.35,1.43-3.74,1.46-6.98,.18-13.96,.21-20.94-.02-1.23-.04-2.37-.51-3.35-1.29-1.23-1.29-1.61-2.9-1.61-4.6,.02-7.73-.36-15.46,.21-23.18-.41-9.18-.47-18.36,0-27.53-.43-9.18-.46-18.36-.01-27.54-.45-17.98-.46-35.96-.01-53.94-.53-7.92-.22-15.84-.21-23.76,0-3.41,1.24-5.41,5.22-5.09,7.12,.56,14.26-.51,21.39,.04,.64,.03,1.22,.12,1.75,.44Z" style="fill:#4b270f;"/><path d="M164.75,80.59c.01-16.13,.1-32.26-.04-48.38-.03-3.52,.92-4.89,4.63-4.74,6.38,.27,12.78,.16,19.17,.04,2.74-.05,3.8,.94,3.76,3.72-.12,6.69-.02,13.39-.01,20.08,1.77,1.33,1.32,3.27,1.33,5.04,.04,8.96,.02,17.92,.02,26.89-.45,8.89,1.19,17.76,.23,26.66,.54,7.7,.22,15.41,.21,23.11,0,1.7-.39,3.3-1.59,4.61-1.46,1.3-3.25,1.54-5.11,1.56-5.78,.06-11.56,.12-17.34-.01-5.35-.13-6.84-1.77-7.09-7.27-.32-7.3,.41-14.57,.4-21.86-.84-8.47-.3-16.96-.33-25.44-.02-1.54,.42-3,1.76-4.01Z" style="fill:#4b270f;"/><path d="M109.86,686.23c-7.77,.02-15.54-.08-23.3,.11-3.21,.08-4.25-1.07-4.19-4.23,.15-7.76,.02-15.53,0-23.3-.02-5.48-.03-10.96-.04-16.44,0-12.2,.01-24.39,.01-36.59v-56.73c.06-9.15,.11-18.31,.17-27.46,.34-.3,.62-.77,1.05-.86,8.26-1.86,16.57-1.3,24.86-.31,1.96,.24,2.79,2.22,3.13,4.11,.32,1.81,.22,3.65,.22,5.47,.01,49.35,.02,98.7-.02,148.06,0,2.84,.59,5.88-1.89,8.17Z" style="fill:#582f11;"/><path d="M109.84,137.32h-27.42c.01-9.14,.03-18.28,.04-27.42h27.38v27.42Z" style="fill:#783f14;"/><path d="M27.46,329.5c0-7.33,0-14.66,.01-21.98,.03-10.97,.05-21.95,.08-32.92,1.62-1.73,3.73-1.86,5.91-1.87,4.88-.02,9.76-.13,14.63,.02,3.8,.12,5.09-1.54,5.07-5.19-.08-13.57-.06-27.14-.02-40.7,.01-2.27-.24-4.6,.93-6.72,.3-.54,.72-.97,1.23-1.31,8.26-1.97,16.61-1.01,24.92-.59,2.21,.11,3.38,1.86,3.5,4.14,.11,2.13,.06,4.26,.08,6.39v34.7c.49,11.16,.62,22.32,.48,33.48-.03,2.06,.41,4.31-1.61,5.84-4.98,2.1-10.21,.95-15.33,1.05-11.43,.23-10.46-.93-10.48,10.72-.03,12.02,.02,24.03-.03,36.05-.01,2.26,.23,4.63-1.86,6.3-7.92,.01-15.84-.07-23.76,.06-2.76,.04-3.76-.93-3.72-3.71,.11-7.93,0-15.85-.03-23.76Z" style="fill:#895f3f;"/><path d="M54.97,356.9c0-16.76,.1-33.52-.07-50.28-.04-3.62,1.09-4.79,4.7-4.67,7.61,.25,15.23,.11,22.85,.13,.79,.56,1.14,1.35,1.24,2.29,.27,13.27,.01,26.54,.1,39.81-.06,11.17,.88,22.31,.51,33.48-.08,2.4,.18,4.87-1.56,6.9-1.29,1.22-2.9,1.59-4.6,1.62-6.21,.11-12.42,.09-18.63,.01-1.74-.02-3.27-.54-4.51-1.81,0-9.16-.01-18.32-.03-27.48Z" style="fill:#783f14;"/><path d="M82.49,439.3c-9.16-.04-18.33-.08-27.49-.11,0-9.13,.01-18.26,.01-27.4,.45-.42,.9-1.03,1.45-1.08,8.73-.91,17.47-1.96,26.12,.6,.43,.43,.94,.9,1,1.47,.92,8.65,1.69,17.31-.41,25.91-.23,.21-.46,.41-.68,.61Z" style="fill:#783f14;"/><path d="M26.62,411.81c.37-3.03-.87-6.21,.86-9.11-.01,3.04-.02,6.08-.03,9.12-.27-.01-.55-.01-.83-.01Z" style="fill:#4f4546;"/><path d="M109.86,686.23c0-53.15-.03-106.31,.09-159.46,.01-3.89-.89-5.44-5.06-5.26-7.45,.32-14.92,.09-22.38,.09-.06-4.27-.12-8.53-.18-12.8,.01-18.3,.01-36.6,.02-54.89,.05-4.87,.09-9.73,.14-14.6l-.07-.07c1.64-1.7,3.75-1.83,5.92-1.84,4.87-.02,9.75-.13,14.62,.02,3.78,.12,5.1-1.52,5.08-5.18-.08-13.71-.03-27.42-.04-41.13,0-2.29,.01-4.57,.28-6.84-.46-13.41-.46-26.82-.02-40.23-.41-3.63-.36-7.28-.15-10.91,.15-2.66,1.38-4.97,4.2-5.17,7.85-.56,15.73-.82,23.58,.17,.58,.07,1.09,.51,1.59,.86,1.24,1.26,1.65,2.86,1.65,4.56-.01,7.69,.38,15.38-.21,23.05,.54,6.96,.28,13.93,.22,20.89-.03,3.74,1.45,5.16,5.13,5.05,4.84-.15,9.7-.06,14.54-.02,2.28,.02,4.58,.01,6.39,1.77,1.08,1.37,1.39,2.97,1.41,4.66,.07,6.02,.09,12.04-.01,18.06-.06,3.33-1.12,5.93-4.95,6.35-5.74,.65-11.51,.14-17.26,.31-4.68,.14-5.06,.55-5.2,5.33-.21,6.81,.48,13.65-.43,20.45-.71,9.08,1.12,18.15,.17,27.23,.43,9.18,.45,18.37,.01,27.55,.62,16.26,.21,32.53,.24,48.8,.02,11.1,.38,22.2-.24,33.29,.41,9.22,.46,18.43,0,27.65,.43,18.26,.48,36.51,0,54.76,.54,7.51,.18,15.04,.24,22.56,.01,1.87-.38,3.59-1.81,4.93-9.18,0-18.34,0-27.51,0Z" style="fill:#4b270f;"/><path d="M988.23,439.32v-55.03c7.84,.02,15.68,.06,23.51,.06,2.02,0,4.08-.2,4.05,2.76-.05,15.76-.2,31.53-.07,47.29,.03,3.67-.85,5.08-4.76,4.94-7.56-.28-15.15-.04-22.73-.02Z" style="fill:#080607;"/><path d="M247.07,84.27c-1.64-.28-3.85,.86-4.53-1.81,1.51-.01,3.02-.02,4.53-.04v1.85Z" style="fill:#682f26;"/><path d="M55,219.66c-.01,16.68-.11,33.36,.05,50.04,.04,3.66-.85,5.11-4.77,4.96-7.57-.28-15.16-.07-22.74-.07-.01-1.22-.03-2.45-.05-3.67,0-10.67,.01-21.35,.01-32.02,.01-6.41,.03-12.82,.04-19.23,4.31-2.7,23.33-2.7,27.46-.01Z" style="fill:#4b270f;"/><path d="M27.64,713.73c34.73,0,69.46,.08,104.19-.1,4.39-.02,5.88,1.15,5.58,5.58-.37,5.61-.33,11.28-.01,16.9,.23,4-.99,5.18-5.08,5.16-34.88-.16-69.77-.1-104.65-.1-.09-.3-.18-.6-.27-.91,.09-8.84,.16-17.68,.24-26.53Z" style="fill:#528b13;"/><path d="M55,219.66H27.54c.02-9.12,.05-18.25,.07-27.37,9.11-.01,18.22-.03,27.33-.05,.23,.19,.46,.38,.69,.57,1.27,1.7,1.19,3.68,1.2,5.64,.03,5.13,.02,10.26,.01,15.39,0,2.16-.18,4.24-1.87,5.84l.03-.02Z" style="fill:#895f3f;"/><path d="M494.16,411.82c-.01,9.16-.03,18.31-.04,27.47l.06-.06c-7.46,.01-14.94,.31-22.38-.08-4.41-.23-5.21,1.4-5.19,5.4,.17,23.75,.08,47.51,.08,71.26q0,5.78-5.99,5.79c-6.09,0-12.18,.12-18.27-.05-2.8-.07-3.23,1.23-3.22,3.6,.07,15.99,.08,31.98-.01,47.96-.01,2.55,.8,3.48,3.4,3.43,6.54-.14,13.1,.18,19.64-.13,3.75-.18,4.54,1.19,4.52,4.67-.1,25.88-.01,51.77,.02,77.65,2.6,4.4,2.6,23.26,0,27.65-.03,9.12-.06,18.24-.09,27.36-.19,.21-.38,.42-.57,.63-.99,.68-2.18,.65-3.29,.88-6.38-.36-12.76-.04-19.14-.18-4.69-.11-6.01-1.3-6.23-5.86-.14-2.87-.27-5.77,.21-8.63-.84-3.79,.92-7.92-1.5-11.49-2.31-1.51-4.9-1.44-7.49-1.44-30.83,.01-61.66,.02-92.48-.01-2.25,0-4.58,.41-6.7-.79-.75-.6-1.14-1.4-1.3-2.33-1.16-7.52-.5-15.07-.41-22.61,.02-1.21,.55-2.35,1.4-3.28,2.3-2.04,5.14-1.63,7.84-1.64,30.34-.03,60.67-.02,91.01-.02,1.52,0,3.05-.06,4.57-.01,3.19,.09,4.81-1.25,4.77-4.59-.06-4.88-.03-9.76-.01-14.63,.01-3.07-1.43-4.42-4.46-4.43-4.27,0-8.54-.01-12.81-.02-18.75-.01-37.5,.03-56.25-.02-7.39-.02-8.74-1.42-8.8-8.86-.04-4.27,.04-8.54-.03-12.81-.08-5.14-.62-5.73-5.88-5.74-19.51-.05-39.03-.02-58.54-.02-3.66,0-7.32,.1-10.98-.05-5.09-.21-6.72-1.88-6.88-7.06-.14-4.57-.02-9.15-.05-13.72-.05-6.12-.46-6.58-6.44-6.6-13.11-.05-26.22,.02-39.33-.03-7.73-.03-9.04-1.36-9.1-9.06-.04-4.42-.1-8.84,.01-13.26,.09-3.74-1.57-5.21-5.23-5.13-4.72,.1-9.45,.08-14.18-.01-6.32-.11-7.97-1.64-8.02-7.81-.1-14.33-.1-28.66,0-42.99,.04-6.21,1.65-7.78,7.98-7.8,22.11-.08,44.21-.02,66.32-.03q7.99-.01,8.01-8.2c.01-12.65-.02-25.31,.02-37.96,.01-2.12-.22-4.29,.89-6.27,.28-.55,.68-1,1.18-1.36,1.2-.73,2.51-1.04,3.9-1.04,16.94,.04,33.88-.37,50.81,.21,16.82-.57,33.64-.18,50.46-.22,1.57,0,3,.41,4.14,1.55,1.95,1.65,2.13,3.9,2.13,6.24,.02,4.87,.12,9.74-.02,14.61-.11,3.78,1.54,5.07,5.19,5.05,13.69-.1,27.39-.08,41.08-.01,3.45,.02,5.04-1.23,4.94-4.8-.13-4.56,.04-9.13-.05-13.69-.08-4.59-.67-5.19-5.41-5.22-13.54-.07-27.09-.01-40.63-.03-2.59,0-5.23,.14-7.19-2.08-1.29-1.27-1.61-2.88-1.63-4.6-.07-5.93-.15-11.86,.03-17.79,.14-4.85,1.83-6.51,6.73-6.65,6.99-.2,13.99-.07,20.98-.07,25.55,0,51.09-.02,76.64,.01,2.56,0,5.24-.31,7.26,1.87v-.02Z" style="fill:#080607;"/><path d="M548.99,521.7c7.62-.03,15.24,.08,22.85-.17,3.55-.12,4.76,.93,4.72,4.62-.17,16.76-.06,33.52-.05,50.28,.28,.62,.11,1.09-.49,1.42-7.77,1.07-15.56,.37-23.35,.35-1.39,0-2.6-.67-3.56-1.72-.06-9.15-.11-18.31-.17-27.46-2.58-4.34-2.56-23.11,.05-27.32Z" style="fill:#2c4a0a;"/><path d="M494.19,741.09c-7.17,.03-14.34,.12-21.51,.06-2.22-.02-4.19,.32-5.85,1.87-2.03-1.41-1.9-3.58-1.99-5.67-.29-6.59,.81-13.15,.5-19.75,.01-.57,.06-1.13,.13-1.7,.15-.87,.66-1.55,1.23-2.18l-.03,.03c7.87,0,15.74,.1,23.6-.07,2.91-.06,3.98,.77,3.92,3.81-.16,7.86,0,15.73,0,23.6Z" style="fill:#080607;"/><path d="M631.38,548.91c-8.06,.04-16.12,.01-24.17,.18-2.69,.06-3.35-1.06-3.31-3.52,.11-6.84,.11-13.69-.01-20.53-.04-2.49,.7-3.54,3.35-3.49,8.05,.17,16.11,.15,24.17,.2,2.67,4.23,2.65,22.97-.03,27.16Z" style="fill:#091001;"/><path d="M631.38,548.91c.01-9.05,.02-18.1,.03-27.16,8.05-.05,16.1-.02,24.14-.19,2.69-.06,3.35,1.08,3.31,3.53-.11,6.83-.11,13.67,0,20.5,.04,2.48-.69,3.55-3.34,3.5-8.04-.17-16.09-.14-24.14-.18Z" style="fill:#971831;"/><path d="M548.99,521.7c-.01,9.1-.03,18.21-.04,27.31-9.12-.03-18.24-.07-27.36-.1-2.72-4.25-2.7-22.98,.03-27.16,9.13-.02,18.25-.03,27.37-.05Z" style="fill:#971831;"/><path d="M521.62,521.75c-.01,9.05-.02,18.11-.03,27.16-8.06,.04-16.12,.01-24.17,.18-2.69,.06-3.35-1.06-3.31-3.52,.11-6.84,.11-13.69-.01-20.53-.04-2.49,.7-3.54,3.35-3.49,8.06,.18,16.12,.15,24.17,.2Z" style="fill:#091001;"/><path d="M576.49,577.4c.01-.32,.02-.65,.02-.97,9.17,.06,18.34,.12,27.5,.17,2.58,4.23,2.58,23,0,27.22-9.17,.01-18.33,.02-27.5,.04-2.73-4.23-2.74-22.33-.02-26.46Z" style="fill:#2c4a0a;"/><path d="M604.01,603.83v-27.22c7.88-.04,15.77,0,23.65-.15,2.63-.05,3.84,.62,3.77,3.53-.17,6.82-.17,13.65,0,20.47,.07,2.93-1.15,3.58-3.77,3.53-7.88-.16-15.77-.12-23.65-.16Z" style="fill:#141011;"/><path d="M603.95,768.59c-7.77,.01-15.53-.09-23.3,.1-3.05,.07-4.36-.67-4.24-4.02,.24-6.69,.16-13.4,.03-20.1-.05-2.57,.84-3.48,3.42-3.43,6.85,.13,13.71,.16,20.55-.01,2.91-.07,3.6,1.11,3.55,3.77-.14,7.92-.07,15.83-.08,23.75,0,0,.07-.06,.07-.06Z" style="fill:#0e0e0c;"/><path d="M494.17,658.87c-.01-7.75,.09-15.5-.08-23.24-.06-3.02,.66-4.41,4.02-4.3,6.68,.22,13.37,.14,20.05,.03,2.56-.04,3.49,.9,3.45,3.45-.11,6.83-.14,13.67,.02,20.51,.07,2.92-1.21,3.59-3.82,3.56-7.9-.12-15.8-.06-23.7-.07l.06,.06Z" style="fill:#1f3707;"/><path d="M658.86,658.81c-9.17,0-18.34,.01-27.52,.01l.06,.06c-.01-7.74,.15-15.48-.09-23.22-.11-3.49,1.13-4.45,4.46-4.34,6.21,.22,12.45,.22,18.66,0,3.32-.12,4.58,.83,4.47,4.32-.24,7.73-.09,15.48-.1,23.22l.06-.05Z" style="fill:#1f3707;"/><path d="M631.35,466.67c.01,7.77-.1,15.55,.09,23.31,.07,3.07-.67,4.35-4.02,4.23-6.7-.24-13.41-.16-20.11-.03-2.58,.05-3.47-.83-3.42-3.41,.13-6.86,.17-13.72-.01-20.57-.08-2.92,1.1-3.59,3.76-3.55,7.92,.14,15.85,.07,23.77,.07l-.06-.05Z" style="fill:#080607;"/><path d="M521.56,466.74c7.77-.01,15.55,.1,23.31-.09,3.06-.07,4.35,.67,4.23,4.02-.24,6.7-.16,13.41-.03,20.11,.05,2.58-.84,3.46-3.42,3.41-6.85-.13-13.72-.16-20.57,.01-2.92,.08-3.59-1.09-3.55-3.76,.14-7.92,.06-15.85,.07-23.77,.02,.01-.04,.07-.04,.07Z" style="fill:#080607;"/><path d="M466.78,686.38v-27.65c9.13,.04,18.26,.09,27.39,.13l-.06-.06c.01,7.77-.1,15.54,.08,23.31,.07,3.12-.85,4.31-4.11,4.23-7.76-.16-15.53,.01-23.3,.04Z" style="fill:#1f3707;"/><path d="M494.11,439.29c8.04-.01,16.08,.06,24.12-.07,2.57-.04,3.44,.84,3.4,3.4-.13,8.04-.06,16.08-.07,24.12l.06-.06c-8.04,.01-16.08-.06-24.12,.07-2.57,.04-3.44-.84-3.4-3.4,.13-8.04,.06-16.08,.07-24.12l-.06,.06Z" style="fill:#080607;"/><path d="M631.41,466.74c-.01-8.04,.06-16.08-.07-24.12-.04-2.57,.84-3.44,3.4-3.4,8.04,.13,16.08,.06,24.12,.07l-.06-.06c.01,8.04-.06,16.08,.07,24.12,.04,2.57-.84,3.44-3.4,3.4-8.04-.13-16.08-.06-24.12-.07,0-.01,.06,.06,.06,.06Z" style="fill:#080607;"/><path d="M617.64,658.94c4.59-.02,9.17-.04,13.76-.06l-.06-.06c.07,7.96,.13,15.92,.19,23.87,.51,3.97,2.25,7.73,1.74,11.89-.24,1.97-.28,3.89-1.74,5.42-.05,3.61-.19,7.23-.13,10.84,.03,2.13-.81,2.97-2.92,2.91-3.61-.11-7.23-.08-10.84-.11-3.23-4.22-1.51-9.01-1.56-13.59-.44-4.64-.43-9.28-.01-13.92-.58-7.56-.21-15.13-.23-22.69,0-1.74,.48-3.3,1.8-4.5Z" style="fill:#0f0d0d;"/><path d="M686.19,658.73v27.65c-7.77-.04-15.54-.21-23.31-.04-3.26,.07-4.19-1.11-4.12-4.23,.18-7.77,.08-15.54,.09-23.31l-.06,.06c9.14-.04,18.27-.08,27.4-.13Z" style="fill:#1f3707;"/><path d="M617.55,686.22c-.01,4.6-.03,9.19-.04,13.79-1.57,1.84-3.71,1.85-5.86,1.86-9.72,.03-19.44,.03-29.15,0-2.14-.01-4.29-.02-5.85-1.87v-27.42c4.35-3.05,8.9-2.25,13.48-.69,.46,.35,.82,.79,1.09,1.3,1.11,2.28,.85,4.74,.84,7.15-.01,2.87,1.29,4.11,4.14,4.1,5.15-.02,10.31-.03,15.46,.02,2.12,0,4.27,.02,5.89,1.76Z" style="fill:#971832;"/><path d="M576.49,577.4c.01,8.82,.01,17.64,.02,26.46-7.93,.02-15.85-.03-23.78,.11-2.77,.05-3.78-.95-3.73-3.73,.14-7.92,.09-15.85,.12-23.78,7.37,.01,14.74,.02,22.11,.01,1.81,.02,3.62,0,5.26,.93Z" style="fill:#315901;"/><path d="M576.64,700c13.62,.01,27.24,.01,40.86,.02,.04,4.54,.09,9.08,.13,13.63-12.62,.03-25.25,0-37.87,.15-2.57,.03-3.51-.69-3.33-3.31,.24-3.49,.16-7,.21-10.49Z" style="fill:#e4f4d2;"/><path d="M617.55,686.22c-8.04,.02-16.09-.06-24.13,.12-2.63,.06-3.43-.82-3.26-3.34,.22-3.17,.15-6.36,.2-9.55,.96-2.55,3.26-2.37,5.33-2.53,6.24-.48,6.25-.46,6.58-6.93,.09-1.82,.11-3.66,1.66-5,4.57-.02,9.14-.04,13.71-.05-.03,9.09-.06,18.19-.09,27.28Z" style="fill:#e3f4d1;"/><path d="M562.75,698.32c0,3.35,.03,6.7-.01,10.05-.04,2.98-1.64,4.56-4.6,4.38-2.41-.15-4.8-.61-7.2-.96-1.86-.27-1.88-1.71-1.89-3.11-.01-6.39-.02-12.79,.01-19.18,0-1.2-.1-2.76,1.46-2.95,3.77-.47,7.59-.54,11.35,.05,1.37,.22,1.07,1.5,1.04,2.6-.09,3.04-.03,6.08-.03,9.13-.04-.01-.09-.01-.13-.01Z" style="fill:#538f17;"/><path d="M603.93,658.99c0,3.64,.03,7.28-.01,10.92-.02,1.82,.44,3.23-2.87,2.68-3.36-.56-7.24-.8-10.68,.86-.1-.3-.2-.59-.3-.89-2.54-4.57-2.74-9.12,.16-13.63,4.57,.02,9.13,.04,13.7,.06Z" style="fill:#e4f4d7;"/><path d="M590.23,658.93c-.05,4.54-.11,9.09-.16,13.63-4.48,.01-8.95,.01-13.43,.02q-.76-14.12,13.59-13.65Z" style="fill:#0c0e0b;"/><path d="M631.53,700v-17.31c.78,3.28,3.02,3.74,6.05,3.66,6.89-.19,10.01,5.12,7.1,11.58-.74,1.64-1.99,2.09-3.64,2.07-3.16-.03-6.33,0-9.51,0Z" style="fill:#539117;"/><path d="M411.71,850.92c-.02-8.52-.03-17.04-.05-25.56,.46-2.47,2.44-1.79,3.97-1.81,7.86-.08,15.72-.08,23.58-.1,.01,7.87-.07,15.75,.08,23.62,.06,2.96-1.02,4.01-3.96,3.95-7.87-.16-15.75-.09-23.62-.1Z" style="fill:#080607;"/><path d="M164.9,717.45c1.22,2.4,1.23,4.8,0,7.2-.01-2.4-.01-4.8,0-7.2Z" style="fill:#3b5a63;"/><path d="M494.14,411.8c-34.74,0-69.49,.08-104.23-.09-4.37-.02-5.86,1.11-5.65,5.59,.35,7.3,.08,14.62,.07,21.94l.02-.02h-54.85c-.76-.77-1.54-1.62-1.57-2.71-.25-8.02-1.12-16.06,.51-24.03,.25-.53,.61-.97,1.07-1.34,4.94-2.24,10.18-1.02,15.28-1.13,11.43-.25,10.07,1.02,10.33-10.32,.11-4.94-1.1-10.02,1.1-14.82,.21-.18,.42-.36,.63-.54,18.33,0,36.65-.01,54.98-.01,1.9-2,4.39-1.81,6.82-1.82,13.23-.03,26.46,.01,39.69-.02,6.15-.02,6.44-.33,6.48-6.44,.03-4.41,0-8.82,.02-13.23,.01-2.17,.15-4.28,1.87-5.89,9.16-.02,18.31-.03,27.47-.05,1.63-1.74,3.76-1.82,5.92-1.82,41.78-.03,83.56-.03,125.34,0,2.17,0,4.3,.09,5.92,1.82,27.45,.02,54.9,.04,82.35,.05,.01,7.47,.24,14.95-.07,22.4-.17,4.09,1.2,5.13,5.19,5.12,53.04-.12,106.08-.09,159.13-.08,27.59,0,55.18,.02,82.76,.03,.01,7.76-.09,15.53,.09,23.29,.08,3.22-1.08,4.25-4.24,4.18-7.76-.15-15.52-.02-23.29,0-80.02-.02-160.03-.03-240.05-.05q-6.96,0-6.96-6.83c0-5.49-.15-10.98,.06-16.46,.12-3.19-.99-4.26-4.19-4.22-13.11,.14-26.21,.06-39.32,.06h-142.66q-6,0-6.01,5.95c-.01,7.17-.01,14.33-.01,21.49Z" style="fill:#2a2627;"/><path d="M521.61,219.69c-.01-7.77,.1-15.54-.07-23.3-.07-3.19,1.05-4.24,4.22-4.21,15.53,.12,31.07,.12,46.61,0,3.23-.03,4.2,1.14,4.17,4.26-.12,15.08,.12,30.16-.15,45.23-.08,4.54,1.43,5.62,5.72,5.55,14.47-.24,28.94,.07,43.4-.19,4.48-.08,6.32,.94,5.97,5.77-.43,5.91,.01,11.88-.14,17.81-.08,2.94,.95,4.08,3.95,4.01,6.55-.15,13.1,.06,19.65-.09,3.01-.07,4.01,1.09,3.94,4.02-.15,5.78-.05,11.57-.04,17.36q0,6.1,6.33,6.11c5.64,0,11.28,.13,16.9-.05,3.13-.1,4.37,.93,4.27,4.17-.19,6.24-.24,12.5,.02,18.73,.15,3.66-1.15,4.7-4.72,4.67-16.75-.15-33.51-.06-50.26-.05-1.61,1.74-3.73,1.85-5.9,1.86-23.6,.03-47.2,.03-70.8-.01-1.98,0-3.98,0-5.68-1.28-1.69-1.64-1.77-3.78-1.8-5.93-.06-5.03-.12-10.06,.01-15.08,.1-3.67-1.32-5.29-5.09-5.18-5.02,.14-10.06,.12-15.08-.01-5.53-.14-7.13-1.68-7.26-7.09-.13-5.64-.15-11.28,.01-16.91,.15-5.34,1.83-6.95,7.31-7.11,4.87-.14,9.75,.02,14.63-.07,4.75-.09,5.4-.64,5.42-5.24,.08-13.56,.08-27.12,0-40.68-.03-4.58-.66-5.11-5.44-5.19-4.72-.08-9.45-.01-14.17-.03-2.19,0-4.31-.12-5.93-1.85Z" style="fill:#1d1b1c;"/><path d="M521.61,219.69c7.77,0,15.55,.11,23.31-.07,3.25-.08,4.19,1.15,4.17,4.27-.11,15.54-.13,31.09,.01,46.63,.03,3.33-1.3,4.17-4.34,4.09-6.4-.16-12.8,.06-19.2-.09-2.95-.07-4.08,.96-4.01,3.96,.15,6.55,.16,13.11,0,19.66-.07,3.04,1.14,3.99,4.05,3.92,6.24-.15,12.5,.12,18.74-.1,3.5-.12,4.91,.86,4.78,4.61-.27,7.61-.09,15.24-.1,22.86-1.49,1.97-3.67,1.89-5.79,1.9-14.39,.05-28.78,.04-43.18,.01-2.16,0-4.26-.11-5.88-1.83-7.76-.02-15.52-.14-23.27,.01-3.13,.06-4.28-.93-4.25-4.16,.13-15.52,.15-31.03-.01-46.55-.04-3.57,1.37-4.39,4.6-4.29,6.23,.19,12.48-.07,18.71,.11,3.12,.09,4.37-.9,4.27-4.15-.19-6.38,.07-12.78-.11-19.16-.09-3.15,.96-4.33,4.18-4.24,6.54,.19,13.08-.03,19.62,.09,2.76,.05,3.77-.98,3.73-3.74-.12-7.91-.04-15.83-.03-23.74Z" style="fill:#2a2627;"/><path d="M494.17,329.51c18.28-.03,36.57-.06,54.85-.09,27.45,.02,54.9,.04,82.35,.06,0,9.13-.01,18.26-.01,27.38h-137.19c0-9.11,0-18.23,0-27.35Z" style="fill:#080607;"/><path d="M466.7,356.92c0,7.62-.18,15.24,.06,22.85,.12,3.63-1.08,4.71-4.68,4.67-16.75-.18-33.51-.1-50.26-.12-.01-7.61,.16-15.23-.09-22.83-.12-3.69,1.21-4.67,4.74-4.64,16.74,.15,33.49,.07,50.23,.07Z" style="fill:#080607;"/><path d="M302,247.12c-7.76,0-15.52,.12-23.28-.05-3.18-.07-4.28,1.03-4.21,4.21,.16,7.76,.04,15.52,.03,23.28-9.13,0-18.26,0-27.38,.01-1.97-1.5-1.88-3.69-1.89-5.81-.05-14.57-.04-29.15-.01-43.72,0-1.83,.07-3.66,1.16-5.24,1.71-1.92,4.02-1.92,6.31-1.95,4.71-.06,9.43,.02,14.14-.03,5.37-.06,5.76-.44,5.82-5.67,.05-4.56-.01-9.12,.03-13.69,.02-1.97-.07-3.98,1.19-5.7,.22-.18,.44-.35,.66-.53,9.14,.01,18.29,.01,27.43,.02,.01,4.27,.03,8.54,.04,12.82,.06,.14,.19,.28,.18,.41-.42,8.76,1.7,17.34,1.7,26.09,0,5.3-.34,10.48-1.92,15.55Z" style="fill:#783f14;"/><path d="M247.17,109.8c7.61,.03,15.23,.25,22.84,.01,3.72-.12,4.63,1.23,4.61,4.74-.12,25.89-.06,51.78-.06,77.67h0c-.79,.73-1.62,1.52-2.71,1.55-7.84,.25-15.69,1.11-23.5-.51-1.11-.56-1.89-1.43-2.29-2.61-.63-3.91-.19-7.86-.31-11.79v-3.33c-.03-2.52,.09-5.04-.13-7.55-.68-10.22-.5-20.45-.11-30.67-.55-7.6-.2-15.2-.23-22.8-.01-1.74,.47-3.3,1.77-4.53l.12-.18Z" style="fill:#783f14;"/><path d="M823.52,549.04c0,7.76-.11,15.51,.05,23.26,.07,3.15-.97,4.33-4.19,4.24-6.53-.18-13.08,.03-19.61-.09-2.76-.05-3.79,.98-3.74,3.74,.12,6.54-.1,13.08,.09,19.61,.09,3.22-1.09,4.25-4.24,4.18-7.75-.16-15.51-.05-23.26-.05,0-7.77,.12-15.54-.05-23.3-.07-3.2,1.06-4.29,4.23-4.2,6.24,.18,12.49-.05,18.73,.09,3.34,.08,4.66-1.24,4.58-4.58-.14-6.24,.09-12.49-.09-18.73-.09-3.17,1-4.3,4.2-4.23,7.76,.18,15.53,.07,23.3,.06Z" style="fill:#141011;"/><path d="M768.62,603.94c-.01,9.14-.02,18.28-.03,27.43-16.75,.01-33.49-.07-50.24,.09-3.58,.04-4.86-1.03-4.7-4.68,.26-6.08,.26-12.18,0-18.26-.16-3.69,1.19-4.68,4.73-4.65,16.75,.15,33.5,.07,50.24,.07Z" style="fill:#141011;"/><path d="M137.36,356.96c-.03-9.16-.05-18.33-.08-27.49-1.69-1.64-1.81-3.75-1.81-5.91-.02-5.02-.08-10.03,.01-15.05,.06-3.29-1.32-4.69-4.61-4.64-5.01,.08-10.03,.04-15.05,0-2.28-.02-4.6,.05-6.44-1.69-.95-1.27-1.34-2.72-1.33-4.28,.06-16.28-.39-32.55,.22-48.83-.54-8.38-.19-16.76-.22-25.14-.01-1.56,.35-3.02,1.26-4.31,1.79-1.81,4.11-1.76,6.4-1.78,5.03-.05,10.06-.08,15.09,0,3.26,.05,4.73-1.27,4.67-4.6-.09-5.03-.03-10.06-.01-15.09,.01-2.17,.14-4.28,1.82-5.93,.03-9.13,.05-18.27,.08-27.4,1.09-1.16,2.45-1.81,4.02-1.8,6.92,.05,13.86-.62,20.76,.46,3.32,.28,4.37,2.57,4.4,5.38,.08,7.15,.46,14.3-.2,21.44-.85,9.72,.71,19.43,.31,29.14-1.24,6.66-.06,13.33-.04,20,.03,8.3-1.22,9.51-9.47,9.56-4.41,.03-8.82,.06-13.23,0-3.21-.05-4.79,1.22-4.74,4.57,.07,4.87,.08,9.73,0,14.6-.06,3.33,1.44,4.64,4.69,4.58,4.71-.08,9.43-.02,14.14-.01,1.98,.01,3.96-.05,5.84,.74,.56,.22,1.03,.55,1.44,.99,.33,.5,.56,1.04,.68,1.62,.89,12.56,.65,25.13,.23,37.71,.69,5.21,.59,10.42,.15,15.64,.09,9.01,1.23,18.04-.64,27-.29,.54-.69,.98-1.2,1.33-7.15,2.13-14.47,.59-21.7,1.01-2.01,.08-3.94-.25-5.44-1.82Z" style="fill:#783f14;"/><path d="M192.25,109.9c9.15,.01,18.3,.02,27.45,.02,.73,.78,1.49,1.62,1.52,2.7,.2,8.07,1.17,16.16-.61,24.18-.29,.55-.69,.99-1.19,1.34-6.83,2.18-13.85,.6-20.77,1.02-2.28,.14-4.6,.1-6.35-1.79l-.18-.11c.05-9.12,.09-18.24,.13-27.36Z" style="fill:#783f14;"/><path d="M219.66,137.35c.02-9.14,.03-18.29,.05-27.43,9.12,.02,18.24,.04,27.36,.05,.01,9.11,.01,18.22,.02,27.34-4.25,2.72-23.26,2.75-27.43,.04Z" style="fill:#895f3f;"/><path d="M240.18,84.27c-5.89,0-11.78,.01-17.67-.01-.54,0-1.08-.17-1.59-.69h19.36c-.03,.23-.07,.46-.1,.7Z" style="fill:#682f26;"/><path d="M82.43,384.37c9.12,.02,18.25,.03,27.37,.05,.03,16.92-.02,33.83,.14,50.75,.03,3.23-1.05,4.22-4.21,4.14-7.77-.18-15.54-.07-23.32-.08-.01-9.16-.03-18.31-.04-27.47,.02-9.13,.04-18.26,.06-27.39Z" style="fill:#895f3f;"/><path d="M274.53,439.22c.01,16.77-.07,33.54,.1,50.31,.04,3.62-1.09,4.72-4.7,4.69-23.94-.14-47.87-.07-71.81-.07q-5.9,0-5.9,6.09c0,14.64,.11,29.27-.07,43.91-.05,3.74,1.02,5.15,4.89,4.97,6.09-.28,12.2,.09,18.29-.14,3.47-.13,4.52,1.18,4.4,4.52-.21,5.94,.16,11.9-.13,17.83-.19,3.94,.95,5.32,5.09,5.25,14.94-.23,29.88,.04,44.82-.18,4.07-.06,5.37,1.18,5.14,5.2-.31,5.47-.08,10.97-.08,16.46q.01,5.87,6.12,5.88c23.48,0,46.96,.12,70.44-.1,4.62-.05,6.22,1.16,5.88,5.86-.41,5.61,.12,11.29-.17,16.91-.2,3.92,1.32,4.87,5.01,4.85,23.94-.14,47.87,.03,71.81-.16,4.33-.03,5.99,1.06,5.69,5.58-.37,5.62-.34,11.29-.01,16.91,.24,4.11-1.23,5.15-5.2,5.13-32.78-.14-65.56-.08-98.34-.08-2.13,0-4.27,.03-6.4,.05l.04,.02c-1.66-1.65-1.83-3.75-1.83-5.93-.01-4.57,.03-9.14-.02-13.71-.07-5.48-.52-5.97-6.08-5.99-21.48-.05-42.96-.01-64.44-.02-11.45,0-11.81-.36-11.82-11.77,0-3.2,.03-6.4-.01-9.6-.07-5.61-.45-6.04-5.96-6.06-12.03-.05-24.07-.01-36.1-.02-1.52,0-3.05,.01-4.57-.01-6.77-.11-8.15-1.51-8.23-8.47-.05-4.26,.02-8.53-.03-12.8-.06-5.74-.44-6.14-6.35-6.16-13.25-.04-26.51,.01-39.76-.03-2.42-.01-4.94,.23-6.82-1.84,0-27.46-.01-54.93-.01-82.39,1.62-1.74,3.75-1.81,5.9-1.82,5.02-.03,10.04-.08,15.06,.01,3.34,.06,4.63-1.4,4.57-4.67-.09-5.02-.03-10.04-.02-15.06,0-1.98-.03-3.96,.8-5.83,.24-.54,.58-.98,1.04-1.35,1.72-.89,3.58-.57,5.39-.57,13.86-.01,27.72,.02,41.58-.02,5.67-.01,6.01-.38,6.06-5.91,.05-4.72-.02-9.44,.03-14.16,.02-2.14,.06-4.29,1.68-6,1.8-1.43,3.95-1.36,6.07-1.36,14.22-.03,28.45-.04,42.67,.01,2.25,.02,4.62-.22,6.29,1.84Z" style="fill:#141011;"/><path d="M217.81,652.95c-.03-4.87-.12-9.75,.02-14.61,.11-3.76-1.49-5.12-5.17-5.1-13.55,.08-27.1,.06-40.65,.02-7.8-.03-9.04-1.27-9.1-8.98-.04-4.26,.04-8.53-.03-12.79-.08-5.15-.55-5.6-5.9-5.66-4.57-.05-9.13,0-13.7-.03-2.16-.01-4.29-.09-5.9-1.84,.01-9.15,.02-18.29,.03-27.44,16.62-.01,33.24,.12,49.85-.12,4.2-.06,5.22,1.43,5.04,5.3-.28,5.93,.08,11.89-.13,17.83-.12,3.39,1.04,4.5,4.44,4.47,15.09-.15,30.19,.1,45.27-.16,4.35-.07,5.53,1.39,5.31,5.49-.3,5.62,.15,11.29-.15,16.91-.21,3.97,1,5.26,5.11,5.23,23.78-.18,47.56-.09,71.34-.09q5.96,0,5.96,6.03c0,7.16-.02,14.33-.03,21.5" style="fill:#080607;"/><path d="M164.74,466.58c.01,7.46-.17,14.94,.11,22.39,.14,3.9-.88,5.45-5.06,5.27-7.45-.33-14.93-.1-22.39-.11-.02-9.14-.03-18.28-.05-27.43,.52-.32-.19,0,.34-.3,4.11-2.36,22.95-2.24,27.05,.18Z" style="fill:#080607;"/><path d="M274.52,439.23c.04-9.13,.08-18.26,.12-27.39,18.27-.03,36.53-.06,54.8-.09,.02,9.16,.04,18.32,.06,27.48-18.33,0-36.65,0-54.98,0Z" style="fill:#141011;"/><path d="M384.33,439.25c16.75,0,33.5,.09,50.24-.06,3.51-.03,4.91,.91,4.75,4.63-.27,6.38-.16,12.79-.04,19.18,.05,2.76-.99,3.75-3.74,3.74-15.83-.08-31.67-.08-47.5,0-2.77,.01-3.76-1.02-3.72-3.76,.11-7.92,.03-15.83,.03-23.75-.01,0-.02,.02-.02,.02Z" style="fill:#141011;"/><path d="M466.55,715.56c-1.23,.01-2.36-.13-2.58-1.67,.92-.06,1.83-.12,2.75-.18-.06,.62-.12,1.24-.17,1.85Z" style="fill:#375c66;"/><path d="M167.42,687.55c.55,2.07,.02,4.37-.82,6.68,0-2.19,.03-4.39-.02-6.58,0-.49,.02-.6,.84-.1Z" style="fill:#3c575e;"/><path d="M329.41,411.81c.02-7.87,.14-15.73-.01-23.6-.06-2.97,.94-3.95,3.9-3.9,7.56,.12,15.12-.04,22.68-.08,.3,.03,.61,.06,.92,.09,0,7.87-.1,15.73,.04,23.6,.05,2.95-.98,4-3.94,3.94-7.86-.15-15.73-.06-23.59-.05Z" style="fill:#080607;"/><path d="M164.76,384.38c.02-9.14,.04-18.28,.07-27.43l-.07-.07c.58-.48,1.12-1.18,1.86-1.24,8.36-.7,16.73-1.6,25.03,.57,.19,.23,.39,.46,.58,.69-.02,9.14-.04,18.28-.05,27.42-9.15,.03-18.29,.05-27.42,.06Z" style="fill:#4b270f;"/><path d="M219.66,329.46c.02,4.88,.04,9.77,.06,14.65-.02,3.04-.16,6.09-.02,9.13,.13,2.78-.99,3.75-3.74,3.71-7.91-.12-15.83-.04-23.74-.04h.01c-.73-.78-1.52-1.63-1.55-2.72-.22-8.03-1.14-16.09,.54-24.08,.27-.55,.65-1,1.13-1.36,5.54-2.2,11.34-.86,17.01-1.07,3.25-.12,6.67-.79,9.74,1.11,.19,.22,.38,.45,.56,.67Z" style="fill:#4b270f;"/><path d="M247.12,219.7c.01,18.29,.02,36.58,.03,54.87,0,10.07,0,20.13,.01,30.2v1.84c.66,2.74,.66,5.47,0,8.21-.01,3.66-.14,7.31,0,10.96,.11,2.77-.97,3.77-3.73,3.73-7.92-.12-15.84-.04-23.76-.04h.01c-1.27-1.24-1.83-2.77-1.83-4.52,.03-7.61-.36-15.23,.22-22.84-.42-9.16-.47-18.33,0-27.49-.43-9.17-.46-18.34-.01-27.51-.55-7.7-.2-15.4-.22-23.1-.01-1.7,.34-3.3,1.48-4.65,1.34-1.17,2.95-1.48,4.66-1.51,6.08-.08,12.15-.08,18.23,0,1.85,.01,3.66,.21,4.91,1.85Z" style="fill:#4b270f;"/><path d="M247.16,314.81v-8.21c.29,.3,.58,.6,.88,.91-.33,2.43,.77,5.03-.88,7.3Z" style="fill:#5a3b37;"/><path d="M247.09,190.39c-1.74-.39-2.88-.95-2.79-3.26,.22-5.74,.07-11.49,.99-17.29,0,2.21-.02,4.42,.01,6.63,.02,1.16-.31,2.7,1.8,2.05-.01,3.95-.01,7.91-.01,11.87Z" style="fill:#613630;"/><path d="M247.1,175.75c-1.38-2.43-1.38-4.86,0-7.29v7.29Z" style="fill:#613630;"/><path d="M192.16,190.4v-29.28c.05-7.91,.09-15.83,.14-23.74,9.13-.02,18.26-.04,27.39-.06,.02,14.64,.03,29.29,.05,43.93,.01,12.83,.01,25.65,.02,38.48-.05,9.11-.11,18.22-.16,27.33-7.75,.02-15.5-.07-23.25,.12-3.2,.08-4.39-1.04-4.17-4.21,.19-2.87,0-5.77-.03-8.66,0-14.63,0-29.27,0-43.91Z" style="fill:#895f3e;"/><path d="M164.87,465.8c0-8.84-.01-17.67-.01-26.51,18.26,.03,36.52,.06,54.78,.09,.01,7.76-.07,15.52,.07,23.28,.05,2.86-.79,4.1-3.87,4.08-15.67-.11-31.35-.05-47.02-.04-1.4,0-2.72-.2-3.95-.9Z" style="fill:#080607;"/><path d="M192.22,329.52c-.03-7.34-.05-14.67-.08-22.01-.54-4.27,1.14-5.82,5.58-5.59,7.27,.39,14.58,.14,21.87,.16,.03,9.13,.06,18.26,.09,27.39-9.16,.02-18.31,.03-27.46,.05Z" style="fill:#8b5f3f;"/></svg>